<svg version="1.1" id="レイヤー_1" xmlns="http://www.w3.org/2000/svg" xmlns:xlink="http://www.w3.org/1999/xlink" x="0" y="0" viewBox="0 0 301 157.4" style="enable-background:new 0 0 301 157.4" xml:space="preserve"><style>.st1{fill:#e73b30}.st2{fill:#fff}</style><switch><g><path style="fill:#292a4e" d="M0 0h301v157.4H0z"/><defs><path id="SVGID_1_" d="M0 0h301v157.4H0z"/></defs><use xlink:href="#SVGID_1_" style="overflow:visible;fill:#292a4e"/><clipPath id="SVGID_2_"><use xlink:href="#SVGID_1_" style="overflow:visible"/></clipPath><path class="st1" d="M286.7 117.6h-11.1c-2.6 0-4.8-2.2-4.8-4.8v-11.1c0-2.6 2.2-4.8 4.8-4.8h11.1c2.6 0 4.5 1.9 4.5 4.5v11.1c0 2.9-2 5.1-4.5 5.1zm-11.1-19.8c-2.1 0-3.9 1.7-3.9 3.9v11.1c0 2.1 1.7 3.9 3.9 3.9h11.1c2.2 0 3.6-2.2 3.6-4.2v-11.1c0-2.2-1.4-3.6-3.6-3.6h-11.1z"/><path class="st1" d="M285.2 105.4c.2.3.7.4 1.6.5 1.1.1 1.1 0 1.1 0s-.5-.6-1.6-.8c-1.3-.3-1.1.3-1.1.3zM284.6 103.9c.3-.2.5-.6.6-1.6.2-1 .1-1.1.1-1.1s-.7.5-.9 1.5c-.4 1.4.2 1.2.2 1.2zM287.1 103.7c.9-1 1.3-1.7 1.3-1.7s-1.4.2-2.9 1.3c-.7.6-1.2 1.5-1.1 1.6.3.4 1.9-.4 2.7-1.2zM278.4 108.4c-.5-.3-.6-.8-.7-1.8-.1-1.1.1-1.1.1-1.1s.9.7 1.2 1.9c.2 1.4-.6 1-.6 1zM277.6 110.3c-.3-.3-.8-.3-1.7-.1-1 .3-1 .4-1 .4s.7.6 1.8.5c1.3-.1.9-.8.9-.8zM276.1 106.8c-1.3-.7-2.1-.9-2.1-.9s.7 1.6 2.4 3c.8.7 1.9.9 1.9.7.2-.6-1.1-2.2-2.2-2.8zM284.5 110.4c.2.1.3.4.4.8.1.5 0 .5 0 .5s-.5-.3-.6-.8c-.2-.7.2-.5.2-.5zM284.9 109.5c.1.1.4.1.8 0 .5-.1.5-.2.5-.2s-.3-.3-.9-.2c-.7.1-.4.4-.4.4zM285.7 111.1c.6.3 1 .3 1 .3s-.4-.7-1.2-1.3c-.4-.3-.9-.4-1-.2-.1.2.6.9 1.2 1.2zM279.6 104.3v-3.8c0-.7.6-1.2 1.2-1.2h1.8c.7 0 1.2.6 1.2 1.2v3.8h-4.2zM283.8 110.1v4.1c0 .7-.6 1.2-1.2 1.2h-1.8c-.7 0-1.2-.6-1.2-1.2v-4.1h4.2zM279.5 104.7h4.3v4.9h-4.3z"/><path class="st2" d="M134.4 73.9v.6c0 .1 0 .1.1.2 0 .1 0 .1.1.1V75.6c0 .1 0 .1.1.1v.2c.1.1 0 .2.1.2v.2s0 .1.1.1v.6c.1.1 0 .2.1.3v.1c0 .1 0 .1.1.1v.1c0 .1 0 .1.1.2 0 0 0 .1.1.2v.2c0 .1 0 .1.1.2s.1.1.1.2v.2c0 .1 0 .1.1.1l.1.1c.1 0 0 .1.1.2.1 0 0 .1 0 .2v.1c.1 0 .1.1.1.2.1 0 .1.1.1.2v.1c.1 0 .1.1.1.2v.1c.1 0 0 .2.1.2v1.1c0 .1 0 .2.1.3v.2c0 .1 0 .1.1.2 0 .1 0 .1.1.2v.1c0 .1 0 .1.1.1v.1c0 .1 0 .1.1.2v.2l.1.1.1.1v.1c.1.1.1.1.1.2v.1l.1.1c.1 0 .1 0 .2.1 0 .1.1.1.2.1s.1.1.1.2v.4c.1 0 0 .1.1.1 0 0 .1 0 .1.1l.3.3h.4c.1 0 .1 0 .1.1h.1c0-.1.1-.1.2-.1l.1-.1c0-.1.1 0 .2-.1l.1-.1c.1 0 .2-.1.2-.2.1 0 .1-.1.2-.1s.1 0 .1-.1c.1-.1.1-.1.2-.1h.1l.1-.1c.1 0 .1-.1.2-.1l.1-.1c.1 0 .1 0 .2-.1l.1-.1c.1 0 .1-.1.2-.1l.1-.1c0-.1.1 0 .2-.1l.1-.1c.1 0 .1-.1.2-.1l.1-.1c.1 0 .1-.1.2-.1l.6-.6.2-.2c.1 0 .1-.1.2-.1s.1-.1.2-.1l.2-.2c.1 0 .1-.1.2-.1l.2-.2h.1l.1-.1 1.1-1.1.1-.1.1-.1.1-.1c.1-.1.1-.1.4-.2l.1-.1.1-.1c.1 0 .1-.1.2-.1s.1 0 .1-.1c0 0 .1-.1.2-.1l.2-.2c.1 0 .1-.1.1-.2.1-.1.1-.1.2-.1.1-.1.1-.1.2-.1s.1-.1.2-.1l.2-.2h.1c0-.1.1-.1.2-.1l.1-.1h.1l.1-.1c.1 0 .1 0 .2-.1H148.6c.1-.1.2-.1.3-.1.1 0 .2 0 .2-.1h1.1c.1 0 .1.1.2.1h.2c.1 0 .1 0 .1.1h.1c.1 0 .1 0 .2.1h.3c.1 0 .1 0 .1.1h.1c.1 0 .2 0 .3.1h.3c.1-.1.2-.1.3 0l.6.6s.1.1.2.1.1.1.2.1.1.1.2.1.1.1.2.1.2.1.2.2l.2.2c.1 0 .2.1.3.2.1 0 .1.1.2.1l.2.2c0 .1 0 .1.1.2l.1.1v.1c0 .1.1.1.1.1.1 0 .1.1.2.1v.1c0 .1 0 .1.1.2 0 0 0 .1.1.2v.9c-.1.1 0 .2-.1.2v.1c0 .1 0 .1-.1.1v.1l-.7.7h-.1l-.1.1c-.1 0-.1.1-.1.1-.1 0-.1 0-.1.1h-.1c-.1.1-.1.1-.2.1 0 .1-.1 0-.2.1l-.3.3-.3.3h-.1c-.1.1-.1.2-.3.2-.1 0-.1.1-.2.1-.2 0-.2.1-.3.2l-.2.2c-.1 0-.1.1-.2.1l-.2.2h-.1l-1 1s0 .1-.1.1l-.1.1-.1.1c0 .1-.1.1-.1.2l-.1.1-.1.1-.1.1c0 .1-.1.1-.1.2s-.1.1-.1.2 0 .1-.1.1c0 0 0 .1-.1.1v.1c0 .1-.1.1-.1.2s0 .1-.1.1v.1c-.1.1-.1.1-.1.2v.1c0 .1 0 .1-.1.2v.2c-.1 0-.1.1-.1.2v1.3c0 .1 0 .1.1.2 0 .1 0 .1.1.1v.1c0 .1 0 .2.1.2l.1.1.1.1c0 .1.1.1.1.2l.1.1c0 .1.1.1.1.2s.1.2.2.2c0 .1.1.2.2.3 0 .1.1.1.1.2s.1.1.2.1c.2.1.3.3.5.4.1 0 .2.1.2.1l.2.2v.1c0 .1 0 .1.1.1v.1c-.1.1-.1.1-.1.2s-.1.1-.1.2v.2c0 .1 0 .1-.1.2 0 .1 0 .1-.1.2l-.1.1s-.1.1-.2.1c-.1.1-.2.1-.3.1 0 .1 0 .1-.1.2 0 .1 0 .1-.1.2l-.1.1c0 .1-.1.1-.1.2l-.5.5c-.1.1-.1.1-.2.1-.1.1-.1.1-.2.1s-.1.1-.2.1h-.3c-.1-.1-.2-.1-.3-.1h-.5l-.1.1h-.3c-.1-.1-.1-.1-.2-.1h-.2c-.1 0-.1 0-.1-.1H146.7c0-.1-.2-.1-.2-.1H146.2s-.1 0-.1-.1h-.1l-.1-.1c-.1 0-.1 0-.2-.1-.1 0-.1-.1-.2-.1h-.1l-.2-.2h-.2l-.1-.1c-.1 0-.1 0-.1-.1h-.1c-.1-.1-.1-.1-.2-.1H144.2c0-.1-.2-.1-.2-.1h-.2c-.1 0-.1-.1-.2-.1l-.2-.2c-.1 0-.1-.1-.2-.1-.2-.1-.3-.3-.5-.4l-.1-.1c-.1 0-.1 0-.1-.1-.1 0-.1 0-.2-.1l-.1-.1c-.1 0-.1-.1-.2-.1l-.1-.1c-.1 0-.1-.1-.2-.1l-.1-.1c-.1 0-.2-.1-.2-.2 0 0-.1 0-.1-.1l-.1-.1c-.1 0-.1 0-.2-.1h-.1c-.1 0-.1 0-.1-.1-.1 0-.1 0-.1-.1h-.7c-.1 0-.1.1-.2.1v.1l-.2.2c0 .1-.1.2-.2.2l-.2.2-.5.5c-.1 0 0 .1-.1.2 0 .1-.1.1-.2.1l-.2.2c-.1 0-.1.1-.2.1s-.1.1-.2.1v.2c0 .1 0 .1-.1.1s-.1.1-.1.2V95.9c-.6.1-.6.1-.6.2s0 .1-.1.1v.2c0 .1 0 .1-.1.1 0 .1 0 .1-.1.2v.5c0 .1 0 .1-.1.1 0 0 0 .1-.1.1v.1c-.1.2-.1.2-.1.3V98.6c0 .1 0 .1-.1.1v.1c0 .1-.1.1-.1.2v.8c0 .1 0 .1.1.1 0 0 .1.1.1.2l.1.1c0 .1.1.1.1.1 0 .1.1 0 .2.1 0 .1.1.1.1.2l.1.1c0 .1 0 .1.1.1l.1.1c0 .1.1.1.1.2.1 0 .1 0 .2.1 0 .1.1.1.2.1s.1 0 .2.1c0 .1.1.1.2.1l.2.2c.1 0 .1.1.2.1h.2l.1.1c.1.1.1.1.2.1s.1 0 .1.1l.1.1c.1 0 .1.1.1.1h.1l.1.1c0 .1.1 0 .1.1s.1.1.1.1l.1.1c.1 0 .1.1.1.1.1.1.2 0 .2.1.1 0 .1 0 .2.1.1 0 .1 0 .1.1h.1c.1 0 .2 0 .2.1.1.1.2 0 .2.1H141.2c.1 0 .2 0 .2.1.1 0 .1 0 .1.1h.1c.1 0 .2 0 .2.1.1 0 .1 0 .1.1h.1l.1.1h.4l.1.1h.1c.1 0 .1 0 .1.1h.2c.1 0 .1 0 .1.1.1 0 .1 0 .2.1h.4c0 .1.1.1.2.1l.1.1h.1c.1 0 .1 0 .1.1H144.5c.1 0 .1 0 .1.1h.1c.1 0 .1.1.2.1h.4c.1 0 .1 0 .1.1h.1l.1.1h.3c.1 0 .2 0 .3.1h.3c.1 0 .1 0 .1.1h.7c.1 0 .1 0 .2.1h1.1c.1 0 .1 0 .2-.1h.2c.1 0 .2.1.3-.1h.4c.1-.1.1-.1.2-.1 0-.1.1 0 .2-.1l.1-.1h.1c.1 0 .1-.1.2-.2.1 0 .1-.1.2-.1l.2-.2.1-.1c.1 0 .1 0 .1-.1 0 0 .1 0 .1-.1l.1-.1H151.6s.1 0 .1-.1h.1l.1-.1c.1 0 .1 0 .1-.1 0 0 .1 0 .2-.1l.1-.1.1-.1.4-.4v-.1l.3-.3c0-.1.1-.2.2-.3.2 0 .2-.2.4-.3v-.1c0-.1 0-.1-.1-.1v-.2l-.5-.5s-.1-.1-.2 0c-.1 0-.1-.1-.2-.1h-.2l-.1-.1h-.5c.1-.1.1-.1.2-.1 0-.1.1-.1.2-.1h.5c.1 0 .3 0 .4.1h.3c.1 0 .2 0 .3.1h.8c.1.1.1.1.2.1h.6c.1 0 .1 0 .1.1h.1c.1 0 .1 0 .1.1h.1c.1 0 .1 0 .2.1.1 0 .2 0 .2.1.1 0 .1 0 .2.1.1 0 .1 0 .2.1.1 0 .1 0 .2.1.1 0 .1 0 .1.1 0 0 .1 0 .1.1l.1.1c.1 0 .2.1.2.1.1.1.1 0 .2.1l.1.1h.1c0 .1.1 0 .2.1l.1.1.1.1v.2l-.2.2v.4c0 .1 0 .1-.1.1l-.1.1c0 .1 0 .1-.1.1 0 .1 0 .1-.1.2l-.3.3c-.1 0-.1.1-.1.1h-.1c0 .1-.1.1-.1.1-.1.1-.1.1-.2.1h-.1c-.1.1-.2 0-.2.1-.1 0-.1 0-.2.1l-.1.1c-.1 0-.1.1-.2.1l-.1.1-.1.1c-.1 0-.1 0-.1.1-.1 0-.1 0-.2.1-.1 0-.1 0-.2.1-.1 0-.1.1-.2.1h-.1l-.2.2c-.1.1-.2 0-.2.1h-.4c-.1 0-.1 0-.1.1h-.1c-.1 0-.1 0-.2.1-.1 0-.1 0-.2.1h-.1c-.1 0-.1 0-.1.1l-.1.1s0 .1-.1.1-.1.1-.2.1-.1.1-.1.1H152.5c-.1 0-.1.1-.1.1h-.1l-.1.1-.3.3c-.1.1-.1.1-.2.1l-.1.1h-.3c-.1 0-.2 0-.2.1h-.3l-.1-.1h-.4c0 .1-.2 0-.2.1h-.2c-.1.1-.1.1-.2.1h-1.1c-.1 0-.2 0-.2-.1h-.5c0-.1-.2 0-.2-.1-.1-.1-.2 0-.2 0H147.2c-.1 0-.2 0-.3-.1H146.3l-.1.1H145c-.1 0-.1 0-.1.1h-.4c0-.1-.2 0-.2-.1H143.1c-.1 0-.2 0-.3-.1h-1s-.1 0-.1-.1h-.4c-.1 0-.1 0-.1-.1h-.1c-.1 0-.1 0-.2-.1h-1c-.1 0-.1 0-.1-.1H138.6c0-.1-.1 0-.2-.1l-.1-.1h-.2l-.1-.1c-.1 0-.1 0-.1-.1h-.1c-.1 0-.1 0-.2-.1h-.1c-.1 0-.1 0-.2-.1-.1 0-.1 0-.2-.1h-.2c0-.1-.1-.1-.1-.1 0-.1-.1 0-.2-.1s-.1-.1-.2 0c-.1 0-.1 0-.2-.1h-.4c-.1 0-.2 0-.2-.1-.1 0-.1 0-.2-.1 0-.1-.1-.1-.2-.1s-.1-.1-.2-.1h-.1l-.1-.1h-.1l-.1-.1c-.1 0-.1 0-.1-.1h-.1l-.1-.1c-.1 0-.1 0-.1-.1 0 0-.1 0-.1-.1s-.1 0-.1-.1l-.1-.1H133.6c0-.1-.1-.1-.2-.1h-.1l-.3-.3-.5-.5c0-.1-.2-.1-.2-.1l-.2-.2c-.1-.1-.2-.1-.2-.2l-.2-.2c0-.1-.1-.2-.2-.3v-.1c0-.1-.1-.1-.1-.2l-.1-.1c0-.1-.1-.1-.1-.1-.1-.1-.1-.1-.1-.2v-.2c0-.1 0-.1-.1-.1V101.2c0-.1 0-.1-.1-.1v-.1c0-.1-.1-.1-.1-.2v-.2c-.1-.1-.1-.2-.1-.3 0-.1-.1-.1-.2-.1l-.1-.1s-.1 0-.1-.1v-1c0-.1 0-.1.1-.1v-.1c0-.1 0-.1.1-.2v-.1c0-.1 0-.1.1-.2v-.8c0-.1 0-.1.1-.1s0-.1.1-.2c.1 0 0-.1 0-.2s0-.1.1-.2v-.2c.1 0 .1-.1.1-.2s0-.2.1-.3c.1 0 .1-.1.1-.2v-.1c.1 0 .1-.1.1-.1l.1-.1c0-.1 0-.1.1-.1v-.2l.1-.1v-.1c0-.1.1-.1.1-.1 0-.1 0-.1.1-.1v-.1c0-.1 0-.1.1-.2v-.2c.1 0 0-.1.1-.1.1-.1.1-.1.1-.2s0-.1.1-.2c0-.1 0-.1.1-.2 0-.1 0-.1.1-.2 0-.1 0-.1.1-.1 0 0 0-.1.1-.2 0 0 0-.1.1-.1s0-.1.1-.1c.1-.1 0-.2.1-.2 0-.1 0-.1.1-.2v-.1c.1 0 0-.1.1-.2l.1-.1V92l.1-.1.1-.1c0-.1.1-.1.1-.1v-.1l.1-.1v-.1c.1 0 .1-.1.1-.2.1 0 0-.1.1-.2l.1-.1v-.1c.1 0 .1-.1.1-.2.1-.1 0-.2.1-.2 0-.1 0-.1.1-.2 0-.1 0-.1.1-.2.1 0 .1-.1.1-.1v-.1l.1-.1v-.1c.1-.1.2-.1.2-.2l.2-.2s.1-.1 0-.1v-.2c0-.1-.1-.1-.1-.2s-.1-.1-.1-.2-.1-.1-.1-.2-.1-.1-.1-.2V87.8l-.1-.1-.1-.1c0-.1 0-.1-.1-.1v-.1c0-.1 0-.1-.1-.2 0 0 0-.1-.1-.2v-.1c0-.1 0-.2-.1-.3-.1 0-.1-.1-.1-.2v-.1l-.1-.1c0-.1 0-.1-.1-.1 0-.1-.1-.1-.1-.2v-.5c0-.1-.1-.1-.1-.1v-.1l-.1-.1c0-.1 0-.1-.1-.1v-.1c0-.1-.1-.1-.1-.1v-.2c0-.1-.1-.2-.1-.3v-.4c0-.1 0-.1-.1-.1s0-.1-.1-.1-.1-.1-.1-.1v-.2c-.1-.1-.1-.1-.1-.2s0-.1-.1-.2v-.6c-.1 0-.1-.1-.1-.2s0-.1-.1-.1V82c0-.1 0-.1-.1-.2v-.7c0-.1 0-.1-.1-.1 0-.1 0-.1-.1-.2V78.7s0-.1-.1-.1v-.5c0-.1 0-.1-.1-.1v-.3c0-.1 0-.1-.1-.2v-.8c.1-.1.1-.2.1-.3 0-.1 0-.2.1-.2V76c0-.1 0-.2.1-.2v-.1s0-.1.1-.1v-.1l.1-.1v-.1c.1-.1.1-.1.1-.2s.1-.1.1-.2l.1-.1v-.5l.1-.1c0-.1.1-.1.1-.2l.1-.1v-.1c.1 0 0-.1.1-.1l.1-.1c0-.1 0-.1.1-.1 0 0 .1-.1.1-.2l.1-.1c0-.1 0-.1.1-.1V73c.1-.1.1-.1.1-.2v-.2c0-.1.1-.2.1-.2h.1c.1 0 .1.1.2.1s.1.1.1.1v.5c0 .1 0 .1.1.1v.1l.1.1c.2-.1.2.2.2.5zm7.9 14.8v.1c0 .1 0 .1.1.2l.1.1c0 .2.1.2.2.3.1 0 .2.1.2.1l.2.2s0 .1.1.1.1 0 .2.1h.1c.1 0 .1 0 .1.1h.3c.1-.1.2-.1.3-.1 0-.1.1 0 .1-.1s.1-.1.2-.1c.1-.1.1-.1.2-.1l.1-.1.1-.1h.1l.1-.1c.1 0 .1-.1.2-.1l.1-.1c0-.1.1 0 .1-.1l.2-.2.2-.2.2-.2.2-.2.2-.2c.1 0 .1-.1.2-.1l.2-.2.2-.2c.1-.1 0-.2.1-.2l.7-.7.1-.1s.1-.1.1-.2l.2-.2c0-.1.1-.1.1-.2l.1-.1s.1-.1.1-.2l.2-.2c0-.1.1-.1.1-.2s.1-.1.1-.2l.1-.1c.1 0 .1-.1.1-.2.1 0 .1-.1.1-.2v-.4c0-.1-.1-.1-.2-.1 0-.1-.1-.1-.2-.1l-.1-.1h-.1c-.1 0-.2 0-.3.1h-.1l-.1.1s-.1 0-.1.1-.1 0-.1.1l-.1.1c-.1 0-.1.1-.2.1l-.1.1c-.1 0 0 .1-.1.1l-.2.2c-.1.1 0 .2-.1.2s-.1.1-.2.2c0 .1-.1 0-.2.1l-.2.2-.1.1s0 .1-.1.1-.1.1-.1.1h-.1l-.1.1H145.5c-.1 0-.1 0-.1-.1h-.1c-.1 0-.1.1-.1.1h-.1l-.2.2c-.1.1-.2.1-.2.2-.1.1-.2.1-.2.3l-.1.1-.1.1c-.1 0 0 .1-.1.1s-.1.1-.2.1c-.1.1-.1.1-.2.1l-.2.2c0 .1-.1.1-.2.1-.1.1-.1.1-.2 0H142.9c-.1 0-.1.1-.2.1l-.1.1c-.1 0-.1.1-.2.1 0 0-.1 0-.1.1l-.1.1c-.1 0-.1.1-.2.1.3.6.3.6.3.7zM52.9 44.7h-.6l-.1-.1s-.1 0-.1-.1c-.1 0-.1-.1-.2-.1s-.1-.1-.2-.1l-.1-.1h-.2c-.1 0-.1 0-.2-.1-.1 0-.1 0-.1-.1H51l-.1-.1h-.2l-.1-.1h-.1c-.1 0-.1 0-.2-.1 0 0-.1 0-.1-.1-.1 0-.2 0-.3-.1h-.2l-.1-.1h-.2l-.1-.1s-.1 0-.1-.1h-.1c0-.1-.1-.1-.2-.1h-.1l-.1-.1h-.1v.1l.1.1v.1s.1 0 .1.1l-.1.1v.3s.1.2.2.2h.5l.1.1c0 .1.1 0 .2.1 0 .1.1.1.2.2l.1.1.2.2.2.2c.1.1 0 .2.1.2V45.4h-.4c-.1 0-.1 0-.1.1h-.1c-.1 0-.1 0-.1.1s-.1.2-.1.2H49.4c0 .1-.1 0-.1.1l-.1.1H48.9c-.1 0-.1 0-.2.1H48.4l-.1.1s0 .1-.1.1l-.1.1-.1.1s-.1.1-.1.2c-.1.1-.1.1-.1.2v.1c0 .1 0 .1-.1.1 0 0 0 .1-.1.2v.2c.1.1.1.1.1.2.1.1.1.1.1.2V48.2h.2l.3-.3h.1s.1 0 .1-.1c0 0 .1 0 .1-.1l.1-.1.5-.5c.1-.1.1-.1.1-.2v-.1s-.1-.1-.2-.1h-.3c-.1 0-.1 0-.1-.1H48.4l-.1-.1v-.1s.1-.1.2-.1h.2c.1 0 .1 0 .1-.1.1 0 .1 0 .2-.1h.4c.1 0 .1 0 .2-.1h.2c.1-.1.1-.1.2-.1h.1l.1-.1h.5s.1 0 .1.1h.2c.1 0 .1 0 .1.1l.1.1H51.5c.1 0 .1 0 .1.1 0 0 .1 0 .1.1h.1l.1.1c.1 0 .1 0 .1.1l.1.1c.1 0 .1.1.2.1 0 .1.1 0 .2.1l.1.1.1.1c.1 0 0 .1.1.2l.1.1c0 .1.1.2.2.2l.1.1V47.9c-.1 0 0 .1-.1.2l-.1.1H52.7s-.1 0-.1.1l-.1.1-.1.1h-.5c-.1.1-.1 0-.2 0 0-.1-.1-.1-.2-.1s-.1-.1-.2-.1h-.7l-.1-.1c0-.1-.1-.1-.2-.1h-.2c-.1 0-.2 0-.2-.1H49.6c-.1-.1-.1-.1-.2-.1v-.3h-.2c0 .1-.1 0-.1.1l-.1.1c-.1 0-.1 0-.1.1v.2c-.1.1-.1.1-.2.1h-.2s-.1 0-.1.1v.1c0 .1 0 .1-.1.1H48l-.2.2v.2c0 .1 0 .1.1.1v.2l.1.1v1.1c-.1.1 0 .2-.1.2v.1c0 .1 0 .1-.1.1v.1l-.1.1c0 .1-.1.1-.1.1l-.2.2H47c0-.1-.2 0-.2-.1-.1 0-.2 0-.2-.1-.1 0-.1 0-.2-.1 0-.1-.1-.1-.2-.1 0-.1-.1-.1-.2-.1l-.1-.1-.2-.2c0-.1-.1-.1-.1-.2h-.1c-.1 0-.1 0-.2-.1l-.1-.1c-.1-.1-.1-.2-.2-.1l-.2-.2c-.1 0-.1 0-.2-.1l-.2-.2c0-.1-.1 0-.2-.1l-.1-.1c-.1 0-.1 0-.1-.1h-.1l-.1-.1c-.1 0-.1-.1-.1-.1h-.4l-.1.1-.1.1-.1.1H42.7c0 .1-.2 0-.2.1h-.2l-.1-.1h-.1c0-.1-.1 0-.1-.1 0 0 0-.1-.1-.1l-.1-.1-.2-.2c-.1 0-.1 0-.2-.1l-.1-.1c-.1 0-.1-.1-.1-.2l.2-.2c.1-.1.2-.1.2-.2.1-.1.2-.1.2-.2l.2-.2.2-.2.2-.2c.1 0 .2-.1.2-.1l.2-.2c.1 0 .1 0 .2-.1 0-.1.1-.1.1-.1h.1c.1 0 .1 0 .2-.1l.4-.4c0-.1.1-.2.2-.3l.2-.2h.1c.1 0 .1 0 .1-.1H44.7c0-.1.1 0 .1 0H45.4c.1 0 .1 0 .2-.1.1 0 .1 0 .2-.1.1 0 .1 0 .2-.1l.2-.2V44.8c0-.1.1-.1.1-.2V44.3c0-.1 0-.1.1-.1 0-.1 0-.1.1-.2v-.7l.1-.1v-.1l.4-.4c.1 0 .1-.1.2-.1v-.1l-.1-.1h-.2l-.1.1c-.1 0-.1 0-.1.1h-.1l-.1.1s-.1 0-.1.1-.1 0-.1.1l-.1.1-.1.1c-.1 0-.1.1-.2.1h-.1c-.1 0-.1.1-.1.1-.1 0-.2 0-.2.1-.1 0-.1 0-.2.1 0 .1-.1.1-.2.1l-.1.1h-.1c-.1 0-.1.1-.2.1h-.1c-.1 0-.1.1-.2.1l-.1.1s-.1 0-.1.1l-.2.2c-.1 0-.1.1-.2.1l-.2.2-.2.2c-.1 0-.1.1-.2.1l-.2.2-.2.2-.2.2-.2.2-.1.1h-.2c-.1 0-.1 0-.1.1-.1 0-.2.1-.3.2v.1c0 .1 0 .1-.1.2H41l-.1-.1h-.1s0-.1-.1-.1H39.9l-.3-.3c-.1-.1-.1 0 0-.1v-.2c.1 0 .1-.1.1-.1.1 0 0-.1.1-.2.1 0 .1-.1.2-.2l.2-.2c0-.1.1-.1.1-.2s.1-.1.1-.2h.1l.2-.2.2-.2c.1 0 .1-.1.2-.1l.2-.2.5-.5s.1-.1.2-.1l.1-.1c0 .2 0 .2-.1.2l-.1.1-.5.5c-.1 0 0 .1-.1.2l-.1.1v.1s0 .1.1.1h.2c.1 0 .2 0 .2.1l.1.1h.1s.1 0 .1-.1c.1 0 .1-.1.2-.1h.1c0-.1.1-.1.2-.1s.1-.1.2-.1.1-.1.2-.1.1-.1.1-.1c.1 0 .1-.1.2-.1s.2-.1.2-.2c.1 0 .1-.1.2-.1l.1-.1.5-.5c.1-.1.1-.1.2-.1l.2-.2c.1 0 .2-.1.2-.2.1 0 .1-.2.2-.1l.2-.2.2-.2h.1v-.2c-.1 0-.1 0-.2-.1l-.1-.1c-.1 0-.1-.1-.2-.1l-.1.1s-.1 0-.1.1h-.7l-.1-.1c-.1 0-.1 0-.2-.1-.1 0-.1 0-.1-.1h-.1c-.1 0-.1 0-.2.1h-.1c0-.1-.1 0-.2-.1l-.3-.3c0-.1 0-.1-.1-.1l-.1-.1c-.1 0-.1-.1-.2-.1l-.1-.1c-.1-.1-.1-.2 0-.2 0 0 .1-.1.1-.2l.1-.1v-.1c0-.1.1-.1.2-.2 0-.1.1-.1.1-.2l.2-.2.2-.2c.1 0 .1-.1.2-.1s.1-.1.1-.1c.1 0 .1-.1.2-.1 0-.1.1 0 .2-.1 0-.1.1-.1.2-.2h.1c.1 0 .1 0 .2-.1l.1-.1c.1 0 .1 0 .2-.1.1 0 .1 0 .2-.1.1 0 .1 0 .1-.1 0 0 .1 0 .2-.1 0 0 .1 0 .1-.1s.1 0 .1-.1.1 0 .2-.1l.1-.1h.1l.1-.1h.1c0-.1.2 0 .2-.1h.2c0-.1.1 0 .2-.1l.1-.1h.1c.1 0 .1 0 .1-.1l.1-.1.1-.1h.3c.1-.1.2-.1.3-.1.1 0 .1 0 .1-.1.1 0 .1 0 .2-.1h.1s0 .1.1.1l.6.6c0 .1.1.1.1.2 0 0 .1.1.1.2l.1.1c0 .1.1.1.1.1l.1.1v.4c0 .1 0 .1.1.1h.3c.1 0 .1-.1.2-.1h.5s.1 0 .1.1v.1l.7.7.1.1c0 .1.1.1.1.2s.1.1.1.1v.1c.1 0 .1.1.1.1l-.1.1v.1h-.1l-.1-.1h-.1l-.1.1s-.1.1-.1 0c-.1 0-.1 0-.2.1-.1 0-.1.1-.2.1l-.1.1h-.4c-.1 0-.2 0-.2.1l-.1.1h-.1c-.1 0-.1.1-.1.1-.1 0-.2.1-.3.1h-.1l-.2.1h-.2c-.1 0-.1 0-.1.1-.1.1-.1.1-.1.2.1.1.1.1.2.1s.1 0 .2.1c0 0 .1 0 .1.1h.1l.1.1c.1 0 .1 0 .1.1h.1c0 .1.1.1.2.1l.1.1c.1.1.2 0 .2.1h.1c.1 0 .1 0 .1.1l.1.1.1.1h.1l.1.1h.1c.1 0 .1 0 .2.1.1 0 .1 0 .2.1h.1c-.3.3-.3.3-.2.3.1 0 .1 0 .1.1 0 0 .1 0 .1.1H51.5c.1 0 .1-.1.1 0s.1 0 .2.1l.1.1h.1s.1-.1.1 0c.1 0 .1 0 .2-.1l.1-.1V43l-.1-.1c0-.1 0-.1-.1-.1l-.1-.1s0-.1-.1-.1-.1 0-.2-.1-.2-.1-.2-.2c-.1-.1-.2 0-.2-.1-.1-.1-.1-.2-.2-.2s-.1 0-.1-.1l-.1-.1v-.1l.1.1h.1l.3.3h.1c.1 0 .1.1.2.1h.1l.3.3c.1.1.1.1.2.1h.1l.1.1.1.1c.1 0 .1.1.2.1h.1l.1.1.1.1.2.2c.1 0 .1.1.2.1.1.1.2.1.2.2l.2.2c.1.1.2.1.2.2 0 0 0 .1.1.2V44.5c0 .1 0 .1.1.2v.1c0 .1-.1.1-.2.1 0 0-.1 0-.1.1H54l-.1.1c-.6-.4-.8-.4-1-.4zM46 47.4v-.5h-.2c-.1 0-.1 0-.2.1h-.3c0-.1-.1-.1-.2-.1s-.1 0-.2-.1h-.1s0 .1-.1.1h-.2c0-.1-.1-.1-.2-.2h-.1l-.3.3V47.3s0 .1.1.1.2 0 .2-.1.1-.1.2-.1h.1V48l-.1.1v.5c0 .1 0 .1.1.1.1.1.2.2.3.2l.1.1c0 .1.1 0 .2.1h.4s0 .1.1.1.1.1.1.1c.1 0 .1 0 .1.1s.1.1.2.1l.1.1h.2c.1 0 .1 0 .2-.1.1 0 .1-.1.2-.1-.1 0-.1-.1-.1-.2v-.1l-.1-.1c0-.1 0-.2-.1-.2-.1-.1-.1-.1-.1-.2v-.5c-.1 0-.1-.1-.1-.2l-.1-.1c-.1-.2-.1-.3-.1-.4zm.6-6.7h.2c0-.1.1 0 .2-.1l.1-.1.4-.4.1-.1c.1 0 .1-.1.2-.1l.2-.2v-.1l-.1-.1-.1.1-.1.1c-.1 0-.1.1-.2.1h-.1l-.3.3h-.6c-.1 0-.1 0-.1.1h-.1c-.1 0-.1.1-.1.1v.2l.1.1h.1c.1.1.2.1.2.1zM81.9 40.1h-.8s0-.1-.1-.1h-.9c0 .1-.1 0-.1 0h-.2s-.1 0-.1-.1-.1-.2-.1-.2h-.2l-.1.1h-.4l-.2.2c0 .1-.1 0-.2.1l-.1.1c-.1 0-.2 0-.2.1-.1 0-.1 0-.2.1-.1 0-.1 0-.1.1 0 0-.1 0-.2.1 0 0-.1 0-.1.1s-.1 0-.1.1c-.1.1-.2 0-.2.1h-.1s-.1.1 0 .1c.1.1.1.1.2.1 0 .1.1.1.2.1h.1c.2 0 .2 0 .2.1.1.1.1.1.2.1s.1 0 .1.1V41.8s0 .1.1.1h.1c.1 0 .1 0 .1-.1l.1-.1.1-.1.1-.1c0-.1 0-.1.1-.1v-.2c0-.1 0-.1-.1-.1V41c.1-.1.1-.1.2-.1 0-.1.1-.1.2-.1h.1l.1-.1h.2c0-.1.1 0 .2-.1 0 0 0-.1.1-.1h.2s.1 0 .1.1c.1 0 .1.1.2.1h.1l.3.3s0 .1.1.1l.1.1.1.1c0 .1 0 .1.1.1v.1l-.6.6-.1.1c0 .1-.1.1-.1.1-.1 0-.1.1-.2.1 0 .1-.1.1-.1.2 0 0 0 .1.1.1s.1 0 .2-.1h.6c.1-.1.1 0 .2 0 0 .1.1.1.2.1s.1.2.2.1l.2.2.2.2v.1c.1 0 .1.1.1.2.1 0 .1.1.1.2l.1.1v.4s0 .1-.1.1h-.3c-.1 0-.1 0-.1-.1H81c-.1 0-.1 0-.1.1 0 0-.1 0-.1.1H80.5s-.1 0-.1.1h-.1l-.1.1H80c0-.1-.1 0-.1 0-.1 0-.1 0-.1.1 0 0-.1.1-.2.1 0 0-.1 0 0 .1 0 0 0 .1.1.1h.2c.1 0 .1 0 .1.1l.1.1h.6c.1 0 .1.1.2.1s.1 0 .1.1l.1.1h.1c.1 0 .1 0 .2.1 0 0 .1.1.2.1h.1l.2.2c.1.1.1.2.3.2l.1.1s.1 0 .1.1c.1 0 .1 0 .2.1l.3.3h.1v.2l.2.2c.1 0 .1.1.2.1l.2.2c0 .1.1.1.1.2l.5.5c.1.1.1.1.1.2 0 0 0 .1.1.1v.1l-.1.1h-.1l-.2.2-.1.1h-.6c-.1 0-.1 0-.1-.1 0 0-.1 0-.1-.1H83c-.1-.1-.1-.1-.2-.1h-.7c-.1 0-.1 0-.1-.1h-.1c-.1 0-.1-.1-.2-.1h-.2c-.1-.1-.1-.1-.2-.1h-3.9l-.1.1V48.7s0 .1.1.1l.1.1s.1 0 .1.1v.4c0 .1 0 .2-.1.2-.1.1 0 .2-.1.2v.1c0 .1 0 .1-.1.2 0 .1 0 .1-.1.1v1.3c.1 0 0 .2.1.2v.2h-.2l-.1-.1H76.7l-.2-.2v-.1c.1-.1.1-.1.1-.2s0-.2.1-.2l.1-.1v-1.1c0-.1 0-.2-.1-.3v-.1c0-.1 0-.1-.1-.1V49.1c-.1-.1-.1-.1-.1-.2v-.4c0-.1 0-.1-.1-.1l-.1-.1h-.1s-.1.1-.2.1c0 .1-.1.1-.2.1h-.9c0 .1-.1 0-.1 0h-.4c0 .1-.1.1-.2.1h-.1s0 .1-.1.1h-.5c-.1 0-.1 0-.1.1h-.1c-.1.1-.1.1-.2.1s-.1.1-.2.1h-.1c0 .1-.1.1-.1.1l-.1.1c-.1 0-.1.1-.2.1h-.1c0 .1-.1 0-.2.1l-.1.1H71.2c-.1 0-.2 0-.2-.1l-.1-.1h-.2v-.2c.1-.1.1-.1.1-.2l.1-.1v-.1c0-.1 0-.1.1-.1 0-.1.1-.1.2-.1l.1-.1c0-.1.1 0 .1-.1 0 0 0-.1.1-.1h.4c.1 0 .1 0 .1-.1h.1l.1-.1c.1 0 .1-.1.1-.1.1-.1.2 0 .2-.1.1 0 .1 0 .2-.1.1 0 .1 0 .2-.1.1 0 .1 0 .2-.1 0-.1.1-.1.2-.1h.1c0-.1.2 0 .2-.1s.1 0 .2-.1c.1 0 .1 0 .2-.1.1 0 .1 0 .1-.1h.1c.1 0 .2-.1.2-.1v-.1l-.3-.3v-.2s0-.1.1-.1.1-.1.2-.1v-.2c-.1-.1-.1-.2-.1-.3v-.2c.1 0 0-.1 0-.1s0-.1-.1-.1l-.1-.1h-.6c0 .1-.1 0-.2.1 0 0 0 .1-.1.1h-.6c-.1 0-.1 0-.1-.1-.1-.1-.1-.1-.2-.1H72c-.1 0-.1 0-.1-.1-.1 0-.1 0-.2-.1s0-.2-.1-.2-.1-.1-.2-.2h.1l.1-.1h.1c.1-.1.1-.2.2-.1l.2-.2s.1-.1.1 0h.1c.1.1.2 0 .2.1h.1l.1-.1c.1 0 .1 0 .1-.1h.1l.1-.1c.1 0 .1-.1.1-.1v-.1c0-.1 0-.2-.1-.2l-.1-.1c.1 0 .1-.1.1-.2s.1-.1.2-.2c.1 0 .1 0 .2-.1 0 0 .1 0 .1-.1h.1l.1-.1h.4l.1.1h.1l.1.1c.1 0 .1 0 .1.1h.1s0-.1.1-.1.1 0 .2-.1l.2-.2v-.1l-.1-.1H74.7c-.8.6-.8.6-.9.6-.1 0-.1 0-.1-.1h-.1c0-.1-.1-.1-.2-.1-.1-.1-.1-.1-.1-.2s0-.1.1-.1h.1c0-.1.1 0 .2-.1l.1-.1h.1c.1 0 .1 0 .2-.1h.1c.1-.1.1-.1.1-.2s0-.1-.1-.1H73.9l-.1-.1h-.1c-.1 0-.1 0-.1-.1h-.1l-.1-.1-.1-.1h-.1l-.1-.1H72.3s-.1 0-.1.1l-.1.1c0 .1-.1.1-.1.1-.1 0-.1 0-.1.1 0 0-.1 0-.2.1-.1 0-.1.1-.2.1l-.1.1c-.1 0-.1 0-.1.1h-.4c-.1 0-.1 0-.1.1 0 0-.1 0-.1.1h-.9s-.1 0-.1-.1v-.1l.6-.6s.1-.1.2-.1l.1-.1c.1 0 .1-.1.1-.1.1 0 .1 0 .1-.1.1 0 .2-.1.3-.1h.1c0-.1.1 0 .2-.1l.1-.1.1-.1h.2s.1 0 .1-.1c.1 0 .1-.1.2-.1v-.2s-.1-.1 0-.1V40c0-.1 0-.1.1-.2 0-.1 0-.1.1-.2v-.1s-.1 0-.1-.1v-.2c0-.1 0-.1.1-.1 0 0 .1-.1.1-.2l.1-.1v-.1c.1-.1.1-.1.1-.2s0-.2.1-.2c0-.1.1-.2.2-.3h.2l.1-.1h.1s0-.1.1-.1h.1c.1 0 .1 0 .2-.1 0-.1.1-.1.1-.1h.1s.1 0 .1-.1l.1.1.2.2c.1 0 .1.1.2.1l.2.2c.1 0 .1.1.2.1l.1.1.1.1c0 .1.1.1.1.1 0 .1.1.1.1.2v.1c.1.1.1.2.2.2.1.1 0 .1.1.2v.1l-.1.1c-.1 0-.1.1-.1.2s.1.1.1.2l.2-.2.1-.1c.1 0 .1-.1.2-.1s.1-.1.1-.1l.2-.2.1-.1c0-.1.1-.1.2-.1l.2-.2.2-.2c.1 0 .1-.1.2-.1s.1-.1.1-.1c0-.1.1-.1.2-.1h.1s.1-.1.1-.2v-.1c.1 0 .1 0 .1-.1l.6-.6h.1c.1 0 .1-.1.2-.1s.1-.1.2-.1l.1-.1c.1 0 .1-.1.1-.1.1-.1.2 0 .2-.1h.1l.1.1h.1l.1.1s.1 0 .1.1.1 0 .2.1l.1.1c.1 0 .1.1.2.1l.5.5s0 .1.1.1v.5l-.1.1-.4.4c-.1 0-.2.1-.2.1l-.2.2v.1s.1.1.2.1h1.9c.1 0 0 0 .1.1.1 0 .1 0 .2.1 0 .1.1.1.1.1l.1.1V40.1l-.1.1c0 .1-.1 0-.1 0h-.2c.1-.1-.1-.1-.3-.1zm-.3 7.2h.2l.1-.1v-.1c-.1-.1-.1-.1-.2-.1l-.1-.1c-.1 0-.1-.1-.2-.1 0-.1 0-.1-.1-.2l-.1-.1-.3-.3c-.2 0-.2-.2-.3-.3 0-.1-.1-.1-.2-.1l-.1-.1-.1-.1c0-.1-.1 0-.1-.1l-.2-.2-.1-.1h-.1c0-.1-.1-.1-.2-.1 0-.1-.1-.1-.2-.1h-.1l-.2-.2c-.1 0-.1 0-.1-.1l-.1-.1c0-.1 0-.1-.1-.1l-.1-.1h-.1l-.1.1h-.2l-.1.1v.2l.2.2H79l.1.1c0 .1.1 0 .1.1l.2.2s.1.1.1.2c.1 0 .1.1.1.2.1 0 .1.1.1.2.1 0 0 .1.1.2v.1c-.1.1-.2.1-.3 0l-.1-.1h-.2l-.1.1-.1.1c0 .1-.1 0-.2.1 0 .1-.1 0-.2.1h-.2c-.1-.1-.1 0-.2-.1 0 .1-.1.1-.1.1 0 .1-.1.1-.2.1l-.1.1h-.1l-.1.1c-.1 0-.1 0-.1.1H77.2c-.1 0-.1 0-.1.1v.1c0 .1 0 .1.1.1h.1c.1.1.1 0 .2 0 0-.1.1-.1.2-.1l.1-.1h2.1c0-.1.2 0 .2-.1h.3c0 .1.1.1.2.1h1c-.2.1-.1.2 0 .2-.1 0 0 0 0 0zm-6.2-5.7h.2c.1 0 .1-.1.1-.1h.2l.1-.1.1-.1c.1 0 .1 0 .2-.1l.2-.2c0-.1.1-.1.1-.2l.2-.2.1-.1.1-.1c0-.1 0-.1.1-.1l.1-.1v-.1c0-.1 0-.1-.1-.2H77l-.1.1c0 .1-.1.1-.2.1h-.3c-.1 0-.1 0-.1.1l-.1.1h-.5c-.1 0-.1.1-.2.1 0 0-.1 0-.1.1l-.1.1-.1.1v.4s0 .1-.1.1c0 0-.1 0-.1.1v.1c0 .1-.1.1 0 .1v.1c0 .1 0 .1.1.1v.1c0 .1 0 .1.1.1.1-.3.1-.3.2-.3zm2.8-3.7v-.1s0-.1-.1-.1-.1 0-.2.1h-.1c-.1.1-.1.2-.3.2-.1 0-.1.1-.2.2-.1 0-.1.1-.2.2l-.1.1-.1.1-.1.1c0 .1-.1 0-.1.1l-.2.2-.2.2c0 .1-.1.2-.1.2l.1.1h.2c0-.1.2 0 .2-.1h.8c.1 0 .1 0 .1-.1 0 0 .1-.1.2-.1l.1-.1c0-.1 0-.1.1-.2v-.2c0-.1.1-.1.1-.2l.1-.1v-.2c0-.1 0-.1.1-.1l.1-.1s.1-.1 0-.1c-.2.1-.2.1-.2 0zm-3.4 6.8h.1l.1-.1h.1c0-.1.1-.1.1-.1V43.7c0-.1 0-.1.1-.3v-.1l-.1-.1c-.1-.1-.1-.1-.2 0-.1 0-.1 0-.1.1s-.1.1-.1.1c0 .1-.1 0-.2.1h-.1c-.1 0-.1 0-.1.1l-.1.1v.2l.1.1v.1l.1.1c0 .1 0 .2.1.2 0 .1.1.1.1.2s0 .1.1.1zm-2.6 3.5h.2c.1 0 .1 0 .1-.1h.1l.1-.1h.6c.1 0 .1-.1.1-.1h.1s0-.1.1-.1h.6s.1 0 .1-.1v-.1c0-.1-.1-.1-.1-.1v-.1l-.1-.1c-.1 0-.1 0-.2-.1H73.6c0 .1-.1 0-.2.1l-.1.1h-.2c-.1 0-.1 0-.1.1l-.2.2h-.1c-.1 0-.1 0-.2.1 0 0-.1 0-.1.1s-.1 0-.1.1l-.1.1-.1.1c-.1 0-.1 0-.2.1v.1c.2-.2.3-.2.3-.2zm5.8-5.6c-.1-.1-.1-.1-.2-.1l-.1.1s-.1.1-.2.1l-.1.1c-.1 0-.1 0-.1.1 0 0-.1 0-.1.1s-.1 0-.1.1 0 .2.1.2V43.6c0 .1 0 .1-.1.1l.1.1h.1c.1-.1.2-.1.1-.2 0-.1.1-.1.1-.2l.1-.1s.1 0 .1-.1.1-.1.1-.1l.1-.1c0-.1 0-.1.1-.2-.1-.1-.1-.1 0-.2zm-3.3 2.9v.1c0 .1 0 .1.1.1s.1 0 .2-.1h.1c.1 0 .1-.1.1-.1.1 0 .1 0 .1-.1.1-.1 0-.1 0-.2h-.4c-.1 0-.2.1-.2.2v.1zm.3 2.1H75.3c.1 0 .1 0 .1-.1s0-.1-.1-.1h-.5s-.1.1-.1.2c0 0 0 .1.1.1 0-.1.1-.1.2-.1zm2.1-2.4c0 .1 0 .1.1.1s.2-.1.2-.1 0-.1.1-.1V45l-.1-.1h-.2l-.1.1v.2zm-.2 2.6h.2v-.2h-.3v.1s0 .1.1.1c-.1 0 0 0 0 0zm3.1-2.6h.1v-.1L80 45h-.1l-.1.1c.1 0 .1.1.2.1-.1 0-.1 0 0 0zm-1.3 2.4h.1v-.1h-.1l-.1.1h.1c-.1 0 0 0 0 0zm1.6-2.2c.1 0 .1 0 0 0 .1 0 .1-.1 0 0 0-.1 0-.1 0 0 0-.1-.1-.1 0 0-.1 0 0 0 0 0zm-2.6 2.2c.1 0 .1 0 0 0 .1-.1 0-.1 0 0 0-.1 0 0 0 0zM60.4 40.4v-.7c0-.1 0-.2-.1-.2V39.2c0-.1.1-.3-.1-.4V38c0-.1 0-.1-.1-.2 0-.1-.1-.2-.1-.2v-.1l.2-.2c.1 0 .2-.1.2-.1l.2-.2c.1-.1.1-.1.2-.1l.1-.1h.1l.1-.1c.1 0 .2 0 .3-.1h.6s.1 0 .1.1c0 0 .1 0 .1.1H62.5c.1 0 .2 0 .2.1l.1.1c.1 0 .1.1.2.1.1.1.1 0 .2.1 0 .1.1.1.2.2h.1s0 .1.1.1l.2.2v.2c0 .1 0 .2-.1.2v.4l.1.1V38.9c-.1.1 0 .2-.1.2v.1c0 .1 0 .1-.1.1v.6c-.1 0 0 .1-.1.2 0 .1 0 .1.1.1h.2c0-.1.1-.1.1-.1l.1-.1h.1c0 .1.1.1.2.1h1.1c0 .1.1.1.2.1h.3c0 .1.2 0 .2.1h.4c0 .1.1 0 .1.1l.1.1h.2c.2 0 .2 0 .2.1l.1.1.1.1c.1 0 .1 0 .1.1 0 0 .1 0 .1.1s.1 0 .1.1l.1.1c.1 0 .1.1.2.1l.1.1c.1 0 .1 0 .2.1 0 .1.1.1.2.1s.1.2.2.1l.2.2.1.1.1.1c0 .1 0 .1.1.2.1 0 .1.1.1.2s0 .2.1.2.1.1.1.2 0 .1-.1.1-.2 0-.2.1l-.1.1h-.5l-.1.1-.1.1c-.1 0-.1 0-.1.1H68c0 .1-.1 0-.1.1-.1.1-.1.1-.2.1h-.1c-.1 0-.1.1-.2.1-.1.1-.1.1-.2.1s-.1 0-.2.1H66.3c-.1.1-.2 0-.2.1H66c-.1 0-.1 0-.1.1h-.5c-.1 0-.1 0-.1.1-.1 0-.1.1-.2.1H65l-.2.2H64.5c-.1 0-.1 0-.1-.1h-.1c0 .1-.2.1-.2.1h-.2l-.1.1-.1.1c-.1 0-.1 0-.1.1h-.1l-.1.1s0 .1-.1.1H63.6c.1.1.1.1.2.1h.4c0-.1.2 0 .2-.1h.2c.1 0 .1 0 .1.1s.1.1.2.1h1.8c0-.1.1 0 .2-.1 0 0 0-.1.1-.1h.3c.1 0 .1 0 .1-.1.1 0 .1-.1.2-.1s.1-.1.2-.1h.2l.1.1c-.1 0-.1 0-.2.1-.1 0-.1 0-.1.1s-.1 0-.1.1l-.1.1-.1.1h-.2c0 .1-.1 0-.2.1l-.1.1-.1.1c-.1 0-.1 0-.2.1s-.2 0-.2.1h-.1c-.1 0-.1 0-.2.1l-.1.1H65.8c-.1 0-.1 0-.1.1h-.1c-.1 0-.1.1-.2.1h-.2c0 .1-.1 0-.1 0H64c-.1.1-.1.1-.2.1h-.5c-.1 0-.1 0-.2.1-.1 0-.1 0-.2.1-.1 0-.1 0-.2.1v.3l.1.1v.2l-.1.1c0 .1 0 .1-.1.2v.2c-.1 0 0 .1-.1.1l-.1.1v.7l-.1.1v.1l.1.1v.4c0 .1 0 .1.1.1v.1l.1.1v.5c.1 0 .1.1.1.2v.1c.1 0 0 .2.1.2v.2c0 .1 0 .1.1.1v.1c-.1.1-.1.1-.1.2v.1h-.6s-.1 0-.1-.1c0 0-.1 0-.1-.1s-.1 0-.2-.1l-.1-.1-.1-.1c-.1 0-.2-.1-.2-.1l-.2-.2-.2-.2v-.1l.2-.2.1-.1c0-.1.1-.1.1-.2v-.5l-.1-.1v-.1c0-.1 0-.1-.1-.1v-.5c.1 0 .1-.1 0-.1v-.7s0-.1-.1-.1V47c0-.1 0-.1-.1-.2l-.1-.1h-.1c-.1 0-.2 0-.3-.1h-.1c-.1 0-.1 0-.1-.1h-.1c-.1 0-.1 0-.2-.1 0-.1-.1-.1-.2-.2l-.1-.1c-.1 0-.1 0-.1-.1-.1 0-.1-.1-.2-.1 0-.1-.1-.2-.2-.3l-.4-.4c-.1-.1-.1-.1-.1-.2v-.1c0-.1 0-.1.1-.1 0-.1.1 0 .2-.1l.2-.2c.1-.1.1-.1.2-.1s.1 0 .1.1 0 .1.1.1h.2c.1 0 .1 0 .2.1h.1v-.1c0-.1.1-.1.2-.2.1 0 .1 0 .1-.1s0-.2-.1-.2V44c0-.1.1-.1.1-.1v-.1c0-.1.1-.1.1-.2v-.5c0-.1 0-.1-.1-.1v-.1l-.1-.1v-.9l-.1-.1h-.1l-.7.7c0 .1-.1.1-.1.2s-.1.1-.1.1h-.1c-.1 0-.1 0-.2.1l-.1.1c-.1 0-.1.1-.2.1l-.1.1-.1.1c0 .1 0 .1-.1.1v.6c0 .1 0 .1-.1.1v.2c.1.1.1.2.1.3v.3c0 .1 0 .1.1.1.1.1.1.1.1.2l.1.1v.1l.1.1v.4l-.1.1c0 .1 0 .1-.1.1s-.1 0-.2-.1h-.2c-.1.1-.1 0-.2 0 0-.1-.1 0-.2-.1h-.1l-.1-.1c-.1 0-.1 0-.1-.1-.1 0-.1-.1-.2-.1h-.5c-.1 0-.1-.1-.2-.1s-.1-.1-.2-.1l-.1-.1h-.1c0-.1-.1 0-.2-.1l-.1-.1c-.1 0-.1-.1-.2-.1 0 0-.1 0-.1-.1v-.3c0-.1 0-.2-.1-.3v-2.2l.2-.2v-.1c.1 0 .1 0 .1-.1H56c.1 0 .1 0 .1-.1s0-.2.1-.2l.1-.1c.1-.1.2-.1.3 0l.1.1h.1c0 .1.1.1.1.2l.1.1c.1 0 0 .1.1.1s.1.1.1.1c.1.1.2.1.2.2l.2.2v.1s.1.1.1.2c0 0 .1.1.1 0l.1-.1c.1 0 .1 0 .2-.1l.2-.2c.1-.1.1-.2.2-.1l.2-.2c.2 0 .2-.2.3-.3.1 0 .2-.1.3-.2.1 0 .1 0 .1-.1l.3-.3s.1 0 .1-.1l.1-.1c.1 0 0-.2.1-.2v-.4c.4.5.4.3.4.2zm2.8 1.5v.1c0 .1 0 .1.1.2h.1l.1-.1c.1 0 .2 0 .2-.1l.1-.1c.1 0 .1 0 .1-.1 0 0 .1-.1.2-.1l.1-.1h.2c0-.1.1-.1.1-.1l.1-.1h.1l.1-.1h.1v-.1l-.1-.1s-.1-.1-.2-.1c0-.1-.1-.1-.2-.1 0-.1-.1-.1-.2-.1h-.1s-.1-.1-.1 0H63.3c-.1 0-.1.1-.1.2v.5l-.1.1c-.1 0-.1.1-.1.2.2 0 .2 0 .2.1zm-1.5 7v.5s0 .1.1.1l.1.1h.1v-.4c-.1 0 0-.1 0-.1V49l.2-.2c-.1 0-.1-.1-.1-.1 0-.1 0-.1-.1-.1v-.2c0-.1 0-.1-.1-.2 0-.1-.1-.1-.1-.2h-.1c0 .1 0 .1-.1.1v.1l-.1.1v.1c.1 0 .1.1.1.2.1 0 .1.1.1.3zm1.2-6.4c0-.1 0-.1-.1-.2s-.1-.1-.1 0l-.2.2v.1l.1.1h.1l.1-.1c0-.1.1-.1.1-.1 0-.1 0-.1 0 0zM88.4 43.5h.3c.1 0 .1 0 .1-.1.1 0 .1 0 .2-.1h.2c.1 0 .1 0 .1-.1.1-.1.2-.2.2-.3h.1c.1 0 .1-.1.2-.1h.1c0-.1.1 0 .1-.1l.1-.1h.1c.2-.2.4-.4.5-.6h.1v-.1c0-.1 0-.1.1-.1h.2c0-.1.1-.1.1-.2s0-.1.1-.2c0-.1 0-.1.1-.2 0 0 .1 0 .1-.1h.1l.1-.1h.1s.1 0 .1-.1h.1s0 .1.1 0c.1 0 .1 0 .2.1h.2c0 .1.1.1.1.1h.1l.1.1.1.1c.1 0 .1 0 .1.1h.2s.1.1.2.1.1.1.1.1l.1.1.1.1c.1 0 .1.1.2.2.1 0 .1.1.2.1l.1.1c0 .1.1.1.1.2v.4s-.1.1 0 .1c-.1 0-.1 0-.1.1s-.1.1-.1.1h-.7s-.1 0-.1.1h-.1l-.1.1c-.1 0-.1.1-.1.1l-.1.1-.1.1c0 .1-.1.1-.1.2-.1 0-.1.1-.2.1s-.1.1-.2.1c0 .1-.1.1-.1.2-.1 0-.1.1-.2.1l-.1.1h-.1v.1c0 .1-.1.1-.1.2s-.1.1-.1.2l-.1.1c0 .1 0 .1-.1.1v.1l-.1.1c0 .1 0 .1-.1.1 0 .1 0 .1-.1.2-.1 0-.1.1-.1.2v.2c0 .1-.1.1-.1.2-.1.1 0 .2-.1.2v.1c0 .1 0 .2.1.2v.2l-.1.1v.2c.1 0 0 .1.1.2v.1c.1 0 .1.1.1.2v.8c0 .1 0 .1.1.2 0 .1 0 .1.1.2 0 0 .1.1.1.2l.1.1.1.1.1.1v.4c.1 0 .1.1 0 .2v.1c.1.1.1.1.1.2l.1.1c0 .1.1.1.1.2s.1.1.1.2l.1.1c0 .1.1.1.1.2v.1h-.1c-.1 0-.1 0-.2-.1h-.1c-.1-.1-.1-.1-.2 0h-.2s0-.1-.1-.1h-.1c-.1 0-.1 0-.1-.1H91s0-.1-.1-.1c-.1-.1-.2-.3-.4-.4 0-.1-.1 0-.1-.1s-.1-.1-.1-.1c0-.1-.1-.1-.1-.2l-.1-.1-.1-.1-.1-.1c0-.1-.1-.1-.1-.2l-.1-.1c0-.1-.1-.1-.1-.2s-.1-.1-.1-.2v-.1l-.1-.1s0-.1-.1-.1v-.1s0-.1-.1-.2v-.1s0-.1-.1-.1c0 0-.1-.1-.1-.2-.1 0 0-.1-.1-.2 0 0-.1 0 0-.1v-.2c0-.1 0-.1-.1-.1v-.2c0-.1-.1-.1-.1-.2v-.7c0-.1.1-.1.1-.2v-.2c0-.1.1-.1.1-.2v-.2c.1 0 .1-.1.1-.2v-.1c.1 0 0-.2.1-.2v-.4c0-.1 0-.1.1-.2v-.2c-.1 0-.1 0-.2.1h-.2c-.1 0-.2 0-.2.1H88c-.1 0-.2 0-.2.1h-.1l-.1.1H86.7l-.1.1c-.1 0-.1 0-.1.1 0 0-.1 0-.1.1-.1.1-.2.2-.3.4l-.1.1h-.1s0 .1-.1.1h-.4l-.1-.1s-.1 0-.1-.1c-.1 0-.1-.1-.2-.1h-.1l-.2-.2c0-.1-.1-.1-.1-.2-.1 0-.1-.1-.2-.1s-.2-.2-.3-.3c-.1-.1-.1-.2-.2-.2l-.1-.1c0-.1-.1-.1-.1-.2l-.1-.1c0-.1 0-.1-.1-.2v-.2c.1-.1.2-.3.3-.4l.1-.1c.1 0 .1 0 .1-.1.1 0 .1 0 .1-.1.1 0 .1 0 .1-.1.1 0 .1 0 .1-.1.1 0 .1 0 .1-.1h.1s0-.1.1-.1h.1c.1 0 .1 0 .1-.1 0 0 .1 0 .1-.1s.1 0 .1-.1l.1-.1c.1 0 .1 0 .1-.1.1 0 .1-.1.2-.1s.1-.1.2-.1.1-.1.1-.1c.1 0 .1-.1.2-.1s.1-.1.2-.1.1-.1.2-.1c0 0 .1 0 .1-.1l.1-.1c.1 0 .1-.1.1-.1h.1c.1 0 .1-.2.2-.1 0-.1.1-.1.1-.2 0 0 .1 0 .1-.1.1 0 .1-.1.1-.1.1 0 .1 0 .1-.1v-.2s0-.1-.1-.1c0 0 0-.1-.1-.1s-.1-.1-.2-.1c0-.1-.1 0-.2-.1 0-.1-.1 0-.1-.1l-.1-.1h-.1l-.1-.1c-.1 0-.1-.1-.1-.1l-.4-.4-.1-.1c0-.1-.1-.1-.1-.2s-.1-.1-.1-.2c-.1-.2-.1-.2-.1-.4v-.2l.2-.2v-.1s0-.1.1-.1h.1s0 .1.1.1h.1c.1 0 .1 0 .1.1H86.4s.1 0 .1.1H86.8s.1 0 .1.1h.1c.1 0 .1 0 .2.1H88.3c.1 0 .1 0 .1-.1 0 0 .1 0 .1-.1h.4s.1 0 .1-.1h.1c.1 0 .1 0 .1-.1 0 0 .1 0 .1-.1l.1-.1c.1 0 .1 0 .1-.1l.1-.1c.1 0 .1-.1.1-.1l.1-.1h.5c.1 0 .1 0 .1.1.1 0 .1 0 .2.1l.1.1.1.1s.1 0 .1.1h.2c.1 0 .1 0 .1.1v.1H91.5v.1h.1l.1.1.1.1c.1.1.1.2.2.3v.7c-.1 0 0 .1-.1.2l-.1.1c-.1.1-.2.2-.3.4 0 .1-.1.1-.2.1l-.2.2c0 .1-.1.1-.1.2s-.1.1-.1.2c0 0-.1 0-.1.1 0 0 0 .1-.1.1l-.1.1c-.1 0-.1 0-.1.1l-.1.1s-.1 0-.1.1l-.1.1c-.1 0-.2.1-.2.2s0 .1-.1.2l-.1.1c0 .1-.1.1-.2.1l-.1.1-.1.1c-.1 0-.1.1-.2.1s-.1.1-.1.1c0 .1-.1.1-.2.1h-.1l-.1.1s0 .1-.1.1-.1.1-.2.1-.1.1-.1.1l-.1.1c0 .1-.1 0-.1.1v.1s0 .1-.1.1-.1.1-.1.1h-.1c-.1.2-.3.3-.4.5-.2.2-.2.2 0 .4h.1c.7-.4.8-.4.9-.4zm3.4 7.3c-.1 0-.1.1 0 .1v-.1zM31.4 41.4h-.6c-.1 0-.1 0-.1.1 0 0-.1 0-.1.1h-.1c0 .1-.1 0-.2.1l-.1.1h-.1c-.1 0-.1 0-.2.1l-.1.1h-.1c-.1.1-.2.1-.2.2 0 0-.1.2 0 .2l.1.1v.4l.1.1h.1c.1 0 .1.1.1.1h.2l.1-.1c.1 0 .1 0 .1-.1.1 0 .1 0 .2-.1h.4c.1 0 .1 0 .1-.1h.1l.1-.1h.5s.1 0 .1-.1h.5s.1 0 .1.1l.1.1c.1 0 .1.1.1.1.1 0 .1 0 .1.1 0 0 .1 0 .1.1h.1s.1 0 .1.1c.1 0 .2.1.2.1.1 0 .1 0 .2.1 0 .1.1.1.2.2l.1.1c.1.1 0 .2.1.2s.1.1.2.2c0 .1.1.1.1.2-.1 0-.1.1-.1.2l-.3.3h-.1c-.1 0-.1 0-.1.1h-.2c-.1 0-.1 0-.1.1h-.1c-.1 0-.1 0-.2.1h-1c-.1 0-.1 0-.1.1l-.1.1h-.1l-.1-.1h-.4l-.1.1s-.1.1-.1 0H30.6c0 .1-.1 0-.2.1l-.1.1c0 .1-.1.1-.2.1l-.1.1-.1.1-.1.1-.1.1-.1.1-.1.1-.1.1h-.1l-.5.5c-.1 0-.1 0-.2.1l-.1.1c-.1.1 0 .1 0 .2h.5c0-.1.1-.1.2-.1h.1s0-.1.1-.1H30.2c.1-.1.1-.1.2-.1h.2c.1 0 .1 0 .2-.1h.1c.1 0 .2 0 .3-.1h1.3c0-.1.1 0 .2-.1l.1-.1H34.5c0-.1.1 0 .2-.1s.1-.1.2-.1.1-.1.2-.1l.1-.1h.2c0 .1.2 0 .2.1h.2c.1 0 .1 0 .1.1h.1c.1 0 .1 0 .2.1 0 0 .1 0 .2.1h.2l.1.1.1.1c.1 0 .1.1.2.1 0 0 .1.1.1.2.1.1.1.1.2.1l.3.3v.4s0 .1.1.1v.1c0 .1 0 .1-.1.2 0 .1 0 .1-.1.2 0 .1-.1.1-.1.2h-.1c-.1 0-.1 0-.2.1h-1c-.1-.1-.2-.1-.3-.1-.1 0-.1 0-.2-.1H35c0-.1-.1-.1-.2-.1 0 0-.1 0-.1-.1h-.1c-.1 0-.1 0-.2-.1h-.6c-.1 0-.1 0-.1-.1 0 0-.1 0-.2-.1h-3.4c-.1 0-.1 0-.1.1h-.1l-.1.1h-.5l-.1.1c-.1 0-.1 0-.1.1H29s-.1.1-.2.1H28.5c0 .1-.2 0-.2.1h-.1c-.1 0-.2 0-.2.1v.5l-.1.1h-.1c0 .1-.1 0-.2.1l-.1.1c-.1 0-.1.1-.2.1s-.1.1-.1.1h-.1s0 .1-.1 0c-.1 0-.1.1-.2.1s-.1.2-.2.1l-.2.2c-.1.1-.2 0-.2.1H25.9c0-.1-.1 0-.2-.1l-.3-.3c0-.2-.2-.2-.3-.3 0-.1 0-.1-.1-.1v-.4c-.1 0 0-.1 0-.1v-.1l.2-.2.1-.1c0-.1.1-.1.1-.2s.1-.1.1-.1l.1-.1h.2c.1 0 .1 0 .2.1h.1s0-.1.1-.1h.5c.1 0 .1 0 .2-.1l.1-.1c.1 0 .1-.1.2-.1h.1l.1-.1c0-.1.1 0 .1-.1l.1-.1.1-.1c.1 0 .1 0 .2-.1.1 0 .1-.1.2-.1s.1-.1.2-.1l.1-.1h.1c.1 0 .1-.1.2-.2.1 0 .1-.1.2-.1l.2-.2.4-.4s.1-.1.1-.2.1-.1.1-.1V45.4s0-.1.1-.1V45c0-.1-.1-.2-.2-.2h-.3s-.1 0-.1-.1h-.1l-.1-.1h-.2c0-.1-.1-.1-.2-.1s-.1-.1-.2-.1-.1-.1-.2-.1c0-.1-.1 0-.2-.1l-.1-.1s-.1 0-.1-.1l-.1-.1-.1-.1-.1-.1v-.2c.1 0 0-.1.1-.2 0-.1.1-.1.1-.1 0-.1 0-.1.1-.1 0 0 0-.1.1-.1l.1-.1c0-.1.1-.2.2-.3l.1-.1.2-.2.2-.2.2-.2c.1-.1.2-.1.2-.2.1-.1.1-.1.1-.2l.2-.2.2-.2.2-.2c.1-.1.1-.2 0-.2l-.1-.1c0-.1-.1-.1-.2-.1h-.1l-.1-.1-.1-.1c-.1 0-.1-.1-.1-.1l-.5-.5c0-.1-.1-.2-.2-.3 0-.1-.1-.1-.1-.2V38.9l.2-.2v-.1c.1 0 .1 0 .2-.1s.1-.2.2-.2h.5c.1.1.2.1.3.1.1 0 .2 0 .3.1h.2c.1 0 .2 0 .3-.1h.1c.1 0 .2 0 .2-.1.1 0 .1 0 .2-.1.1 0 .1 0 .1-.1h.2c.1 0 .1 0 .1-.1l.1-.1c.1 0 .3.1.4-.1H32.2l.1.1.2.2.1.1.1.1.1.1.1.1.1.1c.1 0 .1.1.2.1l.1.1c.1 0 0 .1.1.1l.1.1.1.1.1.1c0 .1 0 .1.1.2v.2c0 .1 0 .1-.1.2 0 0-.1.1-.1.2s-.1.1-.2.1h-.2c-.1 0-.2 0-.2.1-.1 0-.1 0-.2.1l-.1.1s-.1 0-.1.1l-.1.1-.1.1c-.1 0-.1.1-.2.1h-.1s0 .1-.1.1h-.5c0 .1-.1.1-.1.1h-.1c-.1.1-.2.1-.3.1.7.3.5.3.4.3zm.6 6.7h.2c.1 0 .1 0 .1-.1.1 0 .1 0 .2-.1v-.1h-.1c-.1-.1-.1 0-.2 0h-.1l-.2.2v.1h.1zM125.8 92.3h-2.2c-.1 0-.1 0-.1.1h-.4c-.1.2-.3.1-.4.1H121.9c-.1 0-.1 0-.2.1-.1 0-.2 0-.3.1h-.3c-.1 0-.1 0-.1.1l-.1.1H120.6c0 .1-.2.1-.2.1l-.1.1h-.3c-.1 0-.1 0-.2.1l-.1.1-.1.1h-.6c-.1 0-.1 0-.2.1-.1 0-.1 0-.2.1 0 .1-.1 0-.1.1-.1 0-.1.1-.2.1 0 .1-.1.2-.1.3 0 0 0 .1-.1.1h-.2c-.1 0-.2 0-.2.1-.1 0-.2 0-.3.1h-.2c-.1 0-.1 0-.1.1 0 0-.1.1-.1 0-.1 0-.2 0-.3.1-.1 0-.1 0-.2.1 0 .1-.1 0-.2.1l-.1.1c-.1 0-.1.1-.2.1h-.2s-.1 0-.1.1c-.1 0-.1.1-.2.1h-.1c-.1.1-.1.1-.2.1s-.1 0-.2.1c-.1 0-.2.1-.2.1h-.2c-.1.1-.1.1-.2.1s-.1.1-.2.2c-.1 0-.2 0-.2.1-.1.1-.1.1-.2.1-.1.1-.1.1-.2.1s-.1.1-.2.1-.1.1-.2.2c0 .1-.1 0-.2.1s-.1.1-.2.1h-.2c0 .1-.2 0-.2.1l-1.6 1.6c-.1.1-.1.1-.2.1h-.1l-.8.8c-.1.1-.1.1-.1.2l-.1.1v.2c-.1 0-.1.1-.2.2v.1c0 .1 0 .2-.1.2 0 0 0 .1-.1.2-.1 0 0 .1-.1.1l-.1.1v.9c.1 0 0 .2.1.2s.1.1.2.2c0 .1 0 .2.1.2l.2.2c.1.1.2.1.2.1.1.1.2.1.2.2l.2.2c.1 0 .2.1.2.1l.2.2c.2 0 .2.1.3.2.2 0 .2.2.3.2.1 0 .1.1.2.1h.1c.1.1.1.2.2.2s.2.1.2.2c.1 0 .1 0 .2.1 0 .1.1.1.2.2h.1c.1 0 .1 0 .2.1s.2 0 .3.2h.1c.1 0 .2 0 .3.1.1 0 .2.1.2.1l.1.1h.1c.1 0 .2 0 .3.1h.2c.1 0 .1 0 .1.1s.1.1.1 0c.1 0 .1 0 .2.1h.4c0 .1.2 0 .2.1.1.1.2.1.2.1h.1l.1.1c.1 0 .1 0 .1.1l.1.1c.1 0 .1.1.2.1s.1 0 .2.1h.1c.1 0 .1 0 .2.1h.5c.1 0 .1.1.1.1.1 0 .2 0 .2.1h.2s.1 0 .1.1h.1c.1 0 .2 0 .3.1.1 0 .1 0 .2.1H121.9c.1 0 .1 0 .1-.1H122.3c.1 0 .1 0 .2-.1h.1c.1 0 .3.1.3-.1h.6c.1 0 .1-.1.2-.1h.1c.1 0 .1-.1.2-.1h.4l.2-.2.1-.1h.5s.1 0 .1.1v.1c-.1.1-.2.3-.4.4h-.2l-1 1-.2.2c-.1.1-.2.1-.2.2-.1 0-.2.1-.2.1l-.2.2c-.1 0-.2.1-.3.2l-.2.2c-.1.1-.2.1-.3.1l-.2.2-.2.2-.2.2c-.1.1-.1.2-.2.2h-.1c-.1 0-.1.1-.2.1s-.1.1-.1.1c-.1 0-.1.1-.2.1s-.1.1-.2.1-.1.1-.2.1h-.1c-.1.1-.1.1-.2.1s-.1 0-.2.1h-.1c-.1.1-.1.1-.2.1h-.2c-.1.1-.2.1-.3.2 0 0-.1.1-.1 0h-.2c-.1 0-.3-.1-.4.1h-.1c-.1 0-.1 0-.2.1h-1.8c-.1 0-.1 0-.2-.1h-.6c-.1 0-.2 0-.2-.1h-.9c-.1 0-.1 0-.2-.1h-.1c-.1 0-.1-.1-.2-.1h-1c-.1-.1-.1-.1-.2-.1s-.1 0-.1-.1h-.1c-.1 0-.2 0-.2-.1h-.6c-.1 0-.1 0-.2-.1 0 0-.1 0-.1-.1l-.1-.1c-.1 0-.2 0-.2-.1-.1 0-.2 0-.2-.1-.1 0-.1 0-.2-.1 0-.1-.1 0-.2-.1l-.1-.1c-.1 0-.1-.1-.2-.1h-.2s-.1 0-.1-.1c-.1 0-.1-.1-.2-.2-.1 0-.2 0-.2-.1-.2 0-.2-.1-.3-.2h-.1c-.1 0-.2 0-.2-.1-.1-.1-.2 0-.2-.1-.1 0-.2 0-.2-.1-.1-.1-.1-.1-.2-.1l-.1-.1c-.1 0-.2-.1-.3-.1l-.2-.2c-.1 0-.1-.1-.2-.1s-.1-.1-.2-.1h-.2l-.3-.3-.3-.3-.3-.3-.3-.3-.3-.3-.3-.3c-.1 0-.2-.1-.3-.2l-.3-.3-.2-.2-.3-.3c-.1-.1-.1-.2-.1-.3-.1-.1-.2-.1-.2-.2v-.1c0-.1-.1-.1-.1-.2s0-.2-.1-.2v-.1l-.1-.1v-.4c0-.1-.1-.2-.1-.3v-1.1c.1-.1.1-.2.1-.3v-.3c0-.1 0-.1.1-.2v-.1l.1-.1c0-.1.1-.2.1-.3 0-.1.1-.1.1-.2.1-.1.1-.1.1-.2l.3-.3c.1 0 .2-.1.3-.1h.1c.1 0 .1-.1.2-.2 0-.1.1 0 .2-.1l.3-.3h.5c0-.1 0-.1.1-.2.1 0 0-.1.1-.1.1-.1.1-.2.2-.2 0 0 .1 0 .1-.1 0 0 .1-.1.1 0 .1 0 .1 0 .2-.1h.6c0-.1.1-.1.2-.1l.1-.1c.1 0 .1 0 .2-.1.1 0 .2 0 .3-.1h.1c.1 0 .2 0 .2-.1.1 0 .2 0 .2-.1.1 0 .1 0 .2-.1h.4c0-.1.1 0 .2-.1.1 0 .1-.1.2-.2l.2-.2c.1-.1.1-.1.2-.1h.1c.1-.1.1-.1.1-.2l.3-.3c.1 0 .1-.1.2-.1h.1l.3-.3c.1-.2.2-.1.3 0 .1.1 0 .1.1.2.1 0 .1.1.2.2s.2.1.2.1h.1c0-.1.1-.1.2-.2h.1s0-.1.1-.1.1-.1.2-.1.1-.1.2-.1.2-.1.2-.1l.1-.1h.4c.1-.1.2-.1.3-.2 0-.1.1-.1.2-.2h.1c.1 0 .1-.1.2-.1h.1c0-.1.1-.1.2-.1.1-.1.2-.1.3-.2.1-.1.2 0 .3-.2.1 0 .2 0 .2-.1h.1c.1 0 .1 0 .2-.1 0-.1.1 0 .1 0l.1-.1c.1 0 .2-.1.3-.1.1 0 .1-.1.2-.1.1-.1.1-.2.3-.2l.1-.1.1-.1c.1 0 .1-.1.2-.1s.1 0 .1-.1c.1-.1.1-.2.3-.2.1-.1.1-.2.3-.2.1-.1.2-.2.3-.2.1-.1.1-.2.2-.2s.2-.1.2-.2c.1 0 .1-.1.2-.1s.1-.1.2-.1l.2-.2c.2 0 .2-.1.3-.2.2 0 .2-.1.3-.2l.2-.2c.1-.1.1-.1.2-.1.1-.1.2-.2.3-.2l.3-.3.1-.1c0-.1.1-.2.2-.2.1-.1 0-.1.1-.2.1 0 .1-.1.2-.2 0-.1.1-.1.1-.2s0-.1.1-.2c0 0 0-.1.1-.2.1 0 0-.1.1-.1l.1-.1v-1.7c0-.1 0-.1-.1-.3 0-.1 0-.1-.1-.2V87c-.1-.1-.1-.2-.2-.3l-.1-.1-.1-.1c0-.1 0-.1-.1-.2-.1 0-.1-.1-.2-.2 0-.1-.1-.2-.1-.2s-.1-.1-.1-.2-.1-.1-.1-.2 0-.1-.1-.2-.1-.1-.1-.2-.1-.1-.1-.2 0-.1-.1-.2l-.2-.2c-.1-.1-.1-.1-.1-.2s-.1-.1-.1-.2l-.2-.2c0-.2-.1-.2-.2-.3-.1-.1-.2-.1-.2-.1h-.1l-.3.3c0 .1-.1.2-.1.2l-.2.2c0 .2-.1.2-.2.3 0 .1 0 .2-.1.2l-.2.2c0 .1-.1.1-.1.2s0 .1-.1.1-.1.1-.2.2v.1c0 .1-.1.1-.1.2v.1l-.1.1v.2c0 .1-.1.2-.2.3h-.1l-.3.3c-.1 0-.2 0-.2.1h-.2c-.1 0-.2 0-.3.1-.2 0-.2.2-.4.3 0 .1 0 .2-.1.2v.2c-.1.1-.1.1-.2.1s-.1.1-.2.1c-.1.1-.1.1-.2.1h-.1c-.1 0-.2 0-.2.1l-1.1 1.1c-.1.1-.1.1-.2.1h-.1c-.1.1-.1.2-.2.2s-.1.1-.2.1c0 .1-.1.1-.2.1l-.1.1c-.1 0-.1 0-.2.1 0 .1-.1 0-.1 0-.1.1-.1.1-.2.1s-.2 0-.3.1c0 .1-.1.1-.2.1s-.1.1-.2.1c-.1.1-.1.1-.2.1-.1.1-.2 0-.3.2H109c-.1 0-.1 0-.1-.1l-.2-.2h-.6c0-.1-.1-.1-.2-.1s-.1-.1-.2-.1c-.1-.1-.1-.1-.2-.1h-.1s-.1 0-.1-.1c-.1-.1-.2 0-.3-.1h-.1c-.1 0-.1 0-.2-.1l-.1-.1c-.1-.1-.2-.3-.4-.3l-.2-.2c-.1 0-.1 0-.2-.1h-.2l-.8-.8c0-.1-.1-.2-.2-.3l-.2-.2c0-.2-.1-.2-.2-.3 0-.2-.1-.2-.2-.3 0-.1 0-.2-.1-.2s-.1-.1-.2-.2-.1-.2-.2-.2c-.1-.1 0-.2-.1-.2v-.5c.1-.1.1-.1.1-.2s0-.1.1-.2c0-.1 0-.2.1-.2v-.2s0-.1.1-.1v-.1c0-.1 0-.2.1-.3 0-.1 0-.1.1-.2v-.1c0-.1 0-.2.1-.3l.1-.1c0-.1.1-.1.1-.2v-.1c.1-.1.2-.1.2-.3.1-.1.1-.2.2-.2l.3-.3h.2c.1-.1.1-.1.2-.1l.3-.3c.1-.1 0-.2.1-.2l.2-.2c.1 0 0-.1 0-.1V81.4c.1-.1.1-.1.1-.2s0-.1.1-.2v-.2c0-.1.1-.1.1-.2.1-.1.1-.2.2-.3.1-.1 0-.2.2-.3 0-.1 0-.2.1-.2.1-.1.1-.1.1-.2.1-.1.1-.1.1-.2s.1-.1.1-.2c.1-.1 0-.2.1-.2s.1-.1.2-.2c0-.2.2-.2.2-.3.1-.1.2-.1.2-.3l.3-.3c0-.1.1-.1.2-.2l.2-.2s.1-.1.2-.1.1-.1.2-.2c.1 0 .1-.1.2-.2.2 0 .2-.1.3-.2l.2-.2c.2 0 .2-.1.3-.2.1 0 .2-.1.3-.1h.1l1.1-1.1v-.1l-.2-.2h-.1c-.1 0-.1-.1-.2-.1s-.2 0-.2-.1c0 0-.1 0-.2-.1s-.1 0-.2 0h-.1l-.1.1H108.7c-.1 0-.1 0-.2-.1h-.4c-.1-.2-.3-.1-.4-.1-.1 0-.3.1-.4-.1h-.5c-.1-.1-.2-.1-.2-.1-.1 0-.1-.1-.2-.2s-.2 0-.2-.1-.1-.1-.2-.1-.1 0-.2-.1l-.1-.1c-.1 0-.2 0-.2-.1h-.1c-.1 0-.1-.1-.2-.1h-.1l-.1-.1h-.2l-.1-.1c-.1 0-.2 0-.3-.1h-.2c-.1 0-.1 0-.1-.1 0 0-.1-.1-.1 0-.1 0-.2 0-.3-.1-.1 0-.1 0-.2-.1h-.4c-.1-.1-.2 0-.3-.2 0-.1-.1-.1-.2-.2s-.2 0-.2-.1-.1-.1-.1-.2l-.2-.2c-.1 0-.1 0-.2-.1s-.2 0-.3-.2c-.1 0-.2 0-.3-.1-.1 0-.2-.1-.2-.1l-.1-.1c-.1-.1-.1-.1-.2-.1s0-.1 0-.1l-.2-.2-.1-.1v-.1c0-.1-.1-.1-.1-.2v-.5c.1-.1.1-.2.2-.2.1-.1.1-.2.1-.3l.3-.3h.4s.1 0 .1-.1l.1-.1h2.4c.1 0 .2 0 .3-.1h.1c.1 0 .1 0 .2-.1.1 0 .3.1.4-.1h.2c.1 0 .1 0 .2-.1h.4c.2-.2.4-.1.6-.1h.7s.1 0 .1-.1c0 0 .1 0 .1-.1H107.9c.1 0 .2 0 .3-.1h.3c.1 0 .2 0 .3-.1h.1c0-.1.1-.1.2-.1s.1 0 .2-.1c.1 0 .1 0 .2-.1 0-.1.1-.1.2-.2.2 0 .3-.2.4-.3.1-.1.1-.1.2-.1l.1-.1c.1-.1.1-.1.1-.2v-.2c0-.1 0-.1-.1-.2v-.3c0-.1 0-.1-.1-.2v-.2c0-.1 0-.1-.1-.1 0-.2.1-.4-.1-.5V63.6c0-.1 0-.2-.1-.2v-.1l-.1-.1v-.5c0-.1 0-.1-.1-.2s-.2-.1-.2-.3c-.1-.1-.2-.1-.2-.3-.1-.1-.1-.2-.2-.2l-.3-.3c0-.1 0-.2-.1-.2v-.4l.3-.3c.1-.1.2-.1.2-.2s.2-.2.1-.3l.1-.1c0-.1.1-.2.1-.2l.2-.2.3-.3c.2 0 .2-.1.3-.2.1 0 .2-.1.3-.2.1-.1.1-.1.2-.1s.1 0 .2-.1c.1 0 .1 0 .2-.1l.1-.1s.1-.1.2-.1h1.5c.1 0 .2 0 .2.1.1 0 .2 0 .2.1.1 0 .1 0 .2.1h.4l.1.1c.1 0 .1.1.2.1s.1.1.2.1.1.1.2.1.2 0 .2.1c0 0 .1.1.2.1s.1.1.2.2c.1 0 .1.1.2.2.2 0 .3.2.4.3l.3.3.4.4c0 .2.1.2.2.3l.3.3c.1.1.1.2.1.3l.2.2c0 .1.1.2.1.2.1.1.1.1.1.2 0 0 0 .1.1.1l.1.1c0 .1 0 .2.1.2 0 .1 0 .1.1.2v.1c0 .1 0 .2.1.2.1.1 0 .2.1.2s0 .1 0 .2 0 .2.1.2c.1.1.1.1.1.3V65c.1 0 0 .2.1.2l.1.1v.2l.5.5c.1.1.2 0 .3.2.1 0 .2 0 .3.1h.1l.4.4c0 .2.2.2.2.3.1.1.2 0 .2.1s.1.1.2.1.1.1.2.2l.2.2.2.2h.2l.6.6v.6c0 .1 0 .2.1.3.1 0 .1.1.1.2.1.1.1.2.1.3 0 .1 0 .2.1.2v.1c0 .1 0 .1.1.2v.1c-.1.1-.1.1-.1.2v.3c.1.1.1.1.1.2v.4l-.3.3-.2.2-.2.2c0 .1-.1.2-.1.2l-.2.2c0 .1-.1.2-.2.3l-.3.3c-.1.1-.2.1-.2.2-.1.1-.2 0-.2.1s-.1.1-.2.2h-.2c-.1.1-.1.1-.2.1h-.1c-.1.1-.1.1-.2.1h-.1c-.1 0-.1 0-.2.1h-.1c-.1 0-.2.1-.3.2v.1c0 .1 0 .1-.1.1v.1c.1 0 .1.1.1.2s.1.1.1.2.1.1.1.1v.5c0 .1 0 .1.1.1.1.1.1.1.1.2s.1.1.1.2v.2l.1.1c.1.1.2.2.2.3 0 .1.2.2.2.3 0 .1.1.2.2.3l.2.2c.1.1.1.2.2.2.1.1.1.1.1.2l.1.1c.1 0 .1-.1.2-.1.1-.1.1-.1.2-.1s.1 0 .2-.1c0-.1.1 0 .1 0 .1-.1.2-.1.3-.2.1-.1.2 0 .3-.2.1 0 .2 0 .2-.1.1-.1.1-.1.2-.1l.1-.1h.1c.1-.1.1-.2.2-.2s.1-.1.2-.1.2-.1.2-.1l.6-.6c.1-.1.2-.2.2-.3 0-.1.2-.2.2-.3 0-.1.1-.2.2-.3l.2-.2c.1-.1.1-.2.1-.3l.2-.2.2-.2c0-.2.2-.3.3-.5 0-.2.1-.2.2-.3l.3-.3c.1-.1.1-.1.1-.2v-.1l.1-.1v-.1l.1-.1v-.2c.1-.1 0-.2.2-.3 0-.1 0-.2.1-.2 0-.1 0-.2.1-.2 0-.1 0-.1.1-.2v-.1c0-.1 0-.2.1-.2.1-.1.2-.2.1-.3v-.4c0-.1 0-.2.1-.3v-.5c-.1-.1-.1-.2-.1-.2v-.2c-.1-.1-.1-.1-.1-.2v-.1c-.1 0-.1-.1-.2-.1h-.1c0-.1-.1-.1-.2-.2h-.1c-.1 0-.2-.1-.3-.1h-.6c-.1.1-.2.1-.3 0-.1-.1-.1-.1-.2-.1h-.1c-.1-.1-.1-.1-.2-.1h-.1c-.1-.1-.1-.1-.2-.1H124.3l-.1-.1c-.1-.1-.2 0-.3-.2h-.2c-.1 0-.3.1-.4-.1h-.4c-.1-.1-.1-.1-.2-.1h-.2l-.2-.2c-.1-.1-.1 0-.2-.1 0-.1-.2 0-.2-.1s-.1-.1-.2-.2h-.1c-.1-.1 0-.2 0-.3h1.1c0 .1.2 0 .2.1s.1.1.2.1c.1.1.1.1.2.1h.9c.1 0 .2 0 .2.1h.2c.1 0 .1 0 .1.1h.9c.1 0 .2 0 .3.1.1 0 .2 0 .2.1.1 0 .2.1.3.1.1 0 .1.1.2.1s.1.1.1.1h.2c.1 0 .2 0 .2.1.1.1.1.1.2.1s.1 0 .1.1H127.7c.1 0 .1 0 .2.1.1 0 .1.1.2.1s.1.1.2.1.1.1.2.1h.1l.3.3c.2 0 .2.2.3.2l.3.3.3.3.3.3.3.3.1.1c0 .1.1.2.1.3 0 .1.1.1.1.1V71.3s0 .1-.1.1 0 .1-.1.2l-.1.1v.1l-.7.7c-.2 0-.3.3-.5.4l-.3.3c-.1.1-.1.2-.3.2l-.3.3c-.1 0-.2.1-.3.2l-.2.2-.2.2-.2.2-.2.2c-.1.1-.1.1-.2.1s0 .1-.1.1c-.1.1-.1.2-.2.2l-.1.1c0 .1-.1.1-.1.2s-.1.2-.1.3l-.2.2c-.1.1-.2.1-.2.2-.1.1-.2.1-.2.1l-.2.2c-.1 0-.2.1-.3.2l-.4.4c0 .2-.2.3-.3.4l-.3.3-.3.3c-.1.1-.1.2-.2.2 0 .2-.1.2-.2.3l-.3.3-.2.2-.3.3v.1c0 .1-.1.2-.3.2h-.1c-.1 0-.2.1-.3.1v.1c.1.1 0 .2.1.2.1.1.2.1.2.2l.2.2h.1v.1l.1.1.1.1c.1.1.1.2.2.2 0 .2.1.2.2.3 0 .1 0 .1.1.2.1 0 .1.1.2.2 0 .1 0 .2.1.2l.2.2c0 .1 0 .2.1.2.1.1.2.1.2.2l.2.2c.1.1 0 .2.1.2s.1.1.2.1l.2.2c0 .2.1.2.2.3l.2.2c0 .2.2.3.3.5 0 .2.1.2.2.3l.2.2c0 .2.1.2.2.3 0 .1.1.2.1.2l.2.2c.1.1.2.1.2.3.1.1.1.2.2.2 0 .1.1.2.2.3.1.1.1.2.1.3.1.1.2.1.2.2v.1c0 .1.1.1.1.2s.1.1.1.1c0 .1 0 .2.1.2v.2c0 .1 0 .1.1.1.1.1 0 .2.1.2s.1.1.2.2v.2c.1 0 0 .2.1.2.1.1.1.2.1.2v.2c.1 0 .1.1.1.2.1.1.1.1.1.2v.1c.1 0 .1.1.1.2 0 0 0 .1.1.1.1.1.1.1 0 .2s-.1.1-.1.2c-.1.1-.1.1-.1.2v.2c-.1.1-.1.2-.2.3l-.1.1v.1l-.2.2c-.1.1-.1.1-.2.1l-.2.2h-.1c-.1 0-.2 0-.2.1 0 0-.1 0-.2.1 0 .1-.1 0-.1.1l-.1.1h-.2c.5.6-.2.6-.9.6zm-16.5-10.7v.5c.1.1.1.2.1.3v.4c0 .1 0 .1.1.1v.1c0 .1.1.1.2.2l.1.1c0 .1 0 .1.1.2.1 0 .1.1.2.2v.1c0 .1 0 .1.1.1h.3c.1 0 .3-.1.4.1h.3c0-.1.1-.1.2-.1h.5c.1 0 .1 0 .1-.1s.1 0 .1 0l.1-.1h.1c.1 0 .2 0 .2-.1H112.8c.1-.1.1-.1.2-.1s.2 0 .3-.1h.4c.1-.1.1-.1.2-.1h.1c.1-.1.1-.1.2-.1s.1 0 .2-.1.2 0 .2-.1H114.9l.1-.1h.2c.1-.1.2-.1.3-.2 0-.1.1 0 .1-.1l.1-.1h.1c0-.1.1-.1.2-.1s.1 0 .2-.1l.1-.1h.1c.1 0 .2 0 .2-.1.1-.1.1-.1.2-.1s.1-.1.2-.1c.1-.1.2-.2.2-.4 0 0 0-.1-.1-.1s-.1-.1-.2-.1-.2-.1-.2-.1c-.1-.1-.1-.1-.2-.1l-.2-.2v-.1l-.3-.3c-.1-.1-.1-.2-.2-.2-.1-.1-.1-.2-.3-.2-.1-.1-.1-.2-.3-.2-.1 0-.2-.2-.3-.2-.1-.1-.3-.2-.4-.4-.1-.1-.3-.2-.3-.4-.1-.1-.3-.2-.4-.4-.1-.1-.3-.2-.3-.4-.1-.1-.2-.1-.2-.3-.1-.1-.1-.2-.2-.2 0-.2-.1-.2-.2-.3v-.1c0-.1-.1-.1-.2-.2h-.2c-.1 0-.1.1-.1.1l-.3.3c-.1 0-.2 0-.2.1-.1.1-.1.1-.2.1-.1.1-.2.2-.3.2-.1.1-.2.1-.2.2-.1.1-.2.1-.3.2l-.3.3c-.1.1-.2.2-.2.3l-.2.2c0 .1-.1.1-.1.2s-.1.1-.1.2c-.1.1-.2.1-.2.2s-.1.2-.2.2v.1l-.1.1v.1c-.1 0-.1.1-.1.2v.4c-.1.1-.1.2-.1.3v.6zm-1.8-1.6c0 .1 0 .1.1.2h.1c.1-.1.1-.1.1-.2.1-.1.1-.2.2-.2 0-.2.1-.2.2-.3 0 0 0-.1-.1-.1h-.1c0 .1 0 .2-.2.2l-.3.3v.1zm-.5 1.3h.2c0-.1 0-.2.1-.2V81c-.1-.1-.2-.2-.3-.2-.1 0-.2.2-.2.2v.3s0 .1.1.1c0-.1 0-.1.1-.1zm3.4-3.8c-.1-.1-.1-.1-.2-.1l-.3.3v.1c.1.1.1.1.1 0 .2 0 .3-.1.4-.3 0 .1 0 .1 0 0zm-2.3 2.9c0 .1 0 .2.1.3h.1l.1-.1v-.1c0-.1-.1-.1-.1-.1h-.1c-.1-.2-.1-.1-.1 0zM140.9 63.8v.2c-.1.1-.1.2-.1.3v.3c0 .2-.1.2-.2.3-.1 0-.1 0-.2.1h-.1c-.2 0-.2.1-.3.2 0 .1-.1.2-.1.2h-.1l-.1-.1c-.1-.1-.1-.1-.2 0h-.3s-.1 0-.1-.1c0 0-.1 0-.1-.1-.1-.1-.1-.1-.2-.1h-.3c-.1 0-.1 0-.1.1-.1.1-.1.1-.2 0l-.1-.1c-.1-.1-.1-.1-.2 0h-.3s-.1 0-.1-.1c-.1 0-.1-.1-.2-.2l-.1-.1v-.3c0-.1 0-.1-.1-.1l-.2-.2h-.1c-.1 0-.2 0-.2-.1-.1 0-.2 0-.2-.1-.1 0-.2 0-.2-.1-.1-.1-.1-.1-.2-.1-.1-.1-.1-.1-.5-.3-.1 0-.2-.1-.3-.1h-.4c-.1 0-.1 0-.1-.1h-.2c-.1 0-.1 0-.2-.1 0-.1-.1 0-.1 0l-.1-.1-.4-.4h-.1c-.1 0-.1-.1-.2-.1h-.1l-.1-.1c-.2 0-.2-.1-.3-.2V62c-.1 0-.1-.1-.1-.2v-.1l.1-.1c.1-.1.2-.1.2-.3.1-.1.1-.2.2-.2 0-.1.1-.2.1-.2l.2-.2.2-.2c.1 0 .1-.1.2-.1s.2 0 .2-.1c.1-.1.1-.2.2-.2l.1-.1c.1 0 .1-.1.2-.1s.1-.1.2-.1.1-.1.2-.1h.1l.1-.1h.4c.1 0 .2 0 .3-.1h.6c0 .1.1.1.2.1s.1.1.2.1c0 0 .1 0 .1.1l.1.1c.1 0 .2 0 .2.1.1 0 .2 0 .2.1.1 0 .2 0 .2.1.1 0 .2.1.3.1.1 0 .1.1.2.1.1.1.1.2.2.2s.2.1.2.2c.3.2.5.5.8.8.1.1.1.2.2.2.1.1 0 .2.1.3.1.1.2.1.2.2s.1.1.1.2.1.1.1.2v.1l.1.1v.2c0 .1 0 .2.1.3.5.1.5.2.5.4zM132.6 65.5h.5c.1 0 .1 0 .1-.1.1-.1.1 0 .2-.1l.1-.1c.1 0 .1-.1.1-.1h.4c0 .1.2.1.2.1l.6.6s.1.1.2.1.1 0 .1.1c.1 0 .1.1.2.1s.2.2.3.1h.1l.1.1c.1 0 .2 0 .2.1.1 0 .2 0 .2.1.1.2.3.3.5.5v.2c.1 0 .1.1.2.2 0 .1 0 .1.1.2 0 0 0 .1.1.1v.2c0 .1 0 .3.1.3v.1c0 .1 0 .1.1.2v.9c0 .1 0 .1-.1.1.1.1-.2.2-.1.3 0 .1 0 .1-.1.2s0 .1 0 .2 0 .1-.1.1h-.1c-.1 0-.1 0-.2.1h-.1c-.1 0-.1.1-.2.1s-.3-.1-.3.1h-.4c-.1 0-.1 0-.2-.1h-.1l-.2.2h-.1c-.1-.1-.3-.2-.4-.4v-.1c-.1-.1-.1-.2-.3-.2-.2-.1-.2-.1-.3-.1h-.1c0-.1-.1-.1-.2-.1s-.1-.1-.2-.1-.1-.1-.2-.1l-1-1c-.1-.1-.1-.1-.1-.2l-.2-.2-.1-.1c-.1 0-.1-.1-.2-.1h-.1c-.1-.1-.1-.1-.2-.1H131.1l-.2-.2c-.1 0-.2-.1-.3-.2-.1-.1-.1-.2-.3-.2-.1-.1-.2-.1-.2-.2h-.2v-.3s0-.1.1-.1c.1-.1.1-.2.1-.3 0-.1 0-.1.1-.1s.1 0 .1-.1c.1-.1.2 0 .2-.1s.1-.1.1-.2l.1-.1c.1 0 .1-.1.2-.1s.2-.1.3-.1l.3-.3v-.1c0-.1 0-.1.1-.1.7.4.9.4 1 .4zM100 46.4h.4c.1 0 .1 0 .2.1H100.9l.1.1.1.1h.4c0 .1.1 0 .2.1H102l.1.1h.2l.1.1.1.1.1.1h.2l.1-.1v-.9l-.1-.1-.1-.1v-.1c.1 0 0-.1.1-.2V45c0-.1-.1-.1-.1-.2V44s0-.1-.1-.2l-.1-.1v-.1h-.5c0 .1-.1 0-.2.1h-.4c-.1 0-.1 0-.1.1h-.1c-.1 0-.1 0-.2.1-.1 0-.1 0-.1.1h-.2l-.1.1s0 .1-.1.1h-.6c0 .1-.1 0-.1.1s-.1 0-.2 0h-.2l-.1-.1s-.1-.1 0-.1l.2-.2.2-.2c0-.1.1-.1.2-.2l.2-.2.4-.4c0-.1.1 0 .1-.1s.1 0 .1 0l.1-.1c0-.1.1 0 .1-.1l.1-.1c.1 0 .1 0 .1-.1 0 0 .1 0 .1-.1.1 0 .1 0 .1-.1.1 0 .1 0 .1-.1.1 0 .1 0 .1-.1 0 0 .1 0 .1-.1 0 0 .1 0 .1-.1s.1 0 .1-.1.2 0 .2-.1c.1 0 .1 0 .1-.1.1 0 .1-.1.2-.1 0 0 .1 0 .1-.1 0 0 .1 0 .1-.1v-.5l.1-.1v-.2c0-.1 0-.1.1-.2v-.1c0-.1 0-.2.1-.3v-.3c-.1 0 0-.1-.1-.2l-.1-.1V38.9c.1-.2.3-.3.4-.5 0 0 .1 0 .1-.1 0 0 0-.1.1-.1l.1-.1c.1 0 .1 0 .1-.1.1 0 .1 0 .1-.1h.7c.1 0 .1.1.2.1l.2.2.2.2.2.2.1.1v.1s.1 0 .1.1v.4c0 .1 0 .1.1.1h.1l.3.3c.1 0 .1.1.2.1l.2.2.3.3v.1l.3.3c0 .1.1.1.1.2v.1s.1 0 .1.1v.5l-.2.2s-.1 0-.1.1l-.1.1c-.1 0-.1.1-.1.1-.1 0-.1.1-.1.1H105.6s-.1 0-.1.1H105.2c0 .1-.1.1-.2.1h-.2s-.1 0-.1.1c0 0-.1 0-.1.1v.3s-.1.1 0 .1c0 .1 0 .1-.1.1 0 0 0 .1-.1.2v.5c0 .1.1.1.1.2v2.1c0 .1 0 .1.1.2v.6c0 .1 0 .1-.1.1 0 0 0 .1-.1.1l-.1.1c0 .1-.1.1-.1.2s-.1.1-.2.2c-.1 0-.1 0-.1.1l-.1.1v.1l.1.1.2.2c.1 0 .1.1.2.1 0 0 .1 0 .1.1l.1.1c.1 0 .2.1.2.2.1.1.1 0 .2.1 0 .1.1.1.1.2l.2.2.2.2.2.2.2.2s.1 0 .1.1.1.1.1.2v.1c0 .1.1.1.1.2 0 0 0 .1.1.1l.2.2v.2l-.1.1h-.1l-.1-.1s0-.1-.1 0h-.3c-.1 0-.1 0-.1-.1 0 0-.1 0-.1-.1s-.1 0-.1-.1l-.1-.1v-.2c-.1 0-.1 0-.1-.1-.1 0-.1 0-.1-.1h-.1s-.1 0-.1-.1c-.1 0-.2 0-.2-.1H104.4l-.1-.1c0-.1-.1-.1-.2-.1h-.1l-.1-.1c-.1 0-.1 0-.1-.1-.1 0-.1 0-.1-.1-.1 0-.1 0-.2-.1h-.1c0-.1-.1 0-.1-.1l-.1-.1c-.1 0-.1-.1-.1-.1h-.1l-.1-.1h-.2c-.1 0-.1 0-.1.1H101.9c-.1 0-.1 0-.1.1 0 0 0 .1-.1.1s-.1.1-.1.1h-.1s0 .1-.1.1h-.3c-.1 0-.1 0-.1.1h-.1c-.1 0-.1 0-.2.1 0 0-.1 0-.1.1h-.1s-.1 0-.1.1h-.4l-.1-.1c-.1 0-.1 0-.1-.1V49.3l-.3-.3c0-.1-.1-.2-.2-.3V48.4c0-.1 0-.1-.1-.1v-.2c-.1 0-.1-.1-.1-.2v-.7c0-.1 0-.1.1-.1 0 0 .1-.1.1-.2l.1-.1c.1 0 .1-.1.2-.1s.1-.1.2-.1h.1c-.3-.2-.1-.2.1-.2zm.2 1.2c-.2 0-.2.1-.2.1l.1.1v.4l.1.1.2.2c0 .1.1 0 .2.1h.1l.1-.1h.4c0-.1.1-.1.1-.1l.1-.1h.2v-.1l-.1-.1h-.1s-.1-.1-.1 0c-.1 0-.1 0-.1-.1h-.1c0-.1-.1 0-.1-.1l-.1-.1h-.1c-.1 0-.2 0-.2-.1-.2-.1-.2-.1-.4-.1.1 0 0 0 0 0zm4.7-7.4c0 .1 0 .2.1.3v.1c0 .1 0 .1.1.2h.4c0-.1.1-.1.1-.1v-.2c0-.1 0-.1-.1-.2 0 0-.1 0-.1-.1l-.1-.1c-.1 0-.1 0-.1-.1l-.1-.1-.1-.1h-.1v.4zM95.7 47.4v-.3c0-.1 0-.2.1-.3v-.4c0-.1-.1-.3.1-.4v-1l.1-.1V44.6c.1 0 .1-.1.1-.2v-.5c0-.1 0-.1.1-.2v-.2c0-.1-.1-.3.1-.4V42.2l.1-.1v-.2c0-.1 0-.1.1-.2v-.2c.1 0 .1-.1.1-.2v-1l.1-.1v-.5l.1-.1v-.1c0-.1.1-.1.1-.2s.1-.1.1-.2h.1l.1-.1H97.5c0 .1.1 0 .2.1 0 .1.1.1.1.1l.2.2v.1c.1 0 0 .1.1.2l.1.1c0 .1.1.1.1.2 0 0 .1.1.1.2 0 0 0 .1.1.1 0 .1 0 .1.1.1v.5c0 .1 0 .1.1.1 0 .1 0 .1.1.2l.1.1v.2l-.1.1v.1l-.1.1s0 .1-.1.1h-.1l-.1.1h-.1c0 .1 0 .1-.1.2s0 .2-.1.2c0 .1 0 .2-.1.2 0 .1 0 .1-.1.2 0 .1 0 .1-.1.2 0 .1 0 .1-.1.1v.4c0 .1 0 .1-.1.1v.8l-.1.1c0 .1 0 .1-.1.1v.4s0 .1-.1.1v.2s0 .1-.1.1v.1l-.1.1v.5c-.1 0-.1.1-.1.2v.1s-.1 0-.1.1v.2c-.1.1-.1.2-.1.2v.2c0 .1 0 .1-.1.1 0 0 0 .1-.1.2v.8c.1 0 0 .1.1.2.3.3.5.6.8.8 0 0 .1.1.2.1s.1 0 .2-.1l.2-.2c0-.2.1-.2.2-.3h.1l.1.1v.1l-.1.1c0 .1 0 .2.1.3v.5s0 .1-.1.1c0 .1 0 .1-.1.1V50.3c0 .1-.1.1-.2.2h-.4c-.1 0-.1 0-.1-.1-.1 0-.1 0-.2-.1 0 0 0-.1-.1-.1s-.1-.1-.2-.2c-.1 0-.1-.1-.2-.1 0 0-.1-.1-.1-.2 0 0-.1-.1-.1-.2l-.1-.1c0-.1-.1-.1-.1-.2s-.1-.1-.1-.2l-.3-.3v.3c0-.1-.1-.1-.1-.1 0-.1 0-.1-.1-.2v-.2c0-.1 0-.2-.1-.2V48c-.1-.2-.1-.4-.1-.6zM107.6 37.4h.2l.1.1.1.1s.1 0 .1.1v.1s.1 0 .1.1v.1l.1.1c0 .1.1.1.1.2s.1.1.1.2v.2s-.1 0-.1.1V39.1l-.2.2h-.2s0-.1-.1 0h-.1c-.1 0-.1 0-.1-.1h-.1l-.1-.1-.3-.3H106.9c0-.1-.1 0-.1-.1 0 0 0-.1-.1-.1s-.1-.1-.2-.1l-.1-.1s-.1 0-.1-.1c0 0 0-.1-.1-.1v-.1l.3-.3.1-.1c.1 0 .1-.1.2-.1 0 0 .1 0 .1-.1h.2c.4-.1.4-.1.5-.1z"/><path class="st2" d="M107.4 40.5h-.2l-.1-.1c-.1 0-.1 0-.1-.1l-.1-.1c-.1 0-.1-.1-.1-.1l-.2-.2-.1-.1c0-.1-.1-.1-.2-.1 0-.1-.1 0-.2-.1h-.1s-.1 0-.1-.1v-.2c0-.1 0-.1.1-.1h.1l.1-.1.1-.1c.1 0 .1 0 .1-.1h.2c.1 0 .1 0 .1-.1 0 0 0-.1.1-.1h.1c0 .1.1.1.1.1 0 .1.1 0 .1.1l.1.1h.1c.1 0 .1 0 .2.1l.3.3v.1c0 .1.1.1.1.2s0 .1.1.1v.1c-.1.1 0 .2-.1.2 0 .1-.1.1-.1.2-.1 0-.1 0-.1.1-.2.1-.3.1-.3.1zM14.7 50.9h-.4c-.1 0-.1 0-.1-.1l-.1-.1H13.8c-.1 0-.2 0-.3-.1h-.1c-.1 0-.1 0-.1-.1h-.9c-.1 0-.1 0-.1.1 0 0-.1 0-.2.1h-.2c0 .1-.1.1-.2.1H10.8l-.1-.1c-.1-.1-.1-.2-.2-.2 0-.1-.1-.1-.1-.2v-.5l.2-.2c.1-.1.1-.2.2-.2l.1-.1v-.1l-.4-.4V48.5c0-.1 0-.1.1-.1 0 0 0-.1.1-.1l.1-.1c.1-.2.1-.2.2-.3.1 0 .1-.1.2-.1h.1c.1 0 .1-.1.2-.1l.1-.1.1-.1c.1 0 .1-.1.2-.1s.1-.1.2-.1.1-.1.1-.1c.1 0 .1 0 .2-.1h.1c.1 0 .1 0 .1-.1.1-.1.1-.1.2-.1v-.2c-.1 0 0-.2-.1-.2v-.8c0-.1-.1-.2-.2-.2s-.1 0-.1.1h-.6c-.1-.1-.2-.1-.3-.1h-.4c-.1 0-.1 0-.1-.1V45.1l.3-.3.7-.7.2-.2c.1 0 .2-.1.2-.2.1-.1.2-.1.2-.2.1 0 .2-.1.3-.2.1 0 .1-.1.2-.1s.1-.1.1-.1v-.5l.1-.1.1-.1s.1 0 .1-.1h.4c.1 0 .1 0 .1.1l.1.1c.1 0 .1.1.2.1s.1 0 .1.1 0 .1.1.1h.1s0 .1.1.1l.1.1v.4s.1 0 .1.1l-.1.1v.2l-.2.2v.1c0 .1-.1.1-.1.2v.1l-.1.1c0 .1 0 .1-.1.1v.1s-.1.1-.1.2v.5l.2.2h.1c.1-.1.1-.1.1-.2v-.1c.1 0 0-.2.1-.2v-.4c.1-.1.1-.1.1-.2v-.1c0-.1 0-.1.1-.2 0-.1.1-.1.1-.2.1 0 0-.1.1-.2.1 0 .1-.1.1-.1l.1-.1v-.1h.2c.1 0 .1.1.1.2v.2s0 .1.1.1H16c.2-.2.4-.4.6-.7 0-.1.1-.2.2-.2.1-.1.2-.1.2-.2h.8l.1.1c.1 0 .1 0 .1.1h.1c0 .1.1.1.2.1s.1.1.2.1l.2.2v.2c0 .1 0 .2.1.2v.2c-.1.1-.1.2 0 .2V46.8c-.1 0 0 .1-.1.2-.1 0-.1.1-.1.2l-.1.1s0 .1-.1.1c0 .1-.1 0-.1.1 0 0 0 .1-.1.1H18c-.1 0-.1 0-.1.1s0 .2-.1.2c0 0 0 .1-.1.1h-.6c-.1 0-.1-.1-.2-.1s-.1-.1-.2-.1-.1-.1-.1-.1c-.1 0-.1 0-.2-.1l-.1-.1h-.2v.5c0 .1-.1.1-.2.1l-.1.1h-.1c-.1-.1-.1 0-.2 0 0 .1-.1.1-.2.1l-.1.1H15l-.1-.1c-.1-.1-.1-.2-.2-.2-.1-.1-.1-.1-.1-.2s0-.1.1-.2c.1 0 0-.1 0-.2s-.1-.1-.1-.1h-.1c-.1 0-.1 0-.2.1 0 .1 0 .1-.1.2 0 .1 0 .1-.1.2v.1c0 .1 0 .1-.1.2 0 0-.1.1-.1.2-.1.1-.2.1-.1.2l-.1.1c-.1 0 0 .2-.1.2v.1c0 .1 0 .1-.1.1h-.1l-.1-.1h-.1l-.1-.1-.1-.1c-.1-.1-.1-.1-.2 0s-.1.1-.2.1l-.2.2-.2.2-.2.2-.2.2v.1l.1.1h.5c.1 0 .1 0 .2-.1h1.1c0 .1 0 .1.1.1-.1.1-.1.1-.1.2s0 .1-.1.2c0 0-.1.1-.1.2 0 0-.1.1-.1.2-.1 0-.1 0-.2.1-.1-.8-.2-.8-.2-.8 0 .1-.1 0-.1.1s-.1 0-.1.1v.1c.1.1.1.1.2.1s.2 0 .3-.1h.7c0-.1.1 0 .2-.1l.1-.1c.1-.1.1-.2.2-.2s.1-.1.2-.1.1-.1.2-.1l.1-.1c.1 0 .1 0 .1-.1h.2c.1 0 .1 0 .1-.1 0 0 .1 0 .2-.1h.4v.1l-.3.3c-.1 0-.1.1-.2.1v.1c.1.1.2.1.2.2v.4c-.1 0 0 .1-.1.2l-.1.1c-.4.1-.6.1-.8.1zm2.1-6v-.7c-.1-.1-.1-.1-.2-.1h-.1c-.1.1-.1.1-.2.1s-.1.2-.2.1c-.1.1-.2.2-.2.3l-.1.1-.1.1c0 .1 0 .1-.1.1v.1c0 .1 0 .1-.1.2v.1c0 .1 0 .1.1.2v.2c.1 0 .1.1.1.2s0 .2.1.2c0 .1 0 .1.1.1l.1.1h.2l.1-.1.2-.2v-.1l.1-.1v-.1l.1-.1v-.2c.1-.1.1-.3.1-.5zm-2.7 1.7c.1 0 .2 0 .2-.1v-.1l-.1-.1H14c-.1.1-.1.2-.1.3h.2z"/><path class="st2" d="M18.6 41.3v.6c0 .1 0 .1-.1.2 0 .1 0 .1-.1.1v.1H18.1l-.1.1h-.4s-.1 0-.1.1h-.1l-.1-.1h-.4c-.1 0-.2 0-.2.1H16.4c-.1.1-.1.1-.2.1l-.1.1h-.2l-.1.1h-.1c-.1 0-.1.1-.2.1h-.6c-.1 0-.1 0-.1.1-.1 0-.1 0-.2.1l-.1-.1-.1-.1-.1-.1v-.2l.2-.2V42.1l-.1-.1v-.1c0-.1 0-.1-.1-.1v-.4h-.5l-.1.1h-.1c-.1 0-.1 0-.1.1h-.1c-.1 0-.1.1-.1.1h-.2c-.1 0-.2 0-.3.1H12.5s-.1 0-.1.1l-.1.1-.1.1h-.1c-.1.1-.1.1-.2.1s-.1.1-.2.2l-.2.2s0 .1-.1.1l-.1.1-.1.1c0 .1-.1.1-.2.1h-.1l-.1.1h-.2l-.1-.1h-.1c0-.1-.1-.1-.2-.1l-.1-.1c-.1 0-.2-.1-.2-.2V42.3l.4-.4h.5c.1 0 .1 0 .1-.1.1 0 .1 0 .2-.1h.1c.1 0 .2 0 .2-.1.1 0 .1 0 .1-.1h.4l.1-.1.1-.1h.1c.1 0 .1 0 .2-.1.1 0 .2 0 .2-.1h.4c.1 0 .1 0 .2-.1h.1l.1-.1H13.7s.1-.1.1-.2V40.4l-.2-.2c0-.1-.1 0-.2-.1 0-.1-.1 0-.2-.1l-.1-.1H13s-.1-.1 0-.1l.1-.1c.1 0 .1 0 .1-.1l.1-.1.4-.4h.5c.1 0 .1 0 .1-.1 0 0 .1 0 .2-.1H15.4l.1.1c0 .1.1 0 .1.1l.1.1s.1 0 .1.1l.1.1.1.1s0 .1.1.1l.1.1v.4c0 .1 0 .1.1.2h.4c.1 0 .1 0 .1-.1.2-.1.2-.1.2-.2v-.2c.1 0 .1-.1.1-.2v-.4c0-.1 0-.2.1-.2V38.7s0-.1.1-.1l.1-.1c0-.1.1-.1.1-.1 0-.1 0-.1.1-.1 0-.1.1-.1.1-.2l.1-.1.1-.1c.1-.1.2-.1.2-.2.1-.1.1-.1.2-.1 0-.1.1-.1.2-.1 0-.1.1-.1.2-.1.1-.1.1-.1.2-.1h.1l.1-.1h.2c.1.1.1.1.2.1l.2.2.2.2c.1.1.1.1.1.2.1 0 .2.1.2.1 0 .1 0 .1.1.1v.2c0 .1 0 .1-.1.2l-.1.1s-.1.1-.1 0c-.1 0-.1.1-.2.1h-.2c-.1 0-.1 0-.2.1h-.1l-.1-.1h-.1s-.1.1-.2.1l-.2.2v.1l-.1.1c0 .1-.1.1-.1.1 0 .1 0 .1-.1.1v.1l-.1.1v.3H18.6c.1 0 .2 0 .3-.1h2c.1 0 .2 0 .2.1h.9s.1 0 .1.1l.1.1c.1 0 .2.1.2.1l.2.2v.1c0 .1 0 .1.1.2V41h-.1c-.1 0-.2 0-.2.1H22.1c-.1 0-.1 0-.2-.1l-.1-.1c-.1 0-.1 0-.1-.1h-.2l-.1-.1c-.1 0-.1 0-.1-.1-.1 0-.1 0-.2-.1 0-.1-.1-.1-.2-.1h-.1c0-.1-.2 0-.2-.1H20c-.1 0-.1 0-.1-.1h-.5c0 .1-.1 0-.2.1 0 0 0 .1-.1.1H18.5l-.2.1c.3.3.3.6.3.8zm-2 .1h.1c.1 0 .1 0 .1-.1.1 0 .1-.1.2-.1s.1-.1.2-.1c0-.1.1-.1.1-.2v-.2l-.1-.1h-.1l-.1.1H16.7l-.1.1-.1.1v.1c-.1 0-.1.1-.1.2v.1h.1l.1.1z"/><path class="st2" d="M23.4 43.4v.2c0 .1 0 .2-.1.3v.2l-.2.2h-.3c-.1.1-.2.1-.2.1h-.3s-.1 0-.1.1c-.1 0-.1 0-.2.1h-.4v.1l.1.1v.1c0 .1 0 .1-.1.1H21.3c-.1 0-.2 0-.2-.1l-.1-.1c-.1-.1-.1-.1 0-.2v-.1c-.1-.1-.1-.1-.2-.1s-.1 0-.1.1v.2c0 .1 0 .2-.1.3v.7c0 .1-.1.1-.1.2V46.2c-.1 0 0 .1-.1.2-.1 0 0 .1 0 .1l.3.3v.1c0 .1 0 .1-.1.1v.2l.3.3s.1 0 .1.1l.1.1h.5l.4-.4c0-.1.1-.1.1-.2V47c0-.1-.1-.1-.1-.2l-.2-.2c0-.1-.1-.1-.1-.2v-.1l-.1-.1c0-.1 0-.1-.1-.2 0-.1 0-.1-.1-.2-.1 0-.1-.1-.1-.2l-.1-.1v-.1l.1-.1.3.3v.1l.2.2v.1s.1.1.1 0 0-.2-.1-.2-.1-.1-.1-.2v-.2c-.1 0 0-.1 0-.1 0-.1 0-.1.1-.1h.1l.2.2h.2l.3.3c0 .1.1.1.1.1v.1c.1 0 0 .1.1.1 0 0 0 .1.1.1 0 .1.1.1.1.2s.1.1.1.1l.1.1c0 .1.1 0 .1.1v.1l.2.2v.7c-.1 0 0 .1-.1.2l-.1.1v.1l-.3.3c-.1 0-.2.1-.2.2l-.2.2c-.1.1-.2.1-.2.2l-.1.1c-.1 0-.1 0-.2.1h-.4c0-.1-.1 0-.1-.1s-.1-.1-.2-.1h-.1l-.1-.1-.1-.1c0-.1-.1 0-.1-.1l-.1-.1h-.1c0-.1 0-.1-.1-.2l-.3-.3c0-.1-.1-.1-.2-.1l-.2-.2c0-.1-.1-.1-.1-.2 0 0 0-.1-.1-.1l-.1-.1c-.1-.1-.1-.2-.2-.2l-.1-.1v-.1l-.1-.1c0-.1 0-.1-.1-.2 0-.1 0-.1-.1-.2l-.2-.2v-.6c0-.1 0-.1.1-.1 0-.1 0-.1.1-.2v-3.4c-.1 0 0-.1-.1-.2v.3l.2-.2s.1 0 .1-.1l.1-.1h.6c0 .1.1 0 .2.1l.1.1c.1 0 .1 0 .2.1l.1.1h.2c0 .1 0 .1.1.1V42.4l-.3.3s-.1.1 0 .1v.3h.1l.4-.4v-.4l.1-.1.2-.2c.1 0 .1-.1.2-.2.1 0 .1-.1.2-.1 0 0 .1-.1.2-.1l.1-.1h.1c.1-.1.1 0 .2 0 0 .1.1.1.2.1h.1c.1.1.2.1.2.3l.1.1v.1c0 .1 0 .1.1.2l.1.1c0 .1 0 .1.1.1 0 0 0 .1.1.1l.1.1v.1c-.1.3-.1.5-.1.6zm-2 1.1h.1c0-.1 0-.1-.1 0 .1-.1 0-.1 0-.2-.1 0-.1.1 0 .2-.1-.1-.1 0-.1 0h.1c-.1 0-.1 0 0 0zM18.5 48.8h.3s.1 0 .1.1h.5c.1.1.1.1.2.1h1c.1 0 .1 0 .2.1.1 0 .1 0 .1.1h.1c.1-.1.1-.1.2 0 .1 0 .2 0 .3.1h.1c.1 0 .1.1.1.1.1 0 .1 0 .1.1 0 0 .1.1.2.1s.1.1.1.1l.1.1c.1 0 .2.1.3.2.1.1.2.1.2.2 0 0 0 .1.1.2v.5c0 .1 0 .1-.1.1-.1.1-.1 0-.2 0-.1-.1-.2-.1-.3-.1 0-.1-.1-.1-.2-.1H21.7c-.1 0-.2 0-.3-.1h-.1c-.1 0-.1 0-.1-.1h-.1c-.1 0-.1 0-.2-.1h-.5c-.1.1-.2.1-.3.1-.1 0-.2 0-.3.1h-.6c-.1 0-.1.1-.1.1l-.1-.1-.1-.1H18.6c-.1.1-.2.1-.3.1l-.1.1-.1.1H18c-.1 0-.1 0-.2-.1v-.1s.1-.1.2-.1h.2c.1 0 .1 0 .1-.1l.1-.1h.1c.1 0 .1 0 .2-.1h.1l.1-.1h.2c0-.1.2 0 .2-.1 0 0 .1 0 .1-.1s.1 0 .1-.1l.1-.1c.1 0 .1 0 .1-.1v-.1c-.1 0-.1 0-.2-.1H18.9c-.1-.1-.2-.1-.3-.1h-.5l-.3.3-.1.1c0 .1-.1.1-.1.2s0 .1-.1.1l-.1.1h-.1c-.1 0-.2 0-.2.1h-.3c-.1-.1-.2-.1-.3-.1h-.2c-.1 0-.1 0-.2-.1-.1 0-.1 0-.2-.1s-.1-.2-.2-.2c-.1-.1-.1-.1-.1-.2l.2-.2h.1c.1 0 .1 0 .1-.1h.1c.1 0 .1-.1.1-.1h.8l.1-.1h.5c0-.1.2 0 .2-.1.5-.2.6-.2.7-.2z"/><path class="st2" d="M17.8 50.9h-.1c-.1 0-.1-.1-.1-.1.1 0 .1 0 .1-.1h.1s0 .1.1.1h.1v.1c0-.1 0 0-.2 0 .1 0 .1 0 0 0zM17.2 51c-.1-.1 0-.1 0-.1l.1-.1h.2v.1l-.1.1c0 .1-.1.1-.2 0zM192 66.7V67.9l-.1.1v1.2c0 .1 0 .1-.1.2v.3c0 .1.1.2.2.2h.1l.1.1c.1 0 .2 0 .2-.1.1-.1.2 0 .2-.1s.1 0 .2 0h.2c.1-.1.2-.1.4-.1h.1c.1-.1.2-.1.2-.1h.1c.1-.1.1-.1.2-.1s.1 0 .2-.1h.1c.1 0 .1-.1.2-.1h.2l.1-.1c.1 0 .2 0 .3-.1.1 0 .2 0 .2-.1h.1c.1 0 .1 0 .2-.1 0-.1.1 0 .2 0l.1-.1h.2s.1 0 .1-.1.1-.1.2-.1l.1-.1c.1 0 .2-.2.3-.1l.2-.2c.1-.1.1-.1.2-.1l.3-.3v-.1c.1-.1.1-.2.3-.2 0 0 .1 0 .1-.1h.1c.1 0 .1 0 .2-.1h.4c.1 0 .1 0 .2-.1s.2-.2.3-.2l.3-.3h.6l.2-.2.2-.2h.1c.1-.1.1-.1.2-.1h.7c0 .1.1.1.2.1.2.1.2.1.3.1h.3c.1.2.3.1.5.1.1 0 .2 0 .3.1h.3c.1 0 .1 0 .1.1s.1.1.1.2 0 .1.1.1h.1c.1 0 .1 0 .2-.1 0-.1 0-.1.1-.1H204.3c0 .1.1.1.2.2l.2.2c.1.1.1.2.2.1l.2.2.2.2c.2 0 .2.2.4.2h.1c.1.1.1.1.2.1.1.1.2.1.3.2 0 .1.1.1.2.2s.1.2.2.2.1.1.2.1l.2.2c.2 0 .3.2.5.4.2 0 .2.1.3.2l.2.2c.2 0 .3.2.5.4.2.1.3.3.4.5.1.1.1.2.2.3l.2.2c0 .1.1.2.1.2l.2.2c0 .1 0 .1.1.2.1 0 .1.1.2.2 0 .2.2.2.2.4l.1.1c0 .1.1.2.1.2 0 .1.2.2.1.3 0 .1.1.1.1.2.1.1 0 .2.2.3V73.7c0 .1 0 .1.1.2s0 .2.1.2 0 .1 0 .2V74.6l-.2.2c-.1.1 0 .1-.1.2l-.2.2c-.1.1-.1.2-.2.1l-.2.2H209.8c-.1.2-.3.1-.5.1-.1 0-.3-.1-.4.1h-.3s-.1 0-.1-.1c-.1-.1-.1-.1-.2 0l-.1.1h-.2c-.1 0-.1 0-.2.1s-.2 0-.3 0c-.1 0-.1 0-.2.1s-.1.1-.2.1-.1 0-.1.1c-.1.1-.2 0-.2.1s-.1.1-.2.2-.1.1-.2.1c0 0-.1.1 0 .1v.1c-.1.1-.1.1-.1.2s0 .2-.1.2c0 .1 0 .1-.1.2l-.1.1h-.7c-.1 0-.1 0-.1.1-.1.1-.2.1-.3 0l-.1-.1-.1-.1c-.1 0-.2 0-.2.1-.1.1-.2 0-.2.1s-.1.1-.2.2h-.2l-.1.1h-.2c-.1 0-.1 0-.2.1h-.3c-.1-.1-.1-.1-.2-.1s-.1 0-.1.1-.1.1-.2.2c-.1 0-.2 0-.2.1-.1 0-.2.1-.2.1-.1 0-.2.1-.2.1l-.1.1c-.1 0-.1.1-.2.1s-.1 0-.1-.1v-.2l-.1-.1v-.3c0-.1-.1-.2-.1-.3h-.1c-.1.1-.1 0-.2.1l-.1.1-.1.1c-.1 0-.1.1-.2.1s-.1 0-.1.1c0 0 0-.1-.1-.1v-.1l.1-.1v-.2h-.2c-.1.1-.1.2-.3.2l-.2.2h-.1c-.2.1-.2.1-.3.1h-.3l-.1-.1c-.3 0-.3 0-.4.1l-.1.1s-.1 0-.1.1c0 0-.1.1-.1 0v-.2s0-.1-.1-.1h-.2c0 .1-.1.1-.2.1h-.2c-.1.1-.1.2-.2.2s-.1.1-.2.1-.1 0-.1.1-.1.1-.1.1h-.2c-.1.1-.1.1-.2.1s-.1.1-.1.1c0 .1 0 .2-.1.2-.1.1-.1 0-.2 0-.1-.1-.1-.1 0-.3 0-.1 0-.2.2-.2.1 0 .1-.1.1-.2-.1 0-.3 0-.3.1l-.1.1c-.1 0-.2.1-.2.1h-.1c-.1.1-.1.1-.2.1s-.1 0-.1.1-.1 0-.2.1l-.1.1-.2.2v.7c0 .1 0 .1-.1.1-.1.1-.2.1-.2.2s-.1.1-.1.2l-.2.2v.2c-.1.1-.2.2-.3.2-.1.1-.1.1-.2.1h-.1c0 .1-.2.1-.2.1l-.1.1h-.2c-.1 0-.1 0-.2.1h-.1c-.1 0-.2 0-.2.1-.1.1-.2 0-.2.1h-.2c-.1 0-.3 0-.3.1s-.1.1-.2.1H191.7c0 .1-.1.1-.2.1l-.1.1c-.1 0-.2.1-.2.1-.1 0-.1.1-.2.1s-.2 0-.2.1c-.1 0-.2 0-.2.1-.1 0-.2.1-.2.1-.1 0-.1 0-.2.1 0 .1-.1 0-.2.1 0 .1-.1.1-.2.1-.1.1-.2.1-.3.1 0 0-.1 0-.1.1s0 .1-.1.2v.1c0 .1 0 .2-.1.3v.1c.1.1.1.2.1.2.1.1.1.2.2.2s.2 0 .2.1h.4l.1.1s0 .1-.1.1H189.8l-.2.2c-.1.1-.1.1 0 .2l.1.1h.2l.3-.3h.4c.1 0 .1 0 .2.1 0 .1.1 0 .2 0s.1 0 .1.1l.1.1c0 .1.1.1.1.1.1 0 .1 0 .2.1l.3.3c.2 0 .1.2.2.3v.6s0 .1.1.1.2 0 .3-.1H192.7c.1-.1.1-.2.3-.2l.2-.2c.1 0 .2-.1.2-.1l.2-.2c.1 0 .1-.1.2-.1s.1 0 .1-.1l.2-.2c.1 0 .2-.1.3-.2.1-.1.2 0 .2-.1.1-.1.2-.1.2-.1.1 0 .1-.1.2-.2h.2c.1-.1.2-.2.3-.2.1-.1.1-.2.3-.2l.2-.2c.2 0 .2-.1.3-.2.1 0 .1 0 .2-.1 0-.1.1-.1.2-.2.2 0 .2-.2.4-.2h.1c0-.1.2 0 .2-.1s.1-.1.2-.2c.1 0 .1-.1.2-.1h.1l.3-.3.2-.2c.1 0 .2-.1.3-.2l.2-.2c.2 0 .2-.1.3-.2.1 0 .1-.1.2-.1h.1c0-.1.1-.1.2-.1l.1-.1c.1 0 .1 0 .2-.1s.2 0 .2-.1.1 0 .2-.1c0-.1.2 0 .2-.1.1-.1.3-.1.3-.2.1 0 .1 0 .2-.1h.1c.1 0 .2 0 .2-.1h.3c.1 0 .1 0 .2-.1h.2c.1 0 .1 0 .1-.1l.1-.1h1.1c0 .1.2.1.2.1.1.1.1.1.2.1H204.1c0 .1.1.1.2.1l.1.1s.1 0 .1.1l.3.3c.1 0 .2.1.3.2l.3.3.2.2c.1.1.1.2.2.3l.2.2.2.2.2.2.2.2.2.2c.1.1.1.2.2.3l.2.2c0 .1.1.2.1.2l.2.2c0 .1 0 .1.1.2.1 0 .1.1.2.2 0 .1 0 .2.1.2 0 .1.1.2.2.3l.1.1c0 .1.1.2.1.2.1.1.1.2.1.3 0 .1 0 .1.1.1s0 .1 0 .2l.1.1c0 .1.1.2.2.3l.1.1c0 .1 0 .2.1.3 0 .1 0 .2.1.2v.1c0 .1 0 .1.1.2l.2.2v.1c-.1.1-.1.2-.2.1l-.1.1-.1.1c0 .1 0 .2-.1.3v.1l-.3.3c-.2 0-.2.2-.4.2s-.2.1-.3.2h-.1c-.1 0-.2 0-.2.1-.1 0-.2 0-.2.1H207.1c-.1.1-.2.2-.1.3v.3s0 .1-.1.1c-.1.1-.2.1-.3.2-.1 0-.1 0-.2.1 0 .1-.1 0-.1.1-.1 0-.1.1-.2.1-.1.1-.1.1-.2.1 0 .1-.2 0-.2.1-.1.1-.2.1-.3.1-.1 0-.2 0-.2.1-.1 0-.2 0-.2.1-.1 0-.2 0-.2.1-.1 0-.1 0-.2.1h-.1c-.1 0-.2 0-.3.1v.1l.2.2s.1.1 0 .2c-.2.1-.1.3-.1.4 0 0 0 .1.1.1.1.1.2.1.2.3l.1.1c.1.1.1.1.1.2s.1.1.1.2 0 .1.1.2l.1.1s.1.1.1.2 0 .2.1.2c.1.1.1.1.1.2 0 0 0 .1.1.1s0 .2.1.2l.1.1c0 .1.1.1.1.2v.2s0 .1.1.1l.1.1c.1 0 0 .1.1.2v.2c.1.1.1.1.1.2l.1.1v.2c.1.1 0 .2.1.2l.2.2.2.2.1.1v.2c.1.1.1.2.2.1l.2.2v.1c.1.1.2.2.2.3.1.1.2.2.2.3 0 .1.1.2.2.3 0 .1.1.1.1.2s.1.1.1.2.1.2.2.3l.1.1c0 .1 0 .2.1.3l.1.1c.1.1.1.2.1.4 0 .1 0 .1-.1.1h-.2c-.1 0-.1 0-.1.1v.3c0 .1.1.1.1.1.1 0 .1 0 .1.1v.1c0 .1.1.1.1.2 0 0 0 .1.1.1v.1c0 .1.1.2.1.3v.4l.1.1c0 .1 0 .1.1.2l.1.1c0 .1.1.1.1.2s.1.1.1.2c.1.1.1.1.1.2.1.1.2.1.2.2s.1.1.1.2 0 .2.1.2c.1.1.1.1.1.2.1.1 0 .2.2.3v.5s0 .1-.1.1c-.1.1 0 .2-.2.3v.3c0 .1 0 .1-.1.1V106l.1.1.3.3.3.3c0 .2.1.2.2.3v.1c0 .1 0 .2.1.3v.2c0 .1 0 .1.1.2l.1.1v.5c0 .1 0 .2-.1.3v.1c0 .1 0 .2-.1.2v.4c-.1 0 0 .2-.1.2l-.2.2c0 .1 0 .1-.1.2l-.2.2c-.1 0-.2.1-.3.1l-.1.1h-.1c-.1.1-.1.1-.2.1s-.1 0-.2.1h-.3c-.1 0-.1.1-.2.1h-1c0-.1-.1-.1-.2-.1l-.1-.1h-.1l-.2-.2c-.1 0-.1 0-.2-.1 0 0-.1-.1-.1 0h-.1c-.1-.1-.1-.2-.3-.2-.1 0-.1-.1-.2-.1l-.1-.1h-.1c0-.1-.1-.1-.2-.1l-.1-.1c-.1 0-.1 0-.2-.1 0-.1-.1 0-.2-.1 0-.1-.1-.1-.2-.2-.1 0-.1-.1-.2-.1h-.1c0-.1-.1-.1-.2-.1l-.1-.1c-.1 0-.2-.1-.2-.1l-.1-.1c-.1 0-.1-.1-.2-.1l-.1-.1c-.1 0-.2 0-.2-.1-.1 0-.2-.1-.2-.1h-.1c-.1-.1-.1-.1-.2-.1s-.1-.1-.2-.1-.1-.1-.1-.1c-.1-.1-.1-.2-.2-.1l-.1-.1c-.1 0-.2-.1-.2-.1l-.1-.1c-.1 0-.1-.1-.2-.1h-.1c-.1-.1-.1-.2-.3-.2-.1 0-.2-.1-.3-.2-.1-.1-.2 0-.2-.1s-.1-.1-.2-.2l-.2-.2c-.1 0-.2-.1-.3-.2l-.2-.2c-.1 0-.2-.1-.2-.1-.1-.1-.1-.2-.3-.2l-.3-.3-.3-.3h-.1c-.2-.1-.2-.1-.2-.3 0-.1-.1-.1-.2-.2-.1 0-.1 0-.2-.1-.4-.4-.8-.8-1.1-1.2-.1-.1-.2-.1-.2-.3-.1-.1-.1-.2-.3-.2l-.2-.2c0-.1 0-.1-.1-.2-.1 0-.1-.1-.2-.2s-.2-.1-.3-.2l-.3-.3-.2-.2-.2-.2-.3-.3c-.1-.1-.2-.2-.2-.3-.1-.1-.2-.1-.3-.2l-.2-.2c-.1 0-.2-.1-.2-.1-.1-.1-.1-.1-.2-.1l-.1-.1-.1-.1c-.1 0-.2 0-.2-.1-.2 0-.2-.1-.3-.2-.1-.1-.2 0-.2-.1l-.2-.2c-.1-.1-.1-.2-.2-.2-.1-.1-.1-.3-.2-.3l-.2-.2c0-.1-.1-.2-.2-.3l-.1-.1v-.8c0-.1-.1-.1-.2-.2-.1 0 0-.1 0-.2-.1-.1-.1-.2-.2-.3 0-.1-.1-.2-.2-.3-.1-.1-.1-.2-.2-.2-.1-.1 0-.2-.1-.2s-.1-.1-.2-.2c0-.1-.1-.1-.1-.2s-.1-.1-.1-.2c-.5-.6-1.1-1.1-1.6-1.7 0-.1-.1-.1-.2-.1s-.1 0-.1-.1l-.2-.2h-.1c0-.1-.1-.1-.2-.2-1.3.7-1.3.7-1.3.6l-.1-.1c-.1-.1-.3-.1-.3 0 .1.1.1.2.1.3 0 .1 0 .2.1.3 0 0 .1.1.1.2s.1.1.1.2.1.1.2.2.1.1.1.2v.1c0 .1 0 .1.1.2l.2.2c0 .1 0 .2.1.2 0 .1.1.2.1.2 0 .1 0 .1.1.2v.2c0 .1.1.1.2.2 0 .1.1.1.1.2s0 .1.1.1l.2.2c0 .2.2.2.2.4.1.2.3.3.4.5l.2.2c.1.1 0 .1.1.2l.1.1c.1.1.2 0 .2.1l.2.2.2.2.2.2.2.2c0 .1.1.2.2.3l.2.2c.1.1.1.2.2.3l.2.2c0 .2.2.2.2.4l.1.1c0 .1.1.2.1.2v.2l.2.2V101.9c0 .1 0 .2.1.3v.1c0 .1 0 .2.1.3 0 0 0 .1.1.2.1 0 0 .1.1.2l.1.1c0 .1 0 .2.1.2v.1c0 .1 0 .2.1.3.1 0 0 .1.1.2l.1.1s0 .1.1.2l.1.1v.2c.1.1.1.1.1.2s0 .1.1.2v.2c.1.1.1.1.1.2v.8s0 .1.1.1c.1.1.1.1 0 .2l-.1.1v.5c0 .1 0 .2-.1.2 0 .1 0 .2-.1.2 0 .1 0 .1-.1.2-.1 0 0 .1 0 .2-.1.1-.1.1-.1.2v.5c0 .1-.1.1-.1.2s0 .2-.1.2l-.2.2c-.1.1-.1.2-.2.2-.1.1-.1.3-.2.3l-.2.2c0 .2-.1.2-.2.3 0 .1 0 .2-.1.2v.2c0 .1 0 .2-.1.3 0 .1 0 .2-.1.2 0 .1-.1.2-.1.2-.2.2-.4.4-.6.7v.1c0 .1 0 .2-.1.3-.1 0-.1.1-.2.2-.1 0-.2.1-.3.2l-.2.2c-.1.1-.1.1-.2.1h-.5c-.1 0-.2 0-.3.1-.1 0-.1 0-.2.1h-.4l-.1.1c-.1 0-.2.1-.2.1-.1 0-.2.2-.3.1l-.2.2-.1.1-.2.2c-.1 0-.1 0-.2.1h-.1c-.1 0-.1.1-.2.1l-.6.6-.1.1h-.8c0-.1-.2-.1-.2-.1l-.6-.6v-.1c0-.1 0-.2-.1-.3-.1-.1-.2-.1-.1-.2-.1-.2-.3-.3-.4-.4H183.5c-.1-.1-.1-.1-.2-.1s-.1 0-.2-.1h-.7c-.1 0-.1-.1-.1-.1-.1-.1-.2 0-.2-.1h-.2l-.1-.1c-.1 0-.1 0-.1-.1v-1.1c-.1 0 0-.1-.1-.2s-.2-.2-.2-.3h-.6c-.1 0-.1 0-.2-.1s-.1 0-.2-.1c0-.1-.1 0-.1-.1-.1 0-.1-.1-.2-.1 0 0-.1 0-.1-.1s0-.1-.1-.2-.1-.1-.2-.1h-.2c-.1 0-.1 0-.1-.1s0-.2-.1-.3l-.2-.2c-.1-.1-.1-.1-.2-.1h-.3c-.1 0-.1 0-.1-.1v-.1c0-.1 0-.2-.2-.2-.1 0-.2 0-.2.1v.2c0 .1 0 .2.2.1.1 0 .2 0 .2.2v.1s0 .1-.1.1h-.3c-.1 0-.1 0-.1-.1s0-.3-.1-.4v-.3c0-.1 0-.1.1-.1s.1 0 .1-.1v-.1c0-.1 0-.1-.1-.1h-.1c0-.1-.1-.1-.2-.1l-.1-.1c-.1 0-.1 0-.2-.1 0-.1-.1-.1-.2-.2s-.1-.1-.2-.1h-.1c-.1-.1-.1-.2-.3-.2l-.1-.1s-.1 0-.1-.1l-.1-.1h-.3c-.1 0-.2 0-.2-.1h-.2c-.1 0-.1 0-.1-.1 0 0-.1-.1-.1 0s-.2.1-.2.1l-.2.2H174.7c-.1 0-.2 0-.2-.1-.1-.1-.2 0-.3 0-.1 0-.1 0-.1-.1v-.2h-.7c-.2 0-.3.1-.5-.1h-.3c-.1.1-.2.1-.2.1h-.1c-.1.1-.2 0-.3.2h-.1c-.1 0-.2 0-.2.1-.1 0-.2 0-.3.1 0 .1-.1 0-.2.1s-.1.1-.2.1h-.1c0 .1-.2.1-.2.1l-.1.1h-.8c-.1 0-.1.1-.1.1-.1 0-.2.1-.2.1-.4.2-.4.2-.5.3-.1.1-.1 0-.2.1l-.1.1-.1.1c-.1 0-.2 0-.3-.1l-.1-.1h-.1c-.1 0-.3-.1-.4.1-.1 0-.2.1-.3.2 0 .1-.1 0-.2 0s-.1 0-.2.1h-.1c-.1.1-.1.1-.2.1s-.1.1-.2.1h-.3c-.1 0-.1.1-.2.2 0 .1-.1.1-.1 0-.1 0-.1 0-.2.1h-.7c-.1 0-.1 0-.2.1h-2.4c-.1 0-.1 0-.2-.1h-.4c-.1-.2-.3-.1-.4-.1h-.7c-.1-.2-.3-.1-.4-.1H159c-.1 0-.1 0-.1-.1 0 0-.1-.1-.1 0H158.5c-.1-.1-.1-.2-.3-.2-.1 0-.2-.2-.3-.3l-.2-.2c-.1-.1-.2-.1-.1-.2l-.2-.2v-.6c0-.1 0-.1.1-.1 0-.1.1-.1.2-.1s.1 0 .2-.1l.2-.2.2-.2.2-.2c.1-.1.1 0 .2-.1s.2-.2.3-.4c.2-.2.4-.4.6-.7.1 0 .2-.1.3-.2l.2-.2c.1-.1 0-.2.1-.2s.1-.1.2-.2l.2-.2c0-.1.1-.2.1-.2l.2-.2c0-.1 0-.1.1-.2l.2-.2.2-.2.2-.2.1-.1c.1-.1.2-.1.1-.2l.2-.2.2-.2.2-.2.2-.2c0-.2.1-.2.2-.3l.3-.3.3-.3.3-.3.3-.3.3-.3.3-.3c0-.2.1-.2.2-.3v-.4c.1 0 .1-.1.2-.1s.2-.1.2-.2V99c.1-.1.2-.2.2-.3l.3-.3.3-.3.3-.3c.2 0 .2-.2.3-.2.2 0 .2-.2.4-.2.1 0 .1 0 .2-.1l.1-.1c.1 0 .2 0 .2-.1.1 0 .2-.1.2-.1.1 0 .1 0 .2-.1h.3c.1 0 .2 0 .2-.1.1 0 .3.1.4-.1h.5c.1-.1.2-.1.2-.1.1-.1.1-.1.2-.1s.1 0 .2-.1c.1 0 .2-.1.2-.1H170.4c.1 0 .1 0 .2-.1h.1l.1-.1c.1-.1.2-.1.2-.1h.1c0-.1.1-.1.2-.1l.1-.1c.1 0 .1 0 .2-.1 0-.1.1 0 .2-.1 0-.1.1-.1.2-.1.1-.1.3-.1.3-.2.1 0 .2 0 .2-.1.1 0 .2-.1.2-.1.1 0 .1 0 .2-.1 0-.1.1 0 .2-.1 0-.1.2 0 .2-.1.1-.1.3-.1.3-.2.1 0 .2 0 .2-.1.1 0 .2-.1.2-.1.1 0 .1 0 .2-.1s.2-.2.3-.2c.1-.1.2-.1.3-.2 0-.1.1-.2.2-.1.1 0 .1-.1.2-.1s.1-.1.2-.1.1-.1.2-.1l.1-.1c.1-.1.1-.2.2-.1l.1-.1c.1 0 .1 0 .2-.1 0-.1.1 0 .2-.1 0-.1.1-.1.2-.2.1 0 .1-.1.2-.1h.1l.3-.3.1-.1c.1 0 .1-.1.2-.1s.2-.2.3-.1l.2-.2c.1-.1.2 0 .2-.1l.2-.2.2-.2c.2 0 .2-.1.3-.2.1-.1.1-.2.1-.3 0 0 0-.1-.1-.1h-.5c-.1 0-.3-.1-.4.1h-.4c-.1 0-.2 0-.3.1h-.2c-.1 0-.1 0-.1.1h-.7c-.1 0-.1 0-.1.1l-.1.1c0 .1-.1.1-.2.1s-.1 0-.2.1-.2 0-.2.1h-.2c-.1 0-.1.1-.2.1s-.1.1-.2.1-.1 0-.2.1c-.1 0-.1 0-.2.1 0 .1-.1 0-.1 0-.1.1-.1.1-.2.1s-.1 0-.1.1l-.1.1c0 .1-.1.1-.1.1-.1 0-.1 0-.2.1h-.4c0 .1-.2 0-.2.1l-.2.2c-.1.1-.2.1-.2.1 0 .1-.2.1-.2.1-.1 0-.1.1-.2.2 0 .1-.1 0-.2 0s-.1 0-.2.1c-.1 0-.2 0-.2.1s-.2 0-.2.1-.1.1-.2.2c-.1 0-.2 0-.2.1-.1 0-.2.1-.2.1-.1 0-.2.1-.2.1-.1 0-.1 0-.2.1-.2-.1-.3.1-.4.2 0 0-.1.1-.1 0h-.4c0 .1-.1.1-.2.1l-.1.1s-.1 0-.1.1-.2 0-.2.1-.1.1-.2.2c-.2 0-.3.2-.4.3l-.7.7c-.1.1-.1.1-.2.1h-.1l-.1.1-.1.1h-.2c-.1 0-.1.1-.2.1h-.2c-.1.1-.2.1-.2.1l-.1.1h-.3c-.1 0-.1 0-.1.1-.1.1-.1 0-.2.1l-.1.1s-.1 0-.1.1l-.1.1c-.1 0-.2 0-.2.1h-.1c-.1 0-.1-.1-.2-.1s-.1 0-.1-.1h-.5l-.2.2c-.1.1-.1.1-.2.1h-1c-.1 0-.1-.1-.2-.2 0-.1-.1 0-.1 0l-.2-.2c-.1 0-.2-.1-.3-.2l-.2-.2c0-.1 0-.1-.1-.2-.1 0-.1-.1-.2-.2v-.1c0-.1-.1-.1-.1-.2v-.1c-.1-.1-.1-.1-.1-.2-.1-.1 0-.2-.2-.3-.1-.1 0-.2 0-.3 0-.1 0-.1.1-.1H161.6c.1-.1.2-.2.2-.3.1-.1.1-.2.3-.2l.1-.1c.1-.1 0-.2.1-.2l.2-.2.2-.2.2-.2c0-.1 0-.1.1-.2l.1-.1.2-.2c.1 0 .1 0 .2-.1l.1-.1h.2c.1 0 .1 0 .1-.1s.1 0 .1 0l.1-.1c.1 0 .1 0 .2-.1h.1c.1 0 .2 0 .2-.1.1-.1.2 0 .2-.1h.4c.1 0 .3 0 .4-.1h.2c0-.1.2-.1.2-.1l.1-.1h.5c.1 0 .1 0 .2-.1s.1-.2.3-.2l.2-.2.1-.1h.2c.1 0 .1 0 .3-.1.1 0 .2-.1.2-.1l.4-.4c.1-.1.1-.1.2-.1l.1-.1h.2l.1-.1.2-.2c.1 0 .1-.1.2-.1h.1c.1 0 .1-.1.2-.2s.2 0 .2-.1c.1-.1.2 0 .2-.1s.1-.1.2-.2H170.7c.1-.1.2-.1.3-.2.1 0 .1-.1.2-.1s.1-.1.2-.1h.2l.2-.2c.1-.1.1 0 .2-.1l.1-.1.1-.1c.1 0 .1-.1.2-.1h.1l.1-.1.1-.1c.1 0 .2-.1.2-.1h.1l.1-.1.3-.3c.2 0 .2-.1.3-.2.1 0 .1 0 .2-.1 0-.1.1-.1.2-.2.2 0 .3-.2.4-.3.1-.1.1-.2.2-.2s.2-.1.2-.1l.2-.2c.1 0 .2-.1.3-.2l.2-.2.2-.2c.1-.1.1 0 .2-.1 0-.1.1-.1.2-.2s.1-.1.2-.1.1-.1.2-.1l.1-.1c.2 0 .2-.2.4-.2h.1c.1 0 .1 0 .1-.1V84.6l-.6-.6c-.1-.1-.1 0-.2-.1l-.1-.1c0-.1-.2 0-.2-.1-.1-.1-.2-.1-.2-.1-.1-.1-.1-.1-.2-.1H175.5c0-.1-.2 0-.2-.1l-.1-.1c-.1 0-.2 0-.2-.1-.1 0-.2 0-.3-.1-.1 0-.2 0-.2-.1-.1 0-.2 0-.2-.1-.1 0-.2-.1-.2-.1-.1 0-.2-.1-.3-.1-.1 0-.1-.1-.2-.1l-.3-.3v-.1c0-.1 0-.2.1-.3 0 0 .1-.1.1-.2 0 0 0-.1-.1-.1h-.1l-.6.6c-.1.1-.2.3-.3.2l-.2.2c0 .2-.1.2-.2.3v.3l.2.2.2.2c0 .1 0 .1.1.2v.2s0 .1.1.1c.1.1 0 .2.2.3v.1c0 .1 0 .2.1.3 0 .2.1.2.2.3v.1c0 .1 0 .2-.1.3-.1 0 0 .1-.1.2-.1 0-.1.1-.2.2l-.2.2c-.1.1-.1.1-.1.2v.4c0 .1 0 .1-.1.1v.2l-.1.1h-.1c-.1 0-.2 0-.2-.1h-.4v.5s0 .1-.1.1h-.7c-.1 0-.2 0-.2-.1h-.4c-.1-.1-.2-.1-.3-.1 0 0-.1 0-.1-.1l-.1-.1h-.2c-.1 0-.1 0-.1-.1h-.4c-.1-.1-.2-.1-.3-.1h-.3c-.1 0-.1-.1-.1-.1-.1 0-.2-.1-.2-.1-.1 0-.2-.2-.3-.1-.1 0-.1-.1-.2-.1l-.2-.2c-.1 0-.2-.1-.2-.1l-.2-.2c-.1 0-.2-.1-.3-.2l-.2-.2c-.1-.1-.2-.1-.3-.2l-.2-.2-.2-.2c-.2 0-.2-.1-.3-.2-.2 0-.3-.2-.4-.3-.6-.6-1.2-1.2-1.7-1.8-.1-.1-.1-.1-.1-.2s-.1-.2-.1-.3c0-.1-.1-.1-.1-.2s0-.1-.1-.1v-.7c.1 0 0-.2.1-.2.1-.1.1-.1.1-.2.1-.1.1-.2.2-.3l.2-.2c.1 0 0-.1 0-.2s0-.1.1-.2V79.7c.1-.1.1-.2.2-.3l.2-.2c.4-.4.8-.8 1.1-1.2l.6-.6h.1c0-.1.1-.1.2-.1h.2l.5-.5h.6c.1-.2.3-.3.4-.5.1-.1 0-.2.1-.2.1-.1.2-.1.1-.2 0-.1.1-.1.1-.2.1-.1.1-.1.1-.2s0-.1.1-.2v-.1c0-.1 0-.2.1-.3v-.5c0-.1 0-.1.1-.2 0-.1 0-.2.1-.2V73.7s0-.1.1-.1c.2-.2.3-.4.5-.5h.1c.2-.2.4-.4.6-.7.2 0 .2-.2.3-.3l.3-.3c.1-.1.2 0 .2-.1s.1-.1.2-.2c.1 0 .2-.1.2-.1.1-.1.3-.3.4-.5l.1-.1c0-.1 0-.1.1-.1s.1-.1.1-.1h.2l.2.2V71.1c0 .1.1.1.1.2v.6c-.1.1-.1.2-.1.4v.1l-.1.1c-.1.1-.1.1-.1.2s0 .1-.1.2l-.1.1v.1c0 .1 0 .2-.1.3 0 0 0 .1-.1.2-.1 0 0 .1-.1.2 0 0 0 .1-.1.1v.1c0 .1 0 .2-.1.3-.1.1-.1.1-.1.2v.2l-.1.1c0 .1 0 .2-.1.3v.2c0 .1 0 .1-.1.1 0 0-.1.1 0 .1 0 .1 0 .2-.1.3 0 .1 0 .2-.1.2v.1c0 .1 0 .2-.1.3 0 .1 0 .1-.1.2v.2c-.1.1-.1.2-.1.3v.1c-.1.1-.2.1-.2.3l-.1.1v.2l-.1.1c0 .1 0 .2-.1.3v.1c0 .1-.1.1-.1.2v.2c-.1.1-.1.1-.1.2v1.2c0 .1 0 .1.1.1.1.1.1.1 0 .2l-.1.1v.3c.1 0 .1.1.1.2l.1.1c0 .1.2.2.1.3 0 .1.1.1.1.2.1.1.2.2.2.3l.2.2.1.1c.1.1.2.1.3.1.1-.1.1-.1.2-.1.1-.1.1-.1.2-.1s.1 0 .1-.1.1 0 .1-.1l.1-.1c.1 0 .2-.1.3-.2l.1-.1c.1 0 .2 0 .2-.1.1-.1.2-.2.3-.1h.1c0-.1.1-.1.2-.1l.1-.1c.1 0 .1 0 .2-.1h.3c.1 0 .1 0 .2-.1s.2 0 .2-.1h.2c.1 0 .1 0 .1-.1.1-.1.2 0 .2-.1s.1-.1.2-.2h.1c.1 0 .1-.1.2-.1s.1-.1.1-.1l.2-.2c.2 0 .2-.1.3-.2l.2-.2c.1-.1.1 0 .2-.1l.1-.1.2-.2c.2 0 .2-.1.3-.2l.2-.2c.2 0 .2-.2.3-.2.2 0 .2-.2.4-.2.1 0 .2-.1.3-.2.1-.1.2-.1.3-.2l.2-.2h.7c.1 0 .1-.1.1-.1h.2c.1.1.1.1.1.2v.3c0 .1 0 .1.1.2l.2.2s0 .1.1.2c0 .1.1.2.2.2s.2.1.3.2c0 .1.1.2.1.2 0 .1.1.2.2.3h.1c.2.1.2.1.3.1h.2c.1 0 .1 0 .2-.1h.1l.1-.1c.1 0 .1 0 .1-.1s.1-.1.1-.1c.1 0 .1 0 .2-.1h.4c.1-.1.1-.1.2-.1s.1 0 .2-.1H182.8c.1 0 .1 0 .2-.1l.1-.1c0-.1.1-.1.1-.1h.3c.1-.2.2-.1.4-.1h.1l.4-.4c0-.2.2-.2.2-.4s.1-.2.2-.3c.2-.2.3-.4.5-.5l.2-.2c.1-.1.2 0 .2-.1s.1 0 .1 0l.1-.1c.1-.1.1-.1.2-.1s.1 0 .1-.1.1 0 .1-.1l.1-.1c.1 0 .2-.1.2-.1.1 0 .1 0 .2-.1s.1-.1.2-.1h.5c.1 0 .2 0 .3-.1h.5c.1.1.2.1.2.1h.4c.1.1.1.1.2.1s.1 0 .2.1h.1c.1-.1.2 0 .3-.2H190c.2 0 .3.1.5-.1h.3s.1 0 .1.1.1.1.1 0c.1 0 .1-.1.2-.1s.1 0 .1-.1h.1c.1 0 .1 0 .2.1.1 0 .2 0 .2.1h.2c.1 0 .2 0 .2.1.1 0 .2 0 .2.1l.3.3.1.1h.3s.1 0 .1-.1c.1-.1.1-.2.3-.2l.3-.3.2-.2.3-.3.2-.2c.1-.1.2-.1.3-.2l.2-.2.2-.2.2-.2c.2 0 .3-.2.4-.3l.4-.4.4-.4.4-.4s0-.1-.1-.1-.2 0-.3.1h-.5c-.1.1-.2.1-.3.1h-.2l-.1.1h-.5c-.1.1-.2.1-.2.1-.1.1-.1.1-.2.1s-.1 0-.2.1h-.3c-.1 0-.1 0-.2.1H193.6c-.1.1-.2.1-.3.2-.1.1-.2.2-.3.1h-.1c-.1 0-.1 0-.1.1s-.1 0-.2 0l-.1.1H192.2l-.3.3c-.2 0-.2.1-.3.2l-.3.3c-.1.1-.2.1-.3 0-.1-.1-.2-.1-.3-.1l-.1-.1h-.3c0 .1-.1.1-.2.1-.2.1-.2.1-.3.1h-.6c-.1 0-.1 0-.2.1h-.4c-.1.2-.3.1-.4.1H187.3c-.1.1-.2.1-.2.1-.1.1-.1.1-.2.1s-.1 0-.2.1h-.7l-.1-.1h-.3c-.2.2-.4.1-.6.1h-.4s-.1 0-.1-.1c-.1-.1-.1-.1-.2-.1s-.1 0-.1.1h-.5c-.1-.1-.2-.1-.2-.1h-.1c-.1 0-.1 0-.1-.1-.1 0-.2 0-.3.1-.1.1-.1.2-.3.2l-.2.2-.1.1h-2.6c0-.1-.1-.1-.2-.1s-.1 0-.2-.1h-1.5c-.1 0-.1 0-.1-.1h-.2l-.1-.1c-.1-.1-.1-.1-.2-.1h-.1c-.1 0-.1-.1-.2-.1h-.2c-.1-.1-.1-.1-.2-.1H175.8c0-.1-.2 0-.2-.1s-.1-.1-.2-.1c-.1-.1-.2-.1-.3-.1-.1 0-.1 0-.1-.1v-.2c0-.1 0-.1.1-.1h.2c.1 0 .2 0 .2-.1.1 0 .1 0 .2-.1 0-.1.1 0 .2 0h.4c.1 0 .1 0 .2-.1h.1c.1 0 .1.1.2.1h.6c.1 0 .3 0 .3-.1.1 0 .2-.1.3.1H179.7c.1 0 .1 0 .1-.1h2.2c.1 0 .1 0 .2-.1h.1c.1 0 .2 0 .2-.1h.2c.1 0 .1-.1.2-.1h.2c.1-.1.2-.1.3-.2h2.2c.1 0 .1 0 .1-.1s.1 0 .1 0c.1-.1.1-.1.2-.1v-.2c0-.1-.1-.1-.1-.1-.1 0-.1-.1-.2-.1l-.1-.1c-.1-.1-.1-.2-.2-.1-.2-.1-.2-.1-.3-.1h-.5c-.1 0-.1 0-.2-.1 0-.1-.1 0-.2-.1l-.1-.1-.1-.1c-.1 0-.1-.1-.2-.1h-.1l-.1-.1c-.1 0-.2 0-.3.1-.1.1-.1.1-.2.1h-2.5c-.1 0-.2 0-.2-.1h-.2c-.1 0-.1 0-.1-.1l-.1-.1H178.6c-.1.1-.2.1-.3.2h-.4l-.2.2c-.1 0-.1.1-.2.1s-.1.1-.2.1c-.1.1-.2.1-.3.1h-.5c-.1.1-.1.1-.2.1s-.1 0-.2.1l-.1.1-.1.1h-.1c-.1 0-.2 0-.3.1 0 .1-.1 0-.2.1l-.1.1h-1.1s-.1 0-.1-.1 0-.2.1-.1c.1 0 .2-.1.2-.1.1 0 .2-.1.3-.2 0-.1 0-.2.1-.2 0-.1.1-.2.1-.2v-.1c0-.1-.1-.1-.2-.2s-.1-.3 0-.4c.1-.1.1-.1.2-.1s.1-.1.2-.1.1 0 .1-.1l.1-.1c.1 0 .2 0 .3-.1.1 0 .2 0 .2-.1.1 0 .1 0 .2-.1h.2c.1 0 .1-.1.2-.1.1-.1.1-.1.2-.1h.4c.1 0 .1-.1.2-.1h.2c.1-.1.1-.1.2-.1h.7c0-.1.1-.1.2-.1l.1-.1c.1 0 .1 0 .2-.1 0-.1.1 0 .2-.1 0-.1.1 0 .2-.1s.1-.1.2-.1h.1c.1-.1.2-.1.2-.1h.1c.1-.1.1-.1.2-.1s.1 0 .2-.1.2 0 .2-.1h.2l.1-.1c.1 0 .1 0 .1-.1v-.6c0-.1 0-.1.1-.2v-.4c.2-.1.1-.3.1-.4v-1.2c0-.1 0-.1-.1-.1H179.1c0-.1-.1-.1-.2-.2s-.1-.1-.1-.2l-.1-.1v-.1c.1-.1.1-.1.1-.2s0-.1.1-.2l.1-.1v-.5c.1-.1.2-.3.3-.3 0 0 .1 0 .1-.1.2-.2.4-.4.6-.7v-.1c0-.1 0-.2.1-.3l.6-.6c.1-.1.1-.1.2-.1s.1 0 .1-.1.1 0 .1-.1l.1-.1c.1 0 .2 0 .2-.1.1-.1.2-.1.3-.2h.2c.1 0 .1-.1.2-.1h.2l.1-.1c.1 0 .2-.1.2-.1.1-.1.1-.2.2-.3l.3-.3.2-.2c.1-.1.1-.2.2-.3l.2-.2s0-.1.1-.1.2-.1.2-.1l.2-.2h.6c.1 0 .1 0 .2.1l.1.1c0 .1.1.1.1.1.1 0 .2 0 .2.1.1 0 .2 0 .2.1.1 0 .1 0 .2.1h.1c.1 0 .2 0 .2.1.1.1.1.1.3.1 0 0 .1 0 .1.1s.1 0 .2.1l.2.2c0 .1.1 0 .2 0s.1 0 .2.1l.1.1c.1.1.1.1.2.1s.1 0 .1.1.1.1.2.2c.1 0 .2 0 .2.1.1 0 .2 0 .2.1.1 0 .2.1.2.1.1 0 .2.1.3.1.1 0 .1.1.2.1l.1.1c.1.1.1.2.2.1l.1.1c.1 0 .2.1.2.1l.7.7.2.2.2.2.2.2.2.2.2.2.2.2.2.2c.1.1.2 0 .2.1.1.1.1.2.2.2.1.1.1.2.1.3v.1c.1 0 .1.1.1.2s.1.1.1.2.1.1.1.2l.1.1c0 .1.1.1.1.2v.1l.1.1v.2c-.8-.8-.8-.5-.8-.2zm-5.3 28.8c0 .1 0 .1.1.2l.1.1h.2v-.2l-.1-.1h-.3v-.6h-.2v.2c-.1.2 0 .3.2.4-.1 0 0 0 0 0 0-.1 0-.2 0 0zm15-2.5h.4c.2.1.3.4.5.4.1.1.3.2.3.4l.3.3s.1.1 0 .1c0 .1.1.1.1.2s0 .2.1.2c0 .1 0 .2.1.2.1.1.1.1.1.2v.2l.2.2.1.1c0 .1 0 .1.1.2 0 0 .1.1.1 0v-.2l-.1-.1s-.1-.1-.1 0v-.3c0-.1 0-.2-.1-.3-.1-.1-.1-.1-.1-.2v-.1c-.1-.1-.1-.2-.1-.2 0-.1-.1-.1-.2-.2s0-.2-.1-.2 0-.1 0-.2l-.1-.1c0-.1-.1-.2-.1-.2v-.1c0-.1-.1-.1-.1-.2V93l-.4-.4H201.8c-.1 0-.2.2-.2.2s0 .1-.2.2l-.1.1c-.1.1-.1.1 0 .2s.1.1.1.2l.1.1c0 .1 0 .1.1.2 0 .1.1.2.1.2 0 .1.1 0 .2 0s.1 0 0-.1c0 0-.1-.1 0-.1v-.1l-.1-.1v-.4c-.1.1-.1.1-.1-.2 0 .1 0 0 0 0-.1 0-.1 0 0 0-.2.1-.2.1 0 0zm-20.2 14.6h.4c.1 0 .1 0 .2-.1h.1c.1 0 .1-.1.2-.1s.1-.1.1-.1h.1c.1-.1.1-.1.2-.1l.2-.2.2-.2c.1 0 .2-.1.2-.1l.2-.2c.1-.1.1-.2.2-.1l.1-.1c.1 0 .2-.1.2-.1.1-.1.1-.1.2-.1s.1-.1.2-.1.2-.1.2-.2l.1-.1c.1 0 .2-.1.2-.1.1-.1.1-.1.2-.1.1-.1.2-.1.3-.2.1-.1.1-.2.3-.2.1-.1.2-.3.4-.2l.7-.7c0-.1 0-.2.1-.2v-.1c0-.1 0-.2.1-.2v-.8c-.1 0-.1-.1-.1-.2-.1-.1-.1-.1-.1-.2l-.1-.1-.1-.1-.1.1h-.7s-.1 0-.1.1c-.1.1-.2 0-.3.2h-.2c-.1 0-.1.1-.2.1h-.1l-.1.1h-1.1c-.1 0-.1 0-.3.1-.1 0-.2.1-.2.1s0 .1-.1.1h-.1c-.1 0-.2 0-.2.1-.1 0-.1.1-.2.1s-.1 0-.2.1h-.8l-.1-.1h-.4c0 .1-.1.1-.2.1l-.2.2-.1.1h-.1c-.1.1-.1.1-.2.1 0 0-.1 0-.1.1s0 .2.1.2h.2c.1 0 .1 0 .1.1v.2c0 .1 0 .1-.1.2l-.1.1c-.1 0-.1 0-.1.1-.1.1-.2.2-.4.2 0 0-.1 0-.1.1 0 0-.1.1-.1 0-.1 0-.1 0-.1.1s-.1 0-.2.1l-.1.1H179.1c-.1 0-.1.1-.2.1h-.1l-.1.1c0 .1-.1 0-.2.1 0 .1 0 .2.1.3v.1c0 .2.2.1.2.1s0 .1.1.1h.5v.1c0 .1 0 .1-.1.2v.2l.2.2c.1 0 .2 0 .2.1.1.1.1.1.2.1.1.1.1.1.2.1l.1.1c.1.1.1.1.2.1h.1c.1.1.2.1.2.1h.1l.1.1h.2l.1.1c0-.3.2-.3.3-.3zm12.8-12.7v1c.1.2.3.3.4.5h.4c.1-.2.3-.1.5-.1.1 0 .1 0 .2.1h.1l.1.1.3.3s0 .1.1.2c0 .1.1.1.1.2s.1.1.1.2c.1.2.3.3.4.5l.2.2v.1l-.2.2c-.1.1 0 .3 0 .3l.2.2.1.1c.1 0 .1.1.2.1s.1 0 .1.1.1 0 .2.1.1.1.2.1h.3c.1 0 .1.1.2.1h.7l.3.3c.1.1.2 0 .2.1h.2c.2 0 .2.1.3.2v.1l.6.6c.1 0 .1 0 .2.1 0 .1.1 0 .2 0h.7c.1 0 .1 0 .1.1h.1c.1.1.2.1.3.1.1.1.2.1.3.2.1.1.2.1.3.1 0-.1.1-.2 0-.3l-.1-.1c0-.1-.1-.1-.1-.2v-.2l-.1-.1v-.4c0-.1 0-.1-.1-.2V99.1c0-.1 0-.2.1-.3.1-.1 0-.3 0-.5l-.1-.1V98c-.1-.1-.1-.2-.1-.3 0-.1 0-.2-.1-.3v-.2c-.1-.1-.1-.1-.1-.2l-.1-.1c0-.1-.1-.2-.1-.2l-.1-.1c0-.1-.1-.1-.1-.2s-.2-.2-.1-.3c-.1-.1-.1-.1-.1-.2-.1-.1-.1-.1-.1-.2-.1-.1-.1-.3-.2-.3 0-.1 0-.2-.1-.2s0-.1-.1-.2-.1-.1-.1-.2c-.1-.1-.1-.1-.1-.2-.1-.1-.1-.1-.1-.2-.1-.1-.1-.1-.1-.2v-.1c-.1-.1-.1-.2-.1-.2s0-.1-.1-.1c-.1-.1-.2-.2-.1-.3v-.1l-.3-.3-.1.1h-.3l-.1-.1h-.2c-.1-.1-.2 0-.2-.1-.1-.2-.3-.3-.4-.5v-.2c-.1 0-.1-.1 0-.2 0-.1.1-.1.1-.1h.2c.1-.1.2-.1.3-.2 0-.1.1-.1.1-.1.1 0 .1 0 .2-.1s.1-.2.2-.2.1-.1.2-.1h.1l.3-.3c.1-.1.2 0 .3-.2h.2l.4-.4v-.1h-.2l-.1.1h-.5l-.1.1s-.1 0-.1.1-.1 0-.2.1-.1.1-.2.1h-.2c-.1 0-.2 0-.2.1h-.1c-.1.1-.1.1-.2.1s-.1 0-.2.1h-.1c-.1 0-.1.1-.2.1-.1.1-.1.2-.2.2s-.2.1-.3.2l-.1.1H197.5s-.1 0-.1-.1-.1-.1-.2-.1-.1 0-.1-.1-.1-.1-.1-.1c-.1 0-.2 0-.2-.1h-.1c-.1.1-.2.1-.3.1-.1-.1-.1-.1-.2-.1h-.1s0-.1-.1-.1V91h.2c.1 0 .1-.1.2-.1h.1s.1-.1 0-.2l-.2-.2c-.1.1-.1.1-.2.1h-.2c-.1.1-.2.1-.3.1l-.1-.1h-.1s-.1 0-.1-.1c-.1-.1-.3 0-.3-.1h-.6c-.1.1-.2.1-.3.1h-.1c-.1 0-.2 0-.2.1 0 0-.1.1 0 .1l.2.2c.1.1.1.1.2.1s.1 0 .1.1c0 0 .1 0 .1-.1s.1-.1.1 0l.1.1s0 .1-.1.1h-.4c-.1 0-.1 0-.1.1h-.4c-.1.1-.1.1-.2.1 0 0-.1.1 0 .1v.1c-.1.1-.1.1 0 .2v.4l.2.2h.1c.1 0 .1.1.1.1.1.1.1 0 .2.1l.1.1h.2c.1 0 .1.1.2.1 0 .1 0 .2.1.2v.2c0 .1 0 .1.1.2l.1.1c.1.1.1.1.1.2l-.6 1.2zm-27.5 10.5h.5c.1 0 .1 0 .2-.1H167.8c.1-.1.2-.1.3-.2l.1-.1h.3c.1 0 .2-.1.3-.1h.1l.1-.1c.1 0 .1-.1.2-.1s.2-.1.2-.1c.1-.1.3-.1.3-.2h.2c.1 0 .2 0 .2-.1h.1c0-.1 0-.2.1-.2v-.1c-.1-.1-.1-.2-.3-.2-.1 0 0-.1 0-.1l-.6-.6H169.1c-.1-.1-.2-.1-.4-.1h-.2c-.1.2-.3.1-.4.1-.1 0-.2 0-.2-.1l-.1-.1c-.1-.1 0-.1-.1-.2s-.1-.2-.3-.2h-.3s-.1 0-.1-.1l-.2-.2c-.1-.1-.2-.1-.2-.1-.1-.1-.1-.1-.2-.1h-.2c-.1-.1-.2-.1-.3-.1-.1 0-.1 0-.2-.1-.1 0-.1 0-.2-.1 0-.1-.1-.1-.2-.2l-.2-.2c-.1-.1-.1-.1-.2-.1l-.1-.1c-.1 0-.1 0-.2-.1h-.2c-.1 0-.2-.1-.2-.2s0-.1-.1-.1c-.2 0-.3 0-.4.3 0 0 0 .1-.1.1-.1.1-.1.1-.2.1 0 .2-.1.3-.3.3-.1.1-.2.1-.2.1l-.5.5v.1c0 .1-.1.1-.1.2-.1.1-.1.1-.1.2-.1.1-.1.1-.1.2v.7c0 .1 0 .1-.1.2l-.2.2c-.1 0 0 .1 0 .2s0 .2.1.2c0 .1.1.2.1.2l.1.1v.5s0 .1-.1.1l-.1.1c-.1.1-.1.1-.1.2v.5c.1 0 .2.1.2.1H163c.1.1.2 0 .3.2h.4l.2-.2h.5c.1 0 .1-.1.1-.1.1-.1.2 0 .2-.1.1 0 .2 0 .2-.1h.1c.1 0 .2 0 .2-.1.1-.1.2-.2.3-.1h.1c.1-.1.2 0 .3-.2h.9zm11.9-9.6h-.2c-.1 0-.1 0-.2.1h-.1c-.1 0-.1.1-.2.1h-.4c-.1.1-.1.1-.2.1 0 0-.1 0-.1.1 0 0-.1.1-.1 0h-.1c0 .1-.1.1-.2.1h-.2l-.3.3c-.1.1-.1.1-.1.2-.1.1-.1.1-.1.2-.1.1-.1.1-.1.2v.1l-.2.2c-.1.1-.2.2-.2.3 0 .1-.1.2-.1.2l-.2.2-.2.2-.2.2-.2.2c-.1.1-.1.2-.2.2s-.2.1-.2.1l-.8.8-.2.2c-.2 0-.2.1-.3.2-.1 0-.1.1-.2.1s-.2 0-.2.1c-.1 0-.1 0-.2.1 0 .1-.1 0-.1 0-.1 0-.1.1-.2.1h-.1c0 .1-.1.1-.2.2-.1 0-.1 0-.2.1 0 .1-.1.1-.2.2-.2.2-.2.2-.2.4 0 .1 0 .3.1.4l.6.6h.5l.2-.2c.1-.1.1-.2.2-.2s.2-.1.3-.2c.1-.1.2-.3.4-.3l.2-.2c.1 0 .2-.1.3-.2.1-.1.1-.1.2-.1h.2l.2-.2c.1 0 .2-.1.3-.1.1 0 .1-.1.2-.1l.2-.2.1-.1c.1 0 .1 0 .2-.1 0-.1.1 0 .2-.1 0-.1.1-.1.2-.2h.1c.1 0 .1-.1.2-.1l.1-.1c.1-.1.1-.2.2-.1.1 0 .1-.1.2-.1s.1-.1.2-.1.1-.1.2-.1.2-.1.3-.2h.1l.1-.1c.1 0 .2-.1.3-.2l.1-.1c.1 0 .1 0 .2-.1.1 0 .2-.1.3-.2 0-.1.1-.1.2-.1s.1-.1.2-.1.1 0 .2-.1l.2-.2c.1-.1.2 0 .2-.1s.1 0 .2-.1l.2-.2c0-.1.1 0 .2 0s.1-.1.2-.1h.1c.1-.1.2-.1.3-.2l.2-.2c.1-.1.1-.2.2-.1.1-.1.2-.3.4-.2l.3-.3v-.1c-.1-.1-.1-.2-.2-.1l-.2-.2c-.2 0-.2-.1-.3-.2-.1 0-.1-.1-.2-.1s-.2 0-.2-.1h-.1c-.1 0-.1.1-.2.1l-.1.1h-.2c-.1 0-.1 0-.2.1h-.2c-.1 0-.1.1-.2.1s-.1.1-.2.1h-.2c-.1 0-.1 0-.1.1s-.1.1-.1.1h-.2c-.1.1-.1.1-.2.1h-.3l.3-.3c.1 0 .2-.1.3-.1.1 0 .1-.1.2-.1l.2-.2c.1 0 .2-.1.2-.1s.1-.1 0-.1c-.8.1-.8.1-.9.1zm4.2-8.7c0 .1 0 .2.1.2l.1.1.2.2c.1.1 0 .2.1.2s.1.1.2.2c0 .1 0 .2.1.2s0 .1.1.2.2.1.2.3c.1.1.2.1.2.3 0 .1.1.2.2.3 0 .1 0 .1.1.2l.2.2h.1l.1-.1c0-.1.1-.2.2-.3l.1-.1c.1-.1.2-.2.2-.4.1-.1.1-.1.1-.2v-.8c0-.1 0-.1.1-.2l.2-.2c.1-.1.1 0 .2-.1s.1-.1.2-.1h.2c.1 0 .1 0 .1-.1.1-.1.1-.1.1-.2v-1.3c0-.1 0-.1.1-.1 0 0 .1-.1 0-.1l-.1-.1h-.2l-.3.3c-.1.1-.1.1-.2.1-.1.1-.1.1-.2.1l-.2.2-.1.1h-.2c-.1.1-.2.1-.2.1l-.1.1c-.1 0-.1.1-.2.1s-.2.1-.3.2H184.1c-.1.1-.1.1-.2.1-.1.1-.1.1-.2.1h-.1l-.2.2c-.5 0-.5.1-.5.1zm10.8 3.2h.5s.1 0 .1-.1.1-.1.1-.1h.2c.1-.1.1-.1.2-.1h.4c.1 0 .1 0 .1-.1l.2-.2c.1 0 .2-.1.2-.1.1-.1.1-.1.2-.1s.1-.1.2-.1h.6c.1-.1.2-.1.2-.1.1 0 .1-.1.2-.1h.3c.1-.1.1-.1.2-.1s.1 0 .2-.1h.3c.1 0 .1 0 .2-.1h.1c.1 0 .1 0 .1-.1-.1-.1-.2-.2-.3-.1h-.6c-.1 0-.2 0-.2.1h-.1c-.1.1-.1.1-.2.1h-.2c0 .1-.1.1-.2.1s-.1.1-.2.1-.1.1-.2.1H195c-.1 0-.1.1-.2.1h-.1l-.4.4-.1.1h-.6c-.1 0-.1 0-.1-.1v-.2l.1-.1s0-.1-.1-.1c0-.1-.1-.1-.2-.1l-.1-.1h-.9c-.1.1-.2.1-.2.1-.1 0-.1 0-.1.1s0 .2.1.3l.4.4c0 .1.1 0 .2 0h.1l.1.1s.1 0 .1.1l.1.1h.6zm-16.2 17.5h.2l-.1-.1h-.1c-.1 0-.1-.1-.2-.2l-.1-.1c0-.1-.1 0-.2-.1 0-.1-.1-.1-.2-.1s-.1-.1-.2-.1h-.1l-.3-.3s-.1 0-.1-.1c-.1 0-.2.1-.3.2.2.1.3.4.5.4l.2.2c.1.1.2 0 .2.1 0 0 .1.1.1 0 .1 0 .2 0 .3.1.1 0 .1 0 .2.1h.2zm20.9-17.5c0-.1 0-.1 0 0-.2-.1-.3 0-.3 0h-.4l-.1.1h-.3c-.1 0-.1 0-.1.1-.1.1-.1.2 0 .3h.1c.1 0 .1-.1.2-.1s.2 0 .2-.1h.2c.1 0 .2 0 .2-.1.1 0 .2-.1.3-.2zm-11.8 2.4c0-.1 0-.2-.1-.3l-.3-.3c-.1-.1-.1-.1-.1-.2 0 0-.1-.1-.1 0 0 0-.1 0-.1.1v.2c.1.1.1.2.1.2 0 .1.1.1.1.2v.5h.2c.1 0 .1 0 .1-.1v-.1c.2-.1.2-.1.2-.2zm18.4 4.7v-.3l-.1-.1c0-.1-.2-.2-.1-.3 0-.1-.1-.1-.1-.2-.1-.1 0-.2-.1-.2l-.2-.2v.3c.1.1.1.2.1.2l.1.1c0 .1.1.1.1.2s.1.2.1.2c.1.1.1.1.1.2v.2c0 .1 0 .1.1.1s.1 0 .1-.1c-.1 0-.1 0-.1-.1zm1.1 2.3v-.1c0-.1 0-.1-.1-.2 0-.1 0-.2-.1-.2 0-.1-.1-.2-.2-.3h-.1s-.1.1 0 .2.1.1.1.2c.1.1.1.1.1.2.1.1.1.2.1.4.1 0 .2 0 .2-.1v-.1zm-27.8 8.5c0-.2-.1-.2-.2-.3h-.1l-.1.1c-.1.1-.1.1 0 .1l.2.2h.2v-.1zm-9.9-.4c0 .1 0 .1 0 0-.1.1-.1.1 0 .2 0 0 .1.1.1 0 0 0 .1-.1 0-.1 0 0-.1 0-.1-.1zm31.2-19.3c0-.1-.2-.1-.2 0 .1.1.2.1.2 0zm-12.5 7.6s-.1 0 0 0c-.1 0-.1 0 0 0 0 .1 0 0 0 0z"/><path class="st2" d="M175.6 108.6s-.1.1 0 0c-.1-.1-.3 0-.4-.2-.1 0-.2 0-.3-.1-.1 0-.2-.1-.3-.2v-.1s0-.1.1-.1l.1.1h.4c.1.1.2.2.3.4.1.1.1.2.1.2zM193.2 82.3v.2c-.1 0-.2 0-.2.1-.1.1-.2.1-.3.1v-.2h.2c.1 0 .1-.1.2-.2l.1-.1s.1-.1.1 0c-.1 0-.1 0-.1.1zM176.7 108.8l-.1.1c-.1.1-.1.1-.1.2l-.1.1-.2-.2s0-.2.1-.1c.1 0 .2-.1.2-.1 0-.1.1 0 .2 0zM169.3 109.6c-.1 0-.1 0 0 0-.1 0-.3-.2-.2-.2 0-.1.1-.1.2-.2h.2c.1 0 .1.1.2.2-.2.1-.3.2-.4.2zM177.1 109.4c-.1 0-.1 0-.1-.2v-.1c.2-.1.3 0 .4.1v.1c-.1 0-.2.1-.3.1zM169.8 109.2h-.1c.1-.2.1-.2.3-.2h.2c-.1.2-.1.2-.4.2zM177.2 109.6c.1.1.1.1 0 .1h-.1l.1-.1c-.1 0-.1 0 0 0-.1 0 0 0 0 0zM178.8 110.4c.1 0 .1.2 0 .2s-.1-.1 0-.2zM207.9 100.6s-.1 0 0 0c-.1-.1-.1-.1 0 0 0-.1 0-.1 0 0zM179.2 106c.1 0 .1 0 0 0v.1-.1zM237.1 84.9H235.3s-.1 0-.1-.1h-.6v-.2l.1-.1H239.5l.4.4v.1l.1.1.1.1c.1 0 .1.1.1.1v.5l-.1.1s-.1 0-.1.1l-.1.1V88.5l-.1.2V91.4l-.3.3s-.1 0-.1.1l-.1.1H238.5l-.2-.2-.1-.1s0-.1-.1-.1V91.2l-.1-.1h-.2l-.2.2-.1.1-.1.1s0 .1-.1.1l-.1.1v.1l-.1.1v1.2l.1.1H239.5l.1.1v.7l-.1.1v.1l-.1.1s-.1 0-.1.1h-.1l-.1.1H237.6s0 .1-.1.1l-.1.1V95.8h4.2l.1.1h.4v.8l-.1.1-.1.1s-.1 0-.1.1h-.9l-.1.1-.1.1H231.2s0-.1-.1-.1l-.1-.1h-.1l-.1-.1-.1-.1-.1-.1s-.1 0-.1-.1H230.2s0-.1-.1-.1l-.1-.1V96.1l-.1-.1-.1-.1v-.1l-.1-.1v-.1l-.1-.1s0-.1-.1-.1v-1.1l.1-.1H231.8s.1 0 .1.1H235.9s.1 0 .1-.1v-.9l-.1-.1h-.1l-.1-.1h-.7s0-.1-.1-.1l-.1-.1h-.1l-.1-.1c-.1 0-.1 0-.1-.1l-.1-.1c-.1 0-.1-.1-.1-.1h-.1l-.1-.1h-.5l-.1-.1-.1-.1-.1-.1-.1-.1-.1-.1h-.1l-.1-.1V91.5l.1-.1s0-.1.1-.1l.1-.1s.1 0 .1-.1h.7c0-.1.1 0 .1 0H235.9v-.4l-.1-.1-.1-.1H233.4l-.1-.1h-.1l-.1-.1h-.7l-.1-.1-.1-.1s0-.1-.1-.1c0 0 0-.1-.1-.1l-.2-.2s-.1 0-.1-.1l-.1-.1-.1-.1-.1-.1-.1-.1v-.1l-.1-.1c0-.1 0-.1-.1-.1V88.6c0-.1-.1-.1-.1-.1s0-.1-.1-.1V88.1s-.1 0-.1-.1V84.3s.1 0 .1-.1l.2-.2h.6l.1.1H232.9l.1.1H234.8l.1.1c.1 0 .1.1.1.1l.1.1c0 .1 0 .1.1.1l.1.1.1.1H236.7l.1-.1v-.4H238.3l.1.1v.6l.2.2.1.1v1.2l-.1.1h-.5l-.1.1-.2.2v1.2l.1.1h.2l.1-.1v-.7h.5l.1-.1V86.4s.1-.1 0-.1v-2l-.1-.1h-.2c-1.1.7-1.2.7-1.4.7zm-1.7 3.4v-.4l-.1-.1h-.7l-.1-.1h-.1l-.1-.1h-.2l-.1.1V89.9l.1.1H235.1l.1-.1v-1.4c.2-.1.2-.1.2-.2z"/><path class="st2" d="M243.3 85.2H245.5s0 .1.1 0l.1.1H247c.1.1.1 0 .2 0H248l.1-.1v-.4s.1 0 0-.1v-1.2l-.1-.1v-.1l-.1-.1V82.9l.1-.1h.7s0 .1.1 0h.1l.4.4V84.1l-.2.2s0 .1-.1.1l-.1.1H248.6l-.1.1v.1l-.1.1s0 .1-.1.1v.4H252.9l.1.1v1.1l-.1.1H249.1l-.1.1s-.1 0-.1.1h-.9v.2l.1.1s.1 0 .1.1h.1l.2.2v.7l-.4.4c-.1 0-.1 0-.1.1v.2s0 .1.1.1l.1.1.1.1s.1 0 .1.1h.1l.1.1h.1l.1.1h.5s0 .1.1.1l.1.1H256.1V89.9H255.8l-.2.2H254.8s-.1 0-.1.1h-.5s0 .1-.1.1H249.8l-.1.1v.4l-.2.2s-.1 0-.1.1l-.1.1H248l-.1.1V94.6l-.1.1H247.5l-.1-.1s-.1 0 0-.1l-.1-.1c0-.1 0-.1-.1-.1v-.1l-.1-.1-.1-.1v-.2l-.3-.3v-2.1l-.1-.1h-.4l-.1.1-.1.1c-.1 0-.1 0-.1.1l-.1.1H244.8l-.1-.1-.1-.1-.5-.5V90.1l.1-.1H246.6l.1-.1V88.2s-.1 0 0-.1l-.1-.1-.1-.1-.1-.1-.1-.1-.1-.1-.1-.1H245.1l-.1.1h-.1s0 .1-.1.1c0 0-.1 0-.1.1l-.2.2h-.1l-.1.1h-.5l-.1.1-.1.1-.1.1h-.4l-.2.2c0 .1-.1.1-.1.1s0 .1-.1.1l-1 1s-.1 0-.1.1l-.1.1s0 .1-.1.1v.7h-.4l-.1-.1c0-.1-.1-.1-.1-.2s-.1-.1-.1-.1l-.1-.1s0-.1-.1-.1v-1.3l.1-.1v-.1l.1-.1h.5l.1-.1h.1l.1-.1h.1l.1-.1h.1l.1-.1.1-.1.1-.1s.1 0 .1-.1l.1-.1h.1l.1-.1.1-.1.1-.1c.1 0 .1-.1.2-.1l.2-.2h.1s.1 0 .1-.1c.1 0 .1-.1.1-.1s.1 0 .1-.1h.1c.1 0 .1 0 .1-.1 0 0 .1 0 .1-.1 0 0 .1 0 .1-.1.1 0 .1-.1.1-.1l.1-.1v-.2l.6-.6s.1 0 .1-.1l.1-.1.1-.1h.4v-.2H241.7l-.1-.1-.1-.1h-.1l-.1-.1-.1-.1-.5-.5v-.1s0-.1-.1-.1v-.7l.1-.1s.1 0 .1-.1H241.1l.1-.1.1-.1c.1 0 .1-.1.1-.1l.1-.1H241.8c1.3 2.5 1.4 2.5 1.5 2.5zm6.4 8h.5l.1-.1V93h-1.2s-.1 0-.1-.1h-.2s-.1 0-.1.1V93.8h.6c.2-.6.3-.6.4-.6zM259.8 93.9V92.7l.2-.2h.4l.1.1.3.3.1.1.1.1v.1l.1.1.1.1.2.2s0 .1.1.1l.1.1.1.1s0 .1.1.1V95.7c0 .1 0 .1.1.1v.1l.1.1s.1 0 .1.1c0 0 0 .1.1.1l.3.3.1.1H264.6l.1-.1s.1 0 .1-.1l.1-.1s0-.1.1-.1V95.6h-1l-.2.2h-.5v-.1s0-.1-.1-.1H262.9l-.2-.2c0-.1 0-.1-.1-.1l-.1-.1-.1-.1v-.4l.1-.1H263.3l.1-.1v-.2l-.1-.1-.1-.1V89.1H264s.1 0 .1.1h.1l.1.1s0 .1.1.1l.1.1h.1c.1 0 .1 0 .1.1 0 0 .1 0 .1.1l.1.1V90.6l.2.2H268.1c.1 0 .1 0 .1.1h.4v.7l-.1.1-.1.1-.1.1h-.5s0 .1-.1.1h-.1l-.5.5-.1.1h-.1l-.1.1-.1.1H263.6V93.7c-.1 0 0 .1 0 .1v.4l.1.1v.7h.6s0-.1.1-.1h.6s.1 0 .1-.1H268.8s0 .1.1 0l.1.1h.1l.2.2V95.4l-.2.2-.3.3H267.4l-.1.1v1.2l-.3.3H265c-.1 0-.1 0-.1.1l-.1.1v.1l-.1.1v.1l-.1.1-.1.1H262.2l-.2-.2-.2-.2-.1-.1h-.1l-.1-.1s-.1 0-.1-.1c0 0 0-.1-.1-.1v-.1l-.1-.1-.2-.2v-.1l-.1-.1V96.5s0-.1-.1-.1c0 0 0-.1-.1-.1V95.3c-.9-1.3-.9-1.3-.9-1.4z"/><path class="st2" d="M266.3 86.5H267.2l.1.1.1.1h.4l.1.1v.7l-.1.1H262.5s0 .1-.1.1h-1.1l-.2.2v.1l-.1.1c0 .1-.1.1-.1.1v.6c0 .1 0 .1-.1.1l-.1.1h-.1l-.1.1s-.1 0-.1.1v.1s0 .1.1.1l.2.2V89.9l-.2.2s-.1 0-.1.1l-.1.1s-.1 0-.1.1c-.1 0-.1 0-.1.1h-.2l-.1.1-.1.1s-.1 0-.1.1l-.1.1s0 .1-.1.1v.7s-.1 0-.1.1l-.1.1-.1.1-.1.1s-.1 0-.1.1c0 0 0 .1-.1.1l-.1.1v.1s0 .1-.1.1v.1l-.1.1-.1.1-.1.1-.1.1v.7l-.1.1V94.2l-.1.1s0 .1-.1.1V97.2l-.1.1-.1.1-.1.1c0 .1-.1.1-.1.2v.1H256.7l-.1-.1V96.4l.1-.1.1-.1h.1l.1-.1s.1 0 .1-.1c.1 0 .1 0 .1-.1h.1l.1-.1v-.2l.1-.1v-.1c0-.1 0-.1.1-.1 0-.1 0-.1.1-.1l.1-.1V95l.1-.1v-.4l.1-.1V93.4s0-.1.1-.1V93s.1 0 0-.1V92.6l.1-.1V92.2l.1-.1v-.4l.1-.1v-.4l.1-.1V90.2s0-.1.1-.1V89.1l-.1-.1h-.6s0-.1-.1-.1c0 0 0-.1-.1-.1l-.1-.1s-.1 0-.1-.1h-.1l-.1-.1h-.1l-.1-.1s-.1 0-.1-.1l-.1-.1h-.1s-.1 0-.1-.1l-.1-.1c-.1 0-.1-.1-.1-.1l-.2-.2c-.1 0-.1 0-.1-.1l-.1-.1v-.1l-.1-.1-.1-.1v-.1l-.1-.1V85.8l.2-.2H262.8v-.1h-.5s0-.1-.1-.1H261.1l-.1-.1-.2-.2h-.1l-.1-.1v-.6l-.1-.1-.1-.1-.1-.1V84l-.1-.1-.1-.1V82.4l.1-.1.1-.1.1-.1h.1l.1-.1c.1 0 .1 0 .1-.1H263l.1.1.2.2.1.1.1.1.1.1s0 .1.1.1l.1.1c0 .1 0 .1.1.1l.1.1h.1l.1.1.1.1h.1l.1.1h.1l.1.1V85l.1.1h.2c.9 1.4 1.1 1.4 1.3 1.4zM215 90.3h-.4l-.1-.1h-.1l-.1-.1h-.1c-.1 0-.1 0-.1-.1h-.6v-.4s0-.1-.1-.1V89H221.3v-.4s-.1 0-.1-.1v-.2l-.1-.1h-.4l-.1.1h-.1l-.1.1h-.5s-.1 0-.1.1H216.4l-.1-.1h-.1l-.1-.1h-.5l-.2-.2-.1-.1h-.1s-.1 0-.1-.1h-.2v-.1l-.1-.1v-1.3s.1 0 .1-.1l.3-.3H219.6s.1 0 .1-.1v-.5l-.1-.1c0-.1 0-.1-.1-.1v-1.3l.1-.1h1.2c.1 0 .1 0 .1.1l.1.1.1.1.1.1h.1l.1.1.1.1c.1 0 .1.1.1.1l.1.1s.1 0 .1.1c0 0 0 .1.1.1V87.9l.1.1H223.9l.1.1V88.4l-.1.1s-.1 0-.1.1c0 0-.1 0-.1.1h-.8l-.1.1v.4l.1.1v.1s.1 0 .1.1V91.3s.1 0 .1.1c0 0 0 .1.1.1 0 0 0 .1.1.1l.1.1V93l.1.1v.1l.1.1v.1l.1.1V95l.1.1s.1 0 0 .1l.1.1s0 .1.1.1V95.7l.1.1v.1l.1.1s.1 0 0 .1l.1.1v.5l.1.1c0 .1 0 .1.1.1l.3.3h.1l.1.1.1.1.1.1.1.1.1.1v.1l.1.1v.1l.1.1v.1c0 .1.1.1.1.1l.1.1v.6l-.1.1-.1.1H224.7l-.1-.1-.1-.1-.2-.2v-.5l-.1-.1v-.1l-.1-.1s0-.1-.1-.1v-.7s0-.1-.1-.1v-.2c0-.1 0-.1-.1-.1v-.1c0-.1 0-.1-.1-.1v-.1l-.1-.1v-.7s-.1 0-.1-.1l-.1-.1V95.2s-.1 0-.1-.1V94.2s0-.1-.1-.1V92l-.1-.1v-.1l-.1-.1v-.5s0-.1-.1-.1V89.7s-.1 0-.1-.1V88.7l-.1-.1H217l-.1.1h-.1s-.1 0-.1.1l-.1.1h-.1l-.1.1-.1.1s-.1 0-.1.1h-.5c-.6 1.1-.7 1.1-.7 1.1z"/><path class="st2" d="M219 89.5h.7l.1.1.1.1V90.8l-.1.1s0 .1-.1 0l-.1.1h-.1l-.1.1v.4H219.7l.1-.1h.1l.1-.1H221.7l.2.2v.5s-.1 0-.1.1c0 0 0 .1-.1.1l-.1.1H219.7l-.1-.1h-.2v.4l.1.1.1.1v.1l.1.1.1.1H220.7s0-.1.1-.1l.1-.1H222.2l.5.5v.2H217s0 .1-.1.1l-.1.1h-.1s0 .1-.1 0l-.1.1s-.1 0-.1.1h-.5l-.1.1-.1.1h-.4l-.1-.1h-.1l-.1-.1h-.5l-.3-.3s0-.1-.1-.1l-.1-.1s0-.1-.1-.1V93.1l-.1-.1v-.1s-.1 0 0-.1l-.1-.1-.1-.1V92.3s0-.1-.1-.1v-.1l-.1-.1v-.4l.1-.1s.1 0 .1-.1H215.3c0-.1.1 0 .1 0h.2v-1.3l-.1-.1v-.1s-.1 0-.1-.1v-.7s.1 0 .1-.1H217.1l.1.1.1.1V90.9l.1.1h.8l.1-.1v-.1l.1-.1V87.1l.1-.1.1-.1h.4c-.2 2.6-.1 2.6 0 2.6zM224.2 84.3V83.2l.1-.1s.1 0 .1-.1l.1-.1h.5c0 .1.1 0 .1 0h.2l.1.1.1.1c.1 0 .1 0 .1.1 0 0 .1 0 .1.1h.4v.6s.1 0 .1.1v1.2l-.1.1h-1.3s0-.1-.1 0h-.4s0-.1-.1-.1c0 0 0-.1-.1-.1l-.1-.1s-.1 0-.1-.1c-.1 0-.1 0-.1-.1h-.1v-.5c.5.1.5.1.5 0z"/><path style="fill:none" d="M0 0h301v157.4H0z"/><g><defs><path id="SVGID_3_" d="M0 0h301v157.4H0z"/></defs><clipPath id="SVGID_4_"><use xlink:href="#SVGID_3_" style="overflow:visible"/></clipPath></g></g></switch></svg>