<svg version="1.1" id="レイヤー_1" xmlns="http://www.w3.org/2000/svg" xmlns:xlink="http://www.w3.org/1999/xlink" x="0" y="0" viewBox="0 0 301 157.4" style="enable-background:new 0 0 301 157.4" xml:space="preserve"><style>.st60{fill:#e50012}</style><switch><g><path style="fill:#fff" d="M0 0h301v157.4H0z"/><defs><path id="SVGID_1_" d="M178 37.7s-.1 0 0 0c-.1 0 0 0 0 0"/></defs><clipPath id="SVGID_2_"><use xlink:href="#SVGID_1_" style="overflow:visible"/></clipPath><linearGradient id="SVGID_3_" gradientUnits="userSpaceOnUse" x1="-1529.459" y1="-3040.503" x2="-1528.424" y2="-3040.503" gradientTransform="matrix(.08757 0 0 -.08757 311.856 -228.546)"><stop offset="0" style="stop-color:#917f36"/><stop offset=".188" style="stop-color:#eacc5d"/><stop offset=".206" style="stop-color:#fff"/><stop offset=".427" style="stop-color:#fffac6"/><stop offset=".711" style="stop-color:#d4b345"/><stop offset=".729" style="stop-color:#eeeeef"/><stop offset="1" style="stop-color:#eacc5d"/></linearGradient><clipPath id="SVGID_5_"><use xlink:href="#SVGID_4_" style="overflow:visible"/></clipPath><g style="clip-path:url(#SVGID_5_)"><defs><path id="SVGID_6_" d="M177.9 37.7s.1 0 0 0c.1 0 0 0 0 0"/></defs><clipPath id="SVGID_7_"><use xlink:href="#SVGID_6_" style="overflow:visible"/></clipPath><radialGradient id="SVGID_8_" cx="-4433.09" cy="2109.212" r="1.035" gradientTransform="matrix(-.02233 -.02233 -.134 .134 361.538 -343.811)" gradientUnits="userSpaceOnUse"><stop offset="0" style="stop-color:#917f36"/><stop offset=".188" style="stop-color:#eacc5d"/><stop offset=".206" style="stop-color:#fff"/><stop offset=".427" style="stop-color:#fffac6"/><stop offset=".711" style="stop-color:#d4b345"/><stop offset=".729" style="stop-color:#eeeeef"/><stop offset="1" style="stop-color:#eacc5d"/></radialGradient><path style="clip-path:url(#SVGID_7_);fill:url(#SVGID_8_)" d="m178 37.8-.1-.1h.1z"/></g><clipPath id="SVGID_10_"><use xlink:href="#SVGID_9_" style="overflow:visible"/></clipPath><g style="clip-path:url(#SVGID_10_)"><defs><path id="SVGID_11_" d="M177.9 37.7s.1 0 0 0c.1 0 0 0 0 0"/></defs><clipPath id="SVGID_12_"><use xlink:href="#SVGID_11_" style="overflow:visible"/></clipPath><linearGradient id="SVGID_13_" gradientUnits="userSpaceOnUse" x1="-1529.459" y1="-3040.491" x2="-1528.424" y2="-3040.491" gradientTransform="matrix(.08757 0 0 -.08757 311.856 -228.546)"><stop offset="0" style="stop-color:#face00"/><stop offset=".006" style="stop-color:#face00"/><stop offset=".253" style="stop-color:#fffbd0"/><stop offset=".296" style="stop-color:#faf2bf"/><stop offset=".381" style="stop-color:#eedc92"/><stop offset=".5" style="stop-color:#dbb94a"/><stop offset=".596" style="stop-color:#ca9a0c"/><stop offset=".796" style="stop-color:#e7cc67"/><stop offset=".871" style="stop-color:#f2e08b"/><stop offset="1" style="stop-color:#fffbd0"/></linearGradient></g><defs><path id="SVGID_14_" d="m123.4 69.2.2-.2c-.1 0-.2-.1-.2-.1v.3z"/></defs><clipPath id="SVGID_15_"><use xlink:href="#SVGID_14_" style="overflow:visible"/></clipPath><linearGradient id="SVGID_16_" gradientUnits="userSpaceOnUse" x1="-816.682" y1="-1171.991" x2="-815.647" y2="-1171.991" gradientTransform="matrix(.1859 0 0 -.1859 275.227 -148.785)"><stop offset="0" style="stop-color:#917f36"/><stop offset=".188" style="stop-color:#eacc5d"/><stop offset=".206" style="stop-color:#fff"/><stop offset=".427" style="stop-color:#fffac6"/><stop offset=".711" style="stop-color:#d4b345"/><stop offset=".729" style="stop-color:#eeeeef"/><stop offset="1" style="stop-color:#eacc5d"/></linearGradient><path style="clip-path:url(#SVGID_15_);fill:url(#SVGID_16_)" d="M123.4 68.9h.2v.3h-.2z"/><defs><path id="SVGID_17_" d="M123.4 68.9h.2v.3h-.2z"/></defs><clipPath id="SVGID_18_"><use xlink:href="#SVGID_17_" style="overflow:visible"/></clipPath><g style="clip-path:url(#SVGID_18_)"><defs><path id="SVGID_19_" d="M123.4 68.9v.3l.2-.2c-.1 0-.1-.1-.2-.1"/></defs><clipPath id="SVGID_20_"><use xlink:href="#SVGID_19_" style="overflow:visible"/></clipPath><radialGradient id="SVGID_21_" cx="-1250.732" cy="917.458" r="1.035" gradientTransform="matrix(-.08726 -.08726 -.5236 .5236 494.748 -520.455)" gradientUnits="userSpaceOnUse"><stop offset="0" style="stop-color:#917f36"/><stop offset=".188" style="stop-color:#eacc5d"/><stop offset=".206" style="stop-color:#fff"/><stop offset=".427" style="stop-color:#fffac6"/><stop offset=".711" style="stop-color:#d4b345"/><stop offset=".729" style="stop-color:#eeeeef"/><stop offset="1" style="stop-color:#eacc5d"/></radialGradient><path style="clip-path:url(#SVGID_20_);fill:url(#SVGID_21_)" d="m123.5 69.3-.2-.3.2-.2.3.2z"/></g><defs><path id="SVGID_22_" d="M123.4 68.9h.2v.3h-.2z"/></defs><clipPath id="SVGID_23_"><use xlink:href="#SVGID_22_" style="overflow:visible"/></clipPath><g style="clip-path:url(#SVGID_23_)"><defs><path id="SVGID_24_" d="M123.4 68.9v.3l.2-.2c-.1 0-.1-.1-.2-.1"/></defs><clipPath id="SVGID_25_"><use xlink:href="#SVGID_24_" style="overflow:visible"/></clipPath><linearGradient id="SVGID_26_" gradientUnits="userSpaceOnUse" x1="-816.682" y1="-1171.988" x2="-815.646" y2="-1171.988" gradientTransform="matrix(.1859 0 0 -.1859 275.227 -148.785)"><stop offset="0" style="stop-color:#face00"/><stop offset=".006" style="stop-color:#face00"/><stop offset=".253" style="stop-color:#fffbd0"/><stop offset=".296" style="stop-color:#faf2bf"/><stop offset=".381" style="stop-color:#eedc92"/><stop offset=".5" style="stop-color:#dbb94a"/><stop offset=".596" style="stop-color:#ca9a0c"/><stop offset=".796" style="stop-color:#e7cc67"/><stop offset=".871" style="stop-color:#f2e08b"/><stop offset="1" style="stop-color:#fffbd0"/></linearGradient><path style="clip-path:url(#SVGID_25_);fill:url(#SVGID_26_)" d="M123.4 68.9h.2v.3h-.2z"/></g><defs><path id="SVGID_27_" d="M124.6 69.5h-.1l-.3-.1z"/></defs><clipPath id="SVGID_28_"><use xlink:href="#SVGID_27_" style="overflow:visible"/></clipPath><linearGradient id="SVGID_29_" gradientUnits="userSpaceOnUse" x1="-466.487" y1="-274.948" x2="-465.451" y2="-274.948" gradientTransform="matrix(.3999 0 0 -.3999 310.773 -40.51)"><stop offset="0" style="stop-color:#917f36"/><stop offset=".188" style="stop-color:#eacc5d"/><stop offset=".206" style="stop-color:#fff"/><stop offset=".427" style="stop-color:#fffac6"/><stop offset=".711" style="stop-color:#d4b345"/><stop offset=".729" style="stop-color:#eeeeef"/><stop offset="1" style="stop-color:#eacc5d"/></linearGradient><path style="clip-path:url(#SVGID_28_);fill:url(#SVGID_29_)" d="M124.2 69.4h.4v.2h-.4z"/><defs><path id="SVGID_30_" d="M124.2 69.4h.4v.2h-.4z"/></defs><clipPath id="SVGID_31_"><use xlink:href="#SVGID_30_" style="overflow:visible"/></clipPath><g style="clip-path:url(#SVGID_31_)"><defs><path id="SVGID_32_" d="m124.2 69.4.4.1h-.1z"/></defs><clipPath id="SVGID_33_"><use xlink:href="#SVGID_32_" style="overflow:visible"/></clipPath><radialGradient id="SVGID_34_" cx="-1027.052" cy="832.362" r="1.034" gradientTransform="matrix(-.1099 -.1099 -.6592 .6592 560.266 -592.07)" gradientUnits="userSpaceOnUse"><stop offset="0" style="stop-color:#917f36"/><stop offset=".188" style="stop-color:#eacc5d"/><stop offset=".206" style="stop-color:#fff"/><stop offset=".427" style="stop-color:#fffac6"/><stop offset=".711" style="stop-color:#d4b345"/><stop offset=".729" style="stop-color:#eeeeef"/><stop offset="1" style="stop-color:#eacc5d"/></radialGradient><path style="clip-path:url(#SVGID_33_);fill:url(#SVGID_34_)" d="m124.4 69.7-.3-.3.3-.3.3.3z"/></g><defs><path id="SVGID_35_" d="M124.2 69.4h.4v.2h-.4z"/></defs><clipPath id="SVGID_36_"><use xlink:href="#SVGID_35_" style="overflow:visible"/></clipPath><g style="clip-path:url(#SVGID_36_)"><defs><path id="SVGID_37_" d="m124.2 69.4.4.1h-.1z"/></defs><clipPath id="SVGID_38_"><use xlink:href="#SVGID_37_" style="overflow:visible"/></clipPath><linearGradient id="SVGID_39_" gradientUnits="userSpaceOnUse" x1="-466.487" y1="-274.948" x2="-465.451" y2="-274.948" gradientTransform="matrix(.3999 0 0 -.3999 310.773 -40.51)"><stop offset="0" style="stop-color:#face00"/><stop offset=".006" style="stop-color:#face00"/><stop offset=".253" style="stop-color:#fffbd0"/><stop offset=".296" style="stop-color:#faf2bf"/><stop offset=".381" style="stop-color:#eedc92"/><stop offset=".5" style="stop-color:#dbb94a"/><stop offset=".596" style="stop-color:#ca9a0c"/><stop offset=".796" style="stop-color:#e7cc67"/><stop offset=".871" style="stop-color:#f2e08b"/><stop offset="1" style="stop-color:#fffbd0"/></linearGradient><path style="clip-path:url(#SVGID_38_);fill:url(#SVGID_39_)" d="M124.2 69.4h.4v.2h-.4z"/></g><defs><path id="SVGID_40_" d="M99.1 87h.3c.2 0 .4 0 .6-.1h-.2c-.2 0-.5 0-.7.1"/></defs><clipPath id="SVGID_41_"><use xlink:href="#SVGID_40_" style="overflow:visible"/></clipPath><linearGradient id="SVGID_42_" gradientUnits="userSpaceOnUse" x1="-307.828" y1="133.552" x2="-306.794" y2="133.552" gradientTransform="matrix(.8427 0 0 -.8427 358.543 199.487)"><stop offset="0" style="stop-color:#917f36"/><stop offset=".188" style="stop-color:#eacc5d"/><stop offset=".206" style="stop-color:#fff"/><stop offset=".427" style="stop-color:#fffac6"/><stop offset=".711" style="stop-color:#d4b345"/><stop offset=".729" style="stop-color:#eeeeef"/><stop offset="1" style="stop-color:#eacc5d"/></linearGradient><path style="clip-path:url(#SVGID_41_);fill:url(#SVGID_42_)" d="M99.1 86.9h.9v.1h-.9z"/><defs><path id="SVGID_43_" d="M99.1 86.9h.9v.1h-.9z"/></defs><clipPath id="SVGID_44_"><use xlink:href="#SVGID_43_" style="overflow:visible"/></clipPath><g style="clip-path:url(#SVGID_44_)"><defs><path id="SVGID_45_" d="M99.1 87c.3 0 .6.1.9-.1-.3 0-.6 0-.9.1"/></defs><clipPath id="SVGID_46_"><use xlink:href="#SVGID_45_" style="overflow:visible"/></clipPath><radialGradient id="SVGID_47_" cx="-610.075" cy="674.73" r="1.035" gradientTransform="matrix(-.212 -.212 -1.2717 1.2717 828.35 -900.44)" gradientUnits="userSpaceOnUse"><stop offset="0" style="stop-color:#917f36"/><stop offset=".188" style="stop-color:#eacc5d"/><stop offset=".206" style="stop-color:#fff"/><stop offset=".427" style="stop-color:#fffac6"/><stop offset=".711" style="stop-color:#d4b345"/><stop offset=".729" style="stop-color:#eeeeef"/><stop offset="1" style="stop-color:#eacc5d"/></radialGradient><path style="clip-path:url(#SVGID_46_);fill:url(#SVGID_47_)" d="m99.6 87.5-.5-.5.5-.6.5.6z"/></g><defs><path id="SVGID_48_" d="M99.1 86.9h.9v.1h-.9z"/></defs><clipPath id="SVGID_49_"><use xlink:href="#SVGID_48_" style="overflow:visible"/></clipPath><g style="clip-path:url(#SVGID_49_)"><defs><path id="SVGID_50_" d="M99.1 87c.3 0 .6.1.9-.1-.3 0-.6 0-.9.1"/></defs><clipPath id="SVGID_51_"><use xlink:href="#SVGID_50_" style="overflow:visible"/></clipPath><linearGradient id="SVGID_52_" gradientUnits="userSpaceOnUse" x1="-307.828" y1="133.531" x2="-306.794" y2="133.531" gradientTransform="matrix(.8427 0 0 -.8427 358.543 199.487)"><stop offset="0" style="stop-color:#face00"/><stop offset=".006" style="stop-color:#face00"/><stop offset=".253" style="stop-color:#fffbd0"/><stop offset=".296" style="stop-color:#faf2bf"/><stop offset=".381" style="stop-color:#eedc92"/><stop offset=".5" style="stop-color:#dbb94a"/><stop offset=".596" style="stop-color:#ca9a0c"/><stop offset=".796" style="stop-color:#e7cc67"/><stop offset=".871" style="stop-color:#f2e08b"/><stop offset="1" style="stop-color:#fffbd0"/></linearGradient><path style="clip-path:url(#SVGID_51_);fill:url(#SVGID_52_)" d="M99.1 86.9h.9v.2h-.9z"/></g><defs><path id="SVGID_53_" d="m113.9 81.8.7-.5.5-.7z"/></defs><clipPath id="SVGID_54_"><use xlink:href="#SVGID_53_" style="overflow:visible"/></clipPath><linearGradient id="SVGID_55_" gradientUnits="userSpaceOnUse" x1="-270.942" y1="226.642" x2="-269.906" y2="226.642" gradientTransform="matrix(1.1248 0 0 -1.1248 418.66 336.163)"><stop offset="0" style="stop-color:#917f36"/><stop offset=".188" style="stop-color:#eacc5d"/><stop offset=".206" style="stop-color:#fff"/><stop offset=".427" style="stop-color:#fffac6"/><stop offset=".711" style="stop-color:#d4b345"/><stop offset=".729" style="stop-color:#eeeeef"/><stop offset="1" style="stop-color:#eacc5d"/></linearGradient><path style="clip-path:url(#SVGID_54_);fill:url(#SVGID_55_)" d="M113.9 80.6h1.2v1.2h-1.2z"/><g><defs><path id="SVGID_56_" d="M113.9 80.6h1.2v1.2h-1.2z"/></defs><clipPath id="SVGID_57_"><use xlink:href="#SVGID_56_" style="overflow:visible"/></clipPath><g style="clip-path:url(#SVGID_57_)"><defs><path id="SVGID_58_" d="m114.6 81.3.5-.7-1.2 1.2z"/></defs><clipPath id="SVGID_59_"><use xlink:href="#SVGID_58_" style="overflow:visible"/></clipPath><radialGradient id="SVGID_60_" cx="-398.493" cy="593.672" r="1.035" gradientTransform="rotate(-135 380.73 -1044.418) scale(.5695 -3.4172)" gradientUnits="userSpaceOnUse"><stop offset="0" style="stop-color:#917f36"/><stop offset=".188" style="stop-color:#eacc5d"/><stop offset=".206" style="stop-color:#fff"/><stop offset=".427" style="stop-color:#fffac6"/><stop offset=".711" style="stop-color:#d4b345"/><stop offset=".729" style="stop-color:#eeeeef"/><stop offset="1" style="stop-color:#eacc5d"/></radialGradient><path style="clip-path:url(#SVGID_59_);fill:url(#SVGID_60_)" d="m114.5 82.4-1.2-1.2 1.2-1.2 1.2 1.2z"/></g><g><defs><path id="SVGID_61_" d="M113.9 80.6h1.2v1.2h-1.2z"/></defs><clipPath id="SVGID_62_"><use xlink:href="#SVGID_61_" style="overflow:visible"/></clipPath><g style="clip-path:url(#SVGID_62_)"><defs><path id="SVGID_63_" d="m114.6 81.3.5-.7-1.2 1.2z"/></defs><clipPath id="SVGID_64_"><use xlink:href="#SVGID_63_" style="overflow:visible"/></clipPath><linearGradient id="SVGID_65_" gradientUnits="userSpaceOnUse" x1="-270.942" y1="226.642" x2="-269.906" y2="226.642" gradientTransform="matrix(1.1248 0 0 -1.1248 418.66 336.163)"><stop offset="0" style="stop-color:#face00"/><stop offset=".006" style="stop-color:#face00"/><stop offset=".253" style="stop-color:#fffbd0"/><stop offset=".296" style="stop-color:#faf2bf"/><stop offset=".381" style="stop-color:#eedc92"/><stop offset=".5" style="stop-color:#dbb94a"/><stop offset=".596" style="stop-color:#ca9a0c"/><stop offset=".796" style="stop-color:#e7cc67"/><stop offset=".871" style="stop-color:#f2e08b"/><stop offset="1" style="stop-color:#fffbd0"/></linearGradient><path style="clip-path:url(#SVGID_64_);fill:url(#SVGID_65_)" d="M113.9 80.6h1.2v1.2h-1.2z"/></g></g></g><g><defs><path id="SVGID_66_" d="M127.3 76.1c.1-.1.3-.2.3-.4-.3 0-.2.3-.3.4"/></defs><clipPath id="SVGID_67_"><use xlink:href="#SVGID_66_" style="overflow:visible"/></clipPath><linearGradient id="SVGID_68_" gradientUnits="userSpaceOnUse" x1="-603.563" y1="-628.026" x2="-602.528" y2="-628.026" gradientTransform="matrix(.2754 0 0 -.2754 293.487 -97.038)"><stop offset="0" style="stop-color:#917f36"/><stop offset=".188" style="stop-color:#eacc5d"/><stop offset=".206" style="stop-color:#fff"/><stop offset=".427" style="stop-color:#fffac6"/><stop offset=".711" style="stop-color:#d4b345"/><stop offset=".729" style="stop-color:#eeeeef"/><stop offset="1" style="stop-color:#eacc5d"/></linearGradient><path style="clip-path:url(#SVGID_67_);fill:url(#SVGID_68_)" d="M127.3 75.7h.3v.4h-.3z"/></g><g><defs><path id="SVGID_69_" d="M127.3 75.7h.3v.4h-.3z"/></defs><clipPath id="SVGID_70_"><use xlink:href="#SVGID_69_" style="overflow:visible"/></clipPath><g style="clip-path:url(#SVGID_70_)"><defs><path id="SVGID_71_" d="M127.3 76.1c.1-.1.3-.2.3-.4-.3 0-.2.3-.3.4"/></defs><clipPath id="SVGID_72_"><use xlink:href="#SVGID_71_" style="overflow:visible"/></clipPath><radialGradient id="SVGID_73_" cx="-947.198" cy="801.596" r="1.035" gradientTransform="matrix(-.1213 -.1213 -.7275 .7275 595.747 -622.118)" gradientUnits="userSpaceOnUse"><stop offset="0" style="stop-color:#917f36"/><stop offset=".188" style="stop-color:#eacc5d"/><stop offset=".206" style="stop-color:#fff"/><stop offset=".427" style="stop-color:#fffac6"/><stop offset=".711" style="stop-color:#d4b345"/><stop offset=".729" style="stop-color:#eeeeef"/><stop offset="1" style="stop-color:#eacc5d"/></radialGradient><path style="clip-path:url(#SVGID_72_);fill:url(#SVGID_73_)" d="m127.4 76.3-.3-.4.3-.4.4.4z"/></g><g><defs><path id="SVGID_74_" d="M127.3 75.7h.3v.4h-.3z"/></defs><clipPath id="SVGID_75_"><use xlink:href="#SVGID_74_" style="overflow:visible"/></clipPath><g style="clip-path:url(#SVGID_75_)"><defs><path id="SVGID_76_" d="M127.3 76.1c.1-.1.3-.2.3-.4-.3 0-.2.3-.3.4"/></defs><clipPath id="SVGID_77_"><use xlink:href="#SVGID_76_" style="overflow:visible"/></clipPath><linearGradient id="SVGID_78_" gradientUnits="userSpaceOnUse" x1="-603.563" y1="-627.981" x2="-602.528" y2="-627.981" gradientTransform="matrix(.2754 0 0 -.2754 293.487 -97.038)"><stop offset="0" style="stop-color:#face00"/><stop offset=".006" style="stop-color:#face00"/><stop offset=".253" style="stop-color:#fffbd0"/><stop offset=".296" style="stop-color:#faf2bf"/><stop offset=".381" style="stop-color:#eedc92"/><stop offset=".5" style="stop-color:#dbb94a"/><stop offset=".596" style="stop-color:#ca9a0c"/><stop offset=".796" style="stop-color:#e7cc67"/><stop offset=".871" style="stop-color:#f2e08b"/><stop offset="1" style="stop-color:#fffbd0"/></linearGradient><path style="clip-path:url(#SVGID_77_);fill:url(#SVGID_78_)" d="M127.3 75.7h.3v.4h-.3z"/></g></g></g><g><defs><path id="SVGID_79_" d="M105.1 86h.1l.3-.2z"/></defs><clipPath id="SVGID_80_"><use xlink:href="#SVGID_79_" style="overflow:visible"/></clipPath><linearGradient id="SVGID_81_" gradientUnits="userSpaceOnUse" x1="-478.1" y1="-301.842" x2="-477.065" y2="-301.842" gradientTransform="matrix(.3873 0 0 -.3873 290.272 -30.98)"><stop offset="0" style="stop-color:#917f36"/><stop offset=".188" style="stop-color:#eacc5d"/><stop offset=".206" style="stop-color:#fff"/><stop offset=".427" style="stop-color:#fffac6"/><stop offset=".711" style="stop-color:#d4b345"/><stop offset=".729" style="stop-color:#eeeeef"/><stop offset="1" style="stop-color:#eacc5d"/></linearGradient><path style="clip-path:url(#SVGID_80_);fill:url(#SVGID_81_)" d="M105.1 85.8h.4v.2h-.4z"/></g><g><defs><path id="SVGID_82_" d="M105.1 85.8h.4v.2h-.4z"/></defs><clipPath id="SVGID_83_"><use xlink:href="#SVGID_82_" style="overflow:visible"/></clipPath><g style="clip-path:url(#SVGID_83_)"><defs><path id="SVGID_84_" d="m105.2 86 .3-.2-.4.2z"/></defs><clipPath id="SVGID_85_"><use xlink:href="#SVGID_84_" style="overflow:visible"/></clipPath><radialGradient id="SVGID_86_" cx="-1039.56" cy="838.209" r="1.035" gradientTransform="rotate(-135.007 150.314 -396.74) scale(.153 -.9186)" gradientUnits="userSpaceOnUse"><stop offset="0" style="stop-color:#917f36"/><stop offset=".188" style="stop-color:#eacc5d"/><stop offset=".206" style="stop-color:#fff"/><stop offset=".427" style="stop-color:#fffac6"/><stop offset=".711" style="stop-color:#d4b345"/><stop offset=".729" style="stop-color:#eeeeef"/><stop offset="1" style="stop-color:#eacc5d"/></radialGradient><path style="clip-path:url(#SVGID_85_);fill:url(#SVGID_86_)" d="m105.3 86.2-.3-.3.3-.3.3.3z"/></g><g><defs><path id="SVGID_87_" d="M105.1 85.8h.4v.2h-.4z"/></defs><clipPath id="SVGID_88_"><use xlink:href="#SVGID_87_" style="overflow:visible"/></clipPath><g style="clip-path:url(#SVGID_88_)"><defs><path id="SVGID_89_" d="m105.2 86 .3-.2-.4.2z"/></defs><clipPath id="SVGID_90_"><use xlink:href="#SVGID_89_" style="overflow:visible"/></clipPath><linearGradient id="SVGID_91_" gradientUnits="userSpaceOnUse" x1="-478.1" y1="-301.842" x2="-477.065" y2="-301.842" gradientTransform="matrix(.3873 0 0 -.3873 290.272 -30.98)"><stop offset="0" style="stop-color:#face00"/><stop offset=".006" style="stop-color:#face00"/><stop offset=".253" style="stop-color:#fffbd0"/><stop offset=".296" style="stop-color:#faf2bf"/><stop offset=".381" style="stop-color:#eedc92"/><stop offset=".5" style="stop-color:#dbb94a"/><stop offset=".596" style="stop-color:#ca9a0c"/><stop offset=".796" style="stop-color:#e7cc67"/><stop offset=".871" style="stop-color:#f2e08b"/><stop offset="1" style="stop-color:#fffbd0"/></linearGradient><path style="clip-path:url(#SVGID_90_);fill:url(#SVGID_91_)" d="M105.1 85.8h.4v.2h-.4z"/></g></g></g><g><defs><path id="SVGID_92_" d="M123.3 69.2v.2h.2c0-.1 0-.1-.1-.2h-.1z"/></defs><clipPath id="SVGID_93_"><use xlink:href="#SVGID_92_" style="overflow:visible"/></clipPath><linearGradient id="SVGID_94_" gradientUnits="userSpaceOnUse" x1="-793.577" y1="-1112.786" x2="-792.541" y2="-1112.786" gradientTransform="matrix(.1927 0 0 -.1927 276.228 -145.114)"><stop offset="0" style="stop-color:#917f36"/><stop offset=".188" style="stop-color:#eacc5d"/><stop offset=".206" style="stop-color:#fff"/><stop offset=".427" style="stop-color:#fffac6"/><stop offset=".711" style="stop-color:#d4b345"/><stop offset=".729" style="stop-color:#eeeeef"/><stop offset="1" style="stop-color:#eacc5d"/></linearGradient><path style="clip-path:url(#SVGID_93_);fill:url(#SVGID_94_)" d="M123.3 69.2h.2v.2h-.2z"/></g><g><defs><path id="SVGID_95_" d="M123.3 69.2h.2v.2h-.2z"/></defs><clipPath id="SVGID_96_"><use xlink:href="#SVGID_95_" style="overflow:visible"/></clipPath><g style="clip-path:url(#SVGID_96_)"><defs><path id="SVGID_97_" d="M123.3 69.4h.2c0-.1 0-.1-.1-.2h-.1v.2z"/></defs><clipPath id="SVGID_98_"><use xlink:href="#SVGID_97_" style="overflow:visible"/></clipPath><radialGradient id="SVGID_99_" cx="-1592.22" cy="1047.239" r="1.035" gradientTransform="rotate(-135 123.521 -317.002) scale(.09393 -.56357)" gradientUnits="userSpaceOnUse"><stop offset="0" style="stop-color:#917f36"/><stop offset=".188" style="stop-color:#eacc5d"/><stop offset=".206" style="stop-color:#fff"/><stop offset=".427" style="stop-color:#fffac6"/><stop offset=".711" style="stop-color:#d4b345"/><stop offset=".729" style="stop-color:#eeeeef"/><stop offset="1" style="stop-color:#eacc5d"/></radialGradient><path style="clip-path:url(#SVGID_98_);fill:url(#SVGID_99_)" d="m123.4 69.5-.2-.2.2-.2.3.2z"/></g><g><defs><path id="SVGID_100_" d="M123.3 69.2h.2v.2h-.2z"/></defs><clipPath id="SVGID_101_"><use xlink:href="#SVGID_100_" style="overflow:visible"/></clipPath><g style="clip-path:url(#SVGID_101_)"><defs><path id="SVGID_102_" d="M123.3 69.4h.2c0-.1 0-.1-.1-.2h-.1v.2z"/></defs><clipPath id="SVGID_103_"><use xlink:href="#SVGID_102_" style="overflow:visible"/></clipPath><linearGradient id="SVGID_104_" gradientUnits="userSpaceOnUse" x1="-793.577" y1="-1112.784" x2="-792.541" y2="-1112.784" gradientTransform="matrix(.1927 0 0 -.1927 276.228 -145.114)"><stop offset="0" style="stop-color:#face00"/><stop offset=".006" style="stop-color:#face00"/><stop offset=".253" style="stop-color:#fffbd0"/><stop offset=".296" style="stop-color:#faf2bf"/><stop offset=".381" style="stop-color:#eedc92"/><stop offset=".5" style="stop-color:#dbb94a"/><stop offset=".596" style="stop-color:#ca9a0c"/><stop offset=".796" style="stop-color:#e7cc67"/><stop offset=".871" style="stop-color:#f2e08b"/><stop offset="1" style="stop-color:#fffbd0"/></linearGradient><path style="clip-path:url(#SVGID_103_);fill:url(#SVGID_104_)" d="M123.3 69.2h.2v.2h-.2z"/></g></g></g><g><defs><path id="SVGID_105_" d="M92.2 87.1c-.1 0-.1 0 0 0m-15.6-6.8v-.6c.1.2.3.4.5.6l.6.5c-.4-.2-.8-.3-1.1-.5m5.6-6.8c-.2-.4-.7-.6-.6-1.2l1.5-.8-.1-.1c2.5-.6 5.6-2.5 8.6-1.5.2.1.4.1.6.1.2 0 .4-.1.6 0 .4 1.1 1.4 1.6 2.1 2.4.7-.2 1.6.9 2.2 1.4.3.8.7 1.8 1.2 2.5.7 1.4.5 3.4-.5 4.7-1 1-2 1.9-3.2 2.6.1-.2.4-.3.3-.5l-.2-.2-2.1.6c.2-.4-.4-.5-.5-.7-.3-.1-.4.2-.6.4-.1.2-.2.4-.5.4-1.4-.5-3.1-.4-4.5-1.1-2.7-.6-4.7-2.8-6.9-4.9 0-.1 0-.2-.1-.2.2-.1.4-.2.5-.4-.5-.5-.2-1.1.1-1.7.5.1.2-.4.4-.6l-.2-.4c.2 0 .5.4.7.1l-.4-.4c0-.4.4-.4.7-.3h.3c.2 0 .5 0 .6-.2m61.6-17.7c8.5-.7 16.5 1.3 24.3 3 2 .7 4.6 1.1 5.6 3.3 1.8 1.4 2.4 3.7 3.5 5.5.6 1.1-1.2 1.7 0 2.5.4.3.5.9.3 1.4-.2.2-.5.4-.7.2-.4-.4 0-.7-.5-1.1-.3-.4-.7-.4-1.2-.4-.1.3-.6.2-.5.6-.3.1-.5 0-.7-.1-.3-.1-.6-.3-.9 0-.2.5-.3.4-.7.4-.1-.2-.3-.2-.4-.2h-.2c-.4.2 0 1-.7.7-.7 1.2-2.1 1.5-3.3 1.7-2 1.1-3.8 2.5-5.6 3.9 2.3 1.9 5.7 1.6 8 3.5.2.3.4.7.2 1.1-.1 0-.2 0-.3.1 0 .4.4.4.6.6-.2.2-.5.4-.7.2-.2.5-.7 1.2-1.4 1.4-1.1.1-2.3-.3-3.3-.8-2.6-.7-5.1-1.5-7.5-2.5-2.5 1.8-5.1 4.1-8 5.4 1.9 1.2 4.4 1.5 6.6 2.1 6 1.2 11.9-.7 17.4-2 3.1-1 6.5-3.3 7.7-6.5-1.2-2.2-2.7-4.2-2.4-7.1.3.1.3-.2.4-.3.5-3.7 4.4-5.8 6.4-9 .9-.4 1.3-1.5 2-1.7.5-.3.8-.6 1.5-.6.6.1 1-.2 1.6-.5 1.1-1.6 3.2-.7 4.6-1.7 1.1 0 2.1.5 2.6 1.4 8.1-1.1 14.9 3 21.9 5.5 4.6 2.3 10.2 5.9 11.3 11.3 1.5.7.9 3.1 2.6 3-.2 1.5-.8 3-2.1 4.1.4-.4 1.3-1.2 1.2-2-1.1.8-1.4 2.2-2.6 2.9l.4-.5c-1.1-.4-1.6 1.4-2.6 1.7l-.8.4.2-.2-.1-.1c-.9.8-2.1 1.5-3.3 1.9.1-.1.3-.2.3-.3-.4-.2-.8.3-1.2.5l-.1-.3c-1.6.2-3.1 1.2-4.7 1.1-1.2.4-2.6.2-3.5 1.2.7.5 1.2-.4 1.9-.4-.6.7-1.4.8-2.3.7l.1-.1c-.2-.2-.7-.1-1 0-10.8.2-21-2.2-29.5-8.3l-.5-.4-1.8 2.4c0-.1 0-.2-.1-.2l-.6 1-.1-.1c-4.2 4.9-10.9 5.6-16.8 7.2-10.6 2.4-19.7-2-29.1-4.1-.5 0-1.1.2-1.7.4-1.3.5-2.7.9-3.4-.8-1-1.5-1.1-3.6-.1-5.1.8-.2 0-1.6 1.1-1.4-.1-.3.1-.5.3-.7.4.4.7.1.9-.1.2-.2.5-.5.9-.1.6-.4 1.3-.1 1.9.1.3-.4.8-.9 1.5-.6.4.2.7-.3 1-.5.4-.1.8 0 1.2.2.6.3 1.1.5 1.6-.3.8-.9 1.8-.4 2.8-.1.3.4.9.8 1.4.5 1-.8 2.3-1.3 3.2-2.2-1 .3-2.4-.2-3.1-1.1-.8-.2-1.1-1-1.4-1.6.1-.1.2-.3.4-.3l.1.1c.1-.3.6-.2.5-.6 2.1-2.4 5.8-1.4 8.4-.7.9-1.2 2.2-1.8 2.8-3.1l-.2-.2c-5.6-.9-10.6 1-15.5 2.1-1 1.1-2.6.2-3.9.1-1.2-.3-2.9-1.1-3.1-2.6.8-1.6-.7-3.8.8-5.1-.5-1.6 1.5-2.8 1.1-4.4.5-.7.8-1.4.9-2.2.6-.4.7-1.4 1.6-1.5h.8c1.6-.1 3.8-.5 5.8-.6M74.2 45.2l.2-.4c5.1 0 9.5 1.4 14 2.8.3.3.7.4 1 .5v-.2l1.9 1.4c.8-.5 1 1 1.8 1 .9.5 1.8 1.4 2.8 1.4l.1-.4c.4 0 .2.4.5.5.8.6 1.5 1.4 2.4 1.8l.2-.2V53l2 3.8c.6 1.2.4 2.9 1.1 4.1-.2.3.3.8-.1.9-.4.2-.5-.2-.7-.4l-.4.6c-.6 0 .1-1.5-.7-.9.4.5-.3 1 .2 1.4-.5.4-.8.1-1.2-.1-.4-.3-.8-.5-1.3 0 .1.2.3.3.2.5-.3-.3-.7-.3-1-.2l-2.7-3c-.2 0-.4 0-.5.1.5.7.9 1.5 1 2.4l.8.9c-.7-.2-1.1-1.6-2-1-.3.4-.6.3-1 .3-.2-.1-.5-.1-.7 0-.2-.1-.3-.4-.5-.4l-.1.1c.5.5 1.1 1.2.7 1.9-1.2.2-1.3-1.6-2.2-2h-.1c-.2.4.3.8.7 1.1l-.3.4L92 65c-.1.2-.4.1-.5-.1-.5-.7-1.1-1.2-1.9-1.4-.1.2-.5.5-.2.8.1.2.4.3.4.5-.2.1-.4.1-.6 0-.3-.1-.6-.2-.8.2-.1.8.9.7.7 1.6l.3.5c-.8.1-.6 1.2-1.4 1.4-1.5 0-2.7.7-4.1.1-1.6-.6-3.4-.6-4.8-1.8-1-.3-2-.5-3.1-.3-.7 1.5-1.4 2.9-1.2 4.8-.1.7-.5 1.5-1.1 1.7-.1-.1-.1-.3-.3-.4-.2 0-.4.4-.6.1-.1 3.1.2 6.6-.4 9.7 5.1 3.2 11 4.4 17.2 4.7h-.4c-.3 0-.5 0-.7.1.7.2 1.6.5 2.3.1-.1-.1-.3-.1-.5-.1H90h1.8c-.1 0-.1.1-.1.1 0 .2.2.2.3.2.1 0 .3 0 .3.1.1-.2.4 0 .4-.3l-.1-.1h1.7l-.5.2c.6.3 1.6.4 2.1-.1l-.1-.1.1.1c.2.2.4 0 .6-.1.2-.1.3-.2.5-.1l4-.5c-.1.1-.4 0-.5.2.2.2.7.2.9-.1.8.7 1.4-.1 2-.4l-.1-.1c.4-.2 2-.4 2.8-.7 1.4-.3 2.8-.6 4.1-1.3l.2-.2c-.2-.2-.4-.1-.5.1-.1.1-.2.2-.4.2 2.4-1.6 5.3-3.6 6.6-6.2l.1-.6.2.2c.3-.1.4-.4.4-.7h.2c.8-.9-.4-1.8.6-2.7-.1-.2-.1-.7.1-.9-.6-.7-2.4-.3-2-1.5.1-.4.5-.8.5-1.3.2 0 .2-.2.4-.3-.7-.7.4-1.1.6-1.6 1.5-.9 2.5-2 4.4-2.1.3-.4.5-.2.7 0 .2.1.3.3.6.2.2.2.2.6.6.6.2.7.9.7 1.4 1 .5.1.7.6 1.2.7l-.2.2.2.2c.4-.5.9.2 1.3.4.9.9 2.3 1.5 3.1 2.5 0 2-2.1 1.9-2.2 3.7-.6.5-1.2 1.1-1.6 1.9 0 .4-.3.7-.5 1l-.1-.1c-.7 2.1-.7 4.4-2.1 6.1-.2.5-.5 1-.9 1.5l-.2-.2c-3 3.6-7.1 5.7-11.1 7.6l-.5-.2c-5.5 2.7-11.6 4.3-17.7 5.1-10.9.9-21.6 0-30.1-5.8-2.3-1.1-4.7-2.6-6.5-4.6-.4 0-.9-.2-1.1-.7l.9-.1c-.5-.9.4-1.3-.2-2.3.5-.5.1-1.5 1.1-1.7.5-.3.2-1 .9-1.2-.2-.7.5-.8.4-1.5.4-.4 1-.5 1.5-.3.2-.3-.1-.6.5-.5.1.2.2.4.4.5h.2L61 79l.8-.1v-1.1c.3.3.4.1.5-.1.1-.2.2-.4.5-.1.6 0 .5-.5 1.1-.4l.2-.9c.2 0 .4.4.6 0 0-.3-.5-.7 0-.8-.3-1.2-.9-2.4-1.6-3.4-.6-.2-1.4-.3-1.5-1l-.2-.2c-.8.3-1.9.7-2.5.4.9-.8-.4-1.2-.6-1.8-.1.2-.3.3-.6.3l.3-.7c-1.9-.4-2.5-2.6-3.9-3.9.2-1.5-.9-2-.8-3.3-.2-1.2-.4-2.4-1.2-3.3-.3-1.1-.4-2.3.1-3.2l-.6-.7c1-.5.1-1.6 1.3-1.9.8-.7 0-2 1.1-2.6.6-.3 1.4-1.6 2-.5.5 0 1-.2 1.4-.5.6-.3 1.1-.6 1.9-.4l2.1-1c1.5.8 2.8-.7 4.3-.8 1.4-.3 2.8-.6 4.1-1.4-.3-.5.4-.6.8-.7.9.1 1.6.2 2.4.2.3.2.8.2 1.2.1m79.7-13.1c.5-.1 1-.2 1.6 0l1.1.8.7 1.4c.6 4.1-.5 8.6 0 12.6 1 1.4 3.1 1.2 4.7.8 4.2-2.3 9.3-2.7 12.9-6 .6-1 1.8-.3 2.6-.2.3.2.7.4.7.8.4 1.3-1.1 1.7-1.8 2.2-.4-.1-.8.1-1.2.2-.6.2-1.1.4-1.6-.1-5.9 2.4-11.2 5.8-17.4 7.4-1.4-.2-3 .3-4-1.2-1.1-1.7-1-3.9-1-6.1.5-2 .8-4.6-.4-6.4-1.9 1.4-3.7 3.3-4.6 5.5l-.4 6.9c-.6.3-.6 1.4-1.5 1-.6.7-1.3.5-2 .4-.5-.1-1-.2-1.5 0-1 .1-1.4-1-2.2-1.4-.2-1.1-1.3-2.2-.3-3.1-.2-.5.3-.3.3-.7l.3-8.9-.2-.3c-5.2 4.3-8.6 10.4-14.1 14.4-2.9 2-6 4.2-9.7 3.3-2-.7-4.8-1.3-5.3-3.8-.3-2.1-.3-3.9-.5-6.1-.5-.7-1.5-1.4-1-2.4 1.6-1.9 4.2-2.1 6.5-2.6.7 0 1 .4 1.4.8.6 1.7.6 3.9.9 5.9.5 1.1-.3 3.1 1.1 3.5 3.6.6 5.9-2.4 8.5-4.3 4.8-5 9.4-11 15.5-13.5 1.2-.1 2 0 3 .5.9 1.2 1.6 2.5 1.3 4.1h.4c1.1-1.1 2.7-1.8 3.5-3.1.5-.1.5-.6 1.1-.7l-.1-.1c.4-.6 1.1-.3 1.5-1.1h.2c.5-.3.8-.4 1-.4m-41.1 6.8c-2.4-.3-4.7-2.1-5.3-4.4-.4-1.1.3-2 .7-2.9 1.7-2 4.3-1.2 6.4-2.3 1.7-.2 3 1.1 4 2.4.7 1.7.6 4.1-.6 5.5-1.2 1-2.5 1.8-4.1 1.8-.3 0-.7-.1-1.1-.1m-3.2-28.7c-2.7 5 0 11 2.6 16-.2 0-.5.1-.7.1-1.6.2-4.1.6-6 2.8-.2.2-.4.5-.5.7l-.2.3c-.5 1-1.6 3-.8 5.3.4 1.5 1.2 2.9 2.4 4.1l-.9.9c-.2.2-.3.4-.5.7-.7 1.3-1 3.3.7 5.6 0 .3 0 .6.1.9.1 1.4.2 2.8.4 4.5.1.6.3 1.2.5 1.7-1.1-.2-2.2-.3-3.3-.3l-1.1-2c-.2-.5-.5-1-.9-1.4-.7-.7-1.7-1.2-2.7-1.2-.7-.7-1.7-1.1-2.9-1.1l-.9-.6c-.4-.5-1.2-1.3-2.4-1.5l-.9-.7c-.5-.4-1-.6-1.6-.7-.2-.1-.5-.2-.6-.2-4.6-1.5-9.4-3-15-3-.7 0-1.3.2-1.9.5-.5 0-1-.1-1.6-.2h-.5c-.2 0-.4 0-.6.1-1.5.3-2.4.9-3 1.6-.5.2-1 .3-1.6.4-1.2.1-2.1.5-2.8.8-.1 0-.1.1-.2.1-.3-.1-.7-.1-1-.1-.5 0-1.1.1-1.6.4l-1.2.6c-1 0-1.8.3-2.4.6-.3-.1-.6-.1-.8-.1-1.6 0-2.8.9-3.4 1.5-1.7 1-2.2 2.5-2.4 3.5-.5.5-.8 1.1-1 1.9-.4.5-.6 1-.7 1.6-.1.8 0 1.6.3 2.2-.1 1 0 2.1.3 3.3.1.6.5 1.2.8 1.6.1.2.2.8.3 1.2.1 1.3.5 2.2.8 2.8 0 1.1.4 2.2 1.2 2.9.2.2.5.6.8 1 .5.7 1.1 1.5 1.9 2.3.1.2.2.5.4.7.2.3.5.6.9.9.3.7.9 1.3 1.6 1.7.6.3 1.3.5 2 .5-.4.4-.6.8-.8 1.2-.1.1-.2.2-.3.4-.7.3-1.4.7-1.9 1.2s-.8 1.1-1 1.8l-.3.6c0 .1-.1.1-.1.2-1 .8-1.4 1.9-1.6 2.5-.4.6-.6 1.4-.6 2.1-.1.1-.2.3-.3.5-.5 1.1-.6 2.3 0 3.4.5 1 1.3 1.8 2.4 2.2 1.8 1.8 4.1 3.4 6.5 4.5 6.5 4.4 14.6 6.5 24.6 6.6-.9.7-1.7 1.6-2.3 2.6-1.4 2.5.6 12.2.9 15.2.3 3.1 4 6.4 5.6 8.9 3 4.6 5 9.7 6.6 14.9 2.6 8.8 3.2 6 8.9.5 2.9-2.8 13.6-8.3 13.4-13-.2-5.9-16.6-4.2-20.4-8.8-2.4-2.8-2.9-7.7.8-9.7 4.3-2.3 9.6 2.3 12.8 4.7 1.2.9 11.3-9.3 12.6-10.3 5.3-3.9 11.1-5.3 17.5-3.5 11.1 3.1 19.4 21 31 13.2-.4-8.3-.9-16.2 1.4-23.7 3-1 5.8-2.5 8.2-5 .4-.3.8-.7 1.1-1.1l.2-.2c7.8 4.9 17.3 7.3 28.1 7.3h1.2c.2 0 .4.1.7.1h.5c1.7 0 3.1-.5 4.3-1.5 1.3-.1 2.4-.5 3.4-.8.1 0 .2-.1.3-.1h.5c.5 0 .9-.1 1.3-.2.3 0 .6-.1.8-.2 1.2-.4 2.2-1 3.2-1.6l.6-.3.4-.2c.6-.3 1.2-.6 1.6-1 .4-.1.7-.2 1-.4.3-.2.6-.4.9-.7.4-.1.7-.3 1-.6 1.9-1.5 3-3.6 3.5-6.4.2-1.1-.2-2.2-.9-3-.3-.3-.6-.6-1-.8-.2-.6-.6-1.2-1.1-1.9-1.5-4.9-5.8-9-13.1-12.6-.1 0-.1-.1-.2-.1-.6-.2-1.2-.4-1.7-.7 2.3-2.2 4.3-4.7 7.1-6.3-.2-.1-.4-.1-.6-.2-3-.8-5.8-.3-8.3.2-3 .6-5.4 1.2-7-.4-5.3-5.6-7.8-8.7-3.6-16.6 1.5-2.8.7-9.5-.8-12.5-.2-.1-.5-.1-.7 0-1.5.8-3.2 6.8-4.4 8.3-1.9 2.4-4.3 4.3-7.1 5.5-3.2 1.4-7.4 2.3-11.8 2.7 0-.5-.1-.9-.2-1.3-.3-1.3-1.1-2.3-2.4-3.1-.5-.3-1-.4-1.6-.5l-.5 2.1.2-2.1c-.4-.1-1-.2-1.8-.2-1.5 0-2.8.6-3.7 1.7-1.5 1.3-3.7 2.1-6.1 2.9-.1 0-.2.1-.4.1-1.7-.3-3.2-.7-4.7-1.2.2-2.4.3-4.8-.1-7.3-.1-.4-.2-.8-.4-1.1l-.7-1.4c-.3-.5-.7-1-1.2-1.3l-1.1-.8c-.3-.2-.5-.3-.8-.4-.7-.2-1.4-.4-2.1-.4-.6 0-1.1.1-1.5.2h-.5c-1 0-2 .4-2.7 1.1-.5.2-1.1.6-1.6 1.2 0 0-.1 0-.1.1-.1 0-.1.1-.2.1l-.2-.2c-.3-.4-.6-.7-1-.9-1.3-.7-2.5-1.1-4.1-1.1h-.4l-.4-.4c-4.6-4.2-18.1-22.1-27-22.1-1.7.3-3.6 1.5-5.1 4.2"/></defs><clipPath id="SVGID_106_"><use xlink:href="#SVGID_105_" style="overflow:visible"/></clipPath><linearGradient id="SVGID_107_" gradientUnits="userSpaceOnUse" x1="-163.254" y1="502.204" x2="-162.219" y2="502.204" gradientTransform="matrix(183.2744 0 0 -183.2744 29967.975 92120.64)"><stop offset="0" style="stop-color:#917f36"/><stop offset=".188" style="stop-color:#eacc5d"/><stop offset=".206" style="stop-color:#fff"/><stop offset=".427" style="stop-color:#fffac6"/><stop offset=".711" style="stop-color:#d4b345"/><stop offset=".729" style="stop-color:#eeeeef"/><stop offset="1" style="stop-color:#eacc5d"/></linearGradient><path style="clip-path:url(#SVGID_106_);fill:url(#SVGID_107_)" d="M47.7 6.3h190v146.5h-190z"/></g><g><defs><path id="SVGID_108_" d="M236.6 77.7c-.3-.3-.6-.6-1-.8-.2-.6-.6-1.2-1.1-1.9-1.5-4.9-5.8-9-13.1-12.6-.1 0-.1-.1-.2-.1-.6-.2-1.2-.4-1.7-.7 2.3-2.2 4.3-4.7 7.1-6.3-.2-.1-.4-.1-.6-.2-6.5-1.8-12.4 2.9-15.3-.2-5.3-5.6-7.8-8.7-3.6-16.6 1.5-2.8.7-9.5-.8-12.5-.2-.1-.5-.1-.7 0-1.5.8-3.2 6.8-4.4 8.3-1.9 2.4-4.3 4.3-7.1 5.5-3.2 1.4-7.4 2.3-11.8 2.7 0-.5-.1-.9-.2-1.3-.3-1.3-1.1-2.3-2.4-3.1-.5-.3-1-.4-1.6-.5l-.5 2.1.2-2.1c-.4-.1-1-.2-1.8-.2-1.5 0-2.8.6-3.7 1.7-1.5 1.3-3.7 2.1-6.1 2.9-.1 0-.2.1-.4.1-1.7-.3-3.2-.7-4.7-1.2.2-2.4.3-4.8-.1-7.3-.1-.4-.2-.8-.4-1.1l-.7-1.4c-.3-.5-.7-1-1.2-1.4l-1.1-.8c-.3-.2-.5-.3-.8-.4-.7-.2-1.4-.4-2.1-.4-.6 0-1.1.1-1.5.2h-.5c-1 0-2 .4-2.7 1.1-.5.2-1.1.6-1.6 1.2 0 0-.1 0-.1.1-.1 0-.1.1-.2.1l-.2-.2c-.3-.4-.6-.7-1-.9-1.3-.7-2.5-1.1-4.1-1.1h-.4l-.4-.4c-5.7-5.2-25.3-31.9-32.6-18.3-2.7 5 0 11 2.6 16-.2 0-.5.1-.7.1-1.6.2-4.1.6-6 2.8-.2.2-.4.5-.5.7l-.2.3c-.5 1-1.6 3-.8 5.3.4 1.5 1.2 2.9 2.4 4.1l-.9.9c-.2.2-.3.4-.5.7-.6 1.3-1 3.3.7 5.6 0 .3 0 .6.1.9.1 1.4.2 2.8.4 4.5.1.6.3 1.2.5 1.7-1.1-.2-2.2-.3-3.3-.3l-1.1-2c-.2-.5-.5-1-.9-1.4-.7-.7-1.7-1.2-2.7-1.2-.7-.7-1.7-1.1-2.9-1.1l-.9-.6c-.4-.5-1.2-1.3-2.4-1.5l-.9-.7c-.5-.4-1-.6-1.6-.7-.2-.1-.5-.2-.6-.2-4.6-1.5-9.4-3-15-3-.7 0-1.3.2-1.9.5-.5 0-1-.1-1.6-.2h-.5c-.2 0-.4 0-.6.1-1.5.3-2.4.9-3 1.6-.5.2-1 .3-1.6.4-1.2.1-2.1.5-2.8.8-.1 0-.1.1-.2.1-.3-.1-.7-.1-1-.1-.5 0-1.1.1-1.6.4l-1.2.6c-1 0-1.8.3-2.4.6-.3-.1-.6-.1-.8-.1-1.6 0-2.8.9-3.4 1.5-1.7 1-2.2 2.5-2.4 3.5-.5.5-.8 1.1-1 1.9-.3.5-.6 1-.7 1.6-.1.8 0 1.6.3 2.2-.1 1 0 2.1.3 3.3.1.6.4 1.2.8 1.6.1.2.2.8.3 1.2.1 1.3.5 2.2.8 2.8 0 1.1.4 2.2 1.2 2.9.2.2.5.6.8 1 .5.7 1.1 1.5 1.9 2.3.1.2.2.5.4.7.2.3.5.6.9.9.3.7.9 1.3 1.6 1.7.6.3 1.3.5 2 .5-.4.4-.6.8-.8 1.2-.1.1-.2.2-.3.4-.7.3-1.4.7-1.9 1.2s-.8 1.1-1 1.8l-.3.6c0 .1-.1.1-.1.2-1 .8-1.4 1.9-1.6 2.5-.4.6-.6 1.4-.6 2.1-.1.1-.2.3-.3.5-.5 1.1-.6 2.3 0 3.4.5 1 1.3 1.8 2.4 2.2 1.8 1.8 4.1 3.4 6.5 4.5 6.5 4.4 14.6 6.5 24.6 6.6-.9.7-1.7 1.6-2.3 2.6-1.4 2.5.6 12.2.9 15.2.3 3.1 4 6.4 5.6 8.9 3 4.6 5 9.7 6.6 14.9 2.6 8.8 3.2 6 8.9.5 2.9-2.8 13.6-8.3 13.4-13-.2-5.9-16.6-4.2-20.4-8.8-2.4-2.8-2.9-7.7.8-9.7 4.3-2.3 9.6 2.3 12.8 4.7 1.2.9 11.3-9.3 12.6-10.3 5.3-3.9 11.1-5.3 17.5-3.5 11.1 3.1 19.4 21 31.1 13.2-.3-8.3-.9-16.2 1.4-23.7 3-1 5.8-2.5 8.2-5 .4-.3.8-.7 1.1-1.1l.2-.2c7.8 4.9 17.3 7.3 28.1 7.3h1.2c.2 0 .4.1.7.1h.5c1.7 0 3.1-.5 4.3-1.5 1.3-.1 2.4-.5 3.4-.8.1 0 .2-.1.3-.1h.5c.5 0 .9-.1 1.3-.2.3 0 .6-.1.8-.2 1.2-.4 2.2-1 3.2-1.6l.6-.3.4-.2c.6-.3 1.2-.6 1.6-1 .4-.1.7-.2 1-.4.3-.2.6-.4.9-.7.4-.1.7-.3 1-.6 1.9-1.5 3-3.6 3.5-6.4.5-.6.2-1.7-.5-2.5m-94.3-45.1c1.2-.1 2 0 3 .5.9 1.2 1.6 2.5 1.3 4.1h.4c1.1-1.1 2.7-1.8 3.5-3.1.5-.1.5-.6 1.1-.7l-.1-.1c.4-.6 1.1-.3 1.5-1.1 1 .1 1.8-.4 2.7 0l1.1.8.7 1.4c.6 4.1-.5 8.6 0 12.6 1 1.4 3.1 1.2 4.7.8 4.2-2.3 9.3-2.7 12.9-6 .6-1 1.8-.3 2.6-.2.3.2.7.4.7.8.4 1.3-1.1 1.7-1.8 2.2-1.1-.2-1.9 1-2.9.2-5.9 2.4-11.2 5.8-17.4 7.4-1.4-.2-3 .3-4-1.2-1.1-1.7-1-3.9-1-6.1.5-2 .8-4.6-.4-6.4-1.9 1.4-3.7 3.3-4.6 5.5l-.4 6.9c-.6.3-.6 1.4-1.5 1-1 1.1-2.4-.1-3.5.4-1 .1-1.4-1-2.2-1.4-.2-1.1-1.3-2.2-.3-3.1-.2-.5.4-.3.3-.7l.3-8.9-.2-.3c-5.2 4.3-8.6 10.4-14.1 14.4-2.9 2-6 4.2-9.7 3.3-2-.7-4.8-1.3-5.3-3.8-.3-2.1-.3-3.9-.5-6.1-.5-.7-1.5-1.4-1-2.4 1.6-1.9 4.2-2.1 6.5-2.6.7 0 1 .4 1.4.8.6 1.7.6 3.9.9 5.9.5 1.1-.3 3.1 1.1 3.5 3.6.6 5.9-2.4 8.5-4.3 5-5.5 9.6-11.5 15.7-14m-34-1c1.7-2 4.3-1.2 6.4-2.3 1.7-.2 3 1.1 4 2.4.7 1.7.6 4.1-.6 5.5-1.4 1.3-3.2 2.2-5.3 1.7-2.4-.3-4.7-2.1-5.3-4.4-.4-1.2.3-2.1.8-2.9m19.8 44.1c-.6.5-1.2 1.1-1.6 1.9 0 .4-.3.7-.5 1l-.1-.1c-.7 2.1-.7 4.4-2.1 6.1-.2.5-.5 1-.9 1.5l-.2-.2c-3 3.6-7.1 5.7-11.1 7.6l-.5-.2c-5.5 2.7-11.6 4.3-17.7 5.1-10.9.9-21.6 0-30.1-5.8-2.3-1.1-4.7-2.6-6.5-4.6-.4 0-.9-.2-1.1-.7l.9-.1c-.5-.9.4-1.3-.2-2.3.5-.5.1-1.5 1.1-1.7.5-.3.2-1 .9-1.2-.2-.7.5-.8.4-1.5.4-.4 1-.5 1.5-.3.2-.3-.1-.6.5-.5.1.2.2.4.4.5h.2L61 79l.8-.1v-1.1c.6.6.5-.8 1.1-.2.6 0 .5-.4 1.1-.4l.2-.9c.2 0 .4.4.6 0 0-.3-.5-.7 0-.8-.3-1.2-.9-2.4-1.6-3.4-.6-.2-1.4-.3-1.5-1l-.2-.2c-.8.3-1.9.7-2.5.4.9-.8-.4-1.2-.6-1.8-.1.2-.3.3-.6.3l.3-.7c-1.9-.4-2.5-2.6-3.9-3.9.2-1.5-.9-2-.8-3.3-.2-1.2-.4-2.4-1.2-3.3-.3-1.1-.4-2.3.1-3.2l-.6-.7c1-.5.1-1.6 1.3-1.9.8-.7 0-2 1.1-2.6.6-.3 1.4-1.6 2-.5 1.2 0 2-1.3 3.2-.9l2.1-1c1.5.8 2.8-.7 4.3-.8 1.4-.3 2.8-.6 4.1-1.4-.3-.5.4-.6.8-.7 1.3.2 2.4.4 3.8.1l.2-.4c5.1 0 9.5 1.4 14 2.8.3.3.7.4 1 .5v-.2l1.9 1.4c.8-.5 1 1 1.8 1 .9.5 1.8 1.4 2.8 1.4l.1-.4c.4 0 .2.4.5.5.8.6 1.5 1.4 2.4 1.8l.2-.2v-.4l2 3.8c.6 1.2.4 2.9 1.1 4.1-.2.3.3.8-.1.9-.4.2-.5-.2-.7-.4l-.4.6c-.6 0 .1-1.5-.7-.9.4.5-.3 1 .2 1.4-.9.8-1.6-1.1-2.5-.1.1.2.3.3.2.5-.3-.3-.7-.3-1-.2l-2.7-3c-.2 0-.4 0-.5.1.5.7.9 1.5 1 2.4l.8.9c-.7-.2-1.1-1.6-2-1-.4.7-1.2 0-1.7.2-.2-.1-.3-.4-.5-.4l-.1.1c.5.5 1.1 1.2.7 1.9-1.2.2-1.3-1.6-2.2-2h-.1c-.2.4.3.8.7 1.1l-.3.4 1.7 1.5c-.1.2-.4.1-.5-.1-.5-.7-1.1-1.2-1.9-1.4-.1.2-.5.5-.2.8.1.2.4.3.4.5-.4.3-1.1-.4-1.4.2-.1.8.9.7.7 1.6l.3.5c-.8.1-.6 1.2-1.4 1.4-1.5 0-2.7.7-4.1.1-1.6-.6-3.4-.6-4.8-1.8-1-.3-2-.5-3.1-.3-.7 1.5-1.4 2.9-1.2 4.8-.1.7-.5 1.5-1.1 1.7-.1-.1-.1-.3-.3-.4-.2 0-.4.4-.6.1-.1 3.1.2 6.6-.4 9.7 5.1 3.2 11 4.4 17.2 4.7-.4 0-.8-.1-1.1.1.7.2 1.6.5 2.3.1-.2-.2-.5-.1-.8-.1H92.1 92c-.1 0-.1.1-.1.1 0 .4.5 0 .7.3.1-.2.4 0 .4-.3l-.1-.1h1.7l-.5.2c.6.3 1.6.4 2.1-.1l-.1-.1.1.1c.4.3.7-.3 1.2-.2l4-.5c-.1.1-.4 0-.5.2.2.2.7.2.9-.1.8.7 1.4-.1 2-.4l-.1-.1c.4-.2 2-.4 2.8-.7 1.4-.3 2.8-.6 4.1-1.3l.2-.2c-.4-.4-.5.3-.9.2 2.4-1.6 5.3-3.6 6.6-6.2l.1-.6.2.2c.3-.1.4-.4.4-.7h-.2c.8-.9-.4-1.8.6-2.7-.1-.2-.1-.7.1-.9-.6-.7-2.4-.3-2-1.5.1-.4.5-.8.5-1.3.2 0 .2-.2.4-.3-.7-.7.4-1.1.6-1.6 1.5-.9 2.5-2 4.4-2.1.4-.6.7.4 1.2.2.2.2.2.6.6.6.2.7.9.7 1.4 1 .5.1.7.6 1.2.7l-.2.2.2.2c.4-.5.9.2 1.3.4.9.9 2.3 1.5 3.1 2.5-.2 2-2.2 1.9-2.3 3.7m-33.2 7.4-.2-.2-2.1.6c.2-.4-.4-.5-.5-.7-.6-.1-.5.7-1.1.7-1.4-.5-3.1-.4-4.5-1.1-2.7-.6-4.7-2.8-6.9-4.9 0-.1 0-.2-.1-.2.2-.1.3-.2.5-.4-.5-.5-.2-1.1.1-1.7.5.1.2-.4.4-.6l-.2-.4c.2 0 .5.4.7.1l-.4-.3c.1-.7 1.1 0 1.6-.5-.2-.4-.7-.6-.6-1.2l1.5-.8-.1-.1c2.5-.6 5.6-2.5 8.6-1.5.4.2.8-.1 1.3.1.4 1.1 1.4 1.6 2.1 2.4.7-.2 1.6.9 2.2 1.4.3.8.7 1.8 1.2 2.5.7 1.4.5 3.4-.5 4.7-1 1-2 1.9-3.2 2.6 0-.1.3-.2.2-.5m-17.2-2.3c-.4-.2-.7-.3-1.1-.5v-.6c.1.2.3.4.5.6l.6.5zm154 3.4c.4-.4 1.3-1.2 1.2-2-1.1.8-1.4 2.2-2.6 2.9l.4-.5c-1.1-.4-1.6 1.4-2.6 1.7l-.8.4.2-.2-.1-.1c-.9.8-2.1 1.5-3.3 1.9.1-.1.3-.2.3-.3-.4-.2-.8.3-1.2.5l-.1-.3c-1.6.2-3.1 1.2-4.7 1.1-1.2.4-2.6.2-3.5 1.2.7.5 1.2-.4 1.9-.4-.6.7-1.4.8-2.3.7l.1-.1c-.2-.2-.7-.1-1 0-10.8.2-21-2.2-29.5-8.3l-.5-.4-1.8 2.4c0-.1 0-.2-.1-.2l-.6 1-.1-.1c-4.2 4.9-10.9 5.6-16.8 7.2-10.6 2.4-19.7-2-29.1-4.1-1.4-.1-4.1 2.3-5.1-.4-1-1.5-1.1-3.6-.1-5.1.8-.2 0-1.6 1.1-1.4-.1-.3.1-.5.3-.7.9.7 1-1 1.8-.2.6-.4 1.3-.1 1.9.1.3-.4.8-.9 1.5-.6.4.2.7-.3 1-.5 1.1-.3 2 1.2 2.9-.1.8-.9 1.8-.4 2.8-.1.3.4.9.8 1.4.5 1-.8 2.3-1.3 3.2-2.2-1 .3-2.4-.2-3.1-1.1-.8-.2-1.1-1-1.4-1.6.1-.1.2-.3.4-.3l.1.1c.1-.3.6-.2.5-.6 2.1-2.4 5.8-1.4 8.4-.7.9-1.2 2.2-1.8 2.8-3.1l-.2-.2c-5.6-.9-10.6 1-15.5 2.1-1 1.1-2.6.2-3.9.1-1.2-.3-2.9-1.1-3.1-2.6.8-1.6-.7-3.8.8-5.1-.5-1.6 1.5-2.8 1.1-4.4.5-.7.8-1.4.9-2.2.6-.4.7-1.4 1.6-1.5 2.2.1 4.6-.3 6.9-.5 8.5-.7 16.5 1.3 24.3 3 2 .7 4.6 1.1 5.6 3.3 1.8 1.4 2.4 3.7 3.5 5.5.6 1.1-1.2 1.7 0 2.5.4.3.5.9.3 1.4-.2.2-.5.4-.7.2-.4-.4 0-.7-.5-1.1-.3-.4-.7-.4-1.2-.4-.1.3-.6.2-.5.6-.6.3-1-.6-1.7-.2-.2.5-.3.4-.7.4-.1-.3-.4-.1-.7-.2-.4.2 0 1-.7.7-.7 1.2-2.1 1.5-3.3 1.7-2 1.1-3.8 2.5-5.6 3.9 2.3 1.9 5.7 1.6 8 3.5.2.3.4.7.2 1.1-.1 0-.2 0-.3.1 0 .4.4.4.6.6-.2.2-.5.4-.7.2-.2.5-.7 1.2-1.4 1.4-1.1.1-2.3-.3-3.4-.8-2.6-.7-5.1-1.5-7.5-2.5-2.5 1.8-5.1 4.1-8 5.4 1.9 1.2 4.4 1.5 6.6 2.1 6 1.2 11.9-.7 17.4-2 3.1-1 6.5-3.3 7.7-6.5-1.2-2.2-2.7-4.2-2.4-7.1.3.1.3-.2.4-.3.5-3.7 4.4-5.8 6.4-9 .9-.4 1.3-1.5 2-1.7.5-.3.8-.6 1.5-.6.6.1 1-.2 1.6-.5 1.1-1.6 3.2-.7 4.6-1.7 1.1 0 2.1.5 2.6 1.4 8.1-1.1 14.9 3 21.9 5.5 4.6 2.3 10.2 5.9 11.3 11.3 1.5.7.9 3.1 2.6 3-.3 1.6-.9 3.1-2.2 4.1"/></defs><clipPath id="SVGID_109_"><use xlink:href="#SVGID_108_" style="overflow:visible"/></clipPath><radialGradient id="SVGID_110_" cx="-164.238" cy="504.541" r="1.035" gradientTransform="rotate(-135 44331.38 -125665.97) scale(81.2046 -487.2273)" gradientUnits="userSpaceOnUse"><stop offset="0" style="stop-color:#917f36"/><stop offset=".188" style="stop-color:#eacc5d"/><stop offset=".206" style="stop-color:#fff"/><stop offset=".427" style="stop-color:#fffac6"/><stop offset=".711" style="stop-color:#d4b345"/><stop offset=".729" style="stop-color:#eeeeef"/><stop offset="1" style="stop-color:#eacc5d"/></radialGradient><path style="clip-path:url(#SVGID_109_);fill:url(#SVGID_110_)" d="M142.7 247.8-30.5 74.7 142.7-98.4 315.8 74.7z"/><g><defs><path id="SVGID_111_" d="M236.6 77.7c-.3-.3-.6-.6-1-.8-.2-.6-.6-1.2-1.1-1.9-1.5-4.9-5.8-9-13.1-12.6-.1 0-.1-.1-.2-.1-.6-.2-1.2-.4-1.7-.7 2.3-2.2 4.3-4.7 7.1-6.3-.2-.1-.4-.1-.6-.2-6.5-1.8-12.4 2.9-15.3-.2-5.3-5.6-7.8-8.7-3.6-16.6 1.5-2.8.7-9.5-.8-12.5-.2-.1-.5-.1-.7 0-1.5.8-3.2 6.8-4.4 8.3-1.9 2.4-4.3 4.3-7.1 5.5-3.2 1.4-7.4 2.3-11.8 2.7 0-.5-.1-.9-.2-1.3-.3-1.3-1.1-2.3-2.4-3.1-.5-.3-1-.4-1.6-.5l-.5 2.1.2-2.1c-.4-.1-1-.2-1.8-.2-1.5 0-2.8.6-3.7 1.7-1.5 1.3-3.7 2.1-6.1 2.9-.1 0-.2.1-.4.1-1.7-.3-3.2-.7-4.7-1.2.2-2.4.3-4.8-.1-7.3-.1-.4-.2-.8-.4-1.1l-.7-1.4c-.3-.5-.7-1-1.2-1.4l-1.1-.8c-.3-.2-.5-.3-.8-.4-.7-.2-1.4-.4-2.1-.4-.6 0-1.1.1-1.5.2h-.5c-1 0-2 .4-2.7 1.1-.5.2-1.1.6-1.6 1.2 0 0-.1 0-.1.1-.1 0-.1.1-.2.1l-.2-.2c-.3-.4-.6-.7-1-.9-1.3-.7-2.5-1.1-4.1-1.1h-.4l-.4-.4c-5.7-5.2-25.3-31.9-32.6-18.3-2.7 5 0 11 2.6 16-.2 0-.5.1-.7.1-1.6.2-4.1.6-6 2.8-.2.2-.4.5-.5.7l-.2.3c-.5 1-1.6 3-.8 5.3.4 1.5 1.2 2.9 2.4 4.1l-.9.9c-.2.2-.3.4-.5.7-.6 1.3-1 3.3.7 5.6 0 .3 0 .6.1.9.1 1.4.2 2.8.4 4.5.1.6.3 1.2.5 1.7-1.1-.2-2.2-.3-3.3-.3l-1.1-2c-.2-.5-.5-1-.9-1.4-.7-.7-1.7-1.2-2.7-1.2-.7-.7-1.7-1.1-2.9-1.1l-.9-.6c-.4-.5-1.2-1.3-2.4-1.5l-.9-.7c-.5-.4-1-.6-1.6-.7-.2-.1-.5-.2-.6-.2-4.6-1.5-9.4-3-15-3-.7 0-1.3.2-1.9.5-.5 0-1-.1-1.6-.2h-.5c-.2 0-.4 0-.6.1-1.5.3-2.4.9-3 1.6-.5.2-1 .3-1.6.4-1.2.1-2.1.5-2.8.8-.1 0-.1.1-.2.1-.3-.1-.7-.1-1-.1-.5 0-1.1.1-1.6.4l-1.2.6c-1 0-1.8.3-2.4.6-.3-.1-.6-.1-.8-.1-1.6 0-2.8.9-3.4 1.5-1.7 1-2.2 2.5-2.4 3.5-.5.5-.8 1.1-1 1.9-.3.5-.6 1-.7 1.6-.1.8 0 1.6.3 2.2-.1 1 0 2.1.3 3.3.1.6.4 1.2.8 1.6.1.2.2.8.3 1.2.1 1.3.5 2.2.8 2.8 0 1.1.4 2.2 1.2 2.9.2.2.5.6.8 1 .5.7 1.1 1.5 1.9 2.3.1.2.2.5.4.7.2.3.5.6.9.9.3.7.9 1.3 1.6 1.7.6.3 1.3.5 2 .5-.4.4-.6.8-.8 1.2-.1.1-.2.2-.3.4-.7.3-1.4.7-1.9 1.2s-.8 1.1-1 1.8l-.3.6c0 .1-.1.1-.1.2-1 .8-1.4 1.9-1.6 2.5-.4.6-.6 1.4-.6 2.1-.1.1-.2.3-.3.5-.5 1.1-.6 2.3 0 3.4.5 1 1.3 1.8 2.4 2.2 1.8 1.8 4.1 3.4 6.5 4.5 6.5 4.4 14.6 6.5 24.6 6.6-.9.7-1.7 1.6-2.3 2.6-1.4 2.5.6 12.2.9 15.2.3 3.1 4 6.4 5.6 8.9 3 4.6 5 9.7 6.6 14.9 2.6 8.8 3.2 6 8.9.5 2.9-2.8 13.6-8.3 13.4-13-.2-5.9-16.6-4.2-20.4-8.8-2.4-2.8-2.9-7.7.8-9.7 4.3-2.3 9.6 2.3 12.8 4.7 1.2.9 11.3-9.3 12.6-10.3 5.3-3.9 11.1-5.3 17.5-3.5 11.1 3.1 19.4 21 31.1 13.2-.3-8.3-.9-16.2 1.4-23.7 3-1 5.8-2.5 8.2-5 .4-.3.8-.7 1.1-1.1l.2-.2c7.8 4.9 17.3 7.3 28.1 7.3h1.2c.2 0 .4.1.7.1h.5c1.7 0 3.1-.5 4.3-1.5 1.3-.1 2.4-.5 3.4-.8.1 0 .2-.1.3-.1h.5c.5 0 .9-.1 1.3-.2.3 0 .6-.1.8-.2 1.2-.4 2.2-1 3.2-1.6l.6-.3.4-.2c.6-.3 1.2-.6 1.6-1 .4-.1.7-.2 1-.4.3-.2.6-.4.9-.7.4-.1.7-.3 1-.6 1.9-1.5 3-3.6 3.5-6.4.5-.6.2-1.7-.5-2.5m-94.3-45.1c1.2-.1 2 0 3 .5.9 1.2 1.6 2.5 1.3 4.1h.4c1.1-1.1 2.7-1.8 3.5-3.1.5-.1.5-.6 1.1-.7l-.1-.1c.4-.6 1.1-.3 1.5-1.1 1 .1 1.8-.4 2.7 0l1.1.8.7 1.4c.6 4.1-.5 8.6 0 12.6 1 1.4 3.1 1.2 4.7.8 4.2-2.3 9.3-2.7 12.9-6 .6-1 1.8-.3 2.6-.2.3.2.7.4.7.8.4 1.3-1.1 1.7-1.8 2.2-1.1-.2-1.9 1-2.9.2-5.9 2.4-11.2 5.8-17.4 7.4-1.4-.2-3 .3-4-1.2-1.1-1.7-1-3.9-1-6.1.5-2 .8-4.6-.4-6.4-1.9 1.4-3.7 3.3-4.6 5.5l-.4 6.9c-.6.3-.6 1.4-1.5 1-1 1.1-2.4-.1-3.5.4-1 .1-1.4-1-2.2-1.4-.2-1.1-1.3-2.2-.3-3.1-.2-.5.4-.3.3-.7l.3-8.9-.2-.3c-5.2 4.3-8.6 10.4-14.1 14.4-2.9 2-6 4.2-9.7 3.3-2-.7-4.8-1.3-5.3-3.8-.3-2.1-.3-3.9-.5-6.1-.5-.7-1.5-1.4-1-2.4 1.6-1.9 4.2-2.1 6.5-2.6.7 0 1 .4 1.4.8.6 1.7.6 3.9.9 5.9.5 1.1-.3 3.1 1.1 3.5 3.6.6 5.9-2.4 8.5-4.3 5-5.5 9.6-11.5 15.7-14m-34-1c1.7-2 4.3-1.2 6.4-2.3 1.7-.2 3 1.1 4 2.4.7 1.7.6 4.1-.6 5.5-1.4 1.3-3.2 2.2-5.3 1.7-2.4-.3-4.7-2.1-5.3-4.4-.4-1.2.3-2.1.8-2.9m19.8 44.1c-.6.5-1.2 1.1-1.6 1.9 0 .4-.3.7-.5 1l-.1-.1c-.7 2.1-.7 4.4-2.1 6.1-.2.5-.5 1-.9 1.5l-.2-.2c-3 3.6-7.1 5.7-11.1 7.6l-.5-.2c-5.5 2.7-11.6 4.3-17.7 5.1-10.9.9-21.6 0-30.1-5.8-2.3-1.1-4.7-2.6-6.5-4.6-.4 0-.9-.2-1.1-.7l.9-.1c-.5-.9.4-1.3-.2-2.3.5-.5.1-1.5 1.1-1.7.5-.3.2-1 .9-1.2-.2-.7.5-.8.4-1.5.4-.4 1-.5 1.5-.3.2-.3-.1-.6.5-.5.1.2.2.4.4.5h.2L61 79l.8-.1v-1.1c.6.6.5-.8 1.1-.2.6 0 .5-.4 1.1-.4l.2-.9c.2 0 .4.4.6 0 0-.3-.5-.7 0-.8-.3-1.2-.9-2.4-1.6-3.4-.6-.2-1.4-.3-1.5-1l-.2-.2c-.8.3-1.9.7-2.5.4.9-.8-.4-1.2-.6-1.8-.1.2-.3.3-.6.3l.3-.7c-1.9-.4-2.5-2.6-3.9-3.9.2-1.5-.9-2-.8-3.3-.2-1.2-.4-2.4-1.2-3.3-.3-1.1-.4-2.3.1-3.2l-.6-.7c1-.5.1-1.6 1.3-1.9.8-.7 0-2 1.1-2.6.6-.3 1.4-1.6 2-.5 1.2 0 2-1.3 3.2-.9l2.1-1c1.5.8 2.8-.7 4.3-.8 1.4-.3 2.8-.6 4.1-1.4-.3-.5.4-.6.8-.7 1.3.2 2.4.4 3.8.1l.2-.4c5.1 0 9.5 1.4 14 2.8.3.3.7.4 1 .5v-.2l1.9 1.4c.8-.5 1 1 1.8 1 .9.5 1.8 1.4 2.8 1.4l.1-.4c.4 0 .2.4.5.5.8.6 1.5 1.4 2.4 1.8l.2-.2v-.4l2 3.8c.6 1.2.4 2.9 1.1 4.1-.2.3.3.8-.1.9-.4.2-.5-.2-.7-.4l-.4.6c-.6 0 .1-1.5-.7-.9.4.5-.3 1 .2 1.4-.9.8-1.6-1.1-2.5-.1.1.2.3.3.2.5-.3-.3-.7-.3-1-.2l-2.7-3c-.2 0-.4 0-.5.1.5.7.9 1.5 1 2.4l.8.9c-.7-.2-1.1-1.6-2-1-.4.7-1.2 0-1.7.2-.2-.1-.3-.4-.5-.4l-.1.1c.5.5 1.1 1.2.7 1.9-1.2.2-1.3-1.6-2.2-2h-.1c-.2.4.3.8.7 1.1l-.3.4 1.7 1.5c-.1.2-.4.1-.5-.1-.5-.7-1.1-1.2-1.9-1.4-.1.2-.5.5-.2.8.1.2.4.3.4.5-.4.3-1.1-.4-1.4.2-.1.8.9.7.7 1.6l.3.5c-.8.1-.6 1.2-1.4 1.4-1.5 0-2.7.7-4.1.1-1.6-.6-3.4-.6-4.8-1.8-1-.3-2-.5-3.1-.3-.7 1.5-1.4 2.9-1.2 4.8-.1.7-.5 1.5-1.1 1.7-.1-.1-.1-.3-.3-.4-.2 0-.4.4-.6.1-.1 3.1.2 6.6-.4 9.7 5.1 3.2 11 4.4 17.2 4.7-.4 0-.8-.1-1.1.1.7.2 1.6.5 2.3.1-.2-.2-.5-.1-.8-.1H92.1 92c-.1 0-.1.1-.1.1 0 .4.5 0 .7.3.1-.2.4 0 .4-.3l-.1-.1h1.7l-.5.2c.6.3 1.6.4 2.1-.1l-.1-.1.1.1c.4.3.7-.3 1.2-.2l4-.5c-.1.1-.4 0-.5.2.2.2.7.2.9-.1.8.7 1.4-.1 2-.4l-.1-.1c.4-.2 2-.4 2.8-.7 1.4-.3 2.8-.6 4.1-1.3l.2-.2c-.4-.4-.5.3-.9.2 2.4-1.6 5.3-3.6 6.6-6.2l.1-.6.2.2c.3-.1.4-.4.4-.7h-.2c.8-.9-.4-1.8.6-2.7-.1-.2-.1-.7.1-.9-.6-.7-2.4-.3-2-1.5.1-.4.5-.8.5-1.3.2 0 .2-.2.4-.3-.7-.7.4-1.1.6-1.6 1.5-.9 2.5-2 4.4-2.1.4-.6.7.4 1.2.2.2.2.2.6.6.6.2.7.9.7 1.4 1 .5.1.7.6 1.2.7l-.2.2.2.2c.4-.5.9.2 1.3.4.9.9 2.3 1.5 3.1 2.5-.2 2-2.2 1.9-2.3 3.7m-33.2 7.4-.2-.2-2.1.6c.2-.4-.4-.5-.5-.7-.6-.1-.5.7-1.1.7-1.4-.5-3.1-.4-4.5-1.1-2.7-.6-4.7-2.8-6.9-4.9 0-.1 0-.2-.1-.2.2-.1.3-.2.5-.4-.5-.5-.2-1.1.1-1.7.5.1.2-.4.4-.6l-.2-.4c.2 0 .5.4.7.1l-.4-.3c.1-.7 1.1 0 1.6-.5-.2-.4-.7-.6-.6-1.2l1.5-.8-.1-.1c2.5-.6 5.6-2.5 8.6-1.5.4.2.8-.1 1.3.1.4 1.1 1.4 1.6 2.1 2.4.7-.2 1.6.9 2.2 1.4.3.8.7 1.8 1.2 2.5.7 1.4.5 3.4-.5 4.7-1 1-2 1.9-3.2 2.6 0-.1.3-.2.2-.5m-17.2-2.3c-.4-.2-.7-.3-1.1-.5v-.6c.1.2.3.4.5.6l.6.5zm154 3.4c.4-.4 1.3-1.2 1.2-2-1.1.8-1.4 2.2-2.6 2.9l.4-.5c-1.1-.4-1.6 1.4-2.6 1.7l-.8.4.2-.2-.1-.1c-.9.8-2.1 1.5-3.3 1.9.1-.1.3-.2.3-.3-.4-.2-.8.3-1.2.5l-.1-.3c-1.6.2-3.1 1.2-4.7 1.1-1.2.4-2.6.2-3.5 1.2.7.5 1.2-.4 1.9-.4-.6.7-1.4.8-2.3.7l.1-.1c-.2-.2-.7-.1-1 0-10.8.2-21-2.2-29.5-8.3l-.5-.4-1.8 2.4c0-.1 0-.2-.1-.2l-.6 1-.1-.1c-4.2 4.9-10.9 5.6-16.8 7.2-10.6 2.4-19.7-2-29.1-4.1-1.4-.1-4.1 2.3-5.1-.4-1-1.5-1.1-3.6-.1-5.1.8-.2 0-1.6 1.1-1.4-.1-.3.1-.5.3-.7.9.7 1-1 1.8-.2.6-.4 1.3-.1 1.9.1.3-.4.8-.9 1.5-.6.4.2.7-.3 1-.5 1.1-.3 2 1.2 2.9-.1.8-.9 1.8-.4 2.8-.1.3.4.9.8 1.4.5 1-.8 2.3-1.3 3.2-2.2-1 .3-2.4-.2-3.1-1.1-.8-.2-1.1-1-1.4-1.6.1-.1.2-.3.4-.3l.1.1c.1-.3.6-.2.5-.6 2.1-2.4 5.8-1.4 8.4-.7.9-1.2 2.2-1.8 2.8-3.1l-.2-.2c-5.6-.9-10.6 1-15.5 2.1-1 1.1-2.6.2-3.9.1-1.2-.3-2.9-1.1-3.1-2.6.8-1.6-.7-3.8.8-5.1-.5-1.6 1.5-2.8 1.1-4.4.5-.7.8-1.4.9-2.2.6-.4.7-1.4 1.6-1.5 2.2.1 4.6-.3 6.9-.5 8.5-.7 16.5 1.3 24.3 3 2 .7 4.6 1.1 5.6 3.3 1.8 1.4 2.4 3.7 3.5 5.5.6 1.1-1.2 1.7 0 2.5.4.3.5.9.3 1.4-.2.2-.5.4-.7.2-.4-.4 0-.7-.5-1.1-.3-.4-.7-.4-1.2-.4-.1.3-.6.2-.5.6-.6.3-1-.6-1.7-.2-.2.5-.3.4-.7.4-.1-.3-.4-.1-.7-.2-.4.2 0 1-.7.7-.7 1.2-2.1 1.5-3.3 1.7-2 1.1-3.8 2.5-5.6 3.9 2.3 1.9 5.7 1.6 8 3.5.2.3.4.7.2 1.1-.1 0-.2 0-.3.1 0 .4.4.4.6.6-.2.2-.5.4-.7.2-.2.5-.7 1.2-1.4 1.4-1.1.1-2.3-.3-3.4-.8-2.6-.7-5.1-1.5-7.5-2.5-2.5 1.8-5.1 4.1-8 5.4 1.9 1.2 4.4 1.5 6.6 2.1 6 1.2 11.9-.7 17.4-2 3.1-1 6.5-3.3 7.7-6.5-1.2-2.2-2.7-4.2-2.4-7.1.3.1.3-.2.4-.3.5-3.7 4.4-5.8 6.4-9 .9-.4 1.3-1.5 2-1.7.5-.3.8-.6 1.5-.6.6.1 1-.2 1.6-.5 1.1-1.6 3.2-.7 4.6-1.7 1.1 0 2.1.5 2.6 1.4 8.1-1.1 14.9 3 21.9 5.5 4.6 2.3 10.2 5.9 11.3 11.3 1.5.7.9 3.1 2.6 3-.3 1.6-.9 3.1-2.2 4.1"/></defs><clipPath id="SVGID_112_"><use xlink:href="#SVGID_111_" style="overflow:visible"/></clipPath><linearGradient id="SVGID_113_" gradientUnits="userSpaceOnUse" x1="-163.254" y1="502.23" x2="-162.219" y2="502.23" gradientTransform="matrix(183.2744 0 0 -183.2744 29967.975 92120.64)"><stop offset="0" style="stop-color:#face00"/><stop offset=".006" style="stop-color:#face00"/><stop offset=".253" style="stop-color:#fffbd0"/><stop offset=".296" style="stop-color:#faf2bf"/><stop offset=".381" style="stop-color:#eedc92"/><stop offset=".5" style="stop-color:#dbb94a"/><stop offset=".596" style="stop-color:#ca9a0c"/><stop offset=".796" style="stop-color:#e7cc67"/><stop offset=".871" style="stop-color:#f2e08b"/><stop offset="1" style="stop-color:#fffbd0"/></linearGradient><path style="clip-path:url(#SVGID_112_);fill:url(#SVGID_113_)" d="M47.7-3.4h190v156.3h-190z"/></g></g><g><defs><path id="SVGID_114_" d="M208 75.8c-.3-.6-.7-1.3-1.2-1.9.1-.2.2-.5.3-.7.3-.6.6-1.3.9-2.2 2.4 1.1 4.7 2.4 6.9 4-1.6.4-3.7.9-5.7.9-.5 0-.9 0-1.2-.1m-3.8-7.6c1 1.7-.7 3.4-1.1 5-1 1.9-3.1 1.8-4.5 3.1v.2c1.7.9 3.5 1.6 5.4 2 3.8 1.9 8.6.9 12.5-.2.2 0 .3-.1.4-.2.1-.2.2-.3.6-.2.7-.3 1.7-.2 2.2-.9-.3.1-.7.3-1 .1.2-.5.7-.2 1-.4.4-.8.1-1.8 0-2.6-4.7-4.3-10.4-7.3-16.4-8.7.5.9.9 1.8.9 2.8"/></defs><clipPath id="SVGID_115_"><use xlink:href="#SVGID_114_" style="overflow:visible"/></clipPath><linearGradient id="SVGID_116_" gradientUnits="userSpaceOnUse" x1="-168.37" y1="488.722" x2="-167.335" y2="488.722" gradientTransform="matrix(20.5381 0 0 -20.5381 3656.607 10110.396)"><stop offset="0" style="stop-color:#917f36"/><stop offset=".188" style="stop-color:#eacc5d"/><stop offset=".206" style="stop-color:#fff"/><stop offset=".427" style="stop-color:#fffac6"/><stop offset=".711" style="stop-color:#d4b345"/><stop offset=".729" style="stop-color:#eeeeef"/><stop offset="1" style="stop-color:#eacc5d"/></linearGradient><path style="clip-path:url(#SVGID_115_);fill:url(#SVGID_116_)" d="M198.6 65.5H220v14.9h-21.4z"/></g><g><defs><path id="SVGID_117_" d="M219.7 76.7c.4-.8.1-1.8 0-2.6-4.7-4.3-10.4-7.3-16.4-8.7.6.8.9 1.7.9 2.7 1 1.7-.7 3.4-1.1 5-1 1.9-3.1 1.8-4.5 3.1v.2c1.7.9 3.5 1.6 5.4 2 3.8 1.9 8.6.9 12.5-.2.5 0 .4-.6 1-.4.7-.3 1.7-.2 2.2-.9-.3.1-.7.3-1 .1.2-.4.7 0 1-.3m-10.6-.8c-.4 0-.8 0-1.1-.1-.3-.6-.7-1.3-1.2-1.9.1-.2.2-.5.3-.7.3-.6.6-1.3.9-2.2 2.4 1.1 4.7 2.4 6.9 4-1.7.4-3.8.9-5.8.9"/></defs><clipPath id="SVGID_118_"><use xlink:href="#SVGID_117_" style="overflow:visible"/></clipPath><radialGradient id="SVGID_119_" cx="-178.235" cy="509.732" r="1.035" gradientTransform="rotate(-135 4862.286 -13653.101) scale(8.7134 -52.2799)" gradientUnits="userSpaceOnUse"><stop offset="0" style="stop-color:#917f36"/><stop offset=".188" style="stop-color:#eacc5d"/><stop offset=".206" style="stop-color:#fff"/><stop offset=".427" style="stop-color:#fffac6"/><stop offset=".711" style="stop-color:#d4b345"/><stop offset=".729" style="stop-color:#eeeeef"/><stop offset="1" style="stop-color:#eacc5d"/></radialGradient><path style="clip-path:url(#SVGID_118_);fill:url(#SVGID_119_)" d="M209.3 91.1 191.1 73l18.2-18.2L227.5 73z"/><g><defs><path id="SVGID_120_" d="M219.7 76.7c.4-.8.1-1.8 0-2.6-4.7-4.3-10.4-7.3-16.4-8.7.6.8.9 1.7.9 2.7 1 1.7-.7 3.4-1.1 5-1 1.9-3.1 1.8-4.5 3.1v.2c1.7.9 3.5 1.6 5.4 2 3.8 1.9 8.6.9 12.5-.2.5 0 .4-.6 1-.4.7-.3 1.7-.2 2.2-.9-.3.1-.7.3-1 .1.2-.4.7 0 1-.3m-10.6-.8c-.4 0-.8 0-1.1-.1-.3-.6-.7-1.3-1.2-1.9.1-.2.2-.5.3-.7.3-.6.6-1.3.9-2.2 2.4 1.1 4.7 2.4 6.9 4-1.7.4-3.8.9-5.8.9"/></defs><clipPath id="SVGID_121_"><use xlink:href="#SVGID_120_" style="overflow:visible"/></clipPath><linearGradient id="SVGID_122_" gradientUnits="userSpaceOnUse" x1="-168.37" y1="488.722" x2="-167.335" y2="488.722" gradientTransform="matrix(20.5381 0 0 -20.5381 3656.607 10110.396)"><stop offset="0" style="stop-color:#face00"/><stop offset=".006" style="stop-color:#face00"/><stop offset=".253" style="stop-color:#fffbd0"/><stop offset=".296" style="stop-color:#faf2bf"/><stop offset=".381" style="stop-color:#eedc92"/><stop offset=".5" style="stop-color:#dbb94a"/><stop offset=".596" style="stop-color:#ca9a0c"/><stop offset=".796" style="stop-color:#e7cc67"/><stop offset=".871" style="stop-color:#f2e08b"/><stop offset="1" style="stop-color:#fffbd0"/></linearGradient><path style="clip-path:url(#SVGID_121_);fill:url(#SVGID_122_)" d="M198.6 65.5H220v14.9h-21.4z"/></g></g><g><defs><path id="SVGID_123_" d="M123.4 68.3c.2.2.7.3.7.7 1.7.6 3 2.2 4.7 3.2l-.7-.6c.5-.1.8.6 1.3.8-.3-.9-1.3-1.3-1.9-2.1-.2-.3-1-.1-.6-.7-.2 0-.3-.1-.4-.2-.1-.1-.2-.3-.3 0-.3 0-.5-.3-.7-.5l.1-.1-.4-.3-.1.2c-.7-.4-1.4-.7-2.1-1-.1.5.2.6.4.6"/></defs><clipPath id="SVGID_124_"><use xlink:href="#SVGID_123_" style="overflow:visible"/></clipPath><linearGradient id="SVGID_125_" gradientUnits="userSpaceOnUse" x1="-182.25" y1="453.507" x2="-181.215" y2="453.507" gradientTransform="matrix(6.1798 0 0 -6.1798 1249.275 2872.664)"><stop offset="0" style="stop-color:#917f36"/><stop offset=".188" style="stop-color:#eacc5d"/><stop offset=".206" style="stop-color:#fff"/><stop offset=".427" style="stop-color:#fffac6"/><stop offset=".711" style="stop-color:#d4b345"/><stop offset=".729" style="stop-color:#eeeeef"/><stop offset="1" style="stop-color:#eacc5d"/></linearGradient><path style="clip-path:url(#SVGID_124_);fill:url(#SVGID_125_)" d="M122.9 67.8h6.5v4.5h-6.5z"/></g><g><defs><path id="SVGID_126_" d="M129.4 72.3c-.3-.9-1.3-1.3-1.9-2-.2-.3-1-.1-.6-.7-.4.1-.5-.6-.7-.2-.3 0-.5-.3-.7-.5l.1-.1-.4-.3-.1.2c-.7-.4-1.4-.7-2.1-1-.1.4.1.5.4.5.2.2.7.3.7.7 1.7.6 3 2.2 4.7 3.2l-.7-.6c.5-.1.8.6 1.3.8"/></defs><clipPath id="SVGID_127_"><use xlink:href="#SVGID_126_" style="overflow:visible"/></clipPath><radialGradient id="SVGID_128_" cx="-212.834" cy="522.998" r="1.035" gradientTransform="rotate(-135 1530.718 -4303.979) scale(2.6737 -16.0423)" gradientUnits="userSpaceOnUse"><stop offset="0" style="stop-color:#917f36"/><stop offset=".188" style="stop-color:#eacc5d"/><stop offset=".206" style="stop-color:#fff"/><stop offset=".427" style="stop-color:#fffac6"/><stop offset=".711" style="stop-color:#d4b345"/><stop offset=".729" style="stop-color:#eeeeef"/><stop offset="1" style="stop-color:#eacc5d"/></radialGradient><path style="clip-path:url(#SVGID_127_);fill:url(#SVGID_128_)" d="m126.2 75.6-5.5-5.5 5.5-5.5 5.5 5.5z"/><g><defs><path id="SVGID_129_" d="M129.4 72.3c-.3-.9-1.3-1.3-1.9-2-.2-.3-1-.1-.6-.7-.4.1-.5-.6-.7-.2-.3 0-.5-.3-.7-.5l.1-.1-.4-.3-.1.2c-.7-.4-1.4-.7-2.1-1-.1.4.1.5.4.5.2.2.7.3.7.7 1.7.6 3 2.2 4.7 3.2l-.7-.6c.5-.1.8.6 1.3.8"/></defs><clipPath id="SVGID_130_"><use xlink:href="#SVGID_129_" style="overflow:visible"/></clipPath><linearGradient id="SVGID_131_" gradientUnits="userSpaceOnUse" x1="-182.25" y1="453.507" x2="-181.215" y2="453.507" gradientTransform="matrix(6.1798 0 0 -6.1798 1249.275 2872.664)"><stop offset="0" style="stop-color:#face00"/><stop offset=".006" style="stop-color:#face00"/><stop offset=".253" style="stop-color:#fffbd0"/><stop offset=".296" style="stop-color:#faf2bf"/><stop offset=".381" style="stop-color:#eedc92"/><stop offset=".5" style="stop-color:#dbb94a"/><stop offset=".596" style="stop-color:#ca9a0c"/><stop offset=".796" style="stop-color:#e7cc67"/><stop offset=".871" style="stop-color:#f2e08b"/><stop offset="1" style="stop-color:#fffbd0"/></linearGradient><path style="clip-path:url(#SVGID_130_);fill:url(#SVGID_131_)" d="M122.9 67.8h6.5v4.5h-6.5z"/></g></g><g><defs><path id="SVGID_132_" d="M127.6 71.8c-.2-.4-.7-.7-1.1-.9l1.1.9z"/></defs><clipPath id="SVGID_133_"><use xlink:href="#SVGID_132_" style="overflow:visible"/></clipPath><linearGradient id="SVGID_134_" gradientUnits="userSpaceOnUse" x1="-276.365" y1="212.046" x2="-275.33" y2="212.046" gradientTransform="matrix(1.0674 0 0 -1.0674 421.509 297.679)"><stop offset="0" style="stop-color:#917f36"/><stop offset=".188" style="stop-color:#eacc5d"/><stop offset=".206" style="stop-color:#fff"/><stop offset=".427" style="stop-color:#fffac6"/><stop offset=".711" style="stop-color:#d4b345"/><stop offset=".729" style="stop-color:#eeeeef"/><stop offset="1" style="stop-color:#eacc5d"/></linearGradient><path style="clip-path:url(#SVGID_133_);fill:url(#SVGID_134_)" d="M126.5 70.9h1.1v.9h-1.1z"/></g><g><defs><path id="SVGID_135_" d="M126.5 70.9h1.1v.9h-1.1z"/></defs><clipPath id="SVGID_136_"><use xlink:href="#SVGID_135_" style="overflow:visible"/></clipPath><g style="clip-path:url(#SVGID_136_)"><defs><path id="SVGID_137_" d="m126.5 70.9 1.1.9c-.2-.5-.7-.7-1.1-.9"/></defs><clipPath id="SVGID_138_"><use xlink:href="#SVGID_137_" style="overflow:visible"/></clipPath><radialGradient id="SVGID_139_" cx="-444.173" cy="610.81" r="1.035" gradientTransform="rotate(-135 334.618 -909.303) scale(.4773 -2.8642)" gradientUnits="userSpaceOnUse"><stop offset="0" style="stop-color:#917f36"/><stop offset=".188" style="stop-color:#eacc5d"/><stop offset=".206" style="stop-color:#fff"/><stop offset=".427" style="stop-color:#fffac6"/><stop offset=".711" style="stop-color:#d4b345"/><stop offset=".729" style="stop-color:#eeeeef"/><stop offset="1" style="stop-color:#eacc5d"/></radialGradient><path style="clip-path:url(#SVGID_138_);fill:url(#SVGID_139_)" d="m127.1 72.3-1-1 1-.9.9.9z"/></g><g><defs><path id="SVGID_140_" d="M126.5 70.9h1.1v.9h-1.1z"/></defs><clipPath id="SVGID_141_"><use xlink:href="#SVGID_140_" style="overflow:visible"/></clipPath><g style="clip-path:url(#SVGID_141_)"><defs><path id="SVGID_142_" d="m126.5 70.9 1.1.9c-.2-.5-.7-.7-1.1-.9"/></defs><clipPath id="SVGID_143_"><use xlink:href="#SVGID_142_" style="overflow:visible"/></clipPath><linearGradient id="SVGID_144_" gradientUnits="userSpaceOnUse" x1="-276.365" y1="212.046" x2="-275.33" y2="212.046" gradientTransform="matrix(1.0674 0 0 -1.0674 421.509 297.679)"><stop offset="0" style="stop-color:#face00"/><stop offset=".006" style="stop-color:#face00"/><stop offset=".253" style="stop-color:#fffbd0"/><stop offset=".296" style="stop-color:#faf2bf"/><stop offset=".381" style="stop-color:#eedc92"/><stop offset=".5" style="stop-color:#dbb94a"/><stop offset=".596" style="stop-color:#ca9a0c"/><stop offset=".796" style="stop-color:#e7cc67"/><stop offset=".871" style="stop-color:#f2e08b"/><stop offset="1" style="stop-color:#fffbd0"/></linearGradient><path style="clip-path:url(#SVGID_143_);fill:url(#SVGID_144_)" d="M126.5 70.9h1.1v.9h-1.1z"/></g></g></g><g><defs><path id="SVGID_145_" d="M127.7 73.9c.4-.7-.8-1.1-1.1-1.4-.2.8.7 1 1.1 1.4"/></defs><clipPath id="SVGID_146_"><use xlink:href="#SVGID_145_" style="overflow:visible"/></clipPath><linearGradient id="SVGID_147_" gradientUnits="userSpaceOnUse" x1="-265.739" y1="239.248" x2="-264.703" y2="239.248" gradientTransform="matrix(1.1774 0 0 -1.1774 439.389 354.93)"><stop offset="0" style="stop-color:#917f36"/><stop offset=".188" style="stop-color:#eacc5d"/><stop offset=".206" style="stop-color:#fff"/><stop offset=".427" style="stop-color:#fffac6"/><stop offset=".711" style="stop-color:#d4b345"/><stop offset=".729" style="stop-color:#eeeeef"/><stop offset="1" style="stop-color:#eacc5d"/></linearGradient><path style="clip-path:url(#SVGID_146_);fill:url(#SVGID_147_)" d="M126.4 72.6h1.7V74h-1.7z"/></g><g><defs><path id="SVGID_148_" d="M126.5 72.6h1.2V74h-1.2z"/></defs><clipPath id="SVGID_149_"><use xlink:href="#SVGID_148_" style="overflow:visible"/></clipPath><g style="clip-path:url(#SVGID_149_)"><defs><path id="SVGID_150_" d="M126.5 72.6c-.2.8.7.9 1.1 1.4.4-.8-.7-1.1-1.1-1.4"/></defs><clipPath id="SVGID_151_"><use xlink:href="#SVGID_150_" style="overflow:visible"/></clipPath><radialGradient id="SVGID_152_" cx="-378.897" cy="586.013" r="1.035" gradientTransform="rotate(-134.999 413.647 -1131.353) scale(.6217 -3.7298)" gradientUnits="userSpaceOnUse"><stop offset="0" style="stop-color:#917f36"/><stop offset=".188" style="stop-color:#eacc5d"/><stop offset=".206" style="stop-color:#fff"/><stop offset=".427" style="stop-color:#fffac6"/><stop offset=".711" style="stop-color:#d4b345"/><stop offset=".729" style="stop-color:#eeeeef"/><stop offset="1" style="stop-color:#eacc5d"/></radialGradient><path style="clip-path:url(#SVGID_151_);fill:url(#SVGID_152_)" d="m127.2 74.8-1.5-1.6 1.5-1.5 1.5 1.5z"/></g><defs><path id="SVGID_153_" d="M126.5 72.6h1.2V74h-1.2z"/></defs><clipPath id="SVGID_154_"><use xlink:href="#SVGID_153_" style="overflow:visible"/></clipPath><g style="clip-path:url(#SVGID_154_)"><defs><path id="SVGID_155_" d="M126.5 72.6c-.2.8.7.9 1.1 1.4.4-.8-.7-1.1-1.1-1.4"/></defs><clipPath id="SVGID_156_"><use xlink:href="#SVGID_155_" style="overflow:visible"/></clipPath><linearGradient id="SVGID_157_" gradientUnits="userSpaceOnUse" x1="-265.739" y1="239.247" x2="-264.703" y2="239.247" gradientTransform="matrix(1.1774 0 0 -1.1774 439.389 354.93)"><stop offset="0" style="stop-color:#face00"/><stop offset=".006" style="stop-color:#face00"/><stop offset=".253" style="stop-color:#fffbd0"/><stop offset=".296" style="stop-color:#faf2bf"/><stop offset=".381" style="stop-color:#eedc92"/><stop offset=".5" style="stop-color:#dbb94a"/><stop offset=".596" style="stop-color:#ca9a0c"/><stop offset=".796" style="stop-color:#e7cc67"/><stop offset=".871" style="stop-color:#f2e08b"/><stop offset="1" style="stop-color:#fffbd0"/></linearGradient><path style="clip-path:url(#SVGID_156_);fill:url(#SVGID_157_)" d="M126.4 72.6h1.7V74h-1.7z"/></g><path class="st60" d="m168.9 136.1-.3-.1-3.8.1c-.4 0-2.2.4-2.4.4-.9 0-1.1-.8-1.1-.9 0-.1.3-1.2.8-1.6.3-.3 1-.7 1.2-.7.2 0 .7.1 1.3.3.2 0 1 .1 1.3.1h3c0-.5.1-3-.3-3.5-.7-.8-.7-.9-.7-1.1 0-.8 1.2-2.2 2.4-2.2.2 0 1.1.2 1.3.8.2.5.2 1 .2 1.2l-.1 2-.1 4.5-.1 4.6.1 2.3v.3l-.1 1.7c0 1 0 1.1-.4 1.5-.2.2-.5.5-1.1.5-.7 0-1.7-1.5-1.7-2.3 0-.1.1-.7.2-1.1.1-.1.1-.6.1-.7h-.1l-2.5.8-.5.2-2 1c-.2.1-.8.4-.9.5-.4.2-.7.4-1.2.4-1 0-1.3-.9-1.3-1.4 0-.1.1-2.2 1.8-2.4 1.8-.2 2.7-.4 5-1.1.3-.1 1-.2 1.7-.4.1 0 .2 0 .2-.1l.1-1.8c.1-.4.1-1.3 0-1.8zm11.5-2.6c.9-.2 1.2-.4 1.4-.6.3-.2.5-.3 1-.3 1.2 0 2.9 1.2 2.9 1.7 0 .6-1.3 1-4.1 1.4l-2.8.5h-.6c-.1 0-.2 0-.4.1l-.1 1.6c-.2 4 .3 4.6 4 4.6.4 0 1.3 0 2.2-.1l2-.3c.2 0 1-.2 1.2-.2.2 0 .5.1.5.3 0 .5-1.2 2.5-2.3 3-.1.1-.4.3-.5.3-.1 0-1.2.2-1.3.2h-2.4c-2.5 0-4.5-1.3-4.7-1.6-.7-.9-1.1-2.1-1.1-4.5l.1-3.5V132c0-.1-.2-2-.4-2.2-.5-.5-.5-.6-.5-.9 0-1 1.1-2.3 2.2-2.3.2 0 1.4 0 1.4 1.7 0 .4-.1 1.5-.2 3.6-.1 1.1-.1 1.2-.1 2.4l2.6-.8zM192.1 131.7c1.3 0 3.9 2.2 3.9 2.9 0 .5-.5.7-1 .7-.1 0-1-.4-1.2-.5-.9-.4-2.1-.5-3-.6-.2 0-.7-.4-.7-1.1-.1-.5 1.1-1.4 2-1.4m4.1 8.9-.3.8-1 2.1s-.6 1.3-1.2 2c-.3.3-1.1.8-1.6.8-1.1 0-2-1.4-2-2.3 0-.6.5-.8.7-.9.7-.2 4.1-3.3 3.8-4.9-.2-.1-.5-.3-.5-.7 0-.7 1.1-1 1.5-1 .7 0 1.3.7 1.3 1.3 0 .2-.1.8-.1 1l-.6 1.8zm.4-10.2c-.5 0-2.6-.6-3.1-.7-.2 0-1.4-.1-1.6-.2-.2 0-.6-.2-.6-.7 0-1.1 1.6-1.8 2.1-1.8 1.4 0 4.2 2 4 2.9-.2.3-.4.5-.8.5m9.5 1.6c.2 0 1-.1 1.2-.1h1.8l2.7.1c.5 0 1.9.1 2.3.4.6.3.9.9.9 1.2 0 .1-.5.5-.6.6-.2.6-.5 1.6-.5 2.1 0 .1 0 .2.1.3l2.3.2c.2 0 .9.1 1 .1.3.1.4.3.4.4 0 .2-.3.9-1.1 1.6-.2 0-.7.2-.8.2-.5 0-.9-.1-1.3-.2-.5-.1-.5-.1-.6-.1h-.2l-.2 2.1c0 .2.1.2 1.3.4 1.3.2 1.5.2 1.5.7 0 .7-.9 1.7-1.8 1.7-.2 0-1.1-.2-1.3-.2-.2 0-.5.8-.5 1-.6.9-1.1 1.5-2.3 2.1-.2.1-2.6.6-3.3.6-1.3 0-2.7-1.5-2.7-1.9 0-.1 0-.2.2-.4h1l2.6-.3c.4 0 2.7-.6 2.7-1.3l-1.6-.1h-3.2l-2.6.2c-.5 0-3.1.6-3.1.6-.2 0-1.1 0-1.1-.9 0-.2 0-.4.1-.6.2-.3 1-1.4 1.1-1.6.1-.2.5-1.1.5-1.2v-.7c-1.1.1-1.2.2-1.7.3-.2.1-1.3.3-1.5.3-.3 0-.6-.3-.6-.6 0-.9 1.4-2.3 2.1-2.3H201.2c.1-.3.1-.4.1-.5 0 0-.1-1-.2-1.2-.4-.5-.4-.6-.4-1.1 0-.7 1.9-1.7 2.8-1.7l2.6-.2zm-1.7-3.6 4.7-.1h3.4c2.9 0 3 .3 3 .8 0 1-1.3 1.5-1.7 1.5l-2.2-.1c-.3 0-1.7.1-2 .1-.3 0-1.8-.1-2.1-.1l-3.4.2c-1.8.1-2 .4-2.3.8-.5.6-1.5 1.6-2.5 1.6-.9 0-1.3-1-1.3-1.6 0-.8.2-.9.9-1.2 1.3-.6 2.9-2.1 2.9-2.5 0 0-.2-.3-.2-.4-.1-.1-.2-.3-.2-.4 0-.5.8-1 1.6-1 .7 0 1.2.4 1.2.9 0 .2-.3 1.3-.3 1.5h.5zm1.7 12.4.4-2.2c0-.1-.4-.1-.5-.1l-2.9.2c-.1.1-.5 1.5-.6 2.4.2 0 1.2-.1 1.4-.2.8-.1 1.2-.1 2.2-.1zm-2.6-4.5 2.7-.1h.4c.1-.3.1-.3.1-.6 0-1.2 0-1.4-.7-1.4 0 0-2.3.2-2.4.3-.1 0-.2 1.3-.2 1.4l.1.4zm7.6 4.5h.4c.2-.4.4-1.8.3-2.3-.3-.1-1.5-.1-1.7-.1-.1 0-1.5 0-1.6.2-.2.2-.4 1.8-.4 2.1l3 .1zm.9-6.3c-.3-.3-.9-.3-1.3-.3H209c-.2.2-.3 1.8-.3 2h.2l3 .1.1-1.8zM225.3 141.7c.5-.2 1-.4 1-.8v-.6c0-.1.1-.4.1-.5l-.2-2.6c0-.3-.1-1.3-.2-1.7-.1 0-1-.1-1-.1-.3 0-2.7.3-3.1.3-.3 0-.7-.4-.7-.9 0-.6.3-2 3-1.9l2.8.1c.1 0 .7-.1.8-.1.8 0 2.3 1.1 2.3 1.6s-.4.6-1 .9c-.5.2-.7 2.1-.7 2.3v1.4c0 .3-.1 1.3-.1 1.4 0 .1-.1.6-.1.6 0 .2.3.3.5.3l2.4.6h.2l2.5.5.6.1 2.5.4h.3l3.9.4 2.7.3 3 .2c1.3.1 1.4.1 1.4.4 0 .6-3.2 2.4-4.3 2.4-.5 0-2.9-.5-3.5-.6l-2.3-.7-2.5-.6-3.1-.8-.5-.2-2.3-.6c-.3-.1-2.3-.3-2.8-.3-.3 0-1.6 1-1.8 1.1l-1.5 1.4c-.3.3-.7.3-.9.3-.9 0-1.5-.7-1.5-1.5 0-.7.3-1.1.7-1.7 0 0 .3-.2.5-.2h.4l2.5-.6zm-.7-14.3c.8 0 4.1 2.1 4.1 3.4 0 .5-.5.7-.9.7-.3 0-.4 0-1.4-.5-.2-.1-2.3-.7-2.5-.7-.6 0-1.4 0-1.5-.7-.2-.8 1.7-2.2 2.2-2.2m7.1 2.3 2.9-.1h.9c-.4-.7-1.8-1-3-1.2-.1 0-.3-.3-.3-.5 0-.1.2-.8.7-1.1.4-.3.9-.4 1.4-.4.6 0 1.8.9 2.4 1.7.2.2.7 1.4.9 1.6.3 0 1.3.1 1.5.1.1 0 .2 0 .3-.1l.9-2c.4-.9 1.1-1.5 1.7-1.5.9 0 2.5 1 2.5 1.5 0 .2-.1.3-.9.5-.2 0-.9.4-1.2.6-.7.6-.8.6-1 .8v.1h2.1c.3 0 1.5.1 1.7.1 1.5 0 2 0 2 .5 0 .3-.7 1.2-1.1 1.4-.1.1-.9.3-1.3.3l-2.7-.2c-.1 0-.6-.1-.7-.1h-1.6c-.2 0-.2.1-.3.2-.1.1-.3.7-.4.8l.1.1 3.4.1h1c.8.1 2.5 1.1 2.5 1.7 0 .2-.1.3-.2.4-.5.5-.5.5-.5.9l-.2 1.9v.9l-.2 2c0 .4-.3 1-.6 1.4-.2.2-.9.4-1.1.4-.3 0-1.9-.1-2.6-.2h-6.2c-1-.1-2.3-.3-2.4-1.2l-.2-1.8c0-.2-.3-3.4-.5-3.5-.4-.4-.5-.5-.5-.9 0-.6.7-1.5 1.3-1.8.2-.1 1.9-.3 2.1-.3h2.8c.1-.1.2-.7.2-.9 0-.1 0-.1-.2-.1h-2.7l-3.7.4c-.3 0-.9-.4-.9-.8s.5-1.5 1.7-1.7h.2zm2.5 8.2 5.4.1c.2 0 1.3.1 1.6.1.1 0 1.4-.1 1.6-.1.1-.1.1-.2.1-.5-.1-.1-.1-.1-.5-.1l-4.7-.2-3-.1c-.4 0-.5 0-.6.1v.5l.1.2zm3.9-2.3 2.6.1c.2 0 1.2.1 1.4.1s.7 0 .7-.1c0-.6 0-.6-.3-.7-1.2-.2-4.1-.2-4.6-.2h-2.5l-1.1.1c-.1.2-.1.2-.1.7h3.9zm-3.3 4.9 2.7-.1 3.3.1h1.4c.2 0 .2-.7.2-.8 0-.1-.2-.2-.4-.2l-2.8-.1H234.5c-.4 0-.5 0-.5.2l.1.7.7.2z"/><path class="st60" d="M249.7 151.1h-90.6c-1.9 0-3.5-1.6-3.5-3.5v-22.2c0-1.9 1.6-3.5 3.5-3.5h90.6c1.9 0 3.5 1.6 3.5 3.5v22.2c0 1.9-1.6 3.5-3.5 3.5m-90.6-26.7c-.5 0-1 .4-1 1v22.2c0 .5.4 1 1 1h90.6c.5 0 1-.4 1-1v-22.2c0-.5-.4-1-1-1h-90.6z"/></g><g><defs><path id="SVGID_158_" d="m185.4 110.6.1.2v.4c0 .2.1.5.3.6-.2 1-.3 1.6-.3 1.9 0 .7.3 1.3.9 1.8.5.5 1.2.8 2.1 1.1.5.1.8.2 1 .2.3 0 .5-.1.6-.2.1-.1.1-.2.2-.3 0-.1.1-.1.1-.1h.1v-.1c0-.8 0-1.4.2-1.8.2-.5.5-1.1 1-1.7.3-.4.6-.6 1-.7.3.1.6.3 1 .7.3.4.5.7.6.9-.1.1-.2.2-.4.3-.3.2-.4.3-.5.4l-.2.3.3-.2h.9c.2 0 .3.1.5.2h.1c.1 0 .2.1.2.1h.1v-.1l.3-.3c.3-.6.3-.8.3-.9v-.2c0-.1 0-.2-.1-.3-.2-.5-.4-.9-.7-1.1-.3-.3-.7-.6-1.3-.8h-.1c-.1 0-.1 0-.2-.1v-.1c-.1 0-.2 0-.4-.1-.2 0-.4-.1-.5-.1h-.4c-.3 0-.6.1-.8.2-.2.2-.3.4-.3.7 0 0 0 .1.2.3-.6 1-1 1.5-1 1.6-.4.7-.6 1.3-.6 1.8 0 .1 0 .3.1.5s.1.4.1.4c-.1.1-.2.2-.4.3-.6-.2-1-.6-1.4-1-.2-.2-.3-.4-.5-.7-.2-.4-.3-.6-.3-.7 0 0 0-.1.1-.3.1-.2.1-.3.1-.4v-.1c.1-.2.1-.4.1-.6 0-.4-.1-.8-.4-1.4-.3-.7-.6-1.1-1-1.1-.3.1-.6.3-.8.6"/></defs><clipPath id="SVGID_159_"><use xlink:href="#SVGID_158_" style="overflow:visible"/></clipPath><linearGradient id="SVGID_160_" gradientUnits="userSpaceOnUse" x1="-174.21" y1="473.43" x2="-173.175" y2="473.43" gradientTransform="matrix(10.2676 0 0 -10.2676 1974.059 4974.488)"><stop offset="0" style="stop-color:#face00"/><stop offset=".006" style="stop-color:#face00"/><stop offset=".253" style="stop-color:#fffbd0"/><stop offset=".296" style="stop-color:#faf2bf"/><stop offset=".381" style="stop-color:#eedc92"/><stop offset=".5" style="stop-color:#dbb94a"/><stop offset=".596" style="stop-color:#ca9a0c"/><stop offset=".796" style="stop-color:#e7cc67"/><stop offset=".871" style="stop-color:#f2e08b"/><stop offset="1" style="stop-color:#fffbd0"/></linearGradient><path style="clip-path:url(#SVGID_159_);fill:url(#SVGID_160_)" d="M185.3 110.1h10.6v6.7h-10.6z"/></g><g><defs><path id="SVGID_161_" d="M195.9 113.2c0-.1 0-.2-.1-.3-.2-.5-.4-.9-.7-1.1-.3-.3-.7-.6-1.3-.8h-.1c-.1 0-.1 0-.2-.1v-.1c-.1 0-.2 0-.4-.1-.2 0-.4-.1-.5-.1h-.4c-.3 0-.6.1-.8.2-.2.2-.3.4-.3.7 0 0 0 .1.2.3-.6 1-1 1.5-1 1.6-.4.7-.6 1.3-.6 1.8 0 .1 0 .3.1.5s.1.4.1.4c-.1.1-.2.2-.4.3-.6-.2-1-.6-1.4-1-.2-.2-.3-.4-.5-.7-.2-.4-.3-.6-.3-.7 0 0 0-.1.1-.3.1-.2.1-.3.1-.4v-.1c.1-.2.1-.4.1-.6 0-.4-.1-.8-.4-1.4-.3-.7-.6-1.1-1-1.1-.3 0-.6.2-.8.5v.1l.1.1v.4c0 .2.1.5.3.6-.2 1-.3 1.6-.3 1.9 0 .7.3 1.3.9 1.8.5.5 1.2.9 2.1 1.1.5.1.8.2 1 .2.3 0 .5-.1.6-.2.1-.1.1-.2.2-.3 0-.1.1-.1.1-.1h.1v-.1c0-.8 0-1.4.2-1.8.2-.5.5-1.1 1-1.7.3-.4.6-.6 1-.7.3.1.6.3 1 .7.3.4.5.7.6.9-.1.1-.2.2-.4.3-.3.2-.4.3-.5.4l-.2.3.3-.2h.9c.2 0 .3.1.5.2h.1c.1 0 .2.1.2.1h.1v-.1l.3-.3c.3-.6.3-.8.3-.9v-.1c0 .1 0 .1 0 0"/></defs><clipPath id="SVGID_162_"><use xlink:href="#SVGID_161_" style="overflow:visible"/></clipPath><radialGradient id="SVGID_163_" cx="-194.444" cy="515.765" r="1.036" gradientTransform="rotate(-134.999 2455.866 -6806.8) scale(4.2984 -25.7904)" gradientUnits="userSpaceOnUse"><stop offset="0" style="stop-color:#face00"/><stop offset=".006" style="stop-color:#face00"/><stop offset=".253" style="stop-color:#fffbd0"/><stop offset=".296" style="stop-color:#faf2bf"/><stop offset=".381" style="stop-color:#eedc92"/><stop offset=".5" style="stop-color:#dbb94a"/><stop offset=".596" style="stop-color:#ca9a0c"/><stop offset=".796" style="stop-color:#e7cc67"/><stop offset=".871" style="stop-color:#f2e08b"/><stop offset="1" style="stop-color:#fffbd0"/></radialGradient><path style="clip-path:url(#SVGID_162_);fill:url(#SVGID_163_)" d="m190.7 122.2-8.7-8.7 8.7-8.7 8.6 8.7z"/></g><g><defs><path id="SVGID_164_" d="M200.9 109.2c-.4.2-.6.4-.6.7v.1h.1l.1.1c.1.1.2.1.2.1v.2h.1c-.5.5-.9.9-1.2 1.1-.9.8-1.5 1.5-1.9 2.1-.6.8-.9 1.6-.9 2.4 0 .6.2 1 .7 1.3l.1.1.1-.1c.1-.2.2-.4.2-.5l-.1-.3v-.2c.1-.2.1-.2.1-.3v-.2l-.2-.1v.1c-.1.3-.1.5-.2.7 0-.1-.1-.2-.1-.3 0-.4.1-.7.3-1.1h.2c.2 0 .4-.1.5-.2l.1-.1-.1-.2c0-.1.1-.2.2-.2.1-.1.2-.1.4-.1.2.2.4.5.5 1 .1.6.3.9.5 1.1.1.2.4.3.8.4.7.2 1.4.4 2 .4.7 0 1.6-.2 2.5-.6.1-.2.2-.3.3-.4.1-.1.1-.2.2-.3.1-.1.2-.3.3-.4.2-.3.3-.4.2-.5v-.7c0-.2.1-.4.1-.7l-.1-.1c0-.1.1-.4.3-1.2.2-.7.4-1.2.7-1.5l-.2-.2c-.5.4-.8.9-1.2 1.5-.1.2-.3.8-.7 1.7-.1.2-.2.5-.2.7-.1.3-.2.5-.3.6-.1.2-.5.3-1 .5-.5.1-.8.2-1.2.2-.6 0-1.1-.1-1.3-.2 0 0-.1-.1-.3-.4-.1-.2-.2-.4-.2-.6-.1-.2-.2-.3-.2-.4 0-.1-.1-.2-.1-.2 0-.1-.1-.2-.2-.3-.2-.1-.3-.2-.6-.2s-.4-.1-.5-.1c-.1 0-.2-.1-.2-.1.3-.3.9-.7 1.7-1.2.8-.4 1.5-.8 2.3-1.2l.6-.3c.3-.1.4-.3.5-.4 0-.3-.2-.5-.6-.7l-.9-.3s-.1 0-.3-.2c-.2-.1-.3-.1-.4-.1-.2 0-.6.1-.9.3"/></defs><clipPath id="SVGID_165_"><use xlink:href="#SVGID_164_" style="overflow:visible"/></clipPath><linearGradient id="SVGID_166_" gradientUnits="userSpaceOnUse" x1="-174.235" y1="473.265" x2="-173.2" y2="473.265" gradientTransform="matrix(10.2121 0 0 -10.2121 1975.955 4946.247)"><stop offset="0" style="stop-color:#face00"/><stop offset=".006" style="stop-color:#face00"/><stop offset=".253" style="stop-color:#fffbd0"/><stop offset=".296" style="stop-color:#faf2bf"/><stop offset=".381" style="stop-color:#eedc92"/><stop offset=".5" style="stop-color:#dbb94a"/><stop offset=".596" style="stop-color:#ca9a0c"/><stop offset=".796" style="stop-color:#e7cc67"/><stop offset=".871" style="stop-color:#f2e08b"/><stop offset="1" style="stop-color:#fffbd0"/></linearGradient><path style="clip-path:url(#SVGID_165_);fill:url(#SVGID_166_)" d="M196.6 108.9h10.6v8.6h-10.6z"/></g><g><defs><path id="SVGID_167_" d="M205.9 112.2c-.1.2-.3.8-.7 1.7-.1.2-.2.5-.2.7-.1.3-.2.5-.3.6-.1.2-.5.3-1 .5-.5.1-.8.2-1.2.2-.6 0-1.1-.1-1.3-.2 0 0-.1-.1-.3-.4-.1-.2-.2-.4-.2-.6-.1-.2-.2-.3-.2-.4 0-.1-.1-.2-.1-.2 0-.1-.1-.2-.2-.3-.2-.1-.3-.2-.6-.2s-.4-.1-.5-.1c-.1 0-.2-.1-.2-.1.3-.3.9-.7 1.7-1.2.8-.4 1.5-.8 2.3-1.2l.6-.3c.3-.1.4-.3.5-.4 0-.3-.2-.5-.6-.7l-.9-.3s-.1 0-.3-.2c-.2-.1-.3-.1-.4-.1-.3 0-.7.1-1 .3-.4.2-.6.4-.6.7v.1h.1l.1.1c.1.1.2.1.2.1v.2h.1c-.5.5-.9.9-1.2 1.1-.9.8-1.5 1.5-1.9 2.1-.6.8-.9 1.6-.9 2.4 0 .6.2 1 .7 1.3l.1.1.1-.1c.1-.2.2-.4.2-.5l-.1-.3v-.2c.1-.2.1-.2.1-.3v-.2l-.2-.1v.1c-.1.3-.1.5-.2.7 0-.1-.1-.2-.1-.3 0-.4.1-.7.3-1.1h.2c.2 0 .4-.1.5-.2l.1-.1-.1-.2c0-.1.1-.2.2-.2.1-.1.2-.1.4-.1.2.2.4.5.5 1 .1.6.3.9.5 1.1.1.2.4.3.8.4.7.2 1.4.4 2 .4.7 0 1.6-.2 2.5-.6.1-.2.2-.3.3-.4.1-.1.1-.2.2-.3.1-.1.2-.3.3-.4.2-.3.3-.4.2-.5v-.7c0-.2.1-.4.1-.7l-.1-.1c0-.1.1-.4.3-1.2.2-.7.4-1.2.7-1.5l-.2-.2c-.4.4-.8.9-1.1 1.5"/></defs><clipPath id="SVGID_168_"><use xlink:href="#SVGID_167_" style="overflow:visible"/></clipPath><radialGradient id="SVGID_169_" cx="-192.096" cy="514.86" r="1.035" gradientTransform="rotate(-135 2652.469 -7351.542) scale(4.6494 -27.896)" gradientUnits="userSpaceOnUse"><stop offset="0" style="stop-color:#face00"/><stop offset=".006" style="stop-color:#face00"/><stop offset=".253" style="stop-color:#fffbd0"/><stop offset=".296" style="stop-color:#faf2bf"/><stop offset=".381" style="stop-color:#eedc92"/><stop offset=".5" style="stop-color:#dbb94a"/><stop offset=".596" style="stop-color:#ca9a0c"/><stop offset=".796" style="stop-color:#e7cc67"/><stop offset=".871" style="stop-color:#f2e08b"/><stop offset="1" style="stop-color:#fffbd0"/></radialGradient><path style="clip-path:url(#SVGID_168_);fill:url(#SVGID_169_)" d="m201.9 122.8-9.5-9.6 9.5-9.6 9.6 9.6z"/></g><g><defs><path id="SVGID_170_" d="M219.6 109h-.8c-.1 0-.2.1-.3.1h-.2c-.3 0-.7.1-1.2.2-.8.2-1.5.4-2.1.7-.3.1-.8.5-1.8 1.1-.4.3-.6.5-.8.6-.2.1-.4.2-.7.3-.3.1-.4.3-.4.5v.1l-.1.1v.2h.1c.3.1.4.4.5.8.1.5.3.7.7.8.2 0 .4-.1.5-.2.2-.3.4-.6.4-.7.2-.2.4-.5.6-.7.2-.3.8-.7 1.7-1.4.5-.3.9-.6 1.2-.8-2.3 2.1-3.9 4.1-4.8 6v.1l.4.7h.1c.2-.1.4-.2.5-.4 0 0 .4-.7.6-.8.8-.9 1.5-1.6 2-1.8-.1.4-.2.8-.2 1.3 0 .4.1.8.3 1 .2.3.6.5 1.1.7.5.2 1 .4 1.4.4.3 0 1.1-.2 2.2-.5 1-.3 1.7-.5 2.3-.6-.1.2-.3.4-.6.6-.2.1-.6.4-1.1.6l.1.2h.1v.1h.1c.4-.1.9-.3 1.6-.8.8-.5 1.1-.6 1.3-.6.2 0 .5 0 .7.1h.1c.1-.1.2-.2.2-.3 0-.2-.2-.3-.7-.5-.4-.1-.7-.2-.9-.2l-.4.1h-.2c-.6 0-1.3.1-2.1.2-1 .1-1.8.2-2.2.2-.4 0-.6-.1-.7-.1-.1-.1-.1-.2-.1-.5 0-.1 0-.3.1-.6s.1-.5.1-.6c0-.3-.1-.6-.4-.8-.3-.2-.6-.3-.9-.3l-.2-.1c.4-.5.9-1 1.5-1.5.8-.6 1.5-1 2.1-1h.1v-.5c0-.1 0-.2-.2-.5s-.2-.4-.2-.5v-.1l-.4-.4z"/></defs><clipPath id="SVGID_171_"><use xlink:href="#SVGID_170_" style="overflow:visible"/></clipPath><linearGradient id="SVGID_172_" gradientUnits="userSpaceOnUse" x1="-171.303" y1="480.875" x2="-170.268" y2="480.875" gradientTransform="matrix(13.5857 0 0 -13.5857 2538.518 6646.617)"><stop offset="0" style="stop-color:#face00"/><stop offset=".006" style="stop-color:#face00"/><stop offset=".253" style="stop-color:#fffbd0"/><stop offset=".296" style="stop-color:#faf2bf"/><stop offset=".381" style="stop-color:#eedc92"/><stop offset=".5" style="stop-color:#dbb94a"/><stop offset=".596" style="stop-color:#ca9a0c"/><stop offset=".796" style="stop-color:#e7cc67"/><stop offset=".871" style="stop-color:#f2e08b"/><stop offset="1" style="stop-color:#fffbd0"/></linearGradient><path style="clip-path:url(#SVGID_171_);fill:url(#SVGID_172_)" d="M211.2 109h14.1v9.2h-14.1z"/></g><g><defs><path id="SVGID_173_" d="M224.6 116c-.4-.1-.7-.2-.9-.2l-.4.1h-.2c-.6 0-1.3.1-2.1.2-1 .1-1.8.2-2.2.2-.4 0-.6-.1-.7-.1-.1-.1-.1-.2-.1-.5 0-.1 0-.3.1-.6s.1-.5.1-.6c0-.3-.1-.6-.4-.8-.3-.2-.6-.3-.9-.3l-.2-.1c.4-.5.9-1 1.5-1.5.8-.6 1.5-1 2.1-1h.1v-.5c0-.1 0-.2-.2-.5s-.2-.4-.2-.5v-.1H219.1c-.1 0-.2.1-.3.1h-.2c-.3 0-.7.1-1.2.2-.8.2-1.5.4-2.1.7-.3.1-.8.5-1.8 1.1-.4.3-.6.5-.8.6-.2.1-.4.2-.7.3-.3.1-.4.3-.4.5v.1l-.1.1v.2h.1c.3.1.4.4.5.8.1.5.3.7.7.8.2 0 .4-.1.5-.2.2-.3.4-.6.4-.7.2-.2.4-.5.6-.7.2-.3.8-.7 1.7-1.4.5-.3.9-.6 1.2-.8-2.3 2.1-3.9 4.1-4.8 6v.1l.4.7h.1c.2-.1.4-.2.5-.4 0 0 .4-.7.6-.8.8-.9 1.5-1.6 2-1.8-.1.4-.2.8-.2 1.3 0 .4.1.8.3 1 .2.3.6.5 1.1.8.5.2 1 .4 1.4.4.3 0 1-.2 2.2-.5 1-.3 1.7-.5 2.3-.6-.1.2-.3.4-.6.6-.2.1-.6.4-1.1.6l.1.2h.1v.1h.1c.4-.1.9-.3 1.6-.8.8-.5 1.1-.6 1.3-.6.2 0 .5 0 .7.1h.1c.1-.1.2-.2.2-.3-.3-.7-.5-.8-1-1"/></defs><clipPath id="SVGID_174_"><use xlink:href="#SVGID_173_" style="overflow:visible"/></clipPath><radialGradient id="SVGID_175_" cx="-186.55" cy="512.766" r="1.036" gradientTransform="rotate(-135 3255.703 -9042.952) scale(5.7418 -34.4517)" gradientUnits="userSpaceOnUse"><stop offset="0" style="stop-color:#face00"/><stop offset=".006" style="stop-color:#face00"/><stop offset=".253" style="stop-color:#fffbd0"/><stop offset=".296" style="stop-color:#faf2bf"/><stop offset=".381" style="stop-color:#eedc92"/><stop offset=".5" style="stop-color:#dbb94a"/><stop offset=".596" style="stop-color:#ca9a0c"/><stop offset=".796" style="stop-color:#e7cc67"/><stop offset=".871" style="stop-color:#f2e08b"/><stop offset="1" style="stop-color:#fffbd0"/></radialGradient><path style="clip-path:url(#SVGID_174_);fill:url(#SVGID_175_)" d="m218.3 125.2-11.7-11.6 11.7-11.6 11.6 11.6z"/></g><g><defs><path id="SVGID_176_" d="M216.7 105.8c-.5 0-.9.2-1.2.5-.2.2-.3.3-.4.5-.1.2-.1.3-.2.5l-.1.1.1.1.1.1v.1c0 .1.2.2.4.3.1 0 .3.1.4.1-.2.2-.4.5-.5.7l.2.1s.1-.1.7-.4c.5-.3.7-.3.8-.4h.7c.3 0 .5 0 .6-.1.1 0 .3-.1.6-.2l.4-.1c.2-.1.3-.2.3-.4 0-.1-.1-.2-.2-.4-.2-.2-.4-.4-.7-.4-.3-.1-.6-.2-.9-.2-.4-.2-.8-.4-1.1-.5z"/></defs><clipPath id="SVGID_177_"><use xlink:href="#SVGID_176_" style="overflow:visible"/></clipPath><linearGradient id="SVGID_178_" gradientUnits="userSpaceOnUse" x1="-187.94" y1="436.932" x2="-186.905" y2="436.932" gradientTransform="matrix(4.6697 0 0 -4.6697 1092.46 2147.697)"><stop offset="0" style="stop-color:#face00"/><stop offset=".006" style="stop-color:#face00"/><stop offset=".253" style="stop-color:#fffbd0"/><stop offset=".296" style="stop-color:#faf2bf"/><stop offset=".381" style="stop-color:#eedc92"/><stop offset=".5" style="stop-color:#dbb94a"/><stop offset=".596" style="stop-color:#ca9a0c"/><stop offset=".796" style="stop-color:#e7cc67"/><stop offset=".871" style="stop-color:#f2e08b"/><stop offset="1" style="stop-color:#fffbd0"/></linearGradient><path style="clip-path:url(#SVGID_177_);fill:url(#SVGID_178_)" d="M214.8 105.8h4.8v3.1h-4.8z"/></g><g><defs><path id="SVGID_179_" d="m214.9 107.6.1.1v.1c0 .1.2.2.4.3.1 0 .3.1.4.1-.2.2-.4.5-.5.7l.2.1s.1-.1.7-.4c.5-.3.7-.3.8-.4h.7c.3 0 .5 0 .6-.1.1 0 .3-.1.6-.2l.4-.1c.2-.1.3-.2.3-.4 0-.1-.1-.2-.2-.4-.2-.2-.4-.4-.7-.4-.3-.1-.6-.2-.9-.2-.5-.2-.9-.3-1.2-.4-.5 0-.9.2-1.2.5-.2.2-.3.3-.4.5-.1.2-.1.3-.2.5l-.1.1h.2z"/></defs><clipPath id="SVGID_180_"><use xlink:href="#SVGID_179_" style="overflow:visible"/></clipPath><radialGradient id="SVGID_181_" cx="-232.818" cy="529.874" r="1.036" gradientTransform="matrix(-1.384 -1.384 -8.3038 8.3038 4295.006 -4614.788)" gradientUnits="userSpaceOnUse"><stop offset="0" style="stop-color:#face00"/><stop offset=".006" style="stop-color:#face00"/><stop offset=".253" style="stop-color:#fffbd0"/><stop offset=".296" style="stop-color:#faf2bf"/><stop offset=".381" style="stop-color:#eedc92"/><stop offset=".5" style="stop-color:#dbb94a"/><stop offset=".596" style="stop-color:#ca9a0c"/><stop offset=".796" style="stop-color:#e7cc67"/><stop offset=".871" style="stop-color:#f2e08b"/><stop offset="1" style="stop-color:#fffbd0"/></radialGradient><path style="clip-path:url(#SVGID_180_);fill:url(#SVGID_181_)" d="m217.3 111.3-4-3.9 4-4 3.9 4z"/></g><g><defs><path id="SVGID_182_" d="M234.9 108.3v.2c.1.1.3.3 1.3.9.7.4 1.2.6 1.5.7.1 0 .3-.1.3-.2 0 0 0-.1.1-.3-.1-.2-.2-.4-.4-.5-.2-.1-.5-.3-.9-.5-.5-.2-.8-.3-1-.3-.3-.3-.7-.2-.9 0"/></defs><clipPath id="SVGID_183_"><use xlink:href="#SVGID_182_" style="overflow:visible"/></clipPath><linearGradient id="SVGID_184_" gradientUnits="userSpaceOnUse" x1="-198.93" y1="407.338" x2="-197.895" y2="407.338" gradientTransform="matrix(3.2393 0 0 -3.2393 879.157 1428.46)"><stop offset="0" style="stop-color:#face00"/><stop offset=".006" style="stop-color:#face00"/><stop offset=".253" style="stop-color:#fffbd0"/><stop offset=".296" style="stop-color:#faf2bf"/><stop offset=".381" style="stop-color:#eedc92"/><stop offset=".5" style="stop-color:#dbb94a"/><stop offset=".596" style="stop-color:#ca9a0c"/><stop offset=".796" style="stop-color:#e7cc67"/><stop offset=".871" style="stop-color:#f2e08b"/><stop offset="1" style="stop-color:#fffbd0"/></linearGradient><path style="clip-path:url(#SVGID_183_);fill:url(#SVGID_184_)" d="M234.8 108h3.4v2h-3.4z"/></g><g><defs><path id="SVGID_185_" d="M237.7 108.8c-.2-.1-.5-.3-.9-.5-.5-.2-.8-.3-1-.3-.4 0-.7.1-1 .3l-.1.1.1.1c.1.1.3.3 1.3.9.7.4 1.2.6 1.5.7.1 0 .3-.1.3-.2 0 0 0-.1.1-.3.1-.5-.1-.7-.3-.8"/></defs><clipPath id="SVGID_186_"><use xlink:href="#SVGID_185_" style="overflow:visible"/></clipPath><radialGradient id="SVGID_187_" cx="-266.471" cy="542.118" r="1.036" gradientTransform="matrix(-.9391 -.9391 -5.6346 5.6346 3040.825 -3195.882)" gradientUnits="userSpaceOnUse"><stop offset="0" style="stop-color:#face00"/><stop offset=".006" style="stop-color:#face00"/><stop offset=".253" style="stop-color:#fffbd0"/><stop offset=".296" style="stop-color:#faf2bf"/><stop offset=".381" style="stop-color:#eedc92"/><stop offset=".5" style="stop-color:#dbb94a"/><stop offset=".596" style="stop-color:#ca9a0c"/><stop offset=".796" style="stop-color:#e7cc67"/><stop offset=".871" style="stop-color:#f2e08b"/><stop offset="1" style="stop-color:#fffbd0"/></radialGradient><path style="clip-path:url(#SVGID_186_);fill:url(#SVGID_187_)" d="m236.4 111.6-2.6-2.6 2.6-2.7 2.7 2.7z"/></g><g><defs><path id="SVGID_188_" d="M231.8 106.8v.1c-1.1.6-2 1.1-2.9 1.5 0 0 0-.1-.1-.3-.1-.2-.1-.5-.2-.7-.1-.2-.3-.5-.6-.7l-.2-.1v.2c-.6.3-1.1.7-1.3.9-.5.5-.7 1-.7 1.5 0 .1.1.3.3.5l.4.4c.1.3.3.4.3.6.4.1.8.1 1.1.1.3 0 .5-.2.6-.5.2-.4.3-.6.4-.6.3-.2.6-.4.8-.6.2-.1.3-.3.4-.4.1-.2.4-.4.9-.7.3-.2.6-.4.9-.5 0 .1-.1.3-.2.4 0 0-.1.2-.4.6-.8 1.2-1.9 2.3-3.2 3.1-.2.1-.4.2-.9.3-.5.1-.7.2-.8.2-.2-.1-.4-.2-.6-.2-1 0-1.2.4-1.2.7 0 .3.2.5.5.8 0 0 0 .1.1.3 0 .2.1.3.3.4h.2c.2 0 .4 0 .5-.2.8-.1 1.6-.4 2.4-.8-.2.2-.2.4-.3.5-.1.3-.2.6-.2.9 0 .7.5 1.3 1.5 1.9.9.4 1.8.7 2.7.8.6-.1 1.1-.2 1.4-.2h.1c0-.1 0-.2-.1-.4s-.1-.3-.1-.3c0-.4-.1-.6-.2-.7v-.5l-.1-.4-.1.4c-.2.7-.4 1.3-.8 1.6-.5-.1-1.1-.3-1.7-.6-.7-.4-1-.8-1-1.1 0-.2.1-.4.3-.6 0 0 .3-.3 1.8-1.7 1.4-1.3 1.8-1.6 1.8-1.7.2-.1.5-.2.8-.2h.1v-.6h-.1c-.2-.1-.5-.2-.7-.3-.3-.1-.6-.2-.8-.2-.2 0-.4 0-.7.1-.2.4-.5.8-.9 1-.3.1-.5.3-.8.4.4-.4.7-.6.9-.9.9-.9 1.7-1.9 2.4-3v-.2c-.1-.2-.4-.3-.9-.5s-.8-.3-1-.3c.1.1 0 .3-.1.5"/></defs><clipPath id="SVGID_189_"><use xlink:href="#SVGID_188_" style="overflow:visible"/></clipPath><linearGradient id="SVGID_190_" gradientUnits="userSpaceOnUse" x1="-174.571" y1="472.131" x2="-173.535" y2="472.131" gradientTransform="matrix(9.8463 0 0 -9.8463 1943.71 4760.711)"><stop offset="0" style="stop-color:#face00"/><stop offset=".006" style="stop-color:#face00"/><stop offset=".253" style="stop-color:#fffbd0"/><stop offset=".296" style="stop-color:#faf2bf"/><stop offset=".381" style="stop-color:#eedc92"/><stop offset=".5" style="stop-color:#dbb94a"/><stop offset=".596" style="stop-color:#ca9a0c"/><stop offset=".796" style="stop-color:#e7cc67"/><stop offset=".871" style="stop-color:#f2e08b"/><stop offset="1" style="stop-color:#fffbd0"/></linearGradient><path style="clip-path:url(#SVGID_189_);fill:url(#SVGID_190_)" d="M224.8 106.4H235v11.2h-10.2z"/></g><g><defs><path id="SVGID_191_" d="M234.3 109.8c-.3-.2-.6-.2-.8-.2-.2 0-.4 0-.7.1-.2.4-.5.8-.9 1-.3.1-.5.3-.8.4.4-.4.7-.6.9-.9.9-.9 1.7-1.9 2.4-3v-.2c-.1-.2-.4-.3-.9-.5s-.8-.3-1-.3c-.4 0-.6.3-.6.5v.1c-1.1.6-2 1.1-2.9 1.5 0 0 0-.1-.1-.3-.1-.2-.1-.5-.2-.7-.1-.2-.3-.5-.6-.7l-.2-.1v.2c-.6.3-1.1.7-1.3.9-.5.5-.7 1-.7 1.5 0 .1.1.3.3.5l.4.4c.1.3.3.4.3.6.4.1.8.1 1.1.1.3 0 .5-.2.6-.5.2-.4.3-.6.4-.6.3-.2.6-.4.8-.6.2-.1.3-.3.4-.4.1-.2.4-.4.9-.7.3-.2.6-.4.9-.5 0 .1-.1.3-.2.4 0 0-.1.2-.4.6-.8 1.2-1.9 2.3-3.2 3.1-.2.1-.4.2-.9.3-.5.1-.7.2-.8.2-.2-.1-.4-.2-.6-.2-1 0-1.2.4-1.2.7 0 .3.2.5.5.8 0 0 0 .1.1.3 0 .2.1.3.3.4h.2c.2 0 .4-.1.5-.1.8-.1 1.6-.4 2.4-.8-.2.2-.2.4-.3.5-.1.3-.2.6-.2.9 0 .7.5 1.3 1.5 1.9.9.4 1.8.7 2.7.8.6-.1 1.1-.2 1.4-.2h.1c0-.1 0-.2-.1-.4s-.1-.3-.1-.3c0-.4-.1-.6-.2-.7v-.5l-.1-.4-.1.4c-.2.7-.4 1.3-.8 1.6-.5-.1-1.1-.3-1.7-.6-.7-.4-1-.8-1-1.1 0-.2.1-.4.3-.6 0 0 .3-.3 1.8-1.7 1.4-1.3 1.8-1.6 1.8-1.7.2-.1.5-.2.8-.2h.1v-.6h-.1c.2-.2 0-.3-.2-.4"/></defs><clipPath id="SVGID_192_"><use xlink:href="#SVGID_191_" style="overflow:visible"/></clipPath><radialGradient id="SVGID_193_" cx="-189.204" cy="513.718" r="1.035" gradientTransform="rotate(-135 2954.163 -8175.753) scale(5.1787 -31.0723)" gradientUnits="userSpaceOnUse"><stop offset="0" style="stop-color:#face00"/><stop offset=".006" style="stop-color:#face00"/><stop offset=".253" style="stop-color:#fffbd0"/><stop offset=".296" style="stop-color:#faf2bf"/><stop offset=".381" style="stop-color:#eedc92"/><stop offset=".5" style="stop-color:#dbb94a"/><stop offset=".596" style="stop-color:#ca9a0c"/><stop offset=".796" style="stop-color:#e7cc67"/><stop offset=".871" style="stop-color:#f2e08b"/><stop offset="1" style="stop-color:#fffbd0"/></radialGradient><path style="clip-path:url(#SVGID_192_);fill:url(#SVGID_193_)" d="M229.9 122.7 219.2 112l10.7-10.7 10.8 10.7z"/></g><g><defs><path id="SVGID_194_" d="M236.1 107.3c0 .3.3.6.9.9.5.3 1 .4 1.3.4h.1c.1-.1.1-.2.2-.3l.1-.1-.4-.7h-.1c-.2 0-.4-.1-.7-.3-.3-.2-.6-.3-.7-.3 0-.1-.7-.1-.7.4"/></defs><clipPath id="SVGID_195_"><use xlink:href="#SVGID_194_" style="overflow:visible"/></clipPath><linearGradient id="SVGID_196_" gradientUnits="userSpaceOnUse" x1="-207.382" y1="384.856" x2="-206.346" y2="384.856" gradientTransform="matrix(2.6272 0 0 -2.6272 780.909 1118.787)"><stop offset="0" style="stop-color:#face00"/><stop offset=".006" style="stop-color:#face00"/><stop offset=".253" style="stop-color:#fffbd0"/><stop offset=".296" style="stop-color:#faf2bf"/><stop offset=".381" style="stop-color:#eedc92"/><stop offset=".5" style="stop-color:#dbb94a"/><stop offset=".596" style="stop-color:#ca9a0c"/><stop offset=".796" style="stop-color:#e7cc67"/><stop offset=".871" style="stop-color:#f2e08b"/><stop offset="1" style="stop-color:#fffbd0"/></linearGradient><path style="clip-path:url(#SVGID_195_);fill:url(#SVGID_196_)" d="M236.1 106.8h2.7v1.7h-2.7z"/></g><g><defs><path id="SVGID_197_" d="M238.4 107.4c-.2 0-.4-.1-.7-.3-.3-.2-.5-.3-.7-.3-.2 0-.9 0-.9.4 0 .3.3.6.9.9.5.3 1 .4 1.3.4h.1c.1-.1.1-.2.2-.3l.1-.1-.3-.7z"/></defs><clipPath id="SVGID_198_"><use xlink:href="#SVGID_197_" style="overflow:visible"/></clipPath><radialGradient id="SVGID_199_" cx="-288.82" cy="550.331" r="1.035" gradientTransform="rotate(-135 730.587 -1865.085) scale(1.0929 -6.5575)" gradientUnits="userSpaceOnUse"><stop offset="0" style="stop-color:#face00"/><stop offset=".006" style="stop-color:#face00"/><stop offset=".253" style="stop-color:#fffbd0"/><stop offset=".296" style="stop-color:#faf2bf"/><stop offset=".381" style="stop-color:#eedc92"/><stop offset=".5" style="stop-color:#dbb94a"/><stop offset=".596" style="stop-color:#ca9a0c"/><stop offset=".796" style="stop-color:#e7cc67"/><stop offset=".871" style="stop-color:#f2e08b"/><stop offset="1" style="stop-color:#fffbd0"/></radialGradient><path style="clip-path:url(#SVGID_198_);fill:url(#SVGID_199_)" d="m237.4 109.9-2.2-2.2 2.2-2.2 2.2 2.2z"/></g></g></switch></svg>