<svg version="1.1" id="レイヤー_2" xmlns="http://www.w3.org/2000/svg" xmlns:xlink="http://www.w3.org/1999/xlink" x="0" y="0" viewBox="0 0 301 158.3" style="enable-background:new 0 0 301 158.3" xml:space="preserve"><style>.st0,.st2,.st3{clip-path:url(#SVGID_2_);fill:#fff}.st2,.st3{fill:#e50012}.st3{fill:#231815}</style><switch><g><defs><path id="SVGID_1_" d="M0 .4h301v157.4H0z"/></defs><clipPath id="SVGID_2_"><use xlink:href="#SVGID_1_" style="overflow:visible"/></clipPath><path class="st0" d="M0 .4h301v157.4H0z"/><path d="M261.5 157.6h-222l.4.4V.4l-.4.4h222l-.4-.4V158l.4-.4zm0-157.6H39.1v158.4h222.8V0h-.4z" style="clip-path:url(#SVGID_2_);fill:none"/><path class="st2" d="M56.4.4h4.3V158h-4.3zM93.1.4h4.3V158h-4.3zM129.9.4h4.3V158h-4.3zM166.7.4h4.3V158h-4.3zM203.5.4h4.3V158h-4.3zM240.3.4h4.3V158h-4.3z"/><path class="st0" d="M133.2 26.2c.3 0 1.5-.9.3-2.4-1.2-1.6-3.8-1.3-3.8-1.3v.5s.4.5 1.4 1.9c1.1 1.2 1.7 1.3 2.1 1.3"/><path class="st0" d="M132.9 28.3c1.1.1 2.2-.5 2.8-1.6.7-1.3.5-2.9-.6-4.3-1.9-2.4-5.4-2.1-5.7-2.1-1.1.1-1.9 1-1.9 2.1v.6c0 .4.1.9.4 1.2 0 .1.4.6 1.5 2 1.4 1.7 2.6 2 3.5 2.1 1.2.1 2.3-.7 2.4-1.9.1-1.2-.7-2.3-1.9-2.4h-.2.1s-.2-.1-.6-.6c-1-1.2-1.3-1.7-1.3-1.7.3.4.4.8.4 1.2v-.5c0 1.1-.8 2-1.9 2.2.6-.1 1.6.1 1.9.5.1.1.1.2.1.2 0-.1-.1-.4.2-.8.3-.3.8-.5 1.4-.5-1.2-.1-2.3.7-2.4 1.9-.2 1.2.6 2.3 1.8 2.4z"/><path class="st0" d="M140.4 26.5c-1 0-5.9.7-8.4 1-2.5.3-9 .9-9.9 1-1 0-2.3.2-2.3.2-.2.3-.1.4.4.7.4.3 1.1.7 1.7.7.6 0 1.4-.3 2.4-.5s5.6-1.1 11.2-1.2h4.8c.4 0 2.7.5 3.1-.3.3-.9-2-1.6-3-1.6"/><path class="st0" d="M140.4 24.4c-.7 0-2.4.2-5 .6-1.3.2-2.7.4-3.7.5-2.7.3-8.9.9-9.8 1-1.1 0-2.5.2-2.6.3-.7.1-1.3.5-1.6 1.1-.6 1.1-.2 2.1 0 2.4.3.5.7.8 1 1.1.4.3 1.6 1.1 3 1.1.6 0 1.2-.2 1.8-.3.3-.1.7-.2 1-.2l.3-.1c1.4-.3 5.6-1 10.5-1.1H140c1.1.2 4.1.7 5.2-1.6.4-.8.3-1.8-.2-2.6-1-1.7-3.5-2.2-4.6-2.2-1.2 0-2.2 1-2.2 2.2 0 1.2 1 2.2 2.2 2.2.3 0 1 .2 1.2.3-.3-.2-.7-1-.3-1.8.2-.5.6-.7.8-.7-.1 0-.4 0-1.3-.1h-5.3c-5.3.1-9.8.9-11.2 1.2l-.3.1c-.5.1-1 .2-1.3.3-.3.1-.6.2-.7.2h.1c-.1 0-.3-.1-.5-.3l-.1-.1c.5.4.8 1.4.4 2.1-.3.6-.9 1-1.6 1.1 0 0 1.3-.2 2.1-.2 1.1 0 7.8-.7 10.1-1 1-.1 2.4-.3 3.8-.5 1.7-.2 3.9-.5 4.4-.5 1.2 0 2.2-1 2.2-2.2-.3-1.4-1.3-2.3-2.5-2.3z"/><path class="st0" d="M132.3 38.4c0-.4-.1-.7-.4-.9-.1-.1-.5-.2-.9-.4 1.7-.2 3.5-.5 3.9-.6.8-.2.7-.8.5-1-.2-.2-.3-.7-.1-1 .2-.3 1.2-1.2 1.7-1.5.4-.3.6-.6.5-.7-.1-.1-1.4-1.1-1.7-1.3-.3-.2-.6-.3-1-.3-.4-.1-1.5.6-2.1.7-.4.1-4.2.7-5.9.9-.6-.3-1.6-.4-1.6-.4-.2.3-.3.4.1.8s.9 1.1 1.2 2.4c.3 1.2.4 2.2.5 2.4.1.2.2.7.6.7.2 0 .4-.3.5-.8.4 0 1.1-.1 1.9-.2 0 .4.3 1 .4 1.3.1.4.1 3.4.1 4.8-.1 1.3-.4 1.5-.8 1.5s-1.6-.4-1.9-.4c-.4-.1-.2.4-.1.5.1.1 1.5 1.8 1.7 2.2.1.4.3 1.3 1 1.2.7-.1 1.5-1.8 1.7-2.1.1-.3.1-2.1.1-2.4 0-.3-.1-1.4-.1-1.9 0-.6.2-3.1.2-3.5m-4.8-5.4c1.8-.2 6.2-.8 6.5-.9.4 0 .5.4.5.4s-.3 1.6-.4 2c-.1.5-.3.6-.9 1-.5.3-3.7.7-4.9.8v-.1c-.2-.5-.4-2.2-.8-3.2"/><path class="st0" d="M134.5 38.3c-.1-1.1-.5-2-1.2-2.6-.2-.2-.6-.4-1.4-.7.9.3 1.5 1.3 1.4 2.3-.1 1-.9 1.8-1.9 1.9 1.6-.2 3.5-.5 4.1-.6 1.1-.2 1.9-.9 2.2-1.9.3-.9.1-2-.6-2.7.6.7.3 1.3.2 1.6 0 .1-.1.1-.1.1.2-.2.9-.8 1.2-1 .9-.7 1.4-1.5 1.5-2.3 0-.7-.3-1.4-.8-1.8-.2-.2-1.6-1.2-1.9-1.4-.6-.4-1.3-.6-1.8-.6-.8-.1-1.5.1-2.3.4-.2.1-.5.2-.6.2-.4.1-3.5.5-5.1.8l-.7.1c.4-.1.9 0 1.2.2-1-.4-2.1-.6-2.3-.6-.8-.1-1.6.3-2.1 1.1-.6 1.1-.5 2.2.3 3.3.2.3.6.7.8 1.5.2.7.3 1.3.4 1.7.1.4.1.6.2.9.6 1.8 1.8 2.1 2.5 2.2 1.2.1 2.5-.7 2.7-2.7-.1 1-1 1.8-2.1 1.9.4 0 1.1-.1 2.1-.2-.6.1-1.2-.1-1.6-.5-.5-.4-.7-.9-.8-1.5 0 .6.2 1.2.4 1.7v.1c-.1-.2-.1-.3-.1-.3.1.5.1 3 0 4.3v.4c.1-.4.6-.9 1.2-1h.2c-.1 0-.6-.1-.8-.2-.3-.1-.6-.2-.8-.2-1.1-.2-2.2.4-2.6 1.4-.4 1-.1 2.3.9 3-.2-.1-.3-.2-.3-.2.2.3 1.1 1.3 1.2 1.6 0 0 0-.1-.1-.2v.1c.8 2.5 2.3 2.7 3.2 2.6 1.7-.1 2.7-1.7 3.4-3.2.1-.3.4-.9.3-3.5v-.5c0-.5 0-1.1-.1-1.5v.1c0-.2.1-1.2.1-1.7.4-1.2.4-1.6.4-1.9-.1-1.2-1.1-2.1-2.3-2.1-1.2.1-2.1 1.1-2.1 2.3v-.1c0 .2 0 .8-.1 1.2-.1 1.3-.1 1.9-.1 2.3 0 .3.1.9.1 1.3v2.4s0-.2.2-.5c-.5.9-.7 1.2-.7 1.2.1-.1.4-.3.8-.3.7-.1 1.2.4 1.4.7 0 0-.1-.2-.1-.3 0-.1 0-.1-.1-.2-.3-.9-2-3-2.5-3.3.7.5 1 1.4.6 2.2-.4.9-1.3 1.4-2.1 1.2.1 0 .2.1.4.1.9.2 1.5.4 2.1.4 1.2-.1 2.7-.8 2.8-3.6 0 0 .2-4.5-.2-5.5 0-.1-.1-.2-.1-.3 0-.1-.2-.4-.2-.5 0-.6-.3-1.1-.8-1.5-.5-.4-1-.6-1.6-.5-1.1.1-1.6.2-1.7.2-1.1 0-1.9.8-2.1 1.9.1-.4.8-1.1 1.8-1.1.8 0 1.3.6 1.4.9v-.2.1c0-.1 0-.2-.1-.4-.1-.5-.2-1.2-.4-2-.4-1.7-1.3-2.8-1.6-3.2.3.4.4 1.1.1 1.7-.4.7-1.2 1.1-2.1 1.1.2 0 .6.1.8.2.4.2.8.2 1.2.2l.7-.1c2.4-.4 4.8-.7 5.2-.8.5-.1.9-.3 1.4-.4.2-.1.5-.2.6-.2 0 0-.3.1-.6 0 .2 0 .3.1.3.1s-.1 0-.1-.1c.2.1 1.3 1 1.5 1.1-.5-.4-.7-.9-.8-1.5 0-.7.3-1.1.4-1.2l-.1.1c-.2.2-1.7 1.3-2.2 2.1-.7 1.1-.6 2.7.3 3.7-.4-.4-.5-1-.3-1.6.2-.6.7-.9 1-1-.4.1-2.1.3-3.8.5-1 .1-1.8.9-1.9 1.9-.1 1 .5 1.9 1.4 2.3.4.1.5.2.5.2s-.1 0-.2-.1c-.4-.3-.5-.6-.5-.7.1 1.2 1.1 2.1 2.3 2.1 1.3-.2 2.2-1.2 2.2-2.4z"/><path class="st0" d="M127.7 35.2c1-.1 2.6-.3 4.1-.5 1-.1 2.2-.3 2.4-.3-.6 0-1.4-.3-1.7-1.1-.1-.3-.1-.7-.1-1-.1.7-.3 1.6-.4 1.8 0-.1.2-.3.3-.4 0 0-.1 0-.2.1.1-.1.2-.1.2-.1-.3.1-1.5.3-4.3.6 1.1-.1 2.2.7 2.4 1.8V36l-.1-.3c-.2-.9-.4-2.3-.8-3.4s-1.7-1.7-2.8-1.3c-1.1.4-1.7 1.7-1.3 2.8.3.7.5 1.9.6 2.6l.1.4v-.1.1c.2 1.1 1.2 1.9 2.4 1.8 4.8-.5 5.4-.9 5.8-1.1.9-.5 1.6-1.1 1.9-2.3.2-.5.4-1.8.5-2.3.1-.3 0-.7-.1-1-.3-1-1.3-2-2.7-2-.2 0-.6.1-2.7.3-1.4.2-3.1.4-4 .5-1.2.1-2 1.2-1.9 2.4.2 1.4 1.3 2.2 2.4 2.1zM125 38.9c-.2-.1-.3.5-.5.8-.3.4-.8 1.3-1.2 1.8-.4.5-.8 1.3-.8 2.2 0 .9.3 1.1.7 1 .4 0 1.8-1.7 2.1-2.2.3-.5.5-2 .5-2.4 0-.2-.4-1-.8-1.2"/><path class="st0" d="M125.7 36.9c-.3-.1-2-.6-2.9 1.5 0 .1-.1.1-.1.2-.1.2-.2.3-.4.6s-.5.8-.7 1.1c-.9 1-1.4 2.3-1.3 3.6 0 .7.1 1.7 1 2.5.4.3 1.1.7 2.1.7 1-.1 1.7-.7 2.5-1.6.4-.5 1-1.1 1.2-1.6.6-1 .8-3 .8-3.5 0-1.2-.7-3-2.2-3.5-1.1-.4-2.3.2-2.7 1.3-.4 1.1.2 2.4 1.3 2.8-.5-.2-.7-.5-.7-.5v.1-.3c0 .3-.2 1.2-.3 1.4l.1-.1c-.2.3-.9 1.2-1.2 1.4 0 0 .3-.2.8-.3.7-.1 1.5.6 1.6 1.2v-.1c0-.3.2-.6.3-.8.4-.5.8-1.1 1.1-1.6.1-.2.2-.3.3-.4.2-.3.3-.6.4-.8v-.1c-.3.6-1.3 1.3-2.4.9 1.1.4 2.4-.2 2.7-1.4.5-1.1-.2-2.3-1.3-2.7zM139.2 40.6c-1.3-.9-3.8-1.4-4.3-1.2-.3.1.3.8.6 1.1l3.6 3.6c.3.3.9.6 1.1-.3.2-.9.3-2.3-1-3.2"/><path class="st0" d="M140.4 38.8c-1.3-.9-4.8-2.1-6.4-1.3-.7.3-1.2.9-1.3 1.6-.2 1.2.5 2.2 1.2 2.9.2.3 3.4 3.4 3.8 3.7.8.7 1.9 1 2.8.7.4-.1 1.5-.6 1.8-2.1.5-2.3-.2-4.3-1.9-5.5-1-.7-2.3-.4-3 .6-.7 1-.4 2.3.6 3 .1.1.3.2.1.9.1-.3.4-.8 1-1 .6-.2 1.1 0 1.4.2-.3-.3-3.2-3.1-3.5-3.4-.1-.1-.2-.2-.2-.3.1.2.3.7.1 1.4-.2.6-.6 1-1.1 1.3-.3.1-.6.1-.6.1.4 0 2 .4 2.8.9 1 .7 2.3.4 3-.6.6-1.1.3-2.4-.6-3.1zM171.9 31c-.4 0-1.6.2-2.9.5 1.2-1.6 3.5-4.6 3.5-4.9 0-.4-1.2-1.9-1.9-1.6-.3.1-.3.4-.2.6 0 .2.1.7-.1 1.2-.2.4-1.8 3.1-3 5-.4.1-.8.1-1.1.2 0-.7.1-2 .1-3.3 1.3-.2 2.5-.6 2.8-.8.7-.6.4-1 .2-1.2-.2-.2-1-.3-1.5-.2-.3.1-.7.3-1.4.5 0-.6 0-1.1.1-1.3.1-.9.3-2.1.4-2.5.1-.4.1-1-1-1.4-1.1-.4-1.7-.3-1.7-.3-.2.3-.1.7.1 1 .2.3.6.8.6 1.4v3.5c-.4.1-.8.1-1.2.2-2.6.4-2.5.5-2.5.5-.1.2.4.7 1.7.9.4.1 1.2 0 2-.1v3.2c-1.8.2-4.8.5-5.5.6-.8 0-2.8.1-2.8.1-.1.3.3 1 1.5 1.5 1.3.5 3.8-.4 3.8-.4s2.6-.6 4.7-1.1c-.1.2-.2.3-.3.4-.4.5-1.4 1.5-2.4 2.6-.2-.1-.5-.2-.9-.1-.1 0-.1.5 0 1-1 1-1.8 1.9-2.1 2.2-.7.7-3.9 3.7-4.3 4-.4.3-.4.6-.3.6.1.1 2.4-1 3.7-2.1.5-.4 1.8-1.8 3.3-3.3 0 .3 0 .5.1.7v4.6c0 .3.2 1.1.7 1.2.1 0 .2-.5.3-1.4.3-.1.9-.3 1.6-.3.6-.1 1.3-.1 1.9-.2.2.8 1.1 2.6 1.6 2.5.7 0 1.1-2 1.1-2.2 0-.1 0-2-.1-3.4s.1-2.7.2-2.9c.1-.3.7-.6.3-.9-.4-.4-2-1.1-2.3-1-.3 0-.4.2-.7.4-.2.1-1.3.3-2.3.5 1.4-1.4 2.5-2.7 2.9-3.2h.1c2-.3 4.5-.1 4.6-.4-.3-.3-.6-1.1-1.4-1.1m-3.9 5c.3 0 .6.4.6.6.1.7 0 5.7 0 5.7s-1-.5-1.5-.6c-.4 0-2.2.4-3 .5 0-.8.1-1.8.1-2.6 2 .1 2.9-.1 3.3-.2.4-.1.4-.7 0-1-.4-.3-1.7.1-2.2.3-.3.1-.7.1-1 .2V37c0-.1.1-.1.1-.2 1-.2 3.3-.7 3.6-.8"/><path class="st0" d="M171.8 28.9c-.4 0-1.3.2-3.2.5.9-.2 1.8.2 2.2 1 .5.8.4 1.7-.1 2.4l.6-.8c3.1-4.1 3.2-4.3 3.3-5.1.2-1.6-1.4-3-1.7-3.2-1.3-1-2.5-.9-3-.7-1.1.4-2 1.5-1.6 3.1v-.2c-.2.4-1.7 3-2.9 4.7.3-.5.8-.8 1.4-.9l-1.1.2c.6-.1 1.3.1 1.8.5s.8 1 .7 1.7v-.4l.1-2.9c0 1-.8 1.9-1.8 2.1 2.8-.5 3.5-1 3.7-1.2 1-.8 1.3-1.7 1.3-2.3 0-.8-.3-1.6-1-2.2-1-.9-2.7-.9-3.6-.6-.1 0-.3.1-.4.1-.2.1-.5.2-1 .3.7-.2 1.4-.1 1.9.4s.9 1.1.8 1.8c0-.9 0-1.1.1-1.2.1-.8.2-1.8.3-2 .5-1.4 0-3.3-2.2-4.1-1.6-.6-2.7-.4-3-.4-.6.1-1.1.5-1.4 1.1-.6 1-.4 2.3.3 3.3.2.3.2.4.2.4v-.1 3.3c0-1 .7-1.9 1.7-2.1-.3.1-.7.1-1.1.2-1.1.2-1.8.3-2.3.4-.4.1-1.5.4-1.9 1.6-.3.8 0 1.6.5 2.2-.6-.6-.8-1.5-.5-2.3-.3.7-.2 1.4.2 2.1.6.9 1.7 1.6 3.3 1.8.6.1 1.4 0 2.5-.1-.6.1-1.2-.1-1.7-.5s-.7-1-.7-1.6v3.2c0-1.1.8-2 1.9-2.1-1.9.2-4.8.5-5.3.6-.8 0-2.7.1-2.7.1-.8 0-1.5.5-1.9 1.2-.3.6-.3 1.4-.1 2.1.4 1 1.4 1.9 2.8 2.4 1.8.7 4.5-.1 5.2-.4-.1 0-.1 0-.2.1 0 0 2.5-.6 4.6-1-.9.2-1.8-.2-2.3-1-.5-.8-.4-1.7.1-2.5-.1.2-.2.3-.2.3-.3.4-1.1 1.2-2.4 2.5.7-.7 1.7-.9 2.6-.4-.7-.4-1.5-.5-2.4-.3-.3.1-1.8.5-1.8 2.5 0 .2 0 .5.1.9-.1-.6.1-1.3.6-1.8l-2.1 2.1c-.6.6-3.8 3.5-4.1 3.8-1.1.9-1.2 1.8-1.2 2.3 0 .7.4 1.4 1 1.8 1.2.8 2.4.1 3.6-.5.6-.3 1.7-1 2.6-1.8.7-.6 2.4-2.4 3.4-3.4-.6.6-1.5.8-2.3.6-.8-.3-1.4-1-1.5-1.8v5c0 1 .6 2.9 2.3 3.3.6.2 1.3 0 1.8-.4.9-.6 1-1.6 1.1-2.9-.1.9-.7 1.6-1.5 1.9.1 0 .7-.2 1.2-.2l1.8-.1c-1 .1-1.9-.6-2.2-1.5.2.6.5 1.4.9 2 .3.5 1.2 2.2 2.9 2.1.8-.1 2-.5 2.7-2.4 0 0 .4-1.2.4-1.9 0-.3 0-2.1-.1-3.5 0-1.1.1-2 .1-2.2v.1c-.1.4-.3.6-.4.6.2-.3.9-.9.9-2 0-.7-.3-1.3-.8-1.8-.6-.6-2.8-1.7-3.9-1.6-.9.1-1.4.5-1.6.6l.1-.1c.1 0 .2-.1.2-.1-.1 0-.5.1-2 .4.9-.2 1.8.3 2.3 1.1.4.8.3 1.8-.3 2.5.9-1 2.5-2.7 3-3.3-.4.5-.9.7-1.4.8h.1c.8-.1 1.7-.1 2.5-.2.6 0 1 0 1.4-.1.4 0 1.8-.2 2.3-1.5.4-.8.2-1.9-.3-2.7-.1-1.3-1.1-1.8-2.2-1.7-1.2.1-2.1 1.1-2 2.3.1 1.2 1.1 2.1 2.3 2-.4 0-.8-.2-1-.5-.3-.4-.3-.9-.1-1.4.3-.8 1.1-1.1 1.3-1.2-.2 0-.8.1-1.3.1-.8 0-1.9.1-2.9.2h-.1c-.6.1-1.1.4-1.4.8-.2.3-1.1 1.3-2.8 3.1-.6.7-.8 1.7-.3 2.5.4.8 1.4 1.3 2.3 1.1 2.2-.4 2.5-.5 2.8-.6.4-.2.7-.4.8-.5-.2.1-.5.3-.8.3h-.4c.3.1 1 .4 1.2.6l-.1-.1c-.7-.7-.7-1.9-.1-2.5-.2.2-.5.5-.7 1.1-.2.6-.4 2.2-.3 3.7.1 1.3.1 3 .1 3.3v-.3c0 .2-.2.7-.3.9.1-.1.5-.6 1.2-.6s1.2.3 1.3.5c-.2-.2-.6-1-.7-1.5-.3-1-1.2-1.6-2.2-1.5l-1.9.2c-.9.1-1.7.3-2.1.4-.8.3-1.4 1-1.5 1.9 0 .6-.1.7-.1.8.1-.2.3-.7.9-1.1.5-.3 1.1-.4 1.6-.2.5.1.8.5.9.6v.2V38.9c0-.3 0-.6-.1-.9-.1-.8-.7-1.5-1.5-1.8-.8-.3-1.7-.1-2.3.6-1.8 1.9-2.8 2.9-3.1 3.1-.9.8-2.5 1.6-2.8 1.7.3-.1 1-.2 1.7.3.5.4.9 1 .9 1.6 0 .7-.3 1.1-.5 1.3.5-.4 3.9-3.5 4.5-4.2l2.1-2.2c.5-.5.7-1.1.6-1.8v-.5c0 .6-.5 1.6-1.6 1.8-.1 0-.4 0-.6-.1.9.5 1.9.3 2.6-.4 1.3-1.4 2.1-2.2 2.5-2.7.1-.1.3-.3.4-.5.5-.7.6-1.7.1-2.5s-1.4-1.1-2.3-1c-2.1.4-4.7 1-4.8 1.1-.1 0-.1 0-.2.1-.8.3-2 .5-2.3.4-.3-.1-.4-.2-.4-.2.2.2.4.9 0 1.7-.4.7-1.1 1.2-1.9 1.2.1 0 2 0 2.8-.1.8 0 3.9-.4 5.6-.6 1.1-.1 1.9-1 1.9-2.1v-3.3c0-.6-.3-1.2-.7-1.6-.5-.4-1.1-.6-1.7-.5-.9.1-1.3.1-1.4.1-.4 0-.5-.1-.5-.1.4.2.9 1.1.5 2.2.3-.8.1-1.7-.5-2.3.5.5.8 1.3.6 2.1-.2.9-1 1.4-1.3 1.5 0 0 .4-.1 2.1-.4.5-.1.9-.1 1.3-.2 1-.2 1.7-1.1 1.7-2.1 0-3.3 0-3.6-.1-3.8-.1-.8-.5-1.6-1-2.4.2.3.3.8 0 1.3-.3.6-.8 1-1.4 1.1h-.2s.2 0 .6.1h.1c-.2-.1-.5-.7-.4-1.3-.2.7-.4 2.2-.5 3 0 .2 0 .7-.1 1.4 0 .7.3 1.4.8 1.8.5.4 1.3.6 1.9.4.6-.2 1-.3 1.3-.4.1 0 .2-.1.2-.1h-.1.2c-.1 0-.3-.1-.6-.3-.3-.3-.5-.7-.5-1.2 0-.6.3-.9.4-1 .1-.1.2-.1.2-.1-.1.1-.8.3-2.1.5-1 .2-1.7 1-1.8 2.1l-.1 2.9v.4c0 .6.2 1.3.7 1.7.5.4 1.1.6 1.8.5l1.1-.2c.6-.1 1.1-.4 1.4-.9 1.1-1.7 3-4.7 3.2-5.3.4-.9.4-2 .2-2.6.2.7-.3 1.7-1.2 2-.5.2-1 .1-1.1 0l.3.3c-.1-.1-.2-.5-.1-.9 0-.4.2-.6.2-.7-.3.5-1.8 2.5-2.6 3.6l-.6.8c-.5.7-.6 1.7-.1 2.4.5.8 1.3 1.2 2.2 1 1.5-.3 2.4-.4 2.7-.4 1.2-.1 2.1-1.1 2-2.3.3-1.3-.7-2.2-1.9-2.1z"/><path class="st0" d="M168.1 38.2c-.5 0-1-.1-1.3-.5-.4-.4-.4-1-.4-1.3v5.9c0-.8.4-1.5 1.1-1.8.7-.4 1.5-.4 2.1 0-.4-.2-1.5-.8-2.4-.8-.3 0-.8-.1-3.6.6.7-.2 1.3 0 1.9.4.5.4.8 1.1.8 1.8 0-.8.1-1.7.1-2.7 0 .6-.3 1.2-.7 1.6-.4.4-1 .6-1.6.6 1.6.1 3 0 4-.3s1.7-1.1 1.8-2.1c.2-1.1-.3-2.2-1.2-2.8-1.1-.7-2.5-.4-3.9 0h-.1c-.1 0-.3.1-.7.1.6-.1 1.2.1 1.7.5s.7 1 .7 1.6v-2c0 .5-.2 1.1-.6 1.5l.1-.1.1-.1c-.3.3-.7.5-1.1.6 1.3-.3 3.2-.7 3.5-.8-.1.1-.2.1-.3.1 1.2-.1 2.1-1.1 2-2.3-.1-1.2-1.1-2.1-2.3-2-.5 0-3.5.7-4 .8-.4.1-.8.3-1.1.6l-.1.1-.1.1c-.4.4-.6.9-.6 1.5v1.9c0 .6.3 1.2.7 1.6.5.4 1.1.6 1.7.5.6-.1 1-.2 1.3-.3h.1c.2-.1.9-.2 1.1-.2 0 0-.3 0-.7-.3-.5-.3-.8-.9-.7-1.5.1-.6.6-1.2 1.2-1.4-.5.2-1.4.2-2.5.1-.6 0-1.2.2-1.6.6-.4.4-.7 1-.7 1.6 0 1 0 1.9-.1 2.6 0 .7.3 1.3.8 1.8.5.4 1.2.6 1.9.4 1.6-.4 2.3-.5 2.5-.5h-.2c.1 0 .5.2.8.3.7.4 1.5.3 2.1 0 .7-.4 1.1-1.1 1.1-1.8 0-1.9 0-5.3-.1-6v.5c.1-.8-.2-1.6-.8-2.1-.6-.6-1.3-.9-2.1-.8-1.2.1-2.1 1.1-2 2.3.2 1.1 1.2 2 2.4 1.9zM180.7 36.3c-.2-.4-1.7-1.9-3.3-2.5 0 0-.3-.1.1-.7.3-.6 1.9-2.8 2.5-3.4.6-.5 1.5-1.3 1.5-1.3l.1-.4s0-.3-.8-.8c-.7-.5-1.1-.6-1.1-.6l-1-.1s-.6.8-2.4 1.3c-1.2.3-1.9.4-2.5.4-.4-.2-.8-.3-1.1-.2-.3.1-.2.7-.1.8.1.1.4.4.4.9 0 .6.2 3.4.2 5.3v13.9c0 .3.2.4.5.4s.8-1.1.9-1.7c.1-.6.1-7.2.1-8.6 0-1.3-.1-9.5-.1-10.2.8 0 2.1 0 3.4-.5l.1.3s-.7 2.1-1.1 3c-.4 1-.9 1.9-.9 2.2 0 .3 0 .3.3.6.3.2 2.1 1.5 2.6 2.7.6 1.1.7 1.8.5 2.1-.1.3-.7.3-1.7.1-1-.2-2.2-.5-2.2-.5s-.4 0-.3.1c.1.2.9.8 1.3 1 .3.2 2.2 1.6 2.6 1.8.3.3.9.8 1.3.8s.9-.8 1-2.6c.5-1.7-.6-3.2-.8-3.6"/><path class="st0" d="M182.5 35.2c-.5-.8-2.4-2.6-4.3-3.4.1 0 .2.1.3.1.5.3.8.7 1 1.2.2.5 0 1 0 1.1.3-.5 1.7-2.4 2.1-2.8.6-.5 1.5-1.2 1.5-1.2.3-.2.5-.5.7-.9l.1-.4c.1-.3.2-.7.1-1.1-.1-.6-.4-1.5-1.7-2.3-.9-.6-1.4-.8-1.5-.9-.2-.1-.4-.1-.6-.1l-1-.1c-.7-.1-1.5.2-1.9.8l.1-.1s-.4.4-1.3.6c-1.1.3-1.7.3-2.1.4.3 0 .7.1 1 .2-1-.5-1.8-.6-2.5-.4-.8.2-1.4.9-1.7 1.7-.2.8-.1 1.9.6 2.6-.1-.1-.2-.3-.2-.4 0 .5.2 3.3.2 5.1V49.1c.1 1.3 1.1 2.2 2.4 2.3.6.1 1.2-.1 1.8-.5 1.1-.8 1.5-2.5 1.6-3.1.1-.9.2-8.8.2-8.8 0-.7 0-3-.1-5.3 0-2.1-.1-4.5-.1-4.8 0 .6-.2 1.1-.7 1.5-.4.4-1 .6-1.6.6 1 0 2.6-.1 4.2-.7-.6.2-1.2.2-1.8-.1-.5-.3-.9-.8-1.1-1.4l.1.3c-.1-.4-.1-.8 0-1.2-.2.5-.7 2.1-1 2.8-.1.3-.2.5-.3.8-.5 1.1-.8 1.8-.7 2.6v.1c.1.8.4 1.3 1 1.8.1.1.1.1.3.2 1.4 1.1 1.7 1.6 1.8 1.8.3.6.4.9.4.9s0-.2.1-.6c.3-.8 1-1 1.3-1.1 0 0-.2 0-.6-.1-.9-.2-2.1-.5-2.1-.5h-.3c-1-.1-1.8.3-2.3 1-.5.7-.5 1.6-.1 2.3.4.7 1.4 1.4 2 1.8.3.2 2 1.4 2.3 1.7l.1.1c.5.5 1.5 1.4 2.8 1.2 1.2-.1 2.7-1 3-4.6.2-2.3-1-4.2-1.5-4.9.1 0 0 0 0 0-.6-1-2-1.3-3-.7-1 .6-1.3 2-.7 3 0 .1.1.1.1.2.2.4.8 1.3.8 2.2-.1.9-.2 1.3-.2 1.3.1-.2.5-.6 1.2-.7.5 0 .8.1.8.1-.1 0-.3-.2-.4-.3l-.1-.1c-.5-.4-2.5-1.8-2.8-2-.2-.1-.7-.5-.8-.6 0 0 .1.1.3.4.4.7.3 1.5-.1 2.2-.5.7-1.2 1-1.8.9h-.3c.1 0 1.3.3 2.3.5 2.7.5 3.7-.5 4.1-1.4.4-1 .2-2.3-.6-4-.6-1.3-1.9-2.3-3-3.3-.1 0-.1-.1-.1-.1.2.2.4.6.5.9v-.1c.1.4 0 .7 0 .7 0-.1.2-.5.4-.8.1-.3.3-.5.4-.8.5-1 1.1-3 1.2-3.2.1-.4.1-.8 0-1.2l-.1-.3c-.2-.6-.6-1.1-1.1-1.4-.5-.3-1.2-.3-1.8-.1-1 .4-2 .4-2.5.4-.6 0-1.1.2-1.6.6-.4.4-.7 1-.7 1.5 0 .4 0 2.1.1 5 0 2.3.1 4.6.1 5.2 0 1.7-.1 7.6-.1 8.3 0 .1-.1.4-.2.5.2-.3.8-.8 1.7-.6.6.1 1.3.7 1.4 1.5V35.2c0-2-.2-4.8-.2-5.4 0-.6-.3-1.5-1-2.3.3.3.7.8.5 1.5-.2.6-.7 1.2-1.3 1.3-.4.1-.7.1-.7.1s.1 0 .2.1c.3.1.6.2 1 .2.9 0 1.8-.2 3-.5 2.3-.6 3.3-1.7 3.6-2.1-.5.6-1.2.9-1.9.8l1 .1c-.2 0-.4-.1-.6-.1 0 0 .3.1.7.4l.1.1s-.2-.2-.3-.8c0-.4 0-.7.1-1.1l-.1.4c.1-.4.4-.7.7-.9 0 0-1 .8-1.6 1.3-.9.8-2.6 3.3-3 3.9-.6 1-.5 1.8-.4 2.3.2.6.6 1.1 1.1 1.4.1 0 .2.1.3.1.9.4 2 1.4 2.3 1.7l-.1-.1c.6 1 2 1.3 3 .7.5-.8.8-2.1.2-3.1zM202.8 103.5c-.9.2-2.4.2-2.4.2s-.3 6.1-.6 8.3c-.4 2.1-1.3 5.8-4.1 9.6-2 2.8-7.8 5-8.6 5.3-.8.4-4.8.7-5.2.4-.4-1.1 5.8-4.8 8.7-9.2 2.2-3.4 2.3-10.4 2.3-13.6-.7 0-3.7 1.4-4.2 1.5-.4.1-5.8-4.5-6.8-5.9-.2-.3-.2-.8.4-.8 3.7.2 10.9-3.7 10.9-3.7-.1-2.1.1-2.9.1-2.9-.1-.7-.2-1.9-.2-2.7.1-1.3-1.2-2.8-1.8-4-.6-1.3-2-2.5-.2-2.5 1 0 3.3.6 4.3.8 1.2.3 2.8 1.3 3.7 2 2 1.6 1.8 1.6 1.1 3.8-.6 1.8-.4 3.6-.1 3.6 1.1-.4 6 .4 4.6.2-.8-.2 3.5 1 4.5 1.2l1.4-.6c1.7-1.2 3.4-2.9 7.3-4.5 1.4-.5 3.5-1.6 6.4-2 2.9-.4 6.9-.6 9.7-.2 2.8.4 7.8 2.5 7.7 4.1.1 2.1-2.3 2.5-2.3 2.5s-.4 17.4-.6 19.5c-.3 2-2.1 3.2-2.7 2.8-.5-.4-3.6-2.6-4.1-3-.5-.4-10.4.1-10.4.1s-.1 1.7-.7 2.4c0 0-1.6.4-2.3 0-.7-.4-4.3-3.8-4.9-4.4-.2-.9 0-12.7 0-12.7s-3.4 1.9-3.6 2.6c-.6 2.8-.6 10.6-.7 13.9 0 1.9.4 6 2 7.4.6.8 1.7 1.7 3.6 2 3.7.6 15 .1 16.8-.3 2-.4 2.2-.5 3.3-1.4 1.1-.9 1.5-1.3 1.9-2.4.2-.7-.4-3.5.1-4.1.8-1 2.8 2 3.6 3.3.9 1.3 1.4 2.8 2.2 4.1 1 1.5-.6 4.4-2 5.7-1.3 1.2-6.9 1.3-9.5 1.4-2.7.1-13.7-.7-16.9-.9-3.2-.2-6.6-2.7-7.5-3.5-.9-.8-4.6-5.6-4-9.6.3-1.8-.3-11-.1-13.1l-.1-.7zm27.6-6.5c.3-.3.6-2.8-.9-3.8-3.3-.6-6.2.6-8.1 2.1-.3.5.2 3.6.2 3.6 2.5 0 4.8-.2 6.1-.4 1.4-.4 2.5-1.2 2.7-1.5m-8.3 10.9c2.3-.1 9.1.2 9-.2-.1-.4-.2-2.3 0-3.7-.5.3-7.3 1.1-8.8 1.4-.2.4-.2 2.5-.2 2.5"/><path class="st0" d="M202.3 101c-.5.1-1.4.1-2 .1-1.3 0-2.4 1.1-2.5 2.4-.1 1.7-.3 6.3-.6 8-.5 3.1-1.7 6-3.6 8.5-.5.7-2.1 2.2-7.2 4.3-.2.1-.3.1-.4.2h.1c-.6.2-3 .4-3.7.4 0 0 .6.1 1.1.5.3.3.6.7.7 1.1.3.8 0 1.4-.1 1.6.2-.3 1.3-1.3 2.2-2 2-1.7 4.7-4 6.4-6.6 2.4-3.7 2.7-10.3 2.7-15 0-1.4-1.1-2.5-2.5-2.5-.9 0-1.9.4-3.9 1.2-.3.1-.8.3-1 .4h.2c.9-.2 1.5.2 1.5.2-1-.5-5-4.1-5.6-5 .5.7.3 1.5.1 2.1-.4.8-1.2 1.1-1.8 1.1 4.2.2 10.9-3.3 12.2-4 .8-.5 1.4-1.4 1.3-2.3-.1-1.7 0-2.3 0-2.3v.1c.1-.3.1-.6 0-.9-.2-1.4-.2-2-.2-2.2.1-1.7-.8-3.2-1.5-4.4-.2-.3-.4-.7-.5-.9-.2-.5-.5-.9-.7-1.2-.1-.1-.2-.4-.3-.4.1.2.3 1-.2 1.7-.4.8-1.2 1-1.4 1 .5 0 2.2.3 3.6.7.7.2 1.9.9 2.8 1.6.5.4.8.7.9.8-.2-.2-.3-.7-.3-1 0 .1-.2.5-.3.8l-.2.4c-.6 1.6-1 4.7.4 6.1.7.7 1.7 1 2.6.7-.1 0-.2.1-.2.1.3 0 1.1 0 3.4.2l.5.1c1.9.2 2.8-1.2 2.9-2.1.1-.8-.2-2.5-2.2-2.9-1.6-.3-2.8.7-3 1.9-.2.8 0 2.4 1.9 3 .1 0 .3.1.5.1l1.4.4c1.1.3 2.2.6 2.7.7 1.1.3 2.3-.3 2.9-1.3-.4.7-1 1.1-1.2 1.2 0 0 .2-.1.3-.1.2-.1.5-.2.7-.3.2-.1.3-.1.4-.2 1.4-.7 1.7-2 1.5-2.9.2 1-.2 2-1 2.6.3-.3.7-.5 1-.8 1.4-1.1 2.9-2.2 5.7-3.3.4-.1.7-.3 1.1-.4 1.2-.5 2.8-1.2 4.8-1.5 3-.5 6.7-.5 8.9-.2 2.3.4 5.3 1.7 5.8 2.4-.1-.1-.3-.5-.2-1v.4c0-.1.1-.2.1-.2-.1.1-.3.1-.3.1-1.2.2-2.1 1.2-2.2 2.4-.1 6.7-.4 17.8-.6 19.2-.1.5-.4.8-.5.8.2-.1 1-.3 1.7.3-.5-.3-3.4-2.5-3.9-2.9-.8-.6-1.6-.7-3.4-.8-.9 0-2.2 0-3.7.1-2.5.1-5 .2-5.1.2-1.3.1-2.3 1.1-2.4 2.4 0 .3-.1.9-.2 1 0 0 0-.1.1-.2.4-.4.8-.7 1.3-.8-.3.1-.8.1-1 .1 0 0 .1 0 .3.1.1 0 .1.1.1.1-.6-.4-3.4-3.1-4.4-4 .3.3.6.8.7 1.3v.1c-.1-.8-.1-6.9 0-12.3 0-.9-.5-1.7-1.2-2.2-.8-.5-1.7-.5-2.5 0-4.2 2.3-4.6 3.3-4.8 3.9 0 .1-.1.2-.1.3-.5 2.4-.6 7.2-.7 12.3v2.1c0 .3-.1 6.8 2.9 9.4-.1-.1-.3-.2-.4-.4.8 1.1 2.4 2.4 5.2 2.9 3.9.6 15.5.2 17.7-.3 2.3-.5 3-.8 4.4-2h.1c1.2-1 2.1-1.7 2.6-3.6.2-.8.2-1.6.1-2.6 0-.4-.1-1.2-.1-1.4 0 0 0 .4-.4.8-.7.9-2 .9-2.4.6.2.1.9.8 2 2.5.4.6.7 1.2 1 1.8.4.7.7 1.5 1.2 2.3-.1-.1-.1-.2-.1-.2.1.5-.6 1.9-1.4 2.7l.1-.1c-.7.4-3.3.7-7.6.9h-.4c-1.9.1-8.8-.4-13-.7l-3.7-.2c-2.2-.1-5-2-5.9-2.8-.8-.7-3.6-4.7-3.2-7.4.2-1.1.1-3.3 0-6.9-.1-2.4-.2-5.4-.1-6.3.1-.6-.1-1.1-.4-1.6l-.4-.7c.1-1.2-.9-1.7-2-1.5zm-1.6 2.9c-.1 1.2-.1 3.4 0 7 .1 2.2.2 5.3.1 6-.8 5.4 3.9 11 4.8 11.8 0 0 4.3 3.9 9 4.1l3.6.2c6 .4 11.5.7 13.5.7h.4c5.8-.2 9.1-.6 10.7-2.1 2.1-1.9 4.3-6 2.4-8.9-.3-.5-.6-1.1-.9-1.7-.4-.8-.8-1.6-1.3-2.3-2.5-4-4-4.6-5.2-4.6-1 0-1.9.4-2.5 1.1-.9 1.1-.8 2.5-.6 4.1 0 .4.1.9.1 1.1 0 0 0-.1.1-.3-.1.4-.1.4-1 1.1h-.1c-.7.6-.7.6-2.2.9-1.5.3-12.5.8-15.9.2-.9-.1-1.6-.5-2.1-1-.1-.1-.2-.3-.4-.4-.5-.5-1.2-3.2-1.1-5.4v-2.1c.1-3.4.2-9.2.6-11.3 0 .1-.1.2-.1.3-.1.4-.3.6-.3.6.3-.3 1.7-1.2 2.8-1.8-.8.4-1.7.4-2.5 0-.8-.5-1.2-1.3-1.2-2.2-.2 12.1 0 13 0 13.3.1.5.3.9.7 1.3 0 0 4.2 4.3 5.6 4.9 1.3.6 3 .4 4 .2.5-.1 1-.4 1.3-.8 1.1-1.2 1.3-3.2 1.3-3.9-.1 1.3-1.1 2.3-2.4 2.4 3.9-.2 8.7-.4 9.6-.2 0 0-.5-.1-.9-.5.6.5 3.7 2.8 4.3 3.2.9.6 2 .6 3.2.1 1.4-.6 3-2.2 3.4-4.7.3-2.1.6-17.9.6-19.7 0 1.2-.9 2.3-2.2 2.4 2.3-.3 4.6-2.2 4.5-5.1v.4c.3-2.9-3-4.5-4.1-5-1.7-.8-4-1.6-5.6-1.8-3.3-.5-7.7-.2-10.5.2-2.6.4-4.5 1.2-6 1.8-.4.1-.7.3-.9.4-3.5 1.4-5.4 2.9-7 4.1-.3.2-.6.5-.9.7-.8.6-1.2 1.6-1 2.6-.3-1.3.4-2.4 1.3-2.7-.1.1-.6.3-.8.3-.6.2-1.2.5-1.7 1.4.5-1.1 1.7-1.6 2.9-1.3-1-.2-4-1.1-4.4-1.2 1 .3 1.9 1.6 1.6 3-.4 1.4-1.8 2.1-2.8 1.9h.1c-1.1-.2-2.1-1.4-1.9-2.8.2-1.4 1.5-2.2 2.6-2.1h-.4c-3.1-.4-4.4-.4-5.3-.1.7-.2 1.4-.1 2 .2.7.4 1 1.1 1 1.3 0-.2-.1-1 .2-1.8l.1-.4c.4-1.1.8-2.2.4-3.4-.4-1.2-1.4-2-2.4-2.8-1.2-.9-3-2.1-4.7-2.5-.3-.1-3.4-.9-4.9-.9-1.8 0-2.6.8-3 1.6-.9 1.6 0 3 .5 3.8.1.2.3.5.4.7.2.5.5.9.8 1.4.3.4.7 1.2.8 1.5v-.1c-.1.7 0 1.7.2 3.2v-.9c-.1.3-.2 1.3-.2 3.6 0-1 .5-1.9 1.3-2.3-2.7 1.5-7.5 3.5-9.6 3.4-1.2 0-2.3.5-2.8 1.5s-.5 2.3.2 3.2c.7 1.1 2.8 3 4 4 .8.7 1.6 1.3 2.2 1.8.9.7 1.9 1.4 3.1 1.1.4-.1.7-.2 1.7-.6.6-.3 1.9-.8 2.2-.9h-.3c-1.4 0-2.5-1.1-2.5-2.5 0 6.2-.6 10.3-1.9 12.2-1.3 2-3.6 4-5.5 5.6-.9.8-1.7 1.4-2.2 2-.5.5-1.9 1.9-1.3 3.7.1.4.4.8.7 1.1.8.7 1.8.9 4.3.6 1.2-.1 2.7-.3 3.5-.7 0 0 .2-.1.3-.1 3.1-1.3 7.4-3.3 9.3-6 2.4-3.2 3.9-6.8 4.6-10.7.4-2.2.6-7.9.6-8.6-.1 1.3-1.2 2.4-2.5 2.4.2 0 1.8 0 2.9-.2-1 .2-2.1-.3-2.6-1.1l.4.7c-.1-.8-.2-1.3-.2-1.9z"/><path class="st0" d="M232.2 98.8c1.1-1.1 1-3.2 1-3.8-.2-1.7-1-3.1-2.2-3.9-.3-.2-.6-.3-.9-.4-5-1-8.8 1.5-10.1 2.6-.3.2-.5.5-.7.8-.2.5-.6 1.2-.1 5 .2 1.2 1.2 2.2 2.5 2.2 2.6 0 5.1-.2 6.6-.5 2.1-.3 3.6-1.7 3.9-2 1-1 1-2.6 0-3.6s-2.6-1-3.6 0c-.1.1-.7.6-1.4.7-1.2.2-3.4.4-5.7.4 1.3 0 2.3.9 2.5 2.2-.2-1.1-.3-2.3-.2-2.6 0 0 0 .2-.2.6-.2.3-.4.6-.7.8.8-.7 3.1-2.2 6-1.6-.3-.1-.6-.2-.9-.4-.1 0-.1-.1-.1-.1.1.2.1.6.1.9 0-.1.2-.5.5-.8-1 1-1 2.6 0 3.6 1.1.9 2.7.9 3.7-.1zM222.2 110.4H229.4c1.5 0 2.7 0 3.6-1.1.5-.6.7-1.4.5-2.2v.1c0-.3-.1-1.9 0-2.9.1-.9-.3-1.8-1-2.4-.8-.5-1.8-.6-2.6-.2.2-.1.3-.1.3-.1-.4.1-2.6.4-4.1.6-2.3.3-3.8.5-4.5.7-.7.2-1.4.7-1.7 1.3-.2.4-.4.9-.4 3.6 0 1.4 1.1 2.5 2.5 2.5s2.5-1.1 2.5-2.5c0-.7 0-1.6.1-1.8 0 0 0 .2-.2.5-.3.7-1 1.2-1.7 1.3.6-.1 2.5-.4 4.1-.6 4.1-.6 4.7-.7 5.3-1-.8.4-1.8.3-2.6-.2s-1.2-1.5-1-2.4c-.2 1.6-.1 3.9 0 4.6-.2-.7 0-1.4.4-2 .5-.7 1.2-1 1.5-1-.5.1-2.8.1-4.3 0H222c-1.4.1-2.5 1.3-2.4 2.6 0 1.6 1.2 2.7 2.6 2.6zM122.6 106.6c.3 0 .6 0 1.4-.1l15-1.5c2.1-.2 5.3-.6 6.5-.7 1.2-.1 10.9-.2 10.9-.2s4.8.1 5.6.1c.8.1 5.1.7 5.9.8.8.1 3 .4 4 .8.7.3 3 1.6 3.3 1.8 2.6 1.4 4.6 2.9 4.7 3.9 0 .2-.5 1.2-1.3 1.6-.4.2-2.4.3-2.8.3-.6 0-4-.3-4.8-.5l-6.9-1.6-6.1-1.1h-5.6c-4.2 0-6.9.5-7.5.6-.6.2-1.8.6-2.8 1.1-1.1.5-3.2 1.7-3.2 1.7-2.6 1.3-3.4 2.3-5.4 2.4-.7 0-2.9-1.5-3.5-1.9-.8-.8-3.9-2.9-5.1-3.7-.5-.4-1.7-1.3-1.9-1.5-.3-.2-1-.6-1-.7l-.7-.6c-.1-.1-.4-.6-.2-1 .2-.1 1.2 0 1.5 0"/><path class="st0" d="M122.6 109.2c.5 0 1 0 1.9-.2h-.2l15-1.5 2.1-.2c1.7-.2 3.5-.4 4.3-.5.9-.1 6.9-.1 10.8-.2h-.1c1.8 0 4.9.1 5.5.1.7 0 4.9.6 5.7.8.2 0 .4.1.6.1.6.1 2.3.3 2.8.6.4.2 1.8 1 2.4 1.3.4.2.6.3.7.4 2.4 1.3 3.3 2.2 3.5 2.4 0 0-.1-.2-.1-.5-.1-.6.1-1 .1-1 0 .1-.1.2-.1.2.2-.1.3-.1.3-.1-.3.1-1.5.1-2 .1-.6 0-3.5-.3-4.1-.4h-.1l-6.9-1.6h-.1l-6.1-1.1H152.4c-4.2 0-7.2.5-8.1.7-.8.2-2.2.8-3.2 1.2-1.2.5-3.2 1.7-3.5 1.8.1 0 .1-.1.2-.1-1 .5-1.7.9-2.3 1.3-1.1.6-1.5.9-2.1.9h.5c-.2-.1-1.1-.6-2.5-1.5.1.1.2.2.3.2-.7-.7-2.5-1.9-5-3.7l-.4-.3.1.1-.6-.4c-.8-.6-1.3-1-1.5-1.1l-.2-.2c-.1-.1-.4-.3-.5-.3.3.2.9.9.9 1.9 0-.8-.4-1.5-1-2l-.7-.6.3.3c.5.6.4 1.2.3 1.5-.1.4-.4.8-.8 1.1-.5.4-.9.4-.9.4h.6l.3.1c1.4 0 2.5-1.1 2.6-2.5 0-1.4-1.1-2.5-2.5-2.6h-.1c-1.1 0-2.3 0-3.2.7-.3.3-.6.7-.8 1.1-.5 1.4 0 2.8.8 3.6l.3.3.7.6c-.6-.5-1-1.2-1-2 0 1.4 1 2.1 1.9 2.7l.2.1c.2.1.8.6 1.2.9l.6.5.1.1.4.3c.9.6 3.8 2.6 4.4 3.2.1.1.2.2.3.2 3.2 2.2 4.3 2.4 5.1 2.4 2-.1 3.2-.8 4.5-1.6.6-.3 1.2-.7 2-1.1.1 0 .1-.1.2-.1.8-.4 2.3-1.3 2.9-1.6 1-.4 2.1-.8 2.5-.9.5-.1 3-.6 6.9-.6h5.6-.4l6.1 1.1h-.1l6.9 1.6h-.1c1.2.3 4.9.6 5.5.6 1.3 0 3.1-.1 4-.5 1.4-.7 2.8-2.5 2.7-4.1-.1-1.2-.9-3.2-6-5.9-.1 0-.3-.2-.6-.3-1.2-.7-2.3-1.3-2.9-1.6-1.1-.5-2.7-.8-4.2-1-.2 0-.4-.1-.5-.1-.7-.1-5.2-.7-6.1-.8-.9 0-5.2-.1-5.7-.1h-.1c-1 0-9.8.1-11.1.2-.9.1-2.8.3-4.6.5l-2 .2-15 1.5h-.2c-.5.1-.7.1-.9.1-1.4 0-2.5 1.1-2.6 2.5-.2 1.2.9 2.3 2.3 2.4zM91.3 123.5c0 1.4-.2 7.1-.6 8.5-.1 1.6-2 2.1-4.1 2.2-2.1.1-5.5-3.2-5.8-4.7-.3-1.4 1-.4 1.2-1.5.3-2 .2-9.5.2-9.5l-2.2.2s-2.8 5.8-6.2 8.6c-1.1 1.1-5.9 2.9-7 3-1.1.1-5.8-.5-5.8-.5 2.1-.8 3.6-1.5 4.6-1.9 2.3-1 3.8-2 6-4.1 1.5-1.3 2.2-4.5 2.2-4.5l-1.7.3s-1.8.5-2.4.6c-.6.1-2.2.7-3.5.5-1.3-.2-2 .1-2.9-1-.5-.7-.8-2.6-.9-3.6-.1-.9 2.4-2 2.9-3 .4-.9 1.1-1.9 1.9-3.9.1-.3 1.7-3 2-3.2.9-.3 6.8-.9 8.6-1.1 2-.1 4-.4 6.1-.6 0-.3-.4-1.7-.4-2.1-.7.1-2.7.6-3.4.6-1.3.1-3.1.5-4.4.6-1.9.1-6.6 1.3-8.6.9-1.4-.3-4.7-2.2-3.8-3.3 1.4-1.6 9.3-1.5 11.2-1.9-1.1-1.1-1.3-2.3-2.3-3.4-1.6 1.2-2.2 1-3.9 2.2-1.5 1-2.4 1.4-3.2 1.7-.5.2-1.3.8-1.8.9-.8.1-2.9.3-2.9.3s2.2-1.9 2.8-2.5c.5-.5.8-1.3 1.3-1.7 1.6-1.5.2-.6 1.5-2 1.1-1.2 1.3-1.9 2.2-3.3.4-.5 1.4-2.4 1.3-3.1-.1-1.5-.2-3 .2-3.3.4-.3 5.3.3 6.8 1.2.7.4 2.4 1.4 2.4 2.2 0 0-.5 1.9 0 1.6.5-.3 2.7-1.3 4-1.6 1.3-.3 5.7 0 6.3.6.6-.5.9-1.3 1.2-2.1.7-1.5 1.1-2.1 1.7-3.1.9-.7 2-.6 3.4 0s2.6 1.7 4.1 2.2c.7.4 1.9 1.5 2.1 1.9 1-.1 3.1.4 4.5-.4 1.8-.3 2.2-1.1 4.1-.9 1.8.2 5.3 1.4 4.1 2.6-.1 1-5.1 1.5-8.6 1.5-.7.1-3.7 4.1-4.2 4.1 2.9.1 4.4.8 4.4.8 1.9 1.9 3.6 2.7 2.8 4.3-.2.5-4.2 2.8-4.6 3.2-.1.1-2.3 1.4-2.4 1.5 0 .2-.9 0-.9.2 0 .8-.3 2.3-.3 2.3-.6.2-2.8.3-3.4.4-1.5.2-2.5 0-4 .1-1.4.1-1.2-.1-1.7 0 0 .4-.1 2.7-.1 3.1.2.1 1-.2 1.1-.2 1.8-.2 2.3-.4 4.1-.5 2.8-.2 5.7-.3 8.5-1.1 1-.3 2.6-.1 3.6.4 1.1.5 1.7.5 2.8 1.1.9.5 4.7 3.4 4.4 4.4-.3 1-1.8 2.6-2.4 3.2-.9.7-2.1 2-3 3.1-.9 1.1-3.1 4.4-3.4 5-.3.6-1.3 2.2-2.2 2.7-.9.4-1.9.4-3.1-.1-1.1-.5-1.3-1-2.4-2.3-1.1-.7-1.8-.5-2.5-1.1-.7-.6-5.8-1.5-4.3-1.7h-1.3zm9.4-3.5c1.1-.9.6-3.4.6-3.4l-10 .6s.1 2.6.1 3.2l9.3-.4zM83 109.2c-2.3-.2-7.6.9-7.6.9l-1.7 2.3c3-.6 7.1-.2 9.2-.6-.1-.5.1-2 .1-2.6m-.1-11.5c.6-.9.4-.5 1.2-1.3.6-.6.4-.7 1-1.3 0-.1 1.3-1.4 1.2-1.5-1.5.2-5.9.6-5.9.6s.4 2.1.7 4l1.8-.5zm5.8-1c2.1-.3 5.4-.8 6.5-1.2 1.1-.4 1.5-3.5 1.5-3.5l-1.5-.1s-1.5 1.6-3.9 3.1l-2.6 1.7zm7.6 3.9c-1.5-.3-3.7 0-5.1.2.1.9 0 1.7.1 2.4 1.2-.2 2.8 0 4-.2.1-.7.5-.6.7-1.4l.3-1z"/><path class="st0" d="M88.8 123.5c0 2.3-.2 6.8-.5 7.7-.1.2-.1.4-.1.6 0-.2.2-.5.3-.5 0 0-.5.3-2 .4h.1c-.8-.1-2.9-2-3.3-2.8v.1c.1.8-.6 2-1.6 2.1 2.2-.4 2.7-2 2.8-2.7.4-2.2.3-8.7.2-9.9 0-.7-.3-1.4-.8-1.8-.5-.5-1.2-.7-1.9-.6l-2.2.2c-.9.1-1.7.6-2.1 1.4-.7 1.5-3.1 5.7-5.5 7.7l-.2.2c-.8.7-4.6 2.1-5.5 2.2-.6 0-3.2-.2-5.3-.5 1.1.1 2 1.1 2.2 2.2.1 1.1-.5 2.2-1.6 2.6 2.1-.8 3.5-1.5 4.6-1.9l.2-.1c2.5-1.1 4.2-2.3 6.7-4.5 1.9-1.7 2.8-5.1 3-5.7.2-.8 0-1.7-.6-2.3-.6-.6-1.4-.9-2.3-.8l-1.7.3c-.1 0-.2 0-.2.1-.8.2-1.9.5-2.2.6-.3 0-.5.1-.9.2s-1.4.4-1.8.3c-.4-.1-.8-.1-1.1-.1h-.4c.1 0 .3.1.4.2v-.1c0 .1.1.1.1.1-.1-.3-.4-1.4-.5-2.5.1.7-.2 1.1-.3 1.3.1-.1.5-.4.8-.6.8-.6 1.7-1.3 2.2-2.3.1-.3.3-.6.5-.9.4-.7.9-1.7 1.5-3v.1c.2-.4 1.2-2 1.5-2.4 0 0-.3.4-.9.6.8-.2 6-.8 8-1 1.4-.1 2.9-.3 4.3-.4l1.9-.2c1.4-.1 2.4-1.4 2.3-2.7 0-.3-.1-.7-.2-1.3-.1-.3-.1-.7-.2-.8-.1-1.4-1.3-2.4-2.7-2.3-.5 0-1.1.2-2.1.4-.4.1-1.1.2-1.3.2-.7.1-1.6.2-2.4.3-.7.1-1.4.2-2 .3-.7.1-1.7.2-2.8.4-1.5.3-4.2.7-5 .5-.5-.1-1.9-.9-2.2-1.3.3.3.4 1.4-.3 2.1l-.2.2c.9-.5 4.9-.8 6.6-1 1.5-.1 2.7-.2 3.4-.4.9-.2 1.6-.9 1.9-1.8.3-.9 0-1.9-.7-2.5-.3-.3-.4-.6-.7-1.1-.4-.7-.8-1.5-1.6-2.3-.9-.9-2.3-.9-3.3-.2-.6.5-1 .6-1.5.9-.6.3-1.3.6-2.3 1.3-.9.7-1.6.9-2.2 1.2-.2.1-.5.2-.7.3l-.6.3c-.2.1-.6.3-.7.4h.2c-.5.1-1.9.2-2.7.3 1.1-.1 2.1.5 2.5 1.5.4 1 .2 2.2-.7 2.9.5-.5 2.4-2.1 3-2.8.3-.3.5-.7.7-1 .1-.2.3-.5.4-.6.9-.9 1.6-1.5 1.7-2.7 0 .4-.2.7-.3.8 0 0 .1-.1.3-.4.9-1 1.3-1.7 1.8-2.4.2-.3.4-.7.7-1.1.2-.3 1.9-2.9 1.8-4.7-.1-1.5-.1-1.9-.1-2 0 .2-.2.6-.7 1-.5.4-1 .4-1 .4.9-.1 4.2.5 5 .9.1.1.2.2.4.2.3.2 1 .6 1.2.8-.1-.1-.3-.4-.3-.9 0-.2 0-.4.1-.6-.3 1-.8 3.1.8 4.3.9.6 2 .7 3 .1.4-.2 2.3-1.1 3.2-1.3.8-.2 3.8 0 4.5.3 0 0-.3-.1-.5-.4.9.9 2.4 1 3.4.2 1.1-.9 1.6-2.2 2-3.2 0 .1 0 .1-.1.2.6-1.4 1-1.8 1.5-2.7-.2.2-.3.4-.5.6h-.1s.2 0 .9.3c.5.2 1 .6 1.6.9.7.5 1.6 1 2.5 1.4-.1 0-.2-.1-.3-.2.3.2 1.1.8 1.3 1.1 0 0-.1-.1-.1-.2.5.9 1.5 1.5 2.5 1.4h.8c1.3.1 3.2.2 4.8-.8-.3.2-.6.3-.9.3 1-.2 1.7-.5 2.3-.7.6-.2.7-.3 1.1-.2 1 .1 2.2.6 2.6.8-.1-.1-.4-.5-.5-1.1 0-.6.2-1.1.5-1.4-.4.4-.7 1-.7 1.5.1-.8.6-1.4.9-1.5-.6.3-3.6.8-6.9.8h-.3c-1.3.2-2.2 1.2-3.9 3.1-.4.5-1.1 1.2-1.3 1.4.2-.1.7-.4 1.4-.4-1.4 0-2.6 1-2.6 2.4s1 2.6 2.4 2.6c2.2.1 3.4.6 3.5.6-.3-.1-.5-.3-.7-.5.5.5 1 .9 1.4 1.3.4.3.9.8 1 .9-.1-.2-.2-.6-.1-.8.2-.4.4-.5.4-.5-.3.3-1.9 1.3-2.7 1.8-1.1.7-1.5.9-1.7 1.2l.2-.2c-.1.1-.5.3-.8.5-1.5.9-1.9 1.1-2.2 1.6-.3.5-.5 1-.5 1.6-.1-1.5 1.2-2.5 2.1-2.5h-.1c-2.8.1-2.9 2.5-2.9 2.6 0 .4-.1 1.3-.3 1.9.2-.9.8-1.6 1.7-1.9h.1c-.4.1-1.9.2-2.4.3h-.5c-.6.1-1.1.1-1.7 0-.6 0-1.3 0-2.2.1h-.7c-.3 0-.6-.1-1.1 0-1.2.1-2.1 1.1-2.2 2.3 0 .3 0 .8-.1 1.8v1.2c-.1 1.2.6 2.3 1.8 2.6.8.3 1.6.1 2.2-.1h.1-.3.1c.9-.1 1.5-.2 2.1-.3.6-.1 1.1-.2 1.9-.2l1.4-.1c2.5-.2 5-.4 7.6-1.1.3-.1 1.3 0 1.7.2.7.3 1.2.5 1.6.7.4.1.6.2 1 .4.7.4 2.9 2.1 3.3 2.8-.1-.1-.3-.7-.1-1.3-.2.4-1.1 1.5-1.6 1.9-1.1.9-2.5 2.4-3.3 3.4-.9 1.2-3.2 4.6-3.6 5.4-.2.5-.8 1.3-1.1 1.5l.1-.1c-.1.1-.4.2-1-.1-.3-.1-.3-.1-.9-.8-.2-.2-.4-.5-.7-.8-.2-.2-.3-.4-.6-.5-.9-.6-1.6-.8-2.1-.9-.1 0-.2-.1-.3-.1 0 0 .1 0 .1.1-.7-.6-1.8-.9-3.5-1.4-.5-.1-1.2-.3-1.4-.4.6.3 1.4 1.2 1.3 2.4-.1 1.2-1.2 2-1.8 2.1 1.2-.2 2.1-1.3 2.1-2.5s-.9-2.3-2.1-2.5l-1.3-.2c-.7-.1-1.5.1-2 .6-1.5.7-1.8 1.4-1.8 2.1zm3.4-2.3c-1.7.3-2.3 1.5-2.4 2.5 0 .9.3 2.2 2.3 2.8.4.1 1 .3 1.5.4.6.2 1.6.4 1.9.6 0 0-.1-.1-.3-.2.8.7 1.6.9 2.1 1 .3.1.5.1.7.3-.2-.1-.4-.3-.6-.5.2.3.4.5.6.7.7.9 1.3 1.6 2.7 2.3 1.7.8 3.5.8 5.1.1 2-.9 3.3-3.5 3.5-3.8.3-.5 2.3-3.5 3.1-4.6.7-.9 1.9-2.1 2.6-2.7.5-.4 2.7-2.5 3.3-4.4.6-1.9-.9-3.6-2.5-5-1.2-1-2.5-2-3.1-2.3-.8-.4-1.4-.6-1.9-.8-.4-.1-.6-.2-1-.4-1.4-.7-3.7-1.1-5.4-.6-2 .6-4.2.8-6.5.9l-1.4.1c-1 .1-1.7.2-2.3.3-.5.1-1 .2-1.8.2h.1c-.3 0-.5.1-.7.1-.1 0-.3.1-.4.1 0 0 .4-.1.9.1 1.1.4 1.9 1.5 1.8 2.6 0-.2 0-.6.1-1.5V108c-.1 1.2-1 2.2-2.2 2.3h-.2c.4.1.8.1 1.8 0 .6-.1 1.1 0 1.7 0 .7 0 1.4 0 2.3-.1h.5c1.8-.2 2.8-.3 3.4-.5.9-.3 1.5-1 1.7-1.9.1-.3.4-1.8.4-2.8 0 1.5-1.2 2.4-2.1 2.4h.1c.5 0 1.5-.1 2.2-.9.5-.5.7-1.2.7-1.9 0 .6-.1 1.1-.5 1.6-.2.3-.4.5-.5.5.2-.1.8-.5 1.2-.7.9-.5 1.1-.7 1.4-.9l-.1.1c.1-.1.7-.5 1.2-.8 2.9-1.8 3.6-2.4 4.1-3.2.7-1.4.6-2.8-.1-4-.5-.8-1.2-1.4-2-2.1-.4-.3-.8-.7-1.1-1-.2-.2-.5-.4-.7-.5-.2-.1-2.1-.9-5.4-1 1.4.1 2.5 1.2 2.4 2.6 0 1.4-1.2 2.5-2.6 2.4 1.4 0 2.2-.9 3.9-2.7.5-.6 1.3-1.5 1.6-1.7 0 0-.3.2-.9.3h-.3c2 0 4.2-.2 5.9-.4 1.6-.2 4.9-.7 5.2-3.4-.1.6-.3 1.1-.7 1.5.9-.9 1.2-2.2.8-3.3-1-3-6.2-3.6-6.4-3.6-1.7-.2-2.8.2-3.6.6-.4.2-.7.3-1.2.4l-.9.3c-.3.2-1.3.1-1.8.1s-1.1-.1-1.6 0c1-.1 2 .4 2.5 1.4-.6-1.1-2.3-2.5-3.2-3-.1-.1-.2-.1-.3-.2-.5-.2-1.1-.6-1.7-.9-.7-.4-1.4-.9-2.3-1.3-.9-.4-3.5-1.5-5.9.3-.2.2-.4.4-.5.6-.6.9-1.1 1.7-1.9 3.4 0 .1-.1.1-.1.2-.1.4-.4 1-.5 1.1 1-.8 2.5-.8 3.4.2-.6-.6-1.5-1.1-4.5-1.4-.7-.1-2.9-.2-4.2.1-1.7.4-4.1 1.5-4.7 1.9.7-.4 1.7-.4 2.5 0 .9.5 1.2 1.4 1.1 1.9 0-.1.1-.5.1-.7.1-.2.1-.4.1-.6 0-2.2-2.1-3.4-3.3-4.2-.1-.1-.2-.1-.3-.2-1.2-.8-3.3-1.2-4.8-1.4-3.4-.5-4.2-.2-4.9.3-1.5 1.1-1.4 3.2-1.2 5.5v-.4c-.1.4-.6 1.4-.9 1.8-.4.5-.6 1-.8 1.3-.4.6-.6 1-1.2 1.6-.8.9-1.2 1.5-1.3 2.5 0-.5.3-.9.4-1l-.5.5c-.5.5-.8 1-1.1 1.4-.1.2-.3.4-.4.5-.3.3-1.5 1.4-2.5 2.3-.8.7-1.1 1.9-.7 2.9.4 1 1.4 1.6 2.5 1.5.2 0 2.2-.2 3-.3.8-.1 1.6-.6 2.2-1 .1-.1.3-.2.4-.2.1-.1.3-.1.5-.2.7-.3 1.7-.8 3-1.7.6-.4 1-.6 1.5-.9.7-.3 1.4-.6 2.4-1.4-1 .8-2.4.7-3.3-.2.2.2.4.5.7 1 .4.7.8 1.5 1.7 2.3-.7-.6-.9-1.6-.7-2.5s1-1.6 1.9-1.8c-.4.1-1.6.2-2.7.3-4.9.4-8.3.7-9.8 2.5-.8.8-1 2-.6 3.1.8 2.5 4.6 4.1 5.8 4.3 1.7.4 3.9 0 7-.5.9-.2 1.8-.3 2.3-.4l2.4-.3c.7-.1 1.4-.2 1.9-.3.4 0 1-.1 1.9-.3.5-.1 1.3-.3 1.5-.3-1.4.1-2.6-.9-2.7-2.3 0 .3.1.7.2 1.4.1.3.1.6.2.8v-.1c-.1-1.4.9-2.6 2.3-2.7l-1.9.2c-1.4.2-2.8.3-4.1.4-.6 0-7.7.7-9.2 1.2-.9.3-1.5 1-2.4 2.6 0 0-.9 1.5-1.1 2-.5 1.1-.9 1.8-1.2 2.5-.2.5-.5.9-.7 1.3.1-.2.2-.3.2-.3-.1.1-.5.4-.8.6-1.1.9-2.7 2-2.5 4 .2 1.5.5 3.6 1.4 4.8 1.3 1.8 2.9 1.9 3.9 2 .2 0 .4 0 .7.1 1.4.2 2.9-.2 3.8-.4.1 0 .4-.1.4-.1.7-.1 2.2-.5 2.7-.7-.1 0-.2 0-.2.1l1.7-.3c-.8.1-1.7-.1-2.3-.8-.6-.6-.8-1.5-.6-2.3-.3 1-.9 2.7-1.5 3.2-2.1 1.9-3.3 2.7-5.3 3.6l-.2.1c-1 .4-2.3 1.1-4.3 1.8-1.1.4-1.7 1.5-1.6 2.7.1 1.1 1 2.1 2.2 2.2 1.5.2 5.1.6 6.4.5 1.5-.1 6.9-2 8.6-3.7l-.2.2c3.9-3.1 6.8-9.2 6.9-9.5-.4.8-1.2 1.4-2.1 1.4l2.2-.2c-.7.1-1.4-.2-1.9-.6-.5-.5-.8-1.1-.8-1.8 0 2.8 0 7.7-.2 9 .1-.7.8-1.3 1.4-1.4H81c-.4.1-1.4.3-2.1 1.3-.5.7-.6 1.6-.4 2.6.4 1.8 2.2 3.6 3 4.3 1.3 1.2 3.3 2.5 5.4 2.4 1.6-.1 2.7-.3 3.7-.8 2.3-1 2.7-2.8 2.8-3.8 0 .2-.1.4-.1.6.7-2.1.7-9.2.7-9.2 0 .7-.3 1.4-.9 1.9s-1.3.7-2 .6l1.3.2c-1.2-.2-2.1-1.2-2.1-2.5-.2-1.4.7-2.5 1.9-2.7z"/><path class="st0" d="M102.3 122c2-1.7 1.6-4.8 1.5-5.7-.2-1.3-1.4-2.2-2.6-2.1l-10 .6c-1.4.1-2.4 1.2-2.4 2.6 0 1 .1 2.7.1 3.1 0 .7.3 1.3.8 1.8s1.2.7 1.9.7l9.3-.4c.5-.1 1-.3 1.4-.6zm-8.3-1.6c0-.5-.1-3-.1-3.2.1 1.4-1 2.5-2.4 2.6l10-.6c-1.3.1-2.4-.8-2.6-2.1.1.4.1 1.1 0 1.3 0 0 .1-.2.3-.3.4-.4 1-.6 1.5-.6l-9.3.4c.7 0 1.4.2 1.9.7.4.5.7 1.1.7 1.8zM83.2 106.7c-2.6-.2-7.8.8-8.4.9-.6.1-1.1.5-1.5 1l-1.7 2.3c-.6.8-.7 2-.1 2.8.6.9 1.6 1.3 2.6 1.1 1.4-.3 3.3-.3 4.9-.3 1.6 0 3.1-.1 4.3-.3 1.2-.2 2-1.2 2-2.4 0-.2.1-.8.1-1.2.1-.5.1-1.1.1-1.4 0-1.4-1.1-2.5-2.5-2.6-1.4 0-2.6 1.1-2.6 2.5 0 .2-.1.7-.1 1.1-.1.6-.1 1.2-.1 1.6 0-1.2.9-2.2 2-2.4-.7.1-2.1.2-3.4.2-1.9 0-4 .1-5.8.4 1-.2 2.1.2 2.6 1.1.6.9.5 2-.1 2.8l1.7-2.3c-.4.5-.9.8-1.5 1 1.9-.4 5.5-1 6.9-.9 1.4.1 2.6-.9 2.7-2.3.3-1.3-.7-2.5-2.1-2.7zM85 99.1c.2-.3.2-.3.2-.4l-.1.1c.1-.1.4-.3.7-.6.5-.5.8-.9 1-1.3v-.1.1l.1-.1c.7-.7 1-1.8.6-2.8.4 1 0 2-.2 2.3.1-.1.3-.3.4-.5.2-.2.3-.4.5-.6.8-.9 1-1.9.5-2.9-.4-1-1.5-1.6-2.6-1.5l-5.9.6c-.7.1-1.3.4-1.8 1-.4.6-.6 1.3-.5 2 0 0 .4 2.1.7 3.9.1.7.5 1.3 1.1 1.7.6.4 1.3.5 2 .4l1.7-.4c.7 0 1.2-.4 1.6-.9zm-1.4-1.4c-.3-1.8-.7-3.9-.7-4 .1.7 0 1.4-.5 2-.4.6-1.1.9-1.8 1l5.9-.6c-1.1.1-2.1-.5-2.6-1.5-.5-1.1 0-2 .2-2.4-.1.1-.3.3-.4.5-.8.9-1.6 1.9-1.1 3.4-.4-1-.1-2 .6-2.8-.6.5-.8.9-1 1.3v.1-.1l-.1.1-.4.4c-.5.4-.7.7-1.1 1.4.4-.5.9-.9 1.5-1.1l-1.7.4c.7-.2 1.4 0 2 .4.7.2 1.1.8 1.2 1.5z"/><path class="st0" d="M89 99.2c5.5-.8 6.6-1.2 7-1.3 1.9-.7 2.5-2.8 2.7-3.5.3-1 .4-1.9.4-2 .1-.7-.1-1.4-.5-1.9s-1.1-.9-1.8-.9l-1.5-.1c-.8-.1-1.5.2-2 .8 0 0-1.4 1.4-3.3 2.6h-.1l-2.7 1.7c-1 .6-1.4 1.9-1 3 .5 1.1 1.7 1.8 2.8 1.6zm3.6-2.1c2.6-1.6 4.3-3.4 4.4-3.5-.5.6-1.3.8-2 .8l1.5.1c-.7 0-1.3-.4-1.8-.9-.4-.5-.6-1.2-.5-1.9-.1.7-.4 1.6-.5 1.9 0-.1.3-.3.6-.4-.2.1-1.3.4-6 1.1 1.2-.2 2.3.5 2.7 1.6.4 1.1 0 2.4-1 3l2.6-1.8c.1 0 .1 0 0 0z"/><path class="st0" d="M96.8 98.1c-1.5-.3-3.5-.2-6 .2-1.4.2-2.3 1.5-2.1 2.9v.9c0 .4 0 1 .1 1.5.1.7.5 1.3 1 1.7.6.4 1.3.5 1.9.4.3-.1.9-.1 1.5-.1.8 0 1.7 0 2.5-.1 1-.2 1.8-1 2-2 0 .2-.2.4-.3.5.4-.4.7-1 .9-1.9 0 .1 0 .2-.1.2l.3-1c.2-.7.1-1.4-.2-2-.2-.6-.8-1.1-1.5-1.2zm-3.3 3c0-.1.1-.3.2-.4-.3.4-.7.9-.9 1.8.2-1 1-1.8 2-2-.3.1-.9.1-1.5.1-.8 0-1.7 0-2.5.1.7-.1 1.4 0 1.9.4.6.4.9 1 1 1.7v-.7c0-.5 0-1.1-.1-1.7.2 1.4-.7 2.6-2.1 2.9 1.8-.3 3.3-.4 4.1-.2-.7-.1-1.3-.6-1.7-1.2-.4-.6-.4-1.3-.2-2l-.3 1c.2 0 .2.1.1.2zM128.7 81.9c.5-.5 1.4-1.2 1.9-1.6.6-.5.7-.7 1.8-2 .1-.1.5-.6.6-.7.3-.4 2.3-3.6 2.6-4.1.2-.4.7-1.6.7-1.7 0-.1-.1-.2-.2-.2-.3 0-.7.1-1.1.1-.5.1-2.6.7-2.8.7-.6 0-1.7-1.1-2.1-1.6-.1-.1-.1-.1 0-.2h.7c1.8 0 2 0 3.7-.3.4-.1 1.9-.1 2.3-.2.2 0 1.1-.2 1.2-.2.1-.1.1-.2.1-.2v-1.6c0-.1-.1-1.9-.3-2.1-.2-.1-.9-.4-1-.5-.1 0-.2-.1-.2-.2s.4-.5.5-.5c.2-.1 1.3-.4 1.5-.4.1 0 .2.1 1.2.7.2.2.6.5.6 1 0 .1-.4 1.5-.4 1.7-.1.9-.1 1.1-.2 1.7l.1.1c.7 0 .8 0 2.2-.2 2.1-.2 2.3-.2 2.5-.3.5-.3.5-.3.7-.3.1 0 1.1.3 1.4.4.5.1.7.1 1 .5.1.1.2.2.2.4 0 .6-1 .6-1.1.6l-2.2-.2H141c-.2 0-.3 0-.4.1 0 .1 1.5 2.1 1.6 2.3.2.3 1.1 1.6 1.4 1.8.2.2 1.1 1.4 1.3 1.6.2.2.9 1.1 1 1.2.7.7 1.1.9 1.9 1.4.2.1.9.7 1 .8.3.2 1 .8 1.3 1.1.1.1.4.2.4.5 0 .1-.1.2-.2.2h-.4c-.2 0-.4 0-1.4-.1-1.6-.2-2-.2-2.3-.4-.9-.6-2.7-3.4-3.5-5-.4-.5-.8-1.2-1.1-1.6-.1-.2-1-1.5-1.1-1.7-.3-.5-.3-.6-.5-.6-.1.2-.1 1.5-.1 1.7 0 .7 0 2.8.1 3.4l.1.1c.2 0 1-.2 1.2-.2.1 0 1.4.4 1.4.9s-.5.6-.9.7c-.2 0-1.4.2-1.6.2-.1 0-.2 0-.3.2V81.5c0 .2.1.8.1.9v.6c0 .1.1.3.1.4 0 .3-.3 1.9-.7 1.9-.1 0-.1-.1-.2-.1-.3-.2-.5-.3-.8-1.3 0-.1-.3-.7-.3-.9 0-.5 0-.6.2-1s.2-2.4.2-2.7c0-.1 0-.3-.2-.3-.1 0-1.1.3-1.3.3-.4 0-1-.3-1.3-.5-.4-.2-.4-.3-.5-.6h.1c.7 0 2.6 0 3.1-.3.2-.1.2-1.4.2-1.5v-1.5c0-.1.1-.4.1-.5v-1.8h-.1c-.1.1-.4.4-.4.5-.2.4-2.1 3.4-2.4 4-.1.1-.2.3-.5.7-.1.1-.2.5-.3.5-.4.4-1 1.1-1.4 1.5-1.4 1.2-1.5 1.4-2.4 1.8-1.1.6-1.3.7-1.7.7-.7-.2-.7-.3-.8-.4z"/><path class="st0" d="M130.3 83.4c.2-.2.6-.6 1-.8.3-.2.5-.4.8-.7.7-.6.9-.8 2-2.2.1-.1.4-.5.5-.5l.1-.1c.2-.2.4-.5 2.8-4.3v-.1c.2-.3 1-2 1-2.8 0-1.3-1-2.3-2.3-2.3-.5 0-1 .1-1.5.2h.1c-.3 0-.7.2-1.7.4-.4.1-1 .3-1.1.3h.3c.4 0 .6.1.6.1-.2-.1-.6-.5-1.1-1l-.3-.3c.8.6 1 1.7.6 2.5-.4.7-1.1 1.2-1.9 1.2h.8c1.9 0 2.2 0 4-.3h.1c.1 0 .6-.1.9-.1.8-.1 1.2-.1 1.4-.1h.1-.1c.1 0 .3 0 .4-.1.7-.1 1-.1 1.4-.3.1-.1.3-.1.4-.2.3-.3.9-.9.9-2V68.2c0-.2 0-.8-.1-1.3-.1-.9-.2-2-1.2-2.6h-.1c-.4-.2-1.3-.7-1.3-.7h.1c.5.2 1 .9 1 1.7 0 .7-.3 1.2-.5 1.4 0 0 .1 0 .1-.1 0 0-.1.1-.3.2 0 0 .1 0 .1-.1-.1.1-.1.1-.2.1.1-.1.6-.2.8-.2h-.2c-.5 0-.9-.2-.9-.2.1 0 .3.2.6.4l.3.2h-.1c-.1-.1-.3-.3-.3-.8v-.4c0 .1-.1.4-.1.6-.2.7-.3 1-.3 1.2-.1.9-.2 1.2-.2 1.9v.1c0 .4.1.7.2 1l.1.1c.4.8 1.2 1.2 2 1.2.6 0 .9 0 1.8-.1l.6-.1h.1c2.4-.2 2.7-.3 3.3-.6l.2-.1c-.2.1-.5.2-.8.2h-.4c.2 0 .8.3 1 .3.2.1.3.1.5.1h.2c-.2 0-.4-.2-.5-.3-.2-.2-.3-.6-.3-1 0-.9.7-1.5 1.1-1.6h-.1.2l-2.2-.2H141c-.2 0-.4 0-.5.1h.4c-1 0-1.8.4-2.2 1.2-.4.6-.4 1.4-.1 2.1.2.3 1.8 2.5 1.9 2.7l-.1-.1c.1.1.2.3.4.5.6.9.9 1.3 1.1 1.5.1.1.3.4.4.6.5.7.7.9.9 1.1.1.1.4.4.5.6.2.3.4.4.5.5l.1.1c.9.9 1.5 1.3 2.3 1.7h-.1c.1.1.6.4.7.5.1.1.2.1.2.2 0 0 .1.1.2.1.2.1.7.6 1 .8l.1.1.1.1c-.2-.2-.6-.6-.6-1.2 0-1.1.9-1.9 1.9-1.9h.2-.5c-.1 0-.2 0-.7-.1h-.4c-.7-.1-1.4-.1-1.6-.2 0 0 .1 0 .3.2-.5-.4-2.1-2.7-2.9-4.3-.1-.1-.1-.2-.2-.3-.3-.5-.8-1.1-.9-1.4-.1-.2-.3-.4-.7-1.2-.1-.2-.3-.5-.4-.6 0 0 0 .1.1.1-.3-.7-.7-1.4-1.8-1.7-1-.3-2 .1-2.5 1-.1.3-.4.7-.4 2.8 0 2.1 0 3.2.1 3.8.1.5.4 1 .8 1.4l.1.1c.4.3.9.5 1.3.5.3 0 .6 0 1-.1.1 0 .3-.1.4-.1h-.2c-.3 0-.5-.1-.5-.1.1 0 .2.1.3.1-.2-.1-.6-.6-.6-1.3 0-.8.6-1.4 1.1-1.5h-.1.2c-.3 0-1.5.2-1.9.3h.4c-.9 0-1.5.5-1.7.7-.5.5-.8 1.1-.8 1.8v2.5c0 .2.1.6.1.7 0 .6 0 .8.1 1v.2V83.8c0 .2-.1.6-.2.7.1-.3.7-.9 1.6-.9.8 0 1.2.4 1.3.5-.1-.1-.3-.2-.4-.3h-.1c.2.1.3.3.4.4 0 0 0-.1-.1-.4 0-.1 0-.1-.1-.2 0-.1-.1-.3-.2-.4 0-.1-.1-.2-.1-.3 0 0 .1.3.1.6v-.2.1-.1.1c.4-.9.4-3.5.4-3.5 0-1.4-1-2.5-2.4-2.5-.3 0-.4 0-.8.1-.2 0-.5.1-.7.1h.5c-.1 0-.3-.1-.3-.2-.1 0-.1-.1-.1-.1.3.2.5.6.5.9.1.8-.2 1.6-.9 2.1h.1c-.4.2-.8.4-1.2.4 2.4 0 3.5-.2 4.2-.7-.1 0-.1.1-.2.1 1.3-.6 1.4-2.1 1.4-3.5V75v.2-.1c0-.2.1-.4.1-.6v-1.8c0-.9-.5-1.7-1.3-2h-.1c-.8-.3-1.7-.1-2.4.5-.6.6-.7.9-.8 1-.1.2-.7 1.1-1.1 1.8-.7 1.1-1.1 1.9-1.3 2.2.1-.1.1-.2.2-.3-.1.1-.3.4-.5.7-.1.1-.1.2-.2.3 0 .1-.1.2-.1.2s.1-.1.2-.3l.1-.1c-.3.3-.7.6-1 1l-.5.5c-1.3 1.2-1.4 1.2-2 1.6-.4.2-.8.4-.9.5.1 0 .2-.1.3-.1.3 0 .5.1.5.1.9.3 1.5 1.1 1.5 2v-.1c-.4.2-.6.8-.9 1.2zm-2.3.6c.2.1.5.2 1 .2 1 0 1.4-.3 2.7-.9h.1c1.1-.6 1.4-.8 2.8-2.1.3-.3.6-.6.8-.9.2-.2.4-.5.5-.6l.1-.1c.1-.1.4-.3.7-1.1-.1.1-.1.2-.2.3.2-.3.4-.5.4-.6.1-.1.1-.2.2-.3.2-.3.8-1.3 1.2-2 .8-1.2 1.1-1.8 1.2-2-.1.2-.2.3-.2.3l.2-.2c-.6.6-1.5.8-2.4.5h.1c-.8-.3-1.3-1.1-1.3-2v1.8-.2.1c0 .2-.1.4-.1.7v1.6c0 .2 0 .7-.1.8 0-.2.3-.9 1.1-1.3-.1 0-.1.1-.2.1.2-.1.3-.1.3-.1-.1 0-.6.1-2.2.1-.4 0-.9.1-1.2.4h-.1c-.7.5-1 1.3-.9 2.1.2 1.1.7 1.6 1.4 2.1.2.2 1.4 1 2.6 1 .3 0 .7-.1 1.4-.2.1 0 .2 0 .3-.1h-.4c-1.1 0-1.9-1-1.9-1.8 0 .4-.1 1.7-.2 2.1 0 0 0-.1.1-.2v.1c-.2.6-.3 1-.3 1.7 0 .6.2 1 .4 1.5l.1.1v-.1c0-.1 0-.1-.1-.2.4 1.4.8 2 1.7 2.6-.1-.1-.3-.2-.4-.3.5.5 1.1.8 1.7.8.9 0 2-.4 2.6-2.4.1-.4.3-1.1.3-1.7 0-.1 0-.3-.1-.9V83v-.4c0-.3-.1-1.1-.1-1.1v.2-1.2c0-.5 0-1.1-.1-1.4.1.7-.2 1.4-.8 1.8-.2.2-.6.4-1.1.4h.4c.2 0 1.2-.2 1.4-.2h.2c2.4-.4 2.6-2.3 2.6-2.8 0-2.3-2.8-3.1-3.6-3.1-.3 0-.5 0-1 .1-.1 0-.3.1-.4.1h.1c.5 0 1 .2 1.3.5l-.1-.1c.4.3.7.8.8 1.4 0-.1-.1-.7-.1-3.1 0-.2 0-1 .1-1.2 0 0 0 .3-.2.6-.5.9-1.5 1.3-2.5 1-.4-.1-.8-.5-.9-.7 0 0 .1.2.1.3 0 0 0 .1.1.1.1.1.2.3.5.8.2.3.5.8.6.9.3.5.8 1.3 1.2 1.8-.1-.1-.1-.2-.2-.3.6 1.1 2.7 4.7 4.1 5.8.8.6 1.5.6 3.4.8h.4c.6.1.8.1 1.1.1h-.3c.4.1.6.1.7.1 1.3 0 2.4-1 2.4-2.4 0-.9-.4-1.6-1.1-2.2 0 0 .1 0 .1.1 0 0-1-1-1.6-1.3.1 0 .1.1.2.1l-.1-.1c-.6-.5-.9-.7-1-.8h-.1c-.7-.4-.9-.5-1.4-1 0 0 0 .1.1.1 0-.1-.2-.2-.3-.4-.4-.5-.6-.8-.8-.9-.1-.1-.4-.5-.6-.8-.3-.4-.5-.6-.6-.8-.1-.2-.6-.8-.8-1.1-.2-.2-.3-.4-.4-.6l-.1-.1v.1c-.2-.2-1.3-1.8-1.4-2 0 0 0 .1.1.2.3.7.3 1.5-.1 2.1-.4.6-1.1.9-1.5.9h.1c.3 0 .6-.1.8-.1-.2 0-.4.1-.5.1h2-.1 1.4-.2l2.2.2h.2c1.1 0 1.9-.3 2.5-.9.5-.5.8-1.2.8-1.9 0-1-.5-1.6-.7-1.8-.8-1-1.6-1.2-2.4-1.3.2 0 .3.1.5.1-1.5-.6-1.9-.6-2.1-.6-.8 0-1.3.3-1.8.7.2-.2.5-.2.5-.2-.2 0-.9.1-1.9.2h-.1l-.6.1c-.9.1-1 .1-1.5.1.8 0 1.6.4 2 1.2l-.1-.1c.2.3.2.7.2 1V70c0-.6 0-.7.1-1.4 0-.1.2-.6.2-.9.2-.8.2-.9.2-1.2 0-.6-.2-1.7-1.5-2.7h-.1l-.3-.2c-.9-.6-1.3-1-2.2-1-.6 0-2 .3-2.6.7 0 0 .1 0 .1-.1-.1 0-1.7.8-1.7 2.4 0 .4.1 1.5 1.4 2.2h.1c.1.1.7.3.8.4h-.1c-.6-.4-.8-1-.8-1 .1.2.1 1.1.1 1.4v-.1V70.1c0-.4.2-1 .8-1.5.1-.1.2-.2.4-.2l.4-.2c-.1 0-.3.1-.5.1-.4.1-.6.1-.7.1h.2c-.1 0-.6.1-.9.1-.7 0-1.1.1-1.4.1h.1c-1.6.3-1.7.3-3.4.3h-.8c-.8 0-1.6.5-1.9 1.2-.5 1-.2 2.2.7 2.9l-.3-.3c2.1 2.3 3.3 2.3 3.7 2.3.4 0 .6-.1 1.9-.4.4-.1 1.1-.3 1.3-.3h.1c.1 0 .5-.1.7-.1-1.1 0-2-.9-2-2 0-.3.1-.5.1-.5-.1.2-.3.9-.4 1.1v.1c-2 3.2-2.4 3.7-2.4 3.8v-.1l.1-.1c-.2.2-.7.8-.7.9-1.1 1.3-1.2 1.4-1.6 1.8-.2.1-.4.3-.6.5-.5.4-1 .8-1.4 1.3-.4.4-.6.9-.6 1.5V82c.3.9.9 1.7 1.8 2zM153.3 83.5l.5-.2c.2-.1.9-.6 1-.7.9-.6 3.4-2.5 3.9-2.9 1.6-1.4 2.6-2.5 2.6-2.7 0-.1 0-.1-.1-.4l-.2-.2c-.2 0-.9.7-1 .8-.1 0-.2.1-.3.1-.2.3-.3.4-1.4 1-.1.1-.5.4-.5.4l-.6.3c-.2.1-.9.5-1.1.6-.1.1-.6.2-.7.3l-.4.1h-.3c-.1 0-.4.1-.5.1-.1 0-.2 0-.3-.1v-.1c.1 0 .3-.2.4-.2.1-.1 1-.6 1.5-.9.2-.1 1.1-.8 1.3-.9.1-.1.8-.6.9-.7 1.4-1.2 1.6-1.4 1.8-1.6.1-.1.5-.5.6-.5.1-.1.3-.5.3-.6v-.1c0-.1-.2-.3-.2-.4v-.2c.4 0 .5-.1.6-.1.1 0 1.4.3 1.4.9-.1.1-.1.1-.2.3 0 0-.1.1-.2.1l-.4.4c-.1.1-.5.6-.6.7v.1c.2 0 .5-.1.7-.1.2 0 1.1.6 1.1.8 0 .2-.8 1.3-1.1 1.6l-.6.6c-.2.1-.8.7-.9.8-.1.1-.3.4-.4.5-.5.3-.6.4-1.2.9-.2.2-.2.2-.6.4 0 0-.2.2-.3.2-.1 0-.5.2-.6.2 0 0-.9.6-1 .6-.2 0-.2 0-.3.2-.1 0-1.9.7-2.4.7-.1 0-.2 0-.2-.1zm3.1-15.3c0-.1 0-.1-.1-.4l.1-.1c.1 0 .2.2.4.4 0 .1.1.1.3.3.7 0 .8 0 2-.2l2-.4c.2 0 .9-.1 1-.1v-.2l-.3-1.8c-.3-.1-.4-.1-.9-.5l-.3-.2c0-.1.1-.1.2-.1h1.6c.8 0 2 .7 2.3.8.1.2.1.3.1.4 0 .1-.3.5-.3.6-.1.2-.3.9-.3 1.1.6 0 3.2-.2 3.7-.3.2 0 1.3-.2 1.5-.2.5 0 .8.2 1.3.5.2.1 1.3.6 1.5.8.2.2.4.3.4 1.1 0 .1-.1.2-.2.4-.1 0-.1 0-.3.1h-.7c-.2 0-.8-.1-1-.2h-.8c-.1 0-1.4.3-1.6.4-.1 0-.3.1-.3.1v-.1c.1-.1.8-.6.9-.8.1-.1.6-.7.7-1-.2-.1-.2-.2-.6-.2-1.3 0-4 .2-4.4.2-.2 0-1.3.1-1.5.2-.5.1-2.2.4-2.6.5-.2 0-1 .3-1.6.3h-.4c-.7-.2-.7-.2-.9-.2v.8s-.1.3-.1.4v.5c-.1.7-.2 1.8-.3 2.3-.1.3-.5 1.2-.8 1.2-.3 0-.7-.5-.7-.8 0-.1-.4-1.8-.4-1.9l.1-.2c.1-.3.1-.3.4-.5.1-.1.6-1.1.8-1.9.1-.7.1-.8.1-1.1m-.2 6.7c.3-.2.8-.4.9-.5.3-.3 2.1-1.3 2.4-1.6.3-.2 1.7-1.4 1.9-1.6l.1-.1h-.3c-.1 0-.9.1-.9.2-.1 0-.7.2-.7.2-.5 0-1.2-.6-1.4-.9l.1-.1h.7c.2 0 5.8-1.1 5.9-1.2.6-.3.7-.3.9-.3.9 0 1.1.1 1.5.5v.2c-.1.1-.2.1-.3.3-.2 0-2.5.4-3 .6-.1 0-.7.1-.8.1-.1 0-.2.1-.4.1v.1c.2.1.6.3.6.6 0 .2-.1.3-.8.8-.2.1-.2.2-.2.3.1 0 .7.2.7.3.1.1 1.1 1.3 1.1 1.4.1.2.5.9.6 1.1.2-.1 1.8-1.8 2-2.3-.1-.2-.7-1-.8-1.2l.1-.1h.6c.9 0 1.1 0 1.7.5 1 .8 1 1 1 1.3 0 .4-.4.7-.6.8-.4.1-1.1 0-1.5.3-.1 0-.3.2-.3.2-1 .8-1.3 1-2 1.4 0 0-.1.1-.1.2s1.3 1.5 1.5 1.8c1.2 1.4 2.3 2.1 2.9 2.5.2.1.8.5.9.6.1.1.7.4.8.4.4.2.5.2 1.1.6.9.5.9.6 1 .7.1.2.2.2.3.3.2.1.2.2.2.2 0 .1.1.3.1.4 0 .1-.6.3-.7.3-.2 0-1.2-.2-1.4-.2h-1c-1-.1-1.8-.2-3-1.8-.5-.6-2.4-3.5-2.8-4.1h-.1c-.1.4-.3 2-.4 2.3-.2.6-.2.6-.2 1 0 .1-.4 1.5-.9 2.2-.7 1-.8 1.1-1.1 1.3-.1 0-.7.4-.9.4-.3 0-.6-.4-.6-.5 0-.6 0-.7-.1-.8-.5-.7-.6-.7-.7-1.2-.2-.4-.2-.6-.6-.9-.1-.1-.1-.1-.1-.2.4.1 1.8.5 2.2.6 1.2-.7 2.1-4.1 2.1-5.3 0-.1-.1-.3-.1-.4 0-1 0-1.5-.4-2.1-.3-.4-.9-1.3-1.4-1.3 0 0-1.1.6-1.2.7 0 0-.2.1-.3.1-.1 0-.7.4-.8.5-.7.2-.8.2-1.5.5-.2.1-1.2.3-1.4.2l-.1-.4z"/><path class="st0" d="m154.2 85.4.5-.3c.1-.1.2-.1.3-.2.1-.1.5-.3.6-.4l.3-.2s.1 0 .1-.1c1.5-1.1 3.5-2.6 4-3 3.4-2.9 3.4-3.8 3.4-4.4 0-.4-.1-.8-.3-1.2-.1-.3-.4-.6-.6-.9l-.2-.2c-.5-.4-1.3-.6-1.9-.4-.2.1-.7.2-1.9 1.3.2-.2.3-.3.6-.4h-.1c-.1 0-.1 0-.2.1-.4.2-.8.5-1 .9l.3-.3c-.1.1-.4.3-.8.5-.1 0-.1.1-.2.1l-.3.3c-.1 0-.2.1-.2.2 0 0 .1-.1.3-.2h.1c-.4.2-.6.3-.9.5l.1-.1c-.1.1-.6.3-.7.4h.1c-.2.1-.3.1-.5.2.1-.1.2-.1.2-.1-.1 0-.2.1-.3.1-.1 0-.2.1-.3.1-.1 0-.1.1-.2.1.1-.1.2-.1.3-.1h-.2s.2-.1.5-.1h-.3c-.3 0-.5 0-.7.1h-.1.3c.4 0 .6.1.6.1.6.3 1 .8 1.2 1.4v-.1c0 .2.1.3.1.5 0 1.2-1 2.2-2.2 2.2.8 0 1.3-.4 1.6-.6.1-.1.2-.2.3-.2l-.2.2c.1-.1.4-.2.6-.4.3-.2.6-.4.8-.5-.1 0-.1.1-.2.1.2-.1.5-.3.9-.6.1-.1.4-.3.5-.3 0 0-.1 0-.2.1.2-.1.5-.3.7-.5l-.1.1c.1-.1.3-.2.4-.3.2-.1.3-.2.4-.3l.1-.1c1.4-1.2 1.7-1.4 2-1.8l-.3.3c.2-.1.8-.6 1-1 .1-.1.2-.3.3-.5 0 0 .1-.1.1-.2l-.1.1c.3-.4.4-.8.4-1.3V74c0-.3 0-.5-.1-.8l-.3-.6s0 .1.1.1c.2.5.2.9.2 1.1v-.3c0 1.1-.8 2-1.9 2.1.2 0 .4 0 .5-.1h-.5s.1 0 .2.1c-.2-.1-.6-.5-.6-1.2 0-.6.2-1.2.6-1.6-.3.3-.5.6-.7 1 .2-.5.6-.9 1.1-1.1-.2.1-.3.2-.4.2 0 0 .1-.1.2-.1-.3.1-.5.3-.7.5l-.1.1.1-.1-.6.6c0-.1.1-.1.1-.1-.1.1-.3.3-.3.4-.2.2-.4.4-.5.7-.2.5-.2.9-.2 1 0 .6.3 1.3.8 1.7.5.4 1.2.6 1.8.5.2 0 .3 0 .4-.1-.4 0-.7-.1-.7-.1l.1.1c-.1-.1-.5-.6-.5-1.3 0-.5.2-.8.2-.8-.1.2-.4.6-.5.7l.1-.1s.1 0 .1-.1c-.2.2-.4.3-.6.6 0 .1-.1.1-.1.2 0 0 .1-.1.2-.1-.2.1-.4.3-.8.7-.1.1-.2.2-.3.2.4-.3.9-.5 1.4-.5-.6 0-1.1.2-1.5.6l-.3.3s-.1.1-.1.2l.3-.3s.1 0 .1-.1c-.7.4-.9.6-1.6 1.2 0 0 .1 0 .1-.1 0 0-.1.1-.2.1h-.1c-.3.2-.5.4-.8.6.1-.1.2-.2.4-.3.1-.1.3-.1.3-.1s-.1 0-.1.1c-.3.1-.5.2-.7.3-.2.1-.3.2-.4.4.1-.2.3-.2.3-.3-.1.1-.4.3-.5.3 0 0 .3-.2.8-.2-1.1 0-1.6.6-1.9.8.1-.1.2-.2.4-.3-.5.3-.3.3-.3.3-.3.1-1.4.5-1.7.5h.1c.4 0 .7.1 1 .3.6.4 1 1.1 1 1.8v-.1c0 .8-.4 1.6-1.2 1.9zm-2.1 0c.4.3.8.4 1.3.4 1 0 3.2-.8 3.6-1 .1-.1.3-.2.4-.3-.3.3-.8.5-1.2.5 1.3 0 2.6-1.3 2.6-1.3l-.4.4c-.1.1-.3.1-.3.1s.1 0 .1-.1c.2-.1.5-.2.7-.3.1-.1.3-.2.4-.3l.1-.1s-.1.1-.4.2h.1c.3-.2.5-.3.9-.6.5-.4.5-.4.8-.6 0 0 .1 0 .1-.1.3-.2.5-.4.7-.7l.1-.1-.1.1c-.4.4-1 .6-1.5.6.5 0 1-.2 1.4-.5l.4-.4c.1-.1.4-.4.5-.4.2-.1.3-.3.5-.5l.2-.2-.2.2s.1 0 .1-.1c0 0 1.9-1.7 1.9-3.3 0-.8-.4-1.6-1.3-2.2-1-.7-1.7-.7-1.9-.7-.4 0-.9.1-1.2.1.6-.1 1.3 0 1.8.5.5.4.8 1 .8 1.7 0 .1 0 .4-.2.8-.1.3-.3.5-.5.7 0 0 .7-.7.9-1.1-.2.2-.3.5-.6.6.3-.3.5-.4.7-.7-.2.2-.4.4-.7.5.2-.1.3-.2.4-.2 0 0-.1.1-.2.1.5-.2.9-.6 1.1-1.1 0 .1-.2.3-.3.4.4-.4.6-1 .6-1.6-.1-2.2-2.7-3-3.5-3h-.8c-1.1.1-1.9 1-1.9 2.1v-.2c0 .2-.1.8.2 1.4 0 0 0 .1.1.1 0 0 0 .1.1.1l.1.1s0-.1-.1-.2c-.1-.3-.1-.5-.1-.8v.1c0-.5.2-.9.4-1.3-.1.1-.2.3-.3.5 0 .1-.1.1-.1.2l.1-.1.1-.1-.3.3.1-.1-.3.3c-.2.2-.4.4-1.7 1.5l.1-.1s-.1.1-.2.1c-.5.3-.7.5-1 .7.2-.2.4-.3.7-.4-.3.1-.5.3-1.1.7-.2.1-.4.3-.5.3h.1c-.1 0-.1.1-.2.1-.2.1-.5.3-.7.5-.7.5-.9.6-1.1.8.1-.1.2-.2.3-.2-.1 0-.1.1-.2.1 0 0 .4-.3 1-.3-1.2 0-2.2 1-2.2 2.2 0 .2 0 .3.1.5v.1c.1.6.6 1.2 1.2 1.4.4.2.8.3 1.3.3.3 0 .5 0 .7-.1h.1-.3.3c.5 0 1.2-.3 1.4-.3-.1 0-.1.1-.2.1h.1c.4-.1.7-.3 1-.4-.1.1-.3.2-.5.2.6-.2 1.6-.8 1.6-.8l.1-.1h-.1s.2-.1.3-.1h.1c.3-.2.5-.3.8-.6l.1-.1h-.1c-.1 0-.1.1-.2.1 1.2-.7 1.7-1 2.1-1.8-.2.4-.6.7-1 .9h-.1c.1 0 .2-.1.4-.2s.4-.2.6-.4c.2-.1.5-.4.6-.5 0 0-.2.1-.5.2-.7.2-1.4 0-1.9-.4l.2.2c-.3-.2-.5-.5-.6-.9v.1c0-.1-.1-.3-.1-.5 0-.6.3-1.1.3-1.1-.1.2-.9 1.1-2.2 2.1-.2.2-1.3 1-3.7 2.8 0 0 .1 0 .1-.1l-.2.2c-.5.3-.7.5-.9.6.1-.1.2-.1.3-.2l-.5.2c-.7.4-1.2 1.1-1.2 1.9v.1c.2.7.6 1.4 1.2 1.8z"/><path class="st0" d="M158.6 68.2c0-.3-.1-.5-.1-.7v-.2c.2.7-.1 1.5-.6 2s-1 .6-1.4.6c-.9 0-1.4-.6-1.5-.6v.1c0 .1.1.1.2.2-.1-.1-.2-.3-.3-.5.3.5.6.8.9 1.1.4.3.8.4 1.3.4.9 0 1.2 0 2.4-.3l2-.4h-.1.2c.6-.1.9-.1 1.2-.2 1-.3 1.6-1.3 1.5-2.4v-.2l-.3-1.8c-.1-.9-.8-1.6-1.7-1.8.1 0 .3.1.3.2 0 0-.2-.2-.3-.2.3.2.5.5.6.8-.3-.6-.7-.9-.9-1 .4.3.8.9.8 1.7 0-.6-.2-1.1-.6-1.5.4.4.6.9.6 1.5 0 1.2-1 2-1.9 2H162.5s.4.1 1.3.5c-.5-.3-.8-.7-1-1.2v.1s-.1-.2-.1-.4c0-.6.2-.9.2-.9s-.1.1-.1.2-.1.1-.1.2c-.1.1-.1.2-.2.3-.1.2-.2.5-.4 1.3-.2.6 0 1.3.4 1.9.4.5 1 .8 1.7.8.4 0 1.3-.1 2.5-.2.5 0 1.1-.1 1.3-.1h.1c.2 0 .4 0 .7-.1.2 0 .6-.1.7-.1h-.1c-.1 0-.2 0-.2-.1 0 0 .2.1.3.2h.1c.2.1.4.2.7.4.2.1.6.3.7.3l-.2-.2c-.2-.2-.4-.5-.4-.6v.1c0-.7.3-1.1.4-1.1l-.1.1c.4-.5 1-.8 1.6-.8-.4 0-.7.1-1.1.2.2-.1.4-.1.4-.1h-.5H171.4c-.1 0-.4-.1-.5-.1h-.3.1c-.4-.1-1.2-.1-1.2-.1-.6 0-2.2.4-2.2.5-.1 0-.1 0-.2.1h.1c-.1 0-.4.1-.6.2.6-.3 1.3-.3 1.9 0 .6.3 1.1.9 1.2 1.5v-.1c.1.7-.1 1.4-.6 1.9 0 0 .2-.1.3-.2.4-.3.6-.5.8-.8l-.2.2s.9-.9 1.2-1.8c.3-.9 0-1.9-.8-2.5-.4-.3-.9-.6-1.9-.6-1.2 0-4.1.2-4.7.3h-.1c-.1 0-.7.1-1 .1h-.5c-.2 0-2.3.4-2.9.5-.4.1-.9.2-1 .2h-.1s.2 0 .5.1c-.1 0-.1 0-.2-.1l-.3-.1c-.4-.1-.6-.2-.9-.2-1.2-.1-2.2.6-2.4 1.8v1.1-.3.1c0 .2-.1.4-.1.6v.6-.4c-.1.4-.1 1-.2 1.5l-.1.8c0-.1 0-.3.1-.4 0 .1-.1.3-.2.3.1-.2.6-.6 1.4-.6.1 0 1.2 0 1.4.9 0 .2.1.3.1.5 0-.3 0-.3-.2-1.3-.1-.3-.2-.8-.2-.9v.3c0 .6-.2 1-.3 1.1 0 0 .1-.1.1-.2.1-.2.2-.4.2-.6-.1.3-.3.6-.5.7 0 0 .1 0 .1-.1 1-.7 1.6-3 1.6-3.1v.1c.4-.1.5-.4.5-1 0-1.2-1-2.2-2.2-2.2-1.2 0-2.2 1-2.2 2.2V68 68.3c-.1.4-.4 1-.5 1.2 0 0 .2-.2.4-.5-.5.4-.9.8-1.1 1.7.1-.2.1-.4.2-.6 0 .1-.1.1-.1.1-.1.1-.4.6-.4 1.2 0 .3 0 .4.3 1.5.1.3.1.6.2.7v-.3c0 .2 0 .3.1.5.3 1.2 1.4 2.5 2.9 2.5 1.8 0 2.6-1.9 2.9-2.7 0-.1.1-.3.1-.4l.1-.9c.1-.5.1-1.1.2-1.4V70v.4-.1c0-.2.1-.3.1-.6v-.5.1c-.2 1.2-1.2 2-2.4 1.8 0 0 .2 0 .3.1l.3.1c-.1 0-.1 0-.2-.1.4.1.7.1 1.1.1.9 0 1.9-.3 2.3-.4.3-.1 1.8-.3 2.4-.4h-.1.3c.8-.1 1.1-.1 1.3-.2h-.1c.4-.1 2.9-.2 4-.2-.2 0-.5-.1-.7-.2-.8-.6-1.1-1.6-.8-2.5 0-.1.1-.1.1-.1 0 .1-.2.3-.2.3l-.2.2.1-.1-.3.3c-.3.2-.4.3-.5.5-.5.5-.7 1.2-.6 1.9v.1c.1.7.6 1.2 1.2 1.5.6.3 1.3.3 1.9 0l-.4.2c.1 0 .3-.1.5-.1-.1 0-.1 0-.2.1.2-.1 1.1-.3 1.3-.3h-.3.5-.1H170.4c.6.1.9.2 1.2.2.6 0 1.1-.1 1.4-.2h.1c-.1.1-.4.1-.5.1.6 0 1.2-.3 1.6-.8.2-.2.7-.8.7-1.7 0-1.5-.7-2.3-1.1-2.7-.3-.3-.7-.5-1.5-.8-.1-.1-.3-.2-.4-.2h-.1c-.6-.4-1.2-.8-2.4-.8-.3 0-.6 0-1.3.2-.2 0-.4.1-.4.1h.1c-.2 0-.7 0-1.4.1s-1.9.2-2.1.2c.7 0 1.3.3 1.7.8.4.5.6 1.2.4 1.9.2-.6.2-.8.2-.8v.1c0 .1-.1.2-.2.3v.1c.3-.4.7-1 .7-1.7 0-.4-.1-.8-.2-1.1-.2-.5-.5-.9-1-1.2-1.3-.7-2.4-1.1-3.3-1.1-.2 0-1.4 0-1.7.1h.2c-1.6 0-2.4 1.2-2.4 2.3 0 .6.2 1.1.6 1.5-.4-.4-.6-.9-.6-1.5 0 .8.4 1.4 1.1 1.9-.1-.1-.4-.3-.6-.8.1.3.3.6.6.8.6.5 1 .8 1.8 1-.9-.2-1.6-.9-1.7-1.8l.3 1.8v.2c-.2-1 .5-2 1.5-2.4.1 0 .2-.1.2-.1-.1 0-.4 0-.5.1h-.5l-2 .4c-1.1.2-1.1.2-1.6.2.5 0 .9.1 1.3.4 0 0 .3.2.4.5-.1-.2-.2-.3-.3-.5l-.1-.1c-.2-.3-.8-1-1.9-1-.9 0-1.5.5-1.7.7-.5.5-.7 1.3-.6 2 0 .1.1.2.1.3v-.4c0 1.2 1 2.2 2.2 2.2.9-.3 1.9-1.3 1.9-2.5z"/><path class="st0" d="M157.3 76.8c.2-.1.7-.4.7-.4l-.1.1c.2-.1.4-.2.6-.4.2-.1.9-.6 1.3-.8.6-.4.9-.6 1.1-.7.2-.2.7-.6 1.4-1.2l.6-.5c.2-.2.4-.4.5-.7l.1-.1c.3-.7.3-1.5-.1-2.1-.4-.6-1.1-1-1.8-1h.2-.4c-.1 0-1.3.1-1.8.4.1-.1.2-.1.4-.1 0 0-.1 0-.2.1-.1 0-.4.1-.4.1s.2-.1.5-.1.5.1.5.1c-.1 0-.3-.2-.3-.2.6.8.7 1.8.1 2.6l.1-.1c-.5.6-1.2 1-2 .9.5.1.7.1.9.1.2 0 .4 0 3.4-.6 3.2-.6 3.2-.7 3.6-.9-.1 0-.1.1-.2.1.2-.1.3-.1.4-.2-.1 0-.3.1-.4.1h.3c-.1 0-.3-.1-.4-.2l.1.1c-.3-.3-.5-.7-.7-1.1-.1-.5 0-1.1.3-1.5.2-.3.4-.5.7-.7-.5.3-.8.7-1.1 1.2.3-.6.8-1 1.4-1.1h.1c-.1 0-.3 0-.5.1-1.8.3-2.4.4-2.9.6.1 0 .1 0 .2-.1h.2c-.1 0-.3 0-.4.1H163c-.2 0-.4.1-.5.1h-.1c-1.1.4-1.8 1.6-1.4 2.7v.1c.2.5.5.9 1 1.2h.2c-.3-.2-.7-.7-.7-1.4 0-.6.3-1.1.6-1.3 0 0-.2.1-.4.3h-.1c-.6.4-.9.8-1.1 1.4-.4 1.1.2 2.3 1.3 2.7.1 0 .1 0 .2.1.1 0 .3.1.4.1 0 0-.2-.1-.3-.2-.1-.1-.3-.2-.4-.4.1.1.8 1.1 1 1.2-.1-.2-.4-.6-.4-1.2 0 .3.1.6.2.9.1.2.2.5.6 1.1l.1.1c.6 1 1.9 1.4 3 .8.6-.4 2.5-2.4 2.9-3.3.3-.6.2-1.3-.1-1.9-.1-.2-.2-.3-.4-.6-.1-.2-.3-.4-.3-.5 0 0 .1.1.1.3.3.8 0 1.7-.6 2.3l.1-.1c-.4.4-.9.6-1.5.6h-.1 1.2c-.1 0-.2-.1-.3-.1 0 0 .1 0 .2.2l.4.4c-.1-.1-.3-.5-.3-.8 0-.3.1-1.1 1-1.3h.1-.2c-.5 0-1.3.1-2 .6h.1l-.1.1c-.2.1-.3.2-.5.3-.9.8-1 .9-1.6 1.1-.8.4-1.3 1.2-1.3 2.1 0 .9.4 1.3 1.5 2.6.2.2.4.5.5.5 1.4 1.7 2.7 2.5 3.4 3h.1l.2.2c.5.3.7.5 1 .6-.1-.1-.2-.1-.3-.2.2.2.9.5 1.2.6l.6.3.1.1.4.2c.2.1.4.2.4.3 0 0-.2-.1-.3-.3-.1-.1-.1-.1-.1-.2.2.4.5.8 1.2 1.1-.7-.4-1.2-1.1-1.2-1.9 0 .6.3 1.2.8 1.7l-.1-.1c0 .1.1.1.2.2-.3-.3-.5-.7-.6-1.1V84.3v-.4c0-1.1.8-1.7 1.2-1.9h-.1.5c-.1 0-.4-.1-.6-.1-.5-.1-.7-.1-.9-.1h-.8.1-.1c-.7-.1-.9-.1-1.6-1-.3-.4-1.5-2.1-2-2.9-.3-.5-.5-.8-.7-1-.6-.9-1.9-1.2-2.9-.6h-.1c-.5.3-.8.8-1 1.3-.1.2-.1.6-.2 1.2-.1.3-.1.9-.2 1v-.1c-.2.8-.3 1-.3 1.7V81c-.1.4-.3 1.1-.5 1.3-.2.2-.5.7-.6.8 0-.1.1-.1.2-.2 0 0 .1 0 .1-.1-.4.2-.5.2-.5.2s.3-.1.6-.1c.6 0 1 .3 1.2.5.2.2.4.6.4 1.1v-.1c0-.7 0-1.3-.4-1.9 0-.1-.1-.1-.1-.2-.1-.2-.3-.4-.4-.5l-.1-.1v.1c-.3-.9-.7-1.4-1.4-1.9.1.1.2.2.3.2.2.2.4.5.5.8.2.7 0 1.5-.6 2.1-.5.5-1.3.8-2.1.6.2 0 1 .3 1.4.4l.7.2c.6.2 1.1.1 1.6-.2 2.4-1.4 3.3-6.1 3.3-7.2 0-.3-.1-.5-.1-.7v.4c0-1.1 0-2.1-.8-3.3-.5-.7-1.5-2.3-3.2-2.3-.6 0-.9.2-1.8.7-.1.1-.3.2-.4.2h.1c.3-.1.6-.2 1-.2-.6 0-1.1.2-1.3.3.1 0 .2-.1.3-.1-.3.1-.5.2-.9.5-.1 0-.2.1-.2.1s.1 0 .2-.1c.1 0 .1 0 .2-.1-.8.2-.9.3-1.6.6h.1c-.2 0-.6.1-.7.1h.2c.7.1 1.4.5 1.7 1.2V74c.2.5.3 1 .2 1.5v-.1c-.7.6-1.1 1.1-1.6 1.4zm-3-.8c.4.8 1 1.2 1.8 1.3.7.1 2-.2 2.5-.4.6-.2.6-.2 1.3-.5.1 0 .1 0 .2-.1l.6-.3c.1-.1.2-.1.3-.2 0 0-.1 0-.2.1.1 0 .2-.1.3-.1-.2.1-.5.1-.7.1.3 0 .7-.1 1-.2.1-.1.3-.1.7-.4.2-.1.5-.3.5-.3-.1.1-.5.2-1 .2-.4 0-.7-.2-.8-.2.1.1.3.4.4.6.1.1.1.1.1.9 0 .3 0 .5.1.6v.1-.3c0 .8-.7 3.1-1.2 3.5l.1-.1c.5-.3 1.1-.4 1.6-.2l-.6-.2c-.8-.2-1.4-.4-1.6-.5-.7-.2-1.5 0-2.1.6-.5.5-.7 1.3-.6 2.1.1.5.3.8.7 1.2.1.1.2.2.3.2h.1c-.1-.1-.2-.2-.3-.4v.2c.3.7.5 1 1.1 1.7 0-.1-.1-.1-.1-.2-.2-.3-.3-.6-.3-.7v.4-.1c0 1.2 1.2 2.7 2.7 2.7.6 0 1-.2 1.8-.6 0 0 .1 0 .1-.1.7-.4 1-.9 1.8-1.9.7-1 1.3-2.8 1.3-3.5v-.2.1s.1-.2.1-.3v-.1c.1-.3.1-.6.3-1.5 0-.3.1-.8.1-.9-.1.6-.5 1-1 1.3h.1c-1 .6-2.3.3-2.9-.6.1.2.3.5.6.9 1 1.6 1.9 2.8 2.3 3.3 1.7 2.1 3 2.4 4.4 2.5h1.4-.2c.1 0 .2 0 .4.1.6.1.9.2 1.2.2.3 0 .7-.1 1.1-.2 1.6-.5 1.8-1.7 1.8-2.2 0-.3-.1-.6-.1-.8v-.1c-.1-.4-.3-.8-.6-1.1l.1.1-.4-.4c.5.4.8 1 .8 1.7 0-.8-.5-1.6-1.2-1.9.2.1.5.4.6.6v-.1c0-.1-.1-.1-.1-.2-.3-.4-.5-.5-1.2-.9l-.4-.2-.1-.1c-.5-.3-.7-.4-1.3-.7h.1c-.1 0-.4-.2-.5-.3h.1c-.1-.1-.2-.1-.3-.2.1 0 .2.1.2.1-.1 0-.3-.2-.4-.3-.2-.1-.3-.2-.5-.3h.1c-.6-.3-1.4-.9-2.4-2-.1-.2-.3-.4-.7-.8-.2-.2-.6-.7-.7-.8 0 0 .4.5.4 1.2 0 .8-.4 1.5-1.1 1.8 1-.5 1.4-.8 2.5-1.7-.1.1-.3.2-.5.3l.6-.3c-.2.2-.4.2-.4.2h.3c.3 0 .6-.1.9-.1 1.1-.3 2.2-1.4 2.2-2.9 0-1.3-.7-2.1-1.8-3-1.2-.9-1.8-1-3.1-1h.1-.7c-.6 0-1.1.2-1.5.6l-.1.1c-.6.6-.8 1.5-.6 2.3.1.4.4.7.8 1.3.1.1.2.3.2.3-.3-.6-.3-1.3-.1-1.9 0-.1.1-.1.1-.1-.2.3-1.1 1.4-1.4 1.6l.2-.2c1-.6 2.3-.3 3 .8l-.1-.1c-.3-.4-.4-.7-.5-.8.1.3.2.6.2.9 0-.9-.3-1.3-1.6-2.7-.1-.1-.2-.3-.4-.4-.3-.2-.6-.4-1.2-.5h-.1c1.1.4 1.7 1.6 1.3 2.7V73c-.1.4-.4.8-.6.9h-.1c.8-.5 1.8-1.1 1.8-2.6 0-1-.5-1.8-1.6-2.4.5.3.8.7 1 1.2V70c.4 1.1-.2 2.4-1.4 2.7.1 0 .2-.1.3-.1h-.2.1c.5-.1.8-.1 1-.2.1 0 .1 0 .2-.1h-.1c.3-.1 1.5-.3 2-.4.5-.1.6-.1.8-.1.6-.2 1.1-.6 1.4-1.2-.1.2-.3.5-.6.6.3-.2.5-.4.7-.7.4-.6.5-1.2.3-1.9-.1-.4-.3-.8-.7-1.1-.9-.8-1.6-1-2.9-1-.7 0-1.1.2-1.8.5-.1 0-.1.1-.2.1.2-.1.4-.2.5-.2-.6.1-5 1-5.5 1.1h.2-.4c-.8-.1-1.5.2-2 .9l-.1.1c-.6.8-.5 1.9.1 2.6 0 0 1.4 1.7 3.1 1.7.3 0 .6-.1 1.2-.2h.1c.1 0 .2-.1.4-.1-.2.1-.4.1-.4.1.1 0 .5-.1.6-.1H161.5h.3c-.8 0-1.5-.4-1.8-1-.4-.6-.4-1.4-.1-2.1l-.1.1c.1-.2.3-.5.5-.7l-.6.5c-.4.4-1.1.9-1.3 1.1-.1.1-.5.3-.8.5-1 .6-1.5.9-1.8 1.2.2-.2.4-.3.6-.4-.2.1-1.1.6-1.1.6-.5.3-.9.8-1 1.4v.1c-.3.7-.2 1.2 0 1.7z"/><path class="st0" d="M173.1 58.4H128l-8.9 8.9v16.5l8.9 8.9H173.2l8.9-8.9V67.3l-9-8.9zm7.3 18.3v6.5l-7.9 8h-43.9l-8-8V68l8-8h43.8l7.9 8v8.7z"/><path class="st0" d="M173.1 56.3H128c-.6 0-1.1.2-1.5.6l-8.9 8.9c-.4.4-.6 1-.6 1.5v16.5c0 .6.2 1.1.6 1.5l8.9 8.9c.4.4 1 .6 1.5.6H173.2c.6 0 1.1-.2 1.5-.6l8.9-8.9c.4-.4.6-1 .6-1.5V67.3c0-.6-.2-1.1-.6-1.5l-8.9-8.9c-.5-.4-1-.6-1.6-.6zm6.7 11v16.5c0-.6.2-1.1.6-1.5l-8.9 8.9c.4-.4 1-.6 1.5-.6h-45.2c.6 0 1.1.2 1.5.6l-8.9-8.9c.4.4.6 1 .6 1.5V67.3c0 .6-.2 1.1-.6 1.5l8.9-8.9c-.4.4-1 .6-1.5.6H172.9c-.6 0-1.1-.2-1.5-.6l8.9 8.9c-.3-.3-.5-.9-.5-1.5z"/><path class="st0" d="M178.2 76.7v6.5c0-.6.2-1.1.6-1.5l-7.9 8c.4-.4 1-.6 1.5-.6h-43.9c.6 0 1.1.2 1.5.6l-8-8c.4.4.6 1 .6 1.5V68c0 .6-.2 1.1-.6 1.5l8-8c-.4.4-1 .6-1.5.6h43.8c-.6 0-1.1-.2-1.5-.6l7.9 8c-.4-.4-.6-1-.6-1.5v8.7zm4.3-2.2V68c0-.6-.2-1.1-.6-1.5l-7.9-8c-.4-.4-1-.6-1.5-.6h-43.8c-.6 0-1.1.2-1.5.6l-8 8c-.4.4-.6 1-.6 1.5v15.1c0 .6.2 1.1.6 1.5l8 8c.4.4 1 .6 1.5.6H172.6c.6 0 1.1-.2 1.5-.6l7.9-8c.4-.4.6-1 .6-1.5v-8.6z"/><path class="st3" d="M133.2 26.2c.3 0 1.5-.9.3-2.4-1.2-1.6-3.8-1.3-3.8-1.3v.5s.4.5 1.4 1.9c1.1 1.2 1.7 1.3 2.1 1.3M140.4 26.5c-1 0-5.9.7-8.4 1-2.5.3-9 .9-9.9 1-1 0-2.3.2-2.3.2-.2.3-.1.4.4.7.4.3 1.1.7 1.7.7.6 0 1.4-.3 2.4-.5s5.6-1.1 11.2-1.2h4.8c.4 0 2.7.5 3.1-.3.3-.9-2-1.6-3-1.6M132.3 38.4c0-.4-.1-.7-.4-.9-.1-.1-.5-.2-.9-.4 1.7-.2 3.5-.5 3.9-.6.8-.2.7-.8.5-1-.2-.2-.3-.7-.1-1 .2-.3 1.2-1.2 1.7-1.5.4-.3.6-.6.5-.7-.1-.1-1.4-1.1-1.7-1.3-.3-.2-.6-.3-1-.3-.4-.1-1.5.6-2.1.7-.4.1-4.2.7-5.9.9-.6-.3-1.6-.4-1.6-.4-.2.3-.3.4.1.8s.9 1.1 1.2 2.4c.3 1.2.4 2.2.5 2.4.1.2.2.7.6.7.2 0 .4-.3.5-.8.4 0 1.1-.1 1.9-.2 0 .4.3 1 .4 1.3.1.4.1 3.4.1 4.8-.1 1.3-.4 1.5-.8 1.5s-1.6-.4-1.9-.4c-.4-.1-.2.4-.1.5.1.1 1.5 1.8 1.7 2.2.1.4.3 1.3 1 1.2.7-.1 1.5-1.8 1.7-2.1.1-.3.1-2.1.1-2.4 0-.3-.1-1.4-.1-1.9 0-.6.2-3.1.2-3.5m-4.8-5.4c1.8-.2 6.2-.8 6.5-.9.4 0 .5.4.5.4s-.3 1.6-.4 2c-.1.5-.3.6-.9 1-.5.3-3.7.7-4.9.8v-.1c-.2-.5-.4-2.2-.8-3.2M125 38.9c-.2-.1-.3.5-.5.8-.3.4-.8 1.3-1.2 1.8-.4.5-.8 1.3-.8 2.2 0 .9.3 1.1.7 1 .4 0 1.8-1.7 2.1-2.2.3-.5.5-2 .5-2.4 0-.2-.4-1-.8-1.2"/><path class="st3" d="M139.2 40.6c-1.3-.9-3.8-1.4-4.3-1.2-.3.1.3.8.6 1.1l3.6 3.6c.3.3.9.6 1.1-.3.2-.9.3-2.3-1-3.2M171.9 31c-.4 0-1.6.2-2.9.5 1.2-1.6 3.5-4.6 3.5-4.9 0-.4-1.2-1.9-1.9-1.6-.3.1-.3.4-.2.6 0 .2.1.7-.1 1.2-.2.4-1.8 3.1-3 5-.4.1-.8.1-1.1.2 0-.7.1-2 .1-3.3 1.3-.2 2.5-.6 2.8-.8.7-.6.4-1 .2-1.2-.2-.2-1-.3-1.5-.2-.3.1-.7.3-1.4.5 0-.6 0-1.1.1-1.3.1-.9.3-2.1.4-2.5.1-.4.1-1-1-1.4-1.1-.4-1.7-.3-1.7-.3-.2.3-.1.7.1 1 .2.3.6.8.6 1.4v3.5c-.4.1-.8.1-1.2.2-2.6.4-2.5.5-2.5.5-.1.2.4.7 1.7.9.4.1 1.2 0 2-.1v3.2c-1.8.2-4.8.5-5.5.6-.8 0-2.8.1-2.8.1-.1.3.3 1 1.5 1.5 1.3.5 3.8-.4 3.8-.4s2.6-.6 4.7-1.1c-.1.2-.2.3-.3.4-.4.5-1.4 1.5-2.4 2.6-.2-.1-.5-.2-.9-.1-.1 0-.1.5 0 1-1 1-1.8 1.9-2.1 2.2-.7.7-3.9 3.7-4.3 4-.4.3-.4.6-.3.6.1.1 2.4-1 3.7-2.1.5-.4 1.8-1.8 3.3-3.3 0 .3 0 .5.1.7v4.6c0 .3.2 1.1.7 1.2.1 0 .2-.5.3-1.4.3-.1.9-.3 1.6-.3.6-.1 1.3-.1 1.9-.2.2.8 1.1 2.6 1.6 2.5.7 0 1.1-2 1.1-2.2 0-.1 0-2-.1-3.4s.1-2.7.2-2.9c.1-.3.7-.6.3-.9-.4-.4-2-1.1-2.3-1-.3 0-.4.2-.7.4-.2.1-1.3.3-2.3.5 1.4-1.4 2.5-2.7 2.9-3.2h.1c2-.3 4.5-.1 4.6-.4-.3-.3-.6-1.1-1.4-1.1m-3.9 5c.3 0 .6.4.6.6.1.7 0 5.7 0 5.7s-1-.5-1.5-.6c-.4 0-2.2.4-3 .5 0-.8.1-1.8.1-2.6 2 .1 2.9-.1 3.3-.2.4-.1.4-.7 0-1-.4-.3-1.7.1-2.2.3-.3.1-.7.1-1 .2V37c0-.1.1-.1.1-.2 1-.2 3.3-.7 3.6-.8"/><path class="st3" d="M180.7 36.3c-.2-.4-1.7-1.9-3.3-2.5 0 0-.3-.1.1-.7.3-.6 1.9-2.8 2.5-3.4.6-.5 1.5-1.3 1.5-1.3l.1-.4s0-.3-.8-.8c-.7-.5-1.1-.6-1.1-.6l-1-.1s-.6.8-2.4 1.3c-1.2.3-1.9.4-2.5.4-.4-.2-.8-.3-1.1-.2-.3.1-.2.7-.1.8.1.1.4.4.4.9 0 .6.2 3.4.2 5.3v13.9c0 .3.2.4.5.4s.8-1.1.9-1.7c.1-.6.1-7.2.1-8.6 0-1.3-.1-9.5-.1-10.2.8 0 2.1 0 3.4-.5l.1.3s-.7 2.1-1.1 3c-.4 1-.9 1.9-.9 2.2 0 .3 0 .3.3.6.3.2 2.1 1.5 2.6 2.7.6 1.1.7 1.8.5 2.1-.1.3-.7.3-1.7.1-1-.2-2.2-.5-2.2-.5s-.4 0-.3.1c.1.2.9.8 1.3 1 .3.2 2.2 1.6 2.6 1.8.3.3.9.8 1.3.8s.9-.8 1-2.6c.5-1.7-.6-3.2-.8-3.6M202.8 103.5c-.9.2-2.4.2-2.4.2s-.3 6.1-.6 8.3c-.4 2.1-1.3 5.8-4.1 9.6-2 2.8-7.8 5-8.6 5.3-.8.4-4.8.7-5.2.4-.4-1.1 5.8-4.8 8.7-9.2 2.2-3.4 2.3-10.4 2.3-13.6-.7 0-3.7 1.4-4.2 1.5-.4.1-5.8-4.5-6.8-5.9-.2-.3-.2-.8.4-.8 3.7.2 10.9-3.7 10.9-3.7-.1-2.1.1-2.9.1-2.9-.1-.7-.2-1.9-.2-2.7.1-1.3-1.2-2.8-1.8-4-.6-1.3-2-2.5-.2-2.5 1 0 3.3.6 4.3.8 1.2.3 2.8 1.3 3.7 2 2 1.6 1.8 1.6 1.1 3.8-.6 1.8-.4 3.6-.1 3.6 1.1-.4 6 .4 4.6.2-.8-.2 3.5 1 4.5 1.2l1.4-.6c1.7-1.2 3.4-2.9 7.3-4.5 1.4-.5 3.5-1.6 6.4-2 2.9-.4 6.9-.6 9.7-.2 2.8.4 7.8 2.5 7.7 4.1.1 2.1-2.3 2.5-2.3 2.5s-.4 17.4-.6 19.5c-.3 2-2.1 3.2-2.7 2.8-.5-.4-3.6-2.6-4.1-3-.5-.4-10.4.1-10.4.1s-.1 1.7-.7 2.4c0 0-1.6.4-2.3 0-.7-.4-4.3-3.8-4.9-4.4-.2-.9 0-12.7 0-12.7s-3.4 1.9-3.6 2.6c-.6 2.8-.6 10.6-.7 13.9 0 1.9.4 6 2 7.4.6.8 1.7 1.7 3.6 2 3.7.6 15 .1 16.8-.3 2-.4 2.2-.5 3.3-1.4 1.1-.9 1.5-1.3 1.9-2.4.2-.7-.4-3.5.1-4.1.8-1 2.8 2 3.6 3.3.9 1.3 1.4 2.8 2.2 4.1 1 1.5-.6 4.4-2 5.7-1.3 1.2-6.9 1.3-9.5 1.4-2.7.1-13.7-.7-16.9-.9-3.2-.2-6.6-2.7-7.5-3.5-.9-.8-4.6-5.6-4-9.6.3-1.8-.3-11-.1-13.1l-.1-.7zm27.6-6.5c.3-.3.6-2.8-.9-3.8-3.3-.6-6.2.6-8.1 2.1-.3.5.2 3.6.2 3.6 2.5 0 4.8-.2 6.1-.4 1.4-.4 2.5-1.2 2.7-1.5m-8.3 10.9c2.3-.1 9.1.2 9-.2-.1-.4-.2-2.3 0-3.7-.5.3-7.3 1.1-8.8 1.4-.2.4-.2 2.5-.2 2.5M122.6 106.6c.3 0 .6 0 1.4-.1l15-1.5c2.1-.2 5.3-.6 6.5-.7 1.2-.1 10.9-.2 10.9-.2s4.8.1 5.6.1c.8.1 5.1.7 5.9.8.8.1 3 .4 4 .8.7.3 3 1.6 3.3 1.8 2.6 1.4 4.6 2.9 4.7 3.9 0 .2-.5 1.2-1.3 1.6-.4.2-2.4.3-2.8.3-.6 0-4-.3-4.8-.5l-6.9-1.6-6.1-1.1h-5.6c-4.2 0-6.9.5-7.5.6-.6.2-1.8.6-2.8 1.1-1.1.5-3.2 1.7-3.2 1.7-2.6 1.3-3.4 2.3-5.4 2.4-.7 0-2.9-1.5-3.5-1.9-.8-.8-3.9-2.9-5.1-3.7-.5-.4-1.7-1.3-1.9-1.5-.3-.2-1-.6-1-.7l-.7-.6c-.1-.1-.4-.6-.2-1 .2-.1 1.2 0 1.5 0M91.3 123.5c0 1.4-.2 7.1-.6 8.5-.1 1.6-2 2.1-4.1 2.2-2.1.1-5.5-3.2-5.8-4.7-.3-1.4 1-.4 1.2-1.5.3-2 .2-9.5.2-9.5l-2.2.2s-2.8 5.8-6.2 8.6c-1.1 1.1-5.9 2.9-7 3-1.1.1-5.8-.5-5.8-.5 2.1-.8 3.6-1.5 4.6-1.9 2.3-1 3.8-2 6-4.1 1.5-1.3 2.2-4.5 2.2-4.5l-1.7.3s-1.8.5-2.4.6c-.6.1-2.2.7-3.5.5-1.3-.2-2 .1-2.9-1-.5-.7-.8-2.6-.9-3.6-.1-.9 2.4-2 2.9-3 .4-.9 1.1-1.9 1.9-3.9.1-.3 1.7-3 2-3.2.9-.3 6.8-.9 8.6-1.1 2-.1 4-.4 6.1-.6 0-.3-.4-1.7-.4-2.1-.7.1-2.7.6-3.4.6-1.3.1-3.1.5-4.4.6-1.9.1-6.6 1.3-8.6.9-1.4-.3-4.7-2.2-3.8-3.3 1.4-1.6 9.3-1.5 11.2-1.9-1.1-1.1-1.3-2.3-2.3-3.4-1.6 1.2-2.2 1-3.9 2.2-1.5 1-2.4 1.4-3.2 1.7-.5.2-1.3.8-1.8.9-.8.1-2.9.3-2.9.3s2.2-1.9 2.8-2.5c.5-.5.8-1.3 1.3-1.7 1.6-1.5.2-.6 1.5-2 1.1-1.2 1.3-1.9 2.2-3.3.4-.5 1.4-2.4 1.3-3.1-.1-1.5-.2-3 .2-3.3.4-.3 5.3.3 6.8 1.2.7.4 2.4 1.4 2.4 2.2 0 0-.5 1.9 0 1.6.5-.3 2.7-1.3 4-1.6 1.3-.3 5.7 0 6.3.6.6-.5.9-1.3 1.2-2.1.7-1.5 1.1-2.1 1.7-3.1.9-.7 2-.6 3.4 0s2.6 1.7 4.1 2.2c.7.4 1.9 1.5 2.1 1.9 1-.1 3.1.4 4.5-.4 1.8-.3 2.2-1.1 4.1-.9 1.8.2 5.3 1.4 4.1 2.6-.1 1-5.1 1.5-8.6 1.5-.7.1-3.7 4.1-4.2 4.1 2.9.1 4.4.8 4.4.8 1.9 1.9 3.6 2.7 2.8 4.3-.2.5-4.2 2.8-4.6 3.2-.1.1-2.3 1.4-2.4 1.5 0 .2-.9 0-.9.2 0 .8-.3 2.3-.3 2.3-.6.2-2.8.3-3.4.4-1.5.2-2.5 0-4 .1-1.4.1-1.2-.1-1.7 0 0 .4-.1 2.7-.1 3.1.2.1 1-.2 1.1-.2 1.8-.2 2.3-.4 4.1-.5 2.8-.2 5.7-.3 8.5-1.1 1-.3 2.6-.1 3.6.4 1.1.5 1.7.5 2.8 1.1.9.5 4.7 3.4 4.4 4.4-.3 1-1.8 2.6-2.4 3.2-.9.7-2.1 2-3 3.1-.9 1.1-3.1 4.4-3.4 5-.3.6-1.3 2.2-2.2 2.7-.9.4-1.9.4-3.1-.1-1.1-.5-1.3-1-2.4-2.3-1.1-.7-1.8-.5-2.5-1.1-.7-.6-5.8-1.5-4.3-1.7h-1.3zm9.4-3.5c1.1-.9.6-3.4.6-3.4l-10 .6s.1 2.6.1 3.2l9.3-.4zM83 109.2c-2.3-.2-7.6.9-7.6.9l-1.7 2.3c3-.6 7.1-.2 9.2-.6-.1-.5.1-2 .1-2.6m-.1-11.5c.6-.9.4-.5 1.2-1.3.6-.6.4-.7 1-1.3 0-.1 1.3-1.4 1.2-1.5-1.5.2-5.9.6-5.9.6s.4 2.1.7 4l1.8-.5zm5.8-1c2.1-.3 5.4-.8 6.5-1.2 1.1-.4 1.5-3.5 1.5-3.5l-1.5-.1s-1.5 1.6-3.9 3.1l-2.6 1.7zm7.6 3.9c-1.5-.3-3.7 0-5.1.2.1.9 0 1.7.1 2.4 1.2-.2 2.8 0 4-.2.1-.7.5-.6.7-1.4l.3-1zM128.7 81.9c.5-.5 1.4-1.2 1.9-1.6.6-.5.7-.7 1.8-2 .1-.1.5-.6.6-.7.3-.4 2.3-3.6 2.6-4.1.2-.4.7-1.6.7-1.7 0-.1-.1-.2-.2-.2-.3 0-.7.1-1.1.1-.5.1-2.6.7-2.8.7-.6 0-1.7-1.1-2.1-1.6-.1-.1-.1-.1 0-.2h.7c1.8 0 2 0 3.7-.3.4-.1 1.9-.1 2.3-.2.2 0 1.1-.2 1.2-.2.1-.1.1-.2.1-.2v-1.6c0-.1-.1-1.9-.3-2.1-.2-.1-.9-.4-1-.5-.1 0-.2-.1-.2-.2s.4-.5.5-.5c.2-.1 1.3-.4 1.5-.4.1 0 .2.1 1.2.7.2.2.6.5.6 1 0 .1-.4 1.5-.4 1.7-.1.9-.1 1.1-.2 1.7l.1.1c.7 0 .8 0 2.2-.2 2.1-.2 2.3-.2 2.5-.3.5-.3.5-.3.7-.3.1 0 1.1.3 1.4.4.5.1.7.1 1 .5.1.1.2.2.2.4 0 .6-1 .6-1.1.6l-2.2-.2H141c-.2 0-.3 0-.4.1 0 .1 1.5 2.1 1.6 2.3.2.3 1.1 1.6 1.4 1.8.2.2 1.1 1.4 1.3 1.6.2.2.9 1.1 1 1.2.7.7 1.1.9 1.9 1.4.2.1.9.7 1 .8.3.2 1 .8 1.3 1.1.1.1.4.2.4.5 0 .1-.1.2-.2.2h-.4c-.2 0-.4 0-1.4-.1-1.6-.2-2-.2-2.3-.4-.9-.6-2.7-3.4-3.5-5-.4-.5-.8-1.2-1.1-1.6-.1-.2-1-1.5-1.1-1.7-.3-.5-.3-.6-.5-.6-.1.2-.1 1.5-.1 1.7 0 .7 0 2.8.1 3.4l.1.1c.2 0 1-.2 1.2-.2.1 0 1.4.4 1.4.9s-.5.6-.9.7c-.2 0-1.4.2-1.6.2-.1 0-.2 0-.3.2V81.5c0 .2.1.8.1.9v.6c0 .1.1.3.1.4 0 .3-.3 1.9-.7 1.9-.1 0-.1-.1-.2-.1-.3-.2-.5-.3-.8-1.3 0-.1-.3-.7-.3-.9 0-.5 0-.6.2-1s.2-2.4.2-2.7c0-.1 0-.3-.2-.3-.1 0-1.1.3-1.3.3-.4 0-1-.3-1.3-.5-.4-.2-.4-.3-.5-.6h.1c.7 0 2.6 0 3.1-.3.2-.1.2-1.4.2-1.5v-1.5c0-.1.1-.4.1-.5v-1.8h-.1c-.1.1-.4.4-.4.5-.2.4-2.1 3.4-2.4 4-.1.1-.2.3-.5.7-.1.1-.2.5-.3.5-.4.4-1 1.1-1.4 1.5-1.4 1.2-1.5 1.4-2.4 1.8-1.1.6-1.3.7-1.7.7-.7-.2-.7-.3-.8-.4zM153.3 83.5l.5-.2c.2-.1.9-.6 1-.7.9-.6 3.4-2.5 3.9-2.9 1.6-1.4 2.6-2.5 2.6-2.7 0-.1 0-.1-.1-.4l-.2-.2c-.2 0-.9.7-1 .8-.1 0-.2.1-.3.1-.2.3-.3.4-1.4 1-.1.1-.5.4-.5.4l-.6.3c-.2.1-.9.5-1.1.6-.1.1-.6.2-.7.3l-.4.1h-.3c-.1 0-.4.1-.5.1-.1 0-.2 0-.3-.1v-.1c.1 0 .3-.2.4-.2.1-.1 1-.6 1.5-.9.2-.1 1.1-.8 1.3-.9.1-.1.8-.6.9-.7 1.4-1.2 1.6-1.4 1.8-1.6.1-.1.5-.5.6-.5.1-.1.3-.5.3-.6v-.1c0-.1-.2-.3-.2-.4v-.2c.4 0 .5-.1.6-.1.1 0 1.4.3 1.4.9-.1.1-.1.1-.2.3 0 0-.1.1-.2.1l-.4.4c-.1.1-.5.6-.6.7v.1c.2 0 .5-.1.7-.1.2 0 1.1.6 1.1.8 0 .2-.8 1.3-1.1 1.6l-.6.6c-.2.1-.8.7-.9.8-.1.1-.3.4-.4.5-.5.3-.6.4-1.2.9-.2.2-.2.2-.6.4 0 0-.2.2-.3.2-.1 0-.5.2-.6.2 0 0-.9.6-1 .6-.2 0-.2 0-.3.2-.1 0-1.9.7-2.4.7-.1 0-.2 0-.2-.1zm3.1-15.3c0-.1 0-.1-.1-.4l.1-.1c.1 0 .2.2.4.4 0 .1.1.1.3.3.7 0 .8 0 2-.2l2-.4c.2 0 .9-.1 1-.1v-.2l-.3-1.8c-.3-.1-.4-.1-.9-.5l-.3-.2c0-.1.1-.1.2-.1h1.6c.8 0 2 .7 2.3.8.1.2.1.3.1.4 0 .1-.3.5-.3.6-.1.2-.3.9-.3 1.1.6 0 3.2-.2 3.7-.3.2 0 1.3-.2 1.5-.2.5 0 .8.2 1.3.5.2.1 1.3.6 1.5.8.2.2.4.3.4 1.1 0 .1-.1.2-.2.4-.1 0-.1 0-.3.1h-.7c-.2 0-.8-.1-1-.2h-.8c-.1 0-1.4.3-1.6.4-.1 0-.3.1-.3.1v-.1c.1-.1.8-.6.9-.8.1-.1.6-.7.7-1-.2-.1-.2-.2-.6-.2-1.3 0-4 .2-4.4.2-.2 0-1.3.1-1.5.2-.5.1-2.2.4-2.6.5-.2 0-1 .3-1.6.3h-.4c-.7-.2-.7-.2-.9-.2v.8s-.1.3-.1.4v.5c-.1.7-.2 1.8-.3 2.3-.1.3-.5 1.2-.8 1.2-.3 0-.7-.5-.7-.8 0-.1-.4-1.8-.4-1.9l.1-.2c.1-.3.1-.3.4-.5.1-.1.6-1.1.8-1.9.1-.7.1-.8.1-1.1m-.2 6.7c.3-.2.8-.4.9-.5.3-.3 2.1-1.3 2.4-1.6.3-.2 1.7-1.4 1.9-1.6l.1-.1h-.3c-.1 0-.9.1-.9.2-.1 0-.7.2-.7.2-.5 0-1.2-.6-1.4-.9l.1-.1h.7c.2 0 5.8-1.1 5.9-1.2.6-.3.7-.3.9-.3.9 0 1.1.1 1.5.5v.2c-.1.1-.2.1-.3.3-.2 0-2.5.4-3 .6-.1 0-.7.1-.8.1-.1 0-.2.1-.4.1v.1c.2.1.6.3.6.6 0 .2-.1.3-.8.8-.2.1-.2.2-.2.3.1 0 .7.2.7.3.1.1 1.1 1.3 1.1 1.4.1.2.5.9.6 1.1.2-.1 1.8-1.8 2-2.3-.1-.2-.7-1-.8-1.2l.1-.1h.6c.9 0 1.1 0 1.7.5 1 .8 1 1 1 1.3 0 .4-.4.7-.6.8-.4.1-1.1 0-1.5.3-.1 0-.3.2-.3.2-1 .8-1.3 1-2 1.4 0 0-.1.1-.1.2s1.3 1.5 1.5 1.8c1.2 1.4 2.3 2.1 2.9 2.5.2.1.8.5.9.6.1.1.7.4.8.4.4.2.5.2 1.1.6.9.5.9.6 1 .7.1.2.2.2.3.3.2.1.2.2.2.2 0 .1.1.3.1.4 0 .1-.6.3-.7.3-.2 0-1.2-.2-1.4-.2h-1c-1-.1-1.8-.2-3-1.8-.5-.6-2.4-3.5-2.8-4.1h-.1c-.1.4-.3 2-.4 2.3-.2.6-.2.6-.2 1 0 .1-.4 1.5-.9 2.2-.7 1-.8 1.1-1.1 1.3-.1 0-.7.4-.9.4-.3 0-.6-.4-.6-.5 0-.6 0-.7-.1-.8-.5-.7-.6-.7-.7-1.2-.2-.4-.2-.6-.6-.9-.1-.1-.1-.1-.1-.2.4.1 1.8.5 2.2.6 1.2-.7 2.1-4.1 2.1-5.3 0-.1-.1-.3-.1-.4 0-1 0-1.5-.4-2.1-.3-.4-.9-1.3-1.4-1.3 0 0-1.1.6-1.2.7 0 0-.2.1-.3.1-.1 0-.7.4-.8.5-.7.2-.8.2-1.5.5-.2.1-1.2.3-1.4.2l-.1-.4z"/><path class="st3" d="M173.1 58.4H128l-8.9 8.9v16.5l8.9 8.9H173.2l8.9-8.9V67.3l-9-8.9zm7.3 18.3v6.5l-7.9 8h-43.9l-8-8V68l8-8h43.8l7.9 8v8.7z"/></g></switch></svg>