<svg version="1.1" id="レイヤー_1" xmlns="http://www.w3.org/2000/svg" x="0" y="0" viewBox="0 0 301 157.4" style="enable-background:new 0 0 301 157.4" xml:space="preserve"><style>.st0,.st1,.st2,.st3{fill-rule:evenodd;clip-rule:evenodd}.st1,.st2,.st3{fill:#fff}.st2,.st3{fill:#b96aa7}.st3{fill:#807ebb}</style><switch><g><path class="st0" d="M38.9 59.8c-.1 0-.2.1-.3.1l-.3-.3c-.1 0-.1 0-.1.1h-.1v-.2c0 .3-.1.3-.2.5-.1 0-.3.1-.4 0-.1 0-.1-.1-.2-.1v-.2h.1c0-.1 0-.3.1-.4 0 0 .1 0 .1-.1.3-.5.6-.6.2-1.3-.2-.3-.6 0-.7.1-.4.3-.6.9-1 1.3-.2.1-.1.4-.4.4l-.4-.2c0-.1-.3-.4-.4-.3-.1-.1 0-.1-.1-.2h-.1c-.1-.2-.3-.5-.4-.7 0-.1-.1-.1-.2-.2-.1 0-.1 0-.2-.1s-.2-.2-.4-.2-.3.1-.5.1v.1h-.1c-.1.1-.3.3-.3.4h-.2v.3c-.1.1-.1 0-.1.1.1.3-.2.7-.1 1h-.1v.1c0 .1.1.1.1.1v.1s-.1 0-.1.1h.1c.1.1.1.8.1.9 0 .1.1.2.1.3h.1c0 .1.1.6.1.7h.1l.2.2c.1.2.1.4.3.5.1.1.4.2.4.5.2 0 .3.2.4.2.1.1.4.2.6.2v.5c-.1.3-.8.5-1.1.7-.1.1-.2.1-.3.2.1-.1.2-.1.3-.2.3-.1.7-.2.9-.2-.5.2-1 .4-1.4.5 0-.1.1-.1.1-.2-.1 0-.1.1-.2.2h-.4c-.1 0-.1.1-.2.1v.1h-.1c-.2.1-.4.2-.5.4-.1.2 0 .3 0 .5-.2.4.5.7.8.8.2 0 1.1-.3 1.3-.4.1-.1.2-.2.3-.2v-.1h.1c.1-.1.1-.1.2-.1v-.1s.1 0 .1-.1c0 0 .1 0 .1.1v-.1h.1s0-.1.1-.1c0 0 .3-.1.4-.1v-.1h.1v.1-.1.1-.1h.1v-.1h.1v.1c.1 0 .1-.1.2-.1v.2h-.1c0 .1-.1.2-.1.3-.1.2-.4.4-.6.5-.5.4-1 .9-1.5 1.3-.2.2-.5.6-.8.8v.1c.2 0 .6-.5.7-.7 0 0 .4-.4.5-.4.2-.1.4-.2.6-.4 0 0 .2 0 .2-.1.1-.1.2-.2.4-.3.2-.1.4-.2.5-.4h.2v.1s0 .8-.1.8c-.1.1-.3.1-.3.3-.3.1-.5.3-.7.4-.1.1-.3.1-.4.2-.1.1-.3.3-.4.2 0 0 0 .1-.1.1h-.1c-.1 0-.2.1-.3.2h-.2c-.1 0-.1.1-.2.2v.1c-.3 0-.6.4-.9.5.2-.4.5-.6.7-.9-.2 0-.6.8-.8.9 0-.1.1-.1.1-.2-.1.1-.1.2-.2.2-.2.2-.5.2-.8.4l-.1.1c-.1.1-.2.4-.3.4h.1s-.1 0-.1.1c.3.4.3.9.6 1.1.2.1.6.2.8-.1.1 0 .5.7.6.9.1.1-.3.5-.3.6 0 0 .2-.2.3-.2v-.1c.2 0 .3-.2.5-.1.4.1.9.5 1.3.1.1.1.3-.3.4-.4.1-.4-.3-.6-.5-.8-.2-.1-1-.4-1.3-.3-.1.1-.3.1-.4.2h-.3c0-.1.1-.2.2-.3 0-.1.1-.2.1-.3.2-.2.7-.4.8-.5.2-.1.3-.3.5-.2 0 0 .1 0 .1-.1.1 0 .2-.1.3-.1 0-.1 0-.1.1-.2v.1c.1 0 .1-.1.1-.1h.1c.2-.1.5-.2.6-.4v.1h.1v-.1c.1 0 .2 0 .2-.1h.1l-.1.1h.1v-.1.1c.1-.1.2-.1.2-.1v-.1c.1 0 0 .1.1.1.1.7.2 1.5 0 2.4-.1.2 0 .5-.1.7-.1.2-.1.6-.2.8-.1.2-.4.5-.4.7-.1 0-.3.1-.3.3-.2 0-.3 0-.5.1-.3.1-.7 0-1 .2h-.3c-.4.1-.7.1-1 .2-.3.1-1 0-1.1.1h-.1c.2.2.4.1.7.2.5.1 1 .1 1.4.2.2.1.7.3.7.3v.1c.1.1.3.1.4.2 0 .1 0 .2.1.2.1.1.1 0 .2.1h-.1c.2.1.3.2.2.4l.3.3v.2c0 .1.2.2.2.2.1.2.4.2.4.4.1 0 .4 0 .5.1 1.1-.1 1.5-.9 1.7-2-.1-.2 0-.4.1-.6.1-.2 0-.6.1-.9.1-.4.2-.8.1-1.3.1-.2.1-.9.1-1.1v-2c-.3-.9-.1-2 .1-2.8-.1 0-.1-.2-.1-.3-.1-.1-.3-.1-.4-.2h-.1v-.1h-.1l-.1-.1c-.1 0 0 0-.1-.1l-.1.1c0-.1-.2-.2-.2-.3V66l-.2-.2c0-.1 0-.2-.1-.2 0-.1-.1-.1-.2-.2.1-.1.2-.1.3-.1.3-.2.6-.2.9-.2.1 0 .1.1.2 0 .1 0 .1-.1.3-.1 0 0 0-.1.1-.1.1-.2.3-.4.4-.5 0 0 .2-.2.3-.2.1-.1 0-.3.2-.3 0-.7-.6-.6-.8-.9h-.4v-.1c-.1 0-.2.1-.3 0-.1.2-.4.3-.6.3-.2.2-.5.4-.8.4v-.2c.1 0 .1-.1.2-.1v-.1l.3-.3h.1c.1-.1.6-.2.6-.3h.1c.1-.1.2-.1.3-.2.2 0 .2-.1.4-.2h-.3v-.1h.1c.1-.1.1-.2.2-.3 0 .1.2-.1.2-.1v.1c0-.1.3-.3.4-.3l-.1-.1c0-.1.1-.3.2-.3l.1-.1.1-.1s0-.1.1-.1l-.1-.1c.2-.1.2-.3.4-.3h-.1c.1-.1.1-.2.1-.3.2.2-.2-.1-.6-.3M37.6 77zm.4-14.2c.1 0 0 0 0 0M37.5 59.9z"/><path class="st0" d="M30.1 69.3s-.1 0 0 0c.1-.3 1.3-1.4 1.6-1.5v-.1c-.4.3-.9.6-1.3.9-.2.1-.3.4-.6.5 0-.1 0-.2.1-.3v-.1h-.1v-.2c.1-.1.1-.3.1-.4V68c0-.1.1-.2.1-.3l-.1-.1c.1-.1.1-.3.1-.4 0-.1 0-.1.1-.2v-.1h.1v-.2h-.1c0-.1.2-.3.1-.4.1-.1.4-.3.3-.5.1-.1.5-.3.6-.5.1-.1.6-.3.7-.5v-.1l.5-.5c-.1-.5-1.1-.4-1.2-.8v-.1c0-.1-.2-.4-.3-.4v-.2h-.1s0-.1-.1-.2h-.3c-.1-.1-.2-.2-.4-.2-.1 0-.1.1-.2.1h-.1l-.2.2v.2s-.4.4-.4.5v.1h-.1c0 .2-.1.3-.2.6h-.1c-.1.1 0 .2 0 .3 0 .1-.2.3-.2.3v.3h-.1c0 .3 0 .2-.2.4 0 0 0 .2-.1.2 0-.1-.1 0-.1 0l-.4.4c-.2.2-.4.1-.6.3-.1 0-.3.1-.4.2-.1.5-.3.6-.5.6-.1-.3.3-.7.2-.9.1 0 .1-.1.1-.1 0-.1 0 0 0 0 0-.1.1-.1.1-.1.1-.1.1-.4.2-.5.1-.1.1-.1 0-.2.1 0 .3-.5.3-.6h.1c0-.1 0-.2.1-.3 0 0 0-.1-.1-.1v-.1h.1V64c0-.1-.1-.2 0-.3 0-.2-.2-.3-.1-.4l-.3-.3h-.2v.1s-.1 0-.1.1v-.1c-.1 0-.7.5-.7.6-.1.2 0 .4-.2.5-.1 0-.1.1 0 .2 0 .1-.1.1-.2.1h-.1c0 .1 0 .2-.1.4l-.1.1v.3s.1 0 .1.1c-.1 0-.1 0-.1.1v.1c-.1 0-.5 1-.5 1h-.1v.1s-.1 0-.1.1-.2.3-.1.4H24v.1c0 .1-.2.1-.2.1v.2l-.2.2c.1.1 0 .2-.1.3.2.1 0 .5.1.8 0 .1 0 0-.1.1l.1.6c0 .1.1.1.2.1.1.2.2.4.4.5.1-.1.3.2.4.1.1 0 .2.1.2.1v-.1s.1 0 .1.1c0-.1 0-.1.1-.1v-.1h.2c.1 0 0-.1.1-.1h.2c.1-.1.2-.3.3-.5 0 0 .1 0 .1-.1v-.1c.1-.1.3-.2.3-.3.1-.1.5-.4.6-.4v-.1h.1l.2-.2v.1s.1 0 .1-.1v.1c.1 0 .1-.2.1-.3l.1.1v-.1h.1v.1-.1h.1v-.1h.1c.1-.1.1-.1.1-.2v.1c0-.1 0-.1.1 0v-.1l.1-.1h.1v.1c.1.1-.1.5-.1.7 0 .2-.1.4-.1.6-.1.6 0 1.2-.1 1.7-.1.2 0 .4-.1.6-.2.2-.7.6-.8.8h-.1c-.1.1-.1.2-.2.2l-.1.1s0 .1-.1.1c0 .2-.3.3-.4.4 0 .1-.2.3-.3.3v.1c-.3.3-.4.6-.4 1.1.3.2.5.2.8.3.1 0 .3 0 .5.1h.8v.1h.2c.2.1.2.3.4.4.1.1.5-.1.4.2 0 0 .4.1.4 0 .1 0 .1.1.2.1.2 0 .3-.2.5-.1.1-.4.3-.7.2-1.2v-.1c-.3-.5-.3-2.3-.2-2.6v-.3c0-.2.1-.7.1-.8v-.3c0-.1.2-.2.1-.3v-.2c.1-.1.1-.3.2-.4 0 0 .2-.2.3-.2.1-.1.8-.7.8-.8-.2 0-.9.6-.9.8m-3.5-.9zm.8-.5c0 .1-.1.1-.2.2h-.1c0 .1 0 .1-.1.2v.1c0-.2.2-.3.3-.3.1-.2.1-.3.1-.2.1-.1.1-.1 0 0M26.2 73.7c-.1-.2.7-1.1.9-1.3-.1.3-.8 1-.8 1.2-.1 0-.1 0-.1.1m1.4.2c-.3.2-.7.2-1.1.2 0-.2 0-.4.1-.6-.1 0-.1.2-.2.3 0-.2.2-.4.3-.6.2-.5.8-.8.9-1.2.1.5 0 1.1.1 1.5 0 .2 0 .4-.1.4M31.3 65.5"/><path class="st0" d="M30.6 66c0-.1 0 0 0 0 .1-.1.1-.1 0 0 0-.1 0-.1 0 0 0-.1 0-.1 0 0M34.4 66.5c-.1 0-.1 0 0 0M31.5 68.1c0-.1 0-.1 0 0 0-.1 0-.1 0 0M31.2 68.2s.1 0 0 0c.1 0 .2-.1.2-.1s-.1.1-.2.1M31 68.4c.1 0 .2-.1.2-.1v-.1c0 .1-.1.1-.2.2M35.7 69.7zM32.9 73.1zM59 76.4c0-.1-.1-.1-.1-.2 0 0 0-.3-.1-.3-.7-1-1.8-1.3-2.9-1.7-.4-.1-.7-.2-1.1-.4-.1-.1-.3 0-.3-.1.1-.2.6-.3.8-.4.6-.4 1.5-1 1.5-2l-.3-.3-.5-.1c-.1.1-.5.3-.5.3-.2.3 0 .6-.4.7v.1c-.2.2-1.4 1.2-1.8 1.2h-.5c-.1 0-.2.1-.3 0-.2 0-.3-.1-.4-.1-.1 0-.2.1-.3 0V73c.2 0 .2-.1.2-.2.1-.1.2-.1.3-.2.2-.4-.2-1-.7-1h.1s.5.1.7 0c.2 0 .5-.1.7-.3.1-.1.1-.2.1-.3.1-.2.1-.3 0-.5v-.1c-.1-.2-.7-.6-.9-.5-.1 0-.2.1-.3 0h-.1c-.2 0-.3.1-.4.2h-.2c-.1 0-.1.1-.2 0l-.4.4h-.1s-.1.2-.2.2c-.2.1-.3.1-.4.2 0-.1.1-.1.1-.2h.1c0-.2.3-.4.4-.5.2-.3.8-.9 1.1-1.1.1 0 .2 0 .2-.1.1-.1.5-.3.6-.3.5-.6.1-1.4-.5-1.6h-.5s-.1 0-.1.1h-.5c.1-.1.5-.1.7-.1.1 0 .1.1.2 0 .3-.1.9-.2 1.2-.5v-.1c.1 0 0 0 .1-.1.1 0 0 0 .1-.1.1 0 .1 0 .1-.1 0 .1-.1.1-.2.2 0 0 .2 0 .2-.1 0 0 0-.1.1-.2.1 0 .2-.1.3-.1 0 0 0-.1.1-.1 0 0-.1 0-.1-.1l.1-.1c0-.1 0 0 .1 0 0-.1 0-.2.1-.2 0 0 .1 0 .1-.1 0 0 0-.1-.1-.1 0 0 .1 0 .1-.1.1 0 0 0 .1.1v-.2h.1V65c0-.1.1-.1 0-.2l.2-.2h.1v-.1c0-.1.1-.1.1-.3h.1c.2-.3.3-.7.4-1h.1c0-.3.1-.4.1-.7 0-.1 0-.5.1-.5v-.2c-.1-.2 0-.3 0-.6-.1-.3-.1-.7-.2-1-.1-.2-.3-.4-.4-.5-.1-.1-.2-.3-.2-.4-.2-.2-.8-.6-1.1-.7H53c-.2-.1-.6-.1-.8 0H52c-.1-.2 0-.8-.1-1.1-.1-.4-.1-1.1-.3-1.5-.4.1-.6 0-.6-.1h-.1s0 .1-.1.1v.2c.3.5.2 1.3.3 2v.8c-.1.1-.1.3-.2.4-.1.1-.3.1-.3.2-.3.4-.9.7-1.3 1.1-.3.3-.5.6-.8.9 0-.2 0-.3-.1-.5-.1-.3-.2-.8-.2-1.1-.1-.2-.1-.5-.2-.7v.2c0 .1-.1.2-.1.3v2c-.1.2-.1.3-.1.5h-.1c0 .3-.2.5-.3.8 0 0-.3.3-.3.4v-.1c-.1-.1 0-.3.1-.4 0 0 0-.1-.1-.1 0-.1 0-.1.1-.1 0-.1.1-.5.1-.5s-.1 0-.1-.1c0-.2.1-.2.1-.4h.1v-.1c0-.1-.1-.1-.1-.1 0-.1.1-.4 0-.6l.1-.1c-.1-.1-.1-.2 0-.3 0-.1-.1-.1-.1-.2h-.1v-.1c-.1-.1-.2-.1-.2 0l-.1-.1c0 .1-.3.2-.4.3v.1c-.1.1-.2.4-.1.5h-.1v.1c0 .1-.1.2-.2.3 0 0 0 .1.1.1l-.1.1v.7c0-.1-.1 0-.1 0 .1.1.1.2 0 .3l.1.1v.1H46c0 .2 0 .3-.1.4v.1h.1v.1c0 .1 0 0 0 0 0 .1-.1.1-.1.1v.1l-.1.1v.2h-.1c0-.4 0-.6-.2-.9v-.2c-.1-.1-.2-.2-.2-.3v-.1l-.3-.3V62c-.1 0-.3-.1-.3-.2h-.2c0-.2-.2-.2-.3-.2l-.3-.3c-.1 0-.2.1-.2 0-.2-.1-.5 0-.6-.1-.1 0-.1.1-.1.1-.1 0 0 0-.1-.1h-.2v.1c-.1 0-.1.1-.1 0-.3.3-.3.5-.3.9h.1v.5h.1c0 .1.1.2.2.2v.2c.1.2.2.3.3.5v.1c.2 0 .2.2.3.3h.1c.2.2.3.3.7.3v.1c0 .1.6.3.7.2h.5v-.1c0-.1 0-.1.1 0 .2-.1.2-.4.3-.5.1.1.1.4 0 .5 0 0 0 .1.1.1 0 .1 0 .1-.1.1v.1c.1.2 0 .4.1.6l-.1.1.1.1v.1c0 .1.1.3 0 .4 0 .1.2.3.2.4h.1c-.1.2.4 1 .9.9.5-.1.6-.3.8-.8l.1.1h.1c.3.2.5.1.9 0 .1 0 .3.1.5 0s.3-.3.5-.4v.1c0 .1 0 .1-.1.1.2-.1.5.1.5.3h.1v.2h.2l.1.1c.1-.1.2-.1.3-.1 0 0 0 .1-.1.1h-.1c-.1.1-.6.5-.8.4-.2.2-.6.3-.7.5h-.2v.1c-.1.1-.2.1-.3.2h-.1c0 .1-.1.1-.1.2h-.2c0 .1 0 .1-.1.2 0 0-.3.2-.4.2v.1h-.1c-.1 0-.1.1-.2.1v.1c-.2.1-.2.3-.4.3 0 .1-.1.4-.3.4-.1.1-.1.2 0 .3 0 .1 0 .1-.1.1.1.2.1.4.2.6.2.1.7.2.8.1 0 .2-.3.3-.3.4-.1.1-.1.3-.2.4-.2.2-.4.5-.5.7-.4.8-.9 1.5-1.2 2.3-.2.4-.2.8-.4 1.2-.1.3-.2.5-.3.8v.4c0 .1-.1.2-.1.4.2.1.1.3.2.4.1.1.3.2.4.3.2-.1.6-.1.7-.3.1-.1.3-.3.4-.2.1-.1.1-.1.2-.1.2-.7.3-1.2.5-1.9.1-.2.1-.7.3-.8 0-.1 0 0-.1-.1 0-.2.1-.4.3-.5v-.2c.1 0 .1 0 .1.1v-.2c.1-.2.4-.5.5-.7l-.1.1c0-.2.2-.3.3-.5.1-.4 1-1.6 1.4-1.8h.5v.1h-.1c-.1.1-.4.3-.5.3v.1c-.1 0-.3.2-.4.2-.1.1-.1.2-.2.2 0 .1 0 .2-.1.2v-.1c-.1.1-.2.4-.1.6l.1.1v.3c.1.1.2.3.3.4.2 0 .2.1.4.2.1.2-.4.8-.5 1-.2.4-.4.7-.6 1.1-.1.1-.1.4-.1.5-.1.1-.2.4-.2.7 0 .1.2.4.3.6.4.5 1.2.1 1.6-.1.5-.3 1-.5 1.5-.9.3-.2.5-.4.8-.6.3-.2.5-.7.8-.7.4 0 1.6.8 2 1 .2.1.6.3.5.6-.1.3-1.1.7-1.4.7.1.1.4-.1.6-.1 0 0 .8 0 .9-.1h.1c.1-.1.3-.1.4-.1.1 0 .1 0 .1.1.1 0 .4 0 .6.1.1.1.4.3.6.3.1 0 .3.1.5 0 .2-.5.8-1 .7-1.5M48 64.8c0 .1-.2.1-.2.2v.1c-.1.1-.1.2-.1.3 0 .1.1.2 0 .3 0 .2-.1.4-.1.5-.1-.2-.2-1.3 0-1.7.1-.1.3-.2.4-.3v.6m3.4-3.6h.1s.2.4.3.4v.2c-.1 0-.4.1-.6.1 0-.3.1-.6.2-.7m-.2 1.7c.1 0 .1 0 0 0-.1.2-.4.3-.5.6 0-.4.2-.5.5-.6m-2.2-.4v.1c-.1 0-.2 0-.3.1v-.3c0-.1.2-.2.3-.3.2-.3.7-.7 1.1-.8.1 0 .3-.1.5-.2h.1c0 .2 0 .3-.1.5v.3c-.1.2-.4.2-.5.3-.1 0-.2 0-.3.1-.2.1-.4.2-.6.2h-.1v-.2c0 .1 0 .1-.1.2m1 1.5c-.1.1-.7.6-.9.5v-.2c0-.1-.1-.1-.1-.2.1-.1 0-.4.1-.5.2-.1 1-.4 1-.5h.1c.1.3 0 .8-.2.9m.3.5c.1-.3 1.2-1.1 1.4-1.3.1.2-.2 1-.3 1.2 0 .1-.1.1-.2.2-.3-.2-.5-.1-.9-.1m1 7.1c0-.1 0-.1 0 0 .1-.1.1 0 0 0 .1 0 0 0 0 0 0-.1 0-.1 0 0m.2 3.4c-.3.2-1.6 1.1-2 1.1V76c0-.1.1-.4.2-.5.2-.4.4-.7.6-1.1.2-.1.4 0 .7-.1.4.1.7.1 1 .3v.1c0 .1-.3.2-.5.3M49.2 64.2s0-.1 0 0v-.1.1z"/><path class="st0" d="m44.2 68.3-.2.2c-.2.4-.4.9-.6 1.3-.3.7-.5 1.4-.8 2h-.1c-.5-1.2-.6-3-.2-4.2.2-.5.6-.7.8-1.3.1-.4-.4-.6-.4-.8h-.1c0-.1-.2-.2-.3-.3v.1s-.1 0-.1-.1h-.1l-.1.1c-.1.1-.2.1-.3 0 0 .2 0 .1-.1.2v.6c.1.2.3.4.3.7h.1c.3.5.1 1.2-.1 1.9-.2.9 0 1.8.1 2.5 0 .4.2 1.1 0 1.3 0 0 0 .1.1.1 0 .2-.1.5-.2.7 0 .1.2.6.1.7.2.2.5.3.8.4v.1h.1c.1.1.2.2.3.2h.1c.2.1.7 0 .8-.1.1-.1.1-.2.1-.3.1-.2.1-.3.2-.6 0-.1-.1-.3-.1-.5-.1-.1-.2-.3-.2-.3v-.1l-.1-.1v-.4c0-.1 0-.2-.1-.3v.1c-.1-.1-.1-.5-.1-.6 0 0 0-.1.1-.1h-.1c.1-.2.1-.5.1-.7v-.2h.1v-.1c.1-.1 0-.4.1-.6.1-.2.1-.3.1-.5h.1V69c0-.1 0-.1.1-.2h-.1l.1-.1V68.4h.1c0-.1 0-.1.1-.2-.1-.1 0-.1 0-.2h.1v.1s.1-.5.1-.6c-.4.2-.5.5-.6.8m-.4 2.2c-.1-.1 0-.1 0 0 0-.1 0 0 0 0zm0-.1zm.1-.3V70v.1M54 65.4c0-.1 0 0 0 0M53.9 65.5zM53.8 65.7zM53.7 65.9c-.1 0 0 0 0 0M52.8 66.6h.1c.1-.1 0-.1-.1 0 .1-.1.1 0 0 0 .1 0 .1 0 0 0M52.8 66.7s0-.1 0 0c0-.1 0 0 0 0M52.7 66.7zM44.7 66.9zM44.6 67s.1 0 0 0M44.6 67.1"/><path class="st0" d="M44.5 67.4c.1 0 .1-.1.1-.2-.1 0-.1.1-.1.2M44.4 68s0 .1 0 0M44.2 68.8c0-.1 0-.1 0 0zM44.1 68.9c.1 0 .1 0 0 0M43.9 70.7c-.1 0-.1 0 0 0-.1 0 0 0 0 0M43.8 70.9s0-.1 0 0zM47.7 74.2c.1 0 0 0 0 0M87.2 64.1h.1v.1c.1 0 .2 0 .3.1.1-.1.4-.1.5-.2.5-.7-.3-1.4-.9-1.5h-.1c-.1.2-.2.9-.1 1.1 0 .2.1.3.2.4M85 64.8c-.1.3 0 .7.3.9.1.1.1.1.2.1 0-.1.6.1.7 0 .1-.1.2-.2.4-.2.1-.1.1-.3.1-.4.1-.2-.1-.4 0-.5-.1-.1-.1-.2-.2-.3-.1-.1-.2-.1-.2-.2-.1 0-.2.1-.2.1l-.3-.3c-.1-.1-.2 0-.3-.1-.1 0-.1.1-.2.1 0 .1-.1.2-.1.3 0 0-.3.2-.2.3-.1 0 0 .1 0 .2M84.2 75.5s0-.1 0 0c-.8-.6-1.7-1.2-2.7-1.6-.7-.3-1.4-.4-2-.7-.3-.1-1.6-.5-1.5-.8-.2-.2.1-.7.2-.8h-.1.1v-.1c.1-.1.5-.5.5-.7.1 0 .1 0 .1-.1s.1-.1.2-.1c0 .1-.1.1-.2.2v.1c-.2.3-.5.6-.6 1 0-.3.6-1.2.8-1.1 0-.1 0-.1.1-.1 0 0 0-.1 0 0 .1 0 .3-.3.3-.4.3-.3.7-.7 1.1-1 .5-.4 1.3-.8 1.9-1.3.5-.4 1-1 1.6-1.1.1-.1.1-.3.1-.4.3 0 .2-.5.2-.7-.1-.1-.2-.3-.2-.4-.2 0-.3-.2-.5-.2h-.1c-.2 0-.3 0-.4-.1h-.2c-.1 0-.2.2-.2.2h-.2s0 .1-.1.1h-.1c0 .1-.2.2-.3.2v.1c-.1 0-.1.1-.2 0-.1.2-.5.2-.5.4-.3 0-.6.3-.8.6h-.1s-.1.1-.2.1l-.3.3h-.2s0 .2-.2.2c0 0-.6.5-.6.6-.7.7-1.3 1.5-1.7 2.5-.2.4-.5 1.6-.3 2 .1.2.4.4.5.5.1.1.4.4.6.4v.1c.1 0 .1.1.2.1.2 0 .4.1.6.2.2.1.5.1.7.2 0 0 1 .3 1 .2.7.1 1.4.4 2.1.7.8.3 1.2.6 1.6.7M67.4 73.7c.1 0 .3 0 .4.1.1-.1.3-.2.4-.4.1-.2.1-.3.2-.4.1-.1.2-.1.3-.2v-.1c.1-.1.2-.1.3-.2.1-.1.1-.3.2-.4 0 .1.3-.6.3-.7.1-.3.2-1 .1-1.4v-.1h-.1c0-.1-.1-.4-.1-.5v-.2.1c-.1-.1 0-.3-.1-.4 0-.1-.2-.2-.1-.3h-.1c0-.3-.4-.5-.4-.7-.1 0-.1 0-.1-.1l.1.1c-.2 0-.2-.2-.3-.3 0 0-.1 0-.1-.1-.3-.2-.9-.6-.9-.8h-.2s-.1-.1-.1-.2v.1c-.2 0-.2-.2-.4-.2 0 0-.1-.1 0-.1-.1 0-.1-.1-.1 0v-.1h-.1v.1c-.1 0-.1-.1-.1-.1-.1 0-.2 0-.2-.2v.1h-.1c-.1 0-.1-.1-.2-.1-.2-.1-.3 0-.5-.1-.1 0-.3-.1-.3 0-.1 0-.1 0-.2-.1-.2 0-.3 0-.5-.1h-.3c-.3.1-.7 0-1.1.1-1 .2-1.3.7-1.8 1.4 0 .2-.1.3-.1.5v.1c-.1.2-.1.5 0 .6 0 .3.1 1.1.2 1.2 0 0 0 .7.1.9-.1.2.1.8 0 1-.1.2 0 .5-.1.7-.3.4-.3.6-.3.8 0 .1-.1.2-.1.3h-.1c0 .2-.2.4-.3.5 0 .2-.1.5-.1.7v.1c-.1.3-.2.7-.2 1 0 .2.1.3.2.4.1.1.1 0 .2 0 0-.1.2-.2.3-.3.1 0 .1.2.1.2.1.1.3.1.5 0 .1.1.1 0 .2.1.6-.3 1.2-1.1 1.6-1.6.3-.4.7-.7 1-1.1v-.1l.4-.4c.2-.2.3-.4.4-.6.2-.2.4-.5.6-.8 0 0 .1 0 .1-.1.2-.3.4-.4.5-.6.2-.3.3-.6.6-.8h.1v.1c.6.2.8 1.4.5 2l-.1.3c-.3.4-.5.8-.9 1.1-.1.1-.2.2-.3.4-.2.3-.3.5-.5.8-.2.3-.5.6-.6.9.2-.1.5-.5.6-.6.1-.1.5-.6.7-.6 0-.1.3-.3.3-.3.1-.1.2-.3.4-.2.2 0 .2 0 .3-.1M62.3 71.9c0-.1 0-.1 0 0 0-.1 0-.1 0 0m2.1-2.5c0 .1 0 .1 0 0-.1.1-.1.1-.1.2-.2.1-.2.2-.3.3l.1.1c0 .1 0 .2-.2.2v.2h-.1c0 .2-.1.2-.2.3v.1h-.2c-.1 0-.1.2-.2.3-.1.2-.3.3-.5.4 0 .1-.1.1-.1.2-.1.1-.1 0-.1.1h-.2v-.1c0-.2 0-.4.1-.6v-.5c.1-.3 0-.7 0-1 0-.1 0-.1.1-.2v-.3c0-.2-.2-.6 0-.8v-.1c0-.1.2-.3.3-.4.2-.1.6-.3.9-.3.1 0 .3 0 .4.1h.1s-.1 0-.1.1v.1c-.1 0-.1.1-.2.1 0 .1-.3.6-.2.7 0 .2.2.2.2.4.1 0 .1.1.1 0v.1c.1.1.7.2.7.2-.3 0-.3 0-.3.1m2.3 4.6s.1 0 0 0M66.2 66.4c0 .1 0 0 0 0M66.4 66.4c0 .1 0 0 0 0M67 66.8c-.1 0 0 0 0 0-.1 0-.1 0 0 0zM77.3 65.5c.1.1.1.3.1.3.3.3.3.8.9.8h.2c.1-.1.2-.3.2-.5.3-.9-.3-1.1-.8-1.4-.1.1-.3.1-.5.1v.1h-.1v.1c-.1.2-.1.3 0 .5M76.2 68.6c.3.1.5-.3.6-.3 0-.3.2-.5 0-.8v-.2c-.1-.2-.3-.6-.5-.7-.1 0-.5-.1-.5-.1-.1-.1-.3-.1-.3-.1-.2.1-.4 0-.5.3-.1.2.1.5.2.6.1.5.5 1.2 1 1.3M71.1 67.7v.1s.1.1.1.2v.4c0 .1.1.2.1.3 0 .4 0 1.2.1 1.6v.5c.1.2.3.6.3.7h.1c0 .1.1.2.1.3-.1.1-.1.3-.2.4-.4 1-.6 2.1 0 3.2.1.2.6.3.8.4.1 0 .4.1.7.1.2 0 .4-.1.7-.1.6-.2 1.1-.5 1.6-.8.2-.2.4-.3.6-.5 0-.1.1-.1.1-.2 0-.5-.5-.6-1-.6-.1 0-.2 0-.2.1-.1 0-.2-.1-.4 0 0 0 0-.1-.1-.1-.1.2.1.5 0 .7-.3.4-1.6 1.1-2.1.6-.7-.5-.4-2.9.4-3h.2c.1-.2.3-.4.4-.6 0 0 .1 0 .2-.1l.3-.6c0-.1 0-.2.1-.2h.1v-.1c.2-.2.5-.2.7-.3.1 0 .2-.1.2-.2v-.2c-.2-.1-.4-.1-.6-.1-.1 0-.4.2-.4.1 0 .1-.2.2-.2.2-.1 0-.3-.8-.4-1-.3-.6-.7-1.3-1.3-1.5-.2-.1-.5-.3-.6-.2v-.1h-.3c-.1.1-.2.3-.2.5 0 0 .1 0 .1.1M67.6 67.3zM68.1 67.6s.1.1 0 0c0 0 .1.1 0 0M68.3 67.8s.1 0 0 0c.1 0 .1 0 0 0M68.5 67.9"/><path class="st0" d="M68.5 68c0-.1-.1-.1 0 0-.1-.1-.1-.1 0 0M68.6 68c-.1 0-.1 0 0 0-.1 0-.1 0 0 0M69.4 71.8c0 .1 0 .1-.1.2.1 0 .1-.1.1-.2M95.8 72.3c-.5-.4-1.1-.8-1.7-1-.4-.2-.8-.2-1.2-.4 0 0-.5-.1-.6-.1-.3-.1-.6-.1-.8-.2h-.2c-.1 0-.2-.1-.4-.1h-.5c-.2.1-.5.1-.7.1 0-.1 0-.1.1-.2 0 .1-.1.1-.1.2h-.2c.1 0 .1 0 .1-.1h-.1c.1-.1.1-.3.2-.4V70l.2-.2v-.1c.1-.2.5-1 .4-1h.1c0-.3.3-.5.4-.8H91.1v-.1H91c0-.1.1-.2.1-.3.1-.1.2-.3.2-.5h.1c0-.1.1-.2 0-.3.1-.1.1-.1 0-.1.1-.4.6-.8.6-1.3h.1c0-.4.5-1.2.8-1.4.1-.1.3-.2.4-.3.1-.2.1-.5 0-.7-.1-.1-.2-.2-.3-.2v-.1c-.1-.2-.5-.8-.7-.8-.1 0-.4 0-.5-.1h-.1c-.1 0-.3 0-.3.1-.1.1-.3.4-.4.4-.1 0-.2.1-.4.2-.1 0-.1.2-.2.2h-.2c-.1 0-.1.1-.2.2h-.1c0 .1-.1.1-.1.2 0 0-.1 0-.1.1-.1.1-.2.3-.3.4v.2c.1.1.1.2.1.3.1 0 .1.2.2.2s.1.1.2.1l.4.4c-.1.1-.1.3-.1.5-.1.1-.2.2-.2.4-.1.1-.1.3-.2.4-.2.3-.4.8-.7 1.1 0 .1-.1.2-.1.2-.3.4-.5.8-.7 1.3-.1.3-.3.6-.5.8-.1.2-.1.4-.3.6-.1.2-.3.4-.3.7-.2.2-.2.5-.4.7v.1c-.1 0-.1.2-.2.2 0 0-.1 0-.1.1v.2c0 .1-.1.1-.1.2-.1.2-.1.3-.2.5.1.1 0 .5-.1.5.1.3 0 .6.1 1.1v.1l.1.1v.2l.1.1c.1.1.3.5.5.4.1-.1.3-.1.3-.1.4-.3.7-.7 1.1-.5.1-.1.1-.1.2-.1v-.2c.3-.2.4-.5.7-.7.3-.2.6-.3.9-.5.2-.1.3-.1.4-.2v.1-.1c.1 0 .3-.1.5-.1.1-.1.2-.1.2-.1.2 0 .4 0 .5-.1v.1c.2.1.6.1.8.1v-.1c.1 0 0 0 0 .1l.1-.1h.1v.1-.1s0 .1.1.1v-.1h.1s0 .1.1.1h.1-.1.2v.1-.1h.1c0 .1.1.1.2.1 0 .1.1.1.2.1.1.1.4.1.4.2s.1.1.1.1c.1.1.3.1.4.3h-.1s.1.1.1.2l-.1-.1c.1.1.2.3.3.4-.1.1 0 .3 0 .4-.3.5-1.7 1.2-2.3 1.5-.3.1-.6.4-.9.5-.1.1-.2.2-.3.2.1.1.2 0 .3 0 0 0 .2-.1.3-.1.1 0 .1 0 .1.1-.1 0-.2.1-.3.1.1-.1.5-.2.6-.3h-.1.2c.2-.1.4-.3.7-.3 0 .1 0 .1-.1.1 0 .1-.5.2-.6.3h-.1c-.1.1-.4.2-.6.2.1.1.6-.1.8-.2l.1.1c0 .1 0 0 0 0h.1c0 .1.6-.2.7-.1.4 0 1.9-.6 2.2-.9.2-.2.7-.5.8-.8.7-.8-.1-2.1-.6-2.6m-4.9-4.8c.1 0 0 0 0 0m-1.1 1.8c0 .1 0 .1 0 0zm2.5 3.2h-.1.1c-.1 0-.1 0 0 0m0 0c.1 0 .1 0 0 0 0 .1 0 0 0 0m.1.1s0-.1 0 0zm.1 0h.1-.1zm.5 0c0-.1 0-.1 0 0 0-.1 0-.1 0 0m.6.1h.1v-.1c.1 0 .1.1.2.1-.1.1-.2 0-.3 0M91.9 76.5s-.1 0 0 0v-.1.1c0-.1 0-.1 0 0m.1 0c0-.1 0 0 0 0m-.1-.1v-.1h.1c0 .1 0 .1-.1.1m.2-.2s.1 0 0 0l.1-.1c0 .1 0 .1-.1.1m.1.3c.1 0 .1 0 0 0 .1 0 0 0 0 0m.1 0c.1 0 .1 0 0 0 .1 0 .1 0 0 0zm.6-.6s0-.1 0 0m0 .8c-.1 0 0 0 0 0-.1 0-.1 0 0 0-.1 0 0 0 0 0zm.9-.2c0-.1 0 0 0 0M91.8 66.2zM91.8 66.3c0-.1 0-.1 0 0zM91.6 66.7c0-.1 0-.1 0 0zM91.5 66.8zM91.1 67.5c0-.1 0-.1 0 0 0-.1 0-.1 0 0M90.9 68.1"/><path class="st0" d="M90.8 68.3c0-.1.1-.1.1-.2-.1.1-.1.1-.1.2zM90.6 68.2s0 .1 0 0c0 .1 0 0 0 0M90.6 68.5c0 .1 0 .1 0 0 .1-.1.1-.2.2-.3-.1.2-.1.3-.2.3z"/><path class="st0" d="M90.6 68.3c0 .1 0 .1 0 0 .1 0 .1.1 0 0zM90.6 68.5c-.1 0-.1 0 0 0zM90.5 68.5c0 .1 0 .1 0 0M90.4 68.7c0-.1 0-.1 0 0zM90.6 68.7c0 .1-.1.2-.1.2l.1-.2M90.4 68.7c-.1.1-.1.1 0 0 0 .1 0 0 0 0zM90.5 68.7s-.1.1 0 0c0 .1 0 .1 0 0 0 .1 0 0 0 0M90.3 69.1c0-.1.1-.2.1-.2-.1 0-.1.1-.1.2zM90.5 68.9c-.1.1-.2.3-.2.4 0 0 .2-.2.2-.4M90.3 69.1c-.1 0-.1 0 0 0l-.1.1.1-.1M90.2 69.3zM90 69.5h.1v-.1l-.1.1c.1 0 .1 0 0 0zM90.2 69.5c-.1 0-.1 0 0 0-.1.2-.2.3-.2.4 0 0 .1 0 .1.1-.1-.1.1-.4.1-.5M90 69.6c-.1.1-.1.2-.2.2v.1c.1-.1.2-.3.2-.3M89.9 70l-.1.1c.1 0 .1 0 .1-.1M89.5 70.3c.1.1.1.1 0 0 .1 0 .2-.1.1-.2 0 .1 0 .2-.1.2M89.8 70.3s0-.1 0 0zM93.8 73c0 .1.1.1 0 0 .1 0 0 0 0 0M94.1 73.2c.1 0 .1 0 0 0 .1 0 .1 0 0 0 .1 0 0 0 0 0M94.3 73.3s0-.1 0 0c0-.1 0 0 0 0M94.3 73.3c.1 0 .1 0 0 0 .1 0 .1 0 0 0 .1 0 .1 0 0 0 .1 0 0 0 0 0M94.6 73.5c0-.1 0-.1 0 0-.1-.1-.1-.1 0 0-.1 0-.1-.1 0 0M94.8 73.8c.1 0 .1 0 0 0 .1 0 .1 0 0 0M95 73.9c-.1 0-.1 0 0 0-.1-.1-.1-.1 0 0-.1-.1-.1-.1 0 0-.1 0-.1 0 0 0M91.7 76.4s-.1.1 0 0c0 .1 0 0 0 0s.1 0 0 0M91.6 76.5h-.2.2M92.3 76.6s0 .1 0 0c0 .1.1.1 0 0 .1.1.1.1 0 0M91.8 76.8c.1 0 .1 0 0 0 .1 0 .1-.1.1-.1l-.1.1c.1-.1.1-.1 0 0M91.5 76.7s0 .1 0 0M92.6 76.8v.1h.1c0-.1-.1-.1-.1-.1zM91.9 76.8c.1 0 .1 0 0 0zM91.6 76.8c0 .1 0 .1 0 0 0 0 0 .1 0 0M92.5 76.9s.1 0 0 0M92.4 76.9c.1 0 .1 0 0 0 .1 0 0 0 0 0M91.6 77c.1 0 .1-.1 0 0h-.2.2M91.8 76.9c-.1 0-.1 0 0 0-.1.1-.1.1 0 0 0 .1 0 .1 0 0M92.4 76.9h-.1c-.1 0 0 .1.1 0 0 .1-.1.1 0 0M114.1 65.1v-.2c-.3 0-.4-.3-.7-.4v-.1s-.2-.1-.3-.1c-.4-.3-.8-.5-1.2-.7-.2-.1-.5-.3-.6-.2-.2-.1-.5-.3-.8-.2v-.1h-.1V63c-.1 0-.1.1-.2.1-.2 0-.5-.2-.8-.1l-.1-.1v.1h-.9c-.3 0-.5.3-.8.2v.1c-.1.1-1 .4-1 .4v.1h-.2c-.1.1 0 .1-.1.1-.1.2-.3.1-.3.3-.1 0-.3.1-.4.1v.1c-.1.1-.2.1-.2.1v-.1h-.1s0 .2-.1.2c-.1.2-.5.3-.6.2-.1.1-.1.1-.1.2-.3.1-.5.1-.7.2v.1c-.1 0-.1.1-.2.1l-.1-.1v.1c-.1 0-.2-.1-.3 0 0-.1-.1-.1-.1-.2-.3.3-.6.4-1 .3 0 0 0 .1-.1.1l-.2-.1c-.1 0-.1 0-.2.1h-.2c-.1.1-.1.1 0 .1l-.1.1v-.1c-.1 0-.2 0-.2-.1-.1.1-.1.2-.2.2s-.1 0-.2.1v-.1c0 .1-.1.1-.1.2h-.1c-.1.1-.2.2-.3.2 0 0-.2-.1-.3 0-.1 0-.3.3-.4.3h-.1c-.1 0-.3.2-.4.2v.1c-.1 0-.2.1-.3.1v.2-.1c-.1 0-.1.2-.2.2-.1.1-.2.1-.3.2 0 .1 0 .3-.1.4v.1h.1c.1.1.1.3.2.4.1 0 .2 0 .1.2.2.2.4.2.6.2 0 .1.1.2.2.2v-.1c.1 0 .1.1.2.1v-.1c.1 0 .2.1.2.1h.1c.1.1.2.1.2 0 .1 0 .1.1.2.2.1 0 .3 0 .3-.2h.4c0-.1.1-.1.1-.1h.1s0-.1.1-.1c.1-.1.3 0 .4 0 0-.2.3-.2.5-.2v.1c.2-.1.6 0 .8-.2.1.1.2.1.3 0v.1c.1-.1.6.1.7-.1.2.1.3 0 .5.1l.1-.1.1.1c.1-.1.3 0 .3-.1.1 0 0 0 .1.1.1 0 .1-.1.2-.1.1.1.2 0 .4.1.1 0 .1-.1.2-.1h.2c.1 0 .2-.2.4-.1 0-.2.4-.2.6-.2.1-.1.2-.1.2-.2h.3l.1-.1h.2c.1 0 .1 0 .1-.1.2 0 .4 0 .3-.3.3.1.4-.2.6-.1.1 0 .1-.1.1-.2h.3c.3-.2.8-.6 1.2-.5.1-.1.4.1.5-.1.2 0 .4.1.5.2v-.1c.2 0 .3.2.6.1 0 .1.4.2.4.2v.1c.1 0 .4.2.3.3.1 0 .3.1.3.2.1.2.2 1 .1 1.1-.1.2-.2.3-.2.6h-.1c0 .2-.1.2-.1.4v.1c0 .1-.2.2-.2.4-.5.9-1.4 1.7-2.3 2.3-.2.1-1 .6-1 .8h-.1c-.1 0-.1.1-.2.1h.1c0 .1-.1.1-.1.1h-.1c-.1 0-.2.1-.3.1.1 0 .2-.1.3-.1-.2.3-.9.6-1.1.8h.1c0 .1 0 .1-.1.1-.2 0-.2.1-.3.1v-.1h-.1l-.2.2-.9.6c-.3.2-.8.3-1 .5.1 0 .3-.1.5-.2.1 0 .2.1.3 0 .1-.2.9-.5 1.1-.5l.5-.3c.3 0 .3-.2.6-.2v.1c-.3.1-.8.5-1.2.5v.1-.1h-.1c-.1 0-.9.4-1 .4.1.1.7-.2.7-.1.5 0 1.2-.4 1.7-.5v.1c.1 0 0 0 0-.1h.1v-.1c.3 0 .4-.1.6-.2.1-.1.1-.1.2-.1s0 0 0-.1c.1-.1.4 0 .5-.1 1.2-.6 2.4-1.1 3.5-1.8.1.1.3-.2.4-.2.1-.1.3-.1.4-.2.1 0 .5-.4.6-.5.4-.4.7-.9 1.1-1.3.2-.2.3-.6.4-.9 0-.2.1-.3.1-.5.5-1.3-.3-2.9-.9-3.7-.6.6-1 0-1.2 0m-7.1 9.8zM107 75c-.2.1-.5.2-.7.4.2-.2.5-.2.7-.4zm-.6.7s.1 0 0 0c.1 0 0 0 0 0m1.4-.7zm0-.6c0 .1 0 .1 0 0zm.3.5c0-.1 0-.1 0 0 0-.1 0-.1 0 0 0-.1 0-.1 0 0M108.4 74.8c-.1 0-.1 0 0 0-.1 0-.1 0 0 0-.1-.1-.1-.1 0 0 0-.1-.1-.1 0 0 0-.1 0-.1 0 0 0-.1 0 0 0 0m.1-.1zm0-.1c.1 0 .1 0 0 0 0 0 .1 0 0 0M108.5 73.9"/><path class="st0" d="M107.9 74.2c-.1 0-.1.1-.1.1l.1-.1c0 .1 0 .1 0 0M107.7 74.3s0 .1 0 0c0 .1 0 .1 0 0 0 .1 0 .1 0 0 0 .1 0 0 0 0M107.1 74.8s0-.1 0 0c0-.1 0-.1 0 0 0-.1 0 0 0 0M107.1 74.9c.1-.1 0 0 0 0zM107.8 75.6zM105.4 76.2c0-.1.1-.1 0 0 0-.1 0-.1 0 0 0-.1 0 0 0 0M131 63.4c-.2-.3-1.2-.8-1.6-.8-.1-.1-.1-.1-.1-.2-.5-.1-.2-.5-.4-.7-.3-.4-.6-1-.8-1.4-.1-.1-.1-.4-.1-.5-.1-.2-.4-.4-.5-.6-.2-.2-.3-.4-.5-.5v.1c-.1 0-.2-.1-.3 0-.1 0-.3.1-.3.1h-.1c-.1.1-.2.2-.3.2-.1.1-.1.2-.1.3v.5c-.1.3 0 .7 0 1 0 .2-.1.4 0 .6.1.2.1.6.2.8h-.1c.1.4 0 .6.1.9h-.1c0 .2-.1.4-.1.6 0 .1-.1.1-.1.2s-.4.4-.5.5l-.5.5c-.3.2-.6.5-.9.7-.4.4-.7.8-1.1 1.2-.2.2-.4.4-.5.6-.1.2-.2.5-.4.7-.2.2-.5.6-.6.9-.4.9-.7 2.4-1.2 3.1h-.1c-.1-.1-.1-.1-.1-.3h-.1v-.2c0-.1-.1-.2-.1-.3 0-.1.1-.2.1-.3l-.1-.2c.1 0 0-.7.1-.9 0-.1-.1-.2 0-.3.2-.6.1-1.1.3-1.7 0-.1 0-.1-.1-.1.2-.3 0-.7.2-.9l-.1-.1c.2-.2.3-1.3.1-1.6 0-.2.1-.2.1-.5-.1 0-.1 0-.1-.1v-.1h.1c0-.2-.1-.4-.1-.5h.1c.1-.2 0-.9-.3-1 .1-.3 0-.3-.1-.5.1 0 .1-.2.1-.3l-.2-.2V62c0-.1-.1-.3-.2-.4h-.1c-.1-.1-.2-.1-.2-.3h-.2l-.1-.1s-.2 0-.3.1l-.2.4c0 .1.1.1.1.2-.1.1-.1.3-.2.4l.2.2c0 .1 0 .1-.1.1.1.1.1.2.1.3.1.2.1.5 0 .8 0 0 .1 0 .1.1-.1.1.1.5.1.6 0 0 0 .1-.1.1 0 .1.1.4.1.6-.1.2-.1.3-.1.5 0 .1-.1.1-.1.1 0 .1.1.1.1.2h-.1v.1h.1c0 .2-.1.2-.1.4h-.1v.4c0 .1-.1.1-.1.2s.1.2 0 .3c0 .1-.1.2-.1.4 0 0-.1.2-.1.3 0 .2-.4 1-.3 1.1 0 .1-.1.4-.1.4 0 .1-.1.4-.1.5l-.1.1c0 .4-.2.7-.1 1.1-.1 0-.3 1.2-.2 1.4l-.1.1c0 .1.1.1.1.2v.4s-.2.2-.1.3h.1v.4c.1.2.2.7.3 1 .1 0 .1 0 .2.1v.2c.1.1.3.1.2.4 0 .1.1.2.2.2l.1-.1c0 .1.1.1.1 0 .1.1.2.2.2.4.2.1.3.1.4.3v-.1.1c.3 0 .4.1.6 0 0 0 0 .1.1.1.3.2.7-.1 1-.1 0-.1 0-.3.1-.4 0-.1.2-.1.2-.2.1-.2.1-.4.1-.6 0-.1 0-.1-.1-.2 0-.1.1-.4 0-.5 0-.1-.1-.2-.2-.3 0-.1.1-.2 0-.3-.1-.1-.2-.2-.2-.3-.1-.2.2-1 .2-1.2v-.3c.1 0 .1 0 .1-.1V72v.2c-.1-.2 0-.3.1-.4.1-.2-.1-.4 0-.5.1-.2.2-.6.3-.8v-.4c.1-.2.2-.5.3-.7 0-.1.1-.2.1-.3.1-.1.1-.1.1-.2.1-.2.1-.3.2-.4.2-.3.5-.6.8-.9.7-.8 1.3-1.4 2.3-1.9.2 0 .5 0 .7-.1 0 .1 0 .1.1.2 0 .2-.4.4-.5.5l-.4.4h-.1c-.1.1-.4.2-.5.3-.1.1-.2.2-.3.2.1.1.4-.2.5-.2v-.1c.3 0 .5-.3.7-.3 0-.1.7-.4.8-.4.1.1.1.2 0 .3.2.2.2.6.2.8-.1.5.3 1.4.1 1.9l.1.1c-.1.5.2 1.1 0 1.7.1.1-.1.6-.1.6s-.1.9-.2 1c0 0-.1.1-.1.2s-.1.4-.1.4c-.1.2-.2.3-.3.5 0 .1-.1.2-.1.3-.6.7-1 1.5-1.6 2.2-.3.3-.7.8-.9 1.2 0 .1 0 .1-.1.2s-.3.3-.4.5c.1-.1.1-.1.1-.2h.1c0 .1-.1.2-.2.3h.1l-.3.6.3-.3v.1c.1-.1.2-.1.2-.2h.1s0 .1-.1.1c.5-.2 1-.8 1.5-.8.1-.1.1-.1.2-.1h.1s0-.1.1-.1h.1c.1 0 .1-.1.2-.2s.1.1.2 0 .2-.2.3-.2h.2-.1c.1 0 .1 0 .1.1.2-.2.5-.3.7-.4v.1h.1v-.1h.1c0 .1-.1.3-.3.3v.1c.2-.1.7-.5.7-.7h.1v.1c.1 0 .1 0 .1-.1v.1l.1-.1h.1c0 .2.1 0 .2 0v.1h.2c.1 0 0-.1.1-.1s.3-.2.3-.3c.2-.1.4-.1.6-.3.1-.2.1-.3.2-.5.2-.5.6-1.3.6-1.9v.1c-.1-.6.2-1.3.1-1.9-.2-1.2-.1-2.9-.2-4.1 0-.3 0-.7.1-1 0-.1.1-.3.1-.4l.1-.1h.1c.1-.2.2-.2.3-.4.1 0 .2-.1.3-.1l.5-.5c0-.1 0-.2.1-.3l.1-.1v-.2c.1-.4.1-.6 0-.9-.3 0-.3-.1-.3-.2m-10.1 7zm4.9 6.7V77v.1M128.2 76.2"/><path class="st0" d="m127.1 76.6-.1.1v.1c.1-.1.1-.1.1-.2.1 0 .1 0 0 0M126.8 76.8zM126.9 76.8c0 .1 0 .1 0 0zM126.4 77c-.1 0-.1 0 0 0-.1 0-.1 0 0 0M126.3 77.1c0-.1 0 0 0 0zM125.5 77.4s.1 0 0 0M125.4 77.4c.1 0 .1 0 0 0 .1 0 .1 0 0 0M125 77.5c0 .1 0 .1 0 0 0 0 0 .1 0 0M124.8 77.7zM122.3 78.2s0 .1 0 0M122.2 78.3s0 .1 0 0M122.5 78.3s-.1 0 0 0c-.1 0-.1.1-.1.1.1 0 .1 0 .1-.1M122.1 78.4c0 .1 0 .1 0 0M122.3 78.5c.1 0 0 0 0 0zM122 78.5c.1 0 .1 0 0 0 .1 0 0 0 0 0M146 77.7c.5.2 1 .5 1.4.7l.9.6c.2.1.6.2.8.4l.6.3c.2.1.5.1.7.2.3.1.7 0 .9-.1.1-.1.5 0 .5 0 .2 0 .4 0 .6-.1.1-.1.2-.2.3-.2.2-.1.5-.1.6-.2.1-.1.1-.2.1-.3.1-.1.2-.1.2-.2l.1-.1c0-.1 0-.1-.1-.1 0-.1.2-.5.2-.5-.1-.4 0-.8.2-1.3.1-.3-.1-.6 0-.8.1-.3.3-.6.6-.8v-.1c-.1.1-.2.1-.3.2 0-.1 0-.1.1-.1h-.1.1c-.1 0-.2 0-.2-.1-.1-.1-.5 0-.7 0-.3-.1-.8-.1-1.1-.2-.1 0-.4-.1-.4.1-.2 0-.4-.1-.6 0v.1c-.1.1-1 .1-1.1 0-.1 0-1.1-.3-1.1-.3-.7-.1-1.8-.5-2.5-.7-.2 0-.3-.1-.5-.1-.4-.2-.7-.3-1.1-.4-.3-.1-.6-.1-.8-.2l-.5-.1s0-.1-.1-.1h-.2c-.1-.1-.2-.1-.3-.2-.8-.3-1.5-.4-2.1-.7-.3-.1-.2-.5-.2-.8-.1-.5-.3-1-.5-1.2-.1-.1-.1-.3-.3-.3v-.1c-.1 0-.5-.2-.6-.3-.4-.1-1.5 0-1.8.2 0-.1.5-.7.6-.9.2-.4.5-.7.7-1h.1c.2-.1.2-.2.4-.4 0 0 .1 0 .2-.1 0-.1 0-.2.1-.2.2-.1.6-.4.7-.5h.1s0-.1.1-.1h.1v.1c.4-.3 1.3-1.4 1-2-.1-.1-.6-.3-.7-.3h-.3s0-.1-.1-.1h-.2c-.2.2-.6.3-.7.5h-.1c.1-.2.4-.7.5-.7V64c0-.2.1-.3.3-.4 0-.2.1-.3.2-.5 0-.1.2-.1.2-.2.1-.5-.8-1.2-1.1-1.1-.1-.1 0-.1 0-.2s-.1-.1-.1-.1.1-.4.1-.5c.1 0 .1-.1.1-.2h.1c0-.1.1-.2.1-.3h-.1v-.1h.1c0-.6.6-1.1.9-1.6.2-.2.2-.6.3-.9-.1-.2-.1-.3-.2-.5 0-.1-.2-.1-.2-.2v-.3c-.1-.1-.3-.1-.3-.3h.1c-.2 0-.4 0-.6-.1v.1c-.3-.1-1 .3-1.1.5v.2c0 .1-.2.1-.2.2v.2c-.2.3-.2.5-.3.8v.2l-.1.1s-.1.6-.1.7l-.1.1v.5h-.1l.1.1c-.1.1-.1.2-.2.3-.1.1-.2.1-.3.1v.1l-.4.2h-.2v.1c-.2-.1-.8-.1-.8.2l-.2-.1c-.1 0-.1 0-.2.1-.1 0-.1.2-.2.2-.1.1-.3 0-.4 0 0 0 0 .1-.1.1s-.1 0-.2-.1v.2c-.2 0-.3.1-.3.3 0 .1-.1.2 0 .4 0 .1.1.2.2.3 0 .1.1 0 .1 0s.1.2.2.2h.2c.2.1.3.1.6 0 0 0 0 .1.1.1s.2-.2.2-.1v-.1h.4v-.1h.2c.1-.1.1-.2.2-.2.3-.1.4-.2.7-.4h.2c.1.2.1.5-.1.7 0 0 0 .3-.1.4-.2.2-.5.4-.7.6-.1.1-.3.4-.5.5l-.4.4v-.1c-.1.1-.1.1-.1.2-.1.1-.1.3-.2.5s-.5.8 0 1c.4.2.9-.2 1.3-.1h.1c-.1.2-.2.3-.3.4v-.1.1h-.1v.1h-.1c0 .1-.1.1-.1.2h-.1c0 .2-1.1 1.2-1.2 1.2-.2.2-.3.4-.6.5h-.1c-.2 0-.5.2-.6.3-.1 0-.1 0-.1-.1-.2 0-.3.3-.2.4-.1.2-.3.4-.4.6 0 .1.1.3.1.4-.1.6-.1 1.2.4 1.5.1 0 .2 0 .3-.1.2-.1.3-.3.5-.3.1 0 .2-.1.4-.1.2-.3.3-.5.4-.8.5-.4.9-.8 1.5-1.1 0 .3-1 1.4-1.2 1.7-.8 1.2-1.9 2.4-2.7 3.6-.4.5-.9 1.4-1.5 1.6-.1-.1-.3-.2-.4-.4v.1c-.1 0 0 0 0 0s0 .1.1.1h-.1s-.1 0-.1-.1c.1.1.1.2.1.4-.1 0-.1-.1-.2-.1-.1.3 0 .6-.2.7v-.1c0 .2-.1.3-.2.5v.2c.3.2 1.5-.4 1.8-.6l.2-.2c.2-.1.3-.2.4-.4.2-.1.3-.4.4-.5.1 0 .5-.6.5-.7h.1c.1 0 0 0 0-.1h.1c.2-.4.6-.8.9-1.1.2-.2.4-.7.6-.8 0 0 .7.6.7.7h.2v.1s.1 0 .1-.1c.1 0 .2.1.2.2.1-.1.2-.1.4 0l.1-.1c.3.3.7 0 1 .5-.1.1-.2.2-.4.3-.1.1-.3.3-.5.4h-.1c-.1.1-.5.2-.7.3-.2.1-.9.1-.9 0-.1.1-1 0-1.2-.1v.1c.1 0 .7.4.8.3v.1s.1 0 .1.1c0 0 .1.1.2.1.1.1.3-.1.3.1l.1-.1c.1.1.1.1.3.1v.1c.1 0 .6 0 .6.1v-.1h.3v.1h.1v.1c.3-.1.7.1.9-.1.1-.1.3-.1.4-.1 0 0 0-.1.1-.1s.1 0 .3-.1v.1l.1-.1v-.1h.1l.3-.3h.1l.3-.3c.1-.1.3-.1.4-.1.1.1.1.1.2.1.4-.1 1.6.7 2.2.9.4.2.8.3 1.1.5.6.3 1.2.6 1.7.9-.1-.1.2.1.5.2m1.5-3.5c.4.2.7.2 1.1.4h.3c.4.1.6.1 1 .3.2.1.4 0 .6.1v.1c-.7-.2-1.5-.3-2.2-.5-.2-.1-.5-.3-.7-.2-.1-.1-.1-.1-.1-.2M140 57.7c.1 0 .1 0 .2-.1 0 0 .1-.1.1-.2 0 0 .1 0 .1.1 0 .3-.2.5-.3.8h-.1c.1-.2.1-.3 0-.5v-.1m-.5 6.9c.1 0 .1 0 0 0 .1 0 .1 0 0 0 .1.1.1.1 0 0M135.7 64.6s0-.1 0 0c0-.1 0-.1.1-.1l-.1.1m-.1 8.5c0 .1 0 .1 0 0 0 .1 0 .1 0 0m.6-1.7c-.1-.1 0-.1.1-.1 0 0-.1 0-.1.1m.2 0c-.1 0 0-.1-.1-.2h.1v.1c.1.1 0 .1 0 .1m2.5.2h-.4c-.1-.1-1-.2-1.1-.2v-.1h-.3s-.3-.1-.4-.1c.1-.2.3-.1.3-.3h.2c.1-.1.1-.1.2-.1l.1.1c0-.1 0-.2.1-.2 0 0 .1 0 .1.1.1-.2.7-.1.8-.2.6.1.7.3.7.8-.2.1-.2.2-.3.2"/><path class="st0" d="M141.3 64.3c0-.1 0-.1 0 0-.1-.1-.1-.1 0 0M141.4 64.5c0-.1 0-.1-.1-.1l.1.1M142.2 71c.1.2.2.4.4.5v.1h.1c.1.1.2.1.3.2.5.4 1.2.4 1.8.5.2 0 .4-.2.6-.1.3.1.7.1 1.1 0 .4-.1.8-.3 1.2-.3.2.7.7 1.1 1.2 1.5h.3c0 .1 0 .1.1.2 0 0 0 .1.1 0 .1 0 .1 0 .1.1h.1v-.1c.2 0 .3-.2.5-.2 0 0 0-.1.1-.1h.1v-.1s.1 0 .1.1l.1-.1v-.1h.1c.1 0 .5-.4.5-.5v-.1c.1-.1.2-.1.3-.3l.1-.3c.3-.3.7-1.3.9-1.8.1-.2.2-.5.2-.7V69c0-.1 0-.3.1-.4-.1-.1 0-.4.1-.5v.2c.1-.1.1-.1.1-.2h-.1V68c0-.1.1-.1.2-.1v-.1l-.1.1v-.1s.2-.4.1-.5v.1s0-.1.1-.2h.1v-.1h-.1c0-.1 0-.1.1-.1h-.1v.1h-.1v-.2c.1 0 .1 0 0-.1v.1c.1-.1.1-.4.2-.5h-.1v-.1c0-.1 0 0 0 0-.1-.3.2-1.1.1-1.3-.1-.2 0-.3 0-.5-.1-.2-.2-.5-.3-.8l-.1.1c-.1-.3-.5-.8-.7-.9-.1-.1-.1 0-.1 0l-.2-.3c-.3-.2-.9-.2-1.3-.3h-.3c-.3-.1-1 .1-1.3.3-.1 0-.6.2-.7.2 0 0-.1 0-.1.1-.7.2-1.8.8-2.3 1.2-.3.2-1.4.9-1.6 1.1 0 0-.3.2-.4.4.2-.1.4-.4.5-.3.1-.1.5-.3.5-.3-.1.2-.5.4-.6.7.2-.1.4-.3.6-.4 0 0 .6-.3.7-.4.4-.2.9-.3 1.4-.5.3-.1.7-.3 1.1-.3 0 .1 0 .1-.1.2-.1.2-.5.4-.7.5-.2.1-.6.1-.7.3 0 .1.1.2.1.3 0 .1 0 .2-.1.2.1 0 .1 0 .1.1s-.1.2-.2.3v.1c.1-.1.1-.2.2-.3h.1c.1.3.5.3.6.5-.1.2-.1.4-.2.5v.1c.2 0 .2-.1.3-.1 0-.1.1-.2.1-.2.3-.2.7-.2 1-.4.1.3-.1.9-.1 1.1h-.1c-.2-.1-.3-.2-.4-.3-.6-.2-1.6.5-2 .8.1-.3.3-.5.3-.9.1-.1.1-.4.2-.6-.1.1-.9 1.4-.9 1.6h-.1v-.3c-.1-.2-.9-1-1.1-1-.2.2-.2.8-.1 1.3.2 1.2.1 2.1 1 2.5v.1c0 .3-.3.4-.4.6h-.1c-.3-.3-.6-.3-1-.4-.2-.1-.3-.2-.4-.3-.1-.1-.4-.1-.5-.1-.2-.1-.5-.6-.5-1-.2-.1 0-.7-.1-.9-.3-1.1.4-2.5.8-3.2.1-.2.5-1 .6-.9.2-.3.4-.6.7-.9v-.1c.1-.1.2-.1.3-.2.1-.1.1-.1.1-.3h.2v-.1h-.1v-.1c.1-.1.2-.2.3-.2h.2l.2-.2c.1.1.6.1.8.2.7.4 2 .3 2-.8-.2-.1-.3-.2-.3-.5-.1-.1-.2-.1-.3-.2-.1-.1 0-.4-.2-.6-.2-.1-.7-.3-.9-.4-.1-.1-.3-.2-.4-.3-.1 0-.6.2-.7.1-.2-.1-.9-.4-1-.6v.7c.1.6.3 1.2.5 1.6-.3.5-.8.9-1.1 1.4-1.1 1.6-2.2 3.4-2.4 5.8.3.8.2 1.6.7 2.4m10.8-4.4c.1 0 0 0 0 0m-2.5 6.3c0-.1 0-.1 0 0 0-.1 0-.1 0 0m-1.3-3.7c-.1-.4.4-.8.5-1v-.5c0 .1-.1.1-.1.2h-.1c0-.1 0-.2.1-.3 0 .1.1.1.1.2 0-.1 0-.2.1-.3 0 0-.1 0-.1.1v-.3s.1 0 .1-.1h-.1c0-.1 0-.1.1-.2.1-.2.1-.7.2-1 0-.1 0-.1.1-.2l-.1-.1c0-.4 0-1-.3-1.3-.1-.2-.4-.2-.5-.4.2-.2.7 0 1-.1.2 0 .4 0 .6.1.2.1.4.6.4.9.1 0 0 .7.1 1 0 .1-.1.3-.1.4.1.3-.3 1.7-.4 1.9v.1c-.2.2-.2.7-.5.8v.1c-.1.2-.2.7-.4.7v.1c-.2 0-.2.1-.4.2-.1-.1-.1-.2-.3-.3v-.7m.3-1.2v-.1h.1s0 .1-.1.1m-1.8-3.5c0-.1.1-.1.2-.2.1 0 .3.1.3.3-.1 0-.3-.1-.5-.1m-.1 3.7c0 .1.4-.1.5-.1 0 .3-.5 1.1-.7.8-.1 0 0 0 0 .1-.1 0-.2 0-.3.1h-.7c.2-.2.4-.5.6-.7.1-.1.4 0 .6-.2m-1.7-.5.6.5c-.1.2-.3.4-.4.6h-.1c0-.3-.2-.6-.1-1.1m.4 1.5c.2.1.4.1.6.2.2.1.1.2.4.2v.3c-.1.1-.6.3-.8.3-.1 0-.3-.1-.4-.1l.2.2c-.2.1-.4.2-.7.3h-.2c-.1 0-.1 0-.1-.1 0-.4.7-1 1-1.3M141 57.7s-.1 0 0 0c-.1 0 0 0 0 0M144.9 62.6c0-.1 0 0 0 0 0-.1 0 0 0 0M140.3 63.4s.1 0 0 0c.1 0 .1 0 0 0M140.3 63.6v-.1.1M140.2 63.6z"/><path class="st0" d="M148 63.9c.1.1.1.1 0 0 .1 0 .1 0 0 0M137.1 64c-.1.1-.1.1 0 0 0 .1-.1.1 0 0M150.1 65.7s0 .1 0 0c0 .1 0 .1 0 0 0 .1 0 0 0 0M150 66.4c0-.1 0-.1 0 0 0-.1 0 0 0 0M150 66.9s-.1 0 0 0c-.1 0-.1.1 0 0-.1.1-.1.1 0 0-.1.1 0 .1 0 0 0 .1 0 0 0 0M142.6 67.6c0 .1 0 .1 0 0M149.9 67.9c-.1 0-.1 0 0 0-.1 0-.1 0 0 0M149.4 68.9v.1-.1c.1 0 .1 0 0 0M150.1 72.8c.1 0 .1 0 0 0M138.5 75.7c.1 0 0 0 0 0 .1 0 0 0 0 0M137.6 75.9c-.1 0-.1 0 0 0-.1 0-.1.1 0 0 0 .1 0 0 0 0zM137.7 75.9s0 .1 0 0c0 .1 0 .1 0 0M81.2 94.1c.3.5-.1 1.3-.1 1.8-.1-.1-.1-.1-.1-.3h-.1c-.3.7-.5 1.6 0 2.4.1 0 .1.1.2.1.6-.7.8-2.4 1-3.4.5.3.4.5 1.2.6.2-.1.2-.1.2-.3.1-.5-.4-.7-.6-1.1h-.5c-.2-.3-.1-2.1 0-2.6v-.1c.5 0 1 0 1.2-.5-.3-.3-.8-.4-1.2-.4-.2-.3-.3-.8-.2-1.2-.1-.3-.1-.4-.5-.4-.1.1-.2.3-.3.4.1.5.3.7.2 1.1-.8.4-1.8 0-2.2.9 0 .2 0 .3.1.5.2.1.4.2.6.2.1 0 .2-.1.2-.1 0-.1-.1-.2-.1-.3.5-.3 1-.2 1.3-.2.1.1.1.4.1.7.2.7-2.4 1.8-2.9 2.4 0 .2.1.4.1.6.9.4 1.6-.9 2.4-.8M84.8 91c-.1-.1-.2-.1-.2-.2s-.1-.1-.1-.1 0-.1.1-.2c.6-.1 1-.3 1.5-.2 0 0 .1 0 .1.1-.1 1-.7 2-1.1 2.7 0 .1-.6 1.4-.5 1.5-.5.5-.8 1.1-1.1 1.7 0 .1.1.3.1.4h.1c.7-.3 2-1.9 2-2.6h.1c-.1.8-.2 2.4-.2 3.1 0 .1-.1 0-.1 0 0 .2.2.8.3.9.1 0 0 .1.2.1.1.1.4-.1.4-.2 0 .1.2 0 .2-.1.2-.2.1-.8.2-1.1.1-.7-.3-2.1.2-3.4 1 .2 1.7.9 2.7.8h.1c0 .1 0 .2-.1.3.2 0 .3-.1.5-.1.5-1.1-2.2-1.9-3.3-1.7-.1-.8.2-1.5.1-2.1.2-.2 1.2-.2 1.6-.2 0-.2 0-.4.1-.6-.7-.5-1.3-.7-2.3-.7-.3.1-.7.1-1 .2-.6.2-.9.6-1.3.9 0 .3.1.3.2.6-.1.3.1.3.5.2M35.8 97.9c.2.1.3.1.5.2.2-.3.5-.4.6-.9.9-.2 2.3-.7 3.5-1.1 0-.3-.1-.3-.2-.4.3 0 .5-.2.6-.4.1-.1.1-.6.2-.7.7-1.5.3-3.8-1.1-4.8-.8-.5-1.9-.5-2.7-.6-.1.1-.4.2-.4.5.2.1.4.2.5.3.5.1.9-.2 1.4 0 1.1.3 1.7 1.4 1.6 2.7-.5 0-.7-.3-1.2-.4-1-.3-1.8-.5-2.6-.3-.2-.5-.4-1.2-.8-1.6.1.5.1 1.1.2 1.6-.1.8.6 1.9.2 3.2-.2 1-.9 1.2-.3 2.7m1.6-4.8c.5.1 1.6-.1 2.1.2.3.2.1.6.3.8-.1.1 0 .1-.2.1.1.6.3.9.5 1.5-.5-.1-2.3-.3-2.7-.1-.2-.1-.1-.2-.4-.1 0-.6-.1-1.3-.1-1.9.1-.4.2-.3.5-.5M59 88.5c.2 0 .3-.2.4-.3 0-.3-.1-.5-.2-.9-.1 0-.9-.3-1.1-.4-.1.1-.4.1-.6.3l-.1.1c.4.5.9 1.3 1.6 1.2M56.8 90.1c.8-.5 2.1-.4 2.8-.5.7-.1 1.6-.1 2 .3-.3.4-1.3 1.1-1.9.9-.1 0-.5-.1-.7-.1-.1 0-.5.1-.6.1-.4.3-.9.7-1.5.2-.1.1-.1.2-.2.2 0 .3 0 .4.1.7.4.2.8.1 1.2.3.6.3.3 1.6 0 2.2h-.1c-.2-.3-.5-.5-1-.5-.1-.4-.1-.8-.4-.9 0-.2-.3-.3-.6-.2l-.1.1c0 .6.3 1.1.4 1.7.2.8.1 2.6-.7 2.9-.1.2-.3.5-.1.9v.1c.9-.1 1.7-2 1.7-3 .7 1.7 3 2.2 4.7 3 .2-.1 1.8.2 1.3-.6.1-.2-.4-.4-.3-.8.1-.2.2-.2.2-.3.1-.1.2-.1.3-.1v-.2c-.6.1-2.6-.2-3.5-.4-.3-.1-.7-.3-1-.4 0-.2 0-.3.1-.3-.1-.6 1.3-.8 1.7-.7.2-.2.6-.5.3-.8-.3-.5-1.1.1-1.7-.1H59c.2-.4-.1-.7.1-1 .2-.4.8-.7.7-1.2.7-.6 1.7-.3 2.2-1.2 0-1.5-4.3-1.6-5.5-.9 0-.2.2-.6 0-.8-.5 1-3.6 1.8-3 3.6 1.3.2 2.5-1.7 3.3-2.2M75.4 97.9c.1.1.1 0 .1 0 .2-.2 0-.3.2-.5.1-.2.4-.3.5-.5 0 0 .1-.1.1-.2.2-.5.5-.9.7-1.4.4-1 .6-2.4.3-3.7-.3-1.2-1.5-1.3-1.3-2.4-.5-.4-.5-.4-1.1-.5-.3.3-.7.4-.9.8-.3.5-.3 1.1-.5 1.6-.5 1.4-1.1 3-1.1 4.7 0 1.3.3 2.5 1.1 2.9.8.2 1.7-.5 1.9-.8m-1-1.1c-.2.1-.3-1-.4-1.3-.2-1 .5-3.3 1-4h.2c.2.3.8.6.9 1.1.5 1.2-.6 4.2-1.7 4.2M65.4 98.6c.4-.3.3-1 .3-1.7 0-.1-.2-.6-.1-.9.1-1.3.2-2.7.3-4 .2-1 .7-1.4.8-2.3-.1-.1-.2-.2-.3-.5-.3 0-.5-.1-.8-.1-.2.2-.3.3-.4.5.5 1.3-.1 4.4-.3 6.1-.2 1.3-.5 2.4.5 2.9M71.9 91.5s.2-.8.1-.8c-.1-.1-.2-.2-.3-.4.1 0 0 0 .1-.1-.1-.1-.1-.1-.2-.3-.4.1-.8-.3-1.2-.4v.2c-.4 0-1.1-.1-1.4.3-.7.8-1.5 3.6-1.8 5.1-.2 1.1 0 2.7.6 3.2.3.2.6.1.9.2.4-.6 1-1.1 1.4-1.8.7-.9 2-4.6 1.8-5.2M68.7 97c-.1 0-.1 0 0 0-.8-1 .4-4.4.8-5.1.2.2.3.4.5.4 0 .1-.1.1-.1.2.2.2.2.2.5.2.3.8-.9 3.8-1.7 4.3M43.2 90c.1-.2.1-.5.2-.7.5-.8 2.1-1.3 2.9-.6.1 1.3-2.1 1.5-1.6 3.2.2.6.8.9 1.2 1.4v.1c-.3.2-.8.2-1.2.1.5.6.8 1 1.7.8.1-.1 0-.1.1-.1.2-1.4-1-1.6-1.2-2.6.6-1.2 1.7-1.6 2-3-.5-.8-.7-.8-1.7-1-.3 0-.6.1-.9.1-1.3.4-2.7.8-1.9 2.3h.4M47.4 93.8c-.1.1-.2.1-.3.2 0 .4.1.5.3.8 0 0-.1 2.6-.1 2.7.1.1.2.3.4.4 0 .1.1.1.3.1.7-.5.3-2.1 1.6-2 .4 0 .9.5 1.2.8.6.5 1.5.9 2.2 1.1.1 0 1.4.4 1.5.1v-.2c.1-.1.2-.2.4-.3 0-.1 0-.3-.1-.4V97c-1.8.5-3.2-.6-4.4-1.5.2-.7 1.3-.5 1.5-1.6-.1-.2-.2-.2-.4-.3-.7.1-1 .8-1.8.9.6-.2.3-.9.5-1.3s.3-2.9-.1-3.5h-.5c-.2.2-1.6 1.1-1.9 1.2 0 0 0 .1-.1.1.6.1 1.2-.5 1.9-.7h.1c.1.5 0 .9-.1 1.3-.5.2-.8.5-1.3.3-.2.1-.4-.3-.4-.6h-.2c0 .2 0 .4-.1.6-.2.1-.3.2-.5.4.5.5.5.7.4 1.5m.8-1h.2c0-.1 0-.1.1-.2h.3c0 .3-.1.6-.1.9-.1.1-.3.1-.4.2H48c.1-.3.2-.6.2-.9m-.2 1.9c.2-.2.4-.3.7-.5.1 0 .2 0 .3.1.3 0 .3.4.8.2v.1l.1.1c-.5.1-.6 0-1.1.2-.2.5 0 1.2-.7 1.4-.1-.7-.1-1.2-.1-1.6"/><path class="st0" d="M43.7 91c-.3 1.7-.2 3.7-.4 5.3-.1.7-.1 1.4.2 1.9.2 0 .6-.5.5-1-.1-.4-.1-3.1 0-3.8.1-.7.1-2.1-.3-2.4M25 93.9c.8-.3 2.7-.1 4-.4.6-.1 1.2-.3 1.8-.2.4 0 .7.1 1.1.1.4.2.9.9 1.4.6.2-.1.2-.4.4-.5.1-.2 0-.5 0-.9-.1-.1-.3-.2-.4-.3-.3.2-1.2-.2-1.7-.1H29l-3.3.3c-.7-.1-1.4-.2-1.9.1v-.1c-.2 0-.4-.1-.5-.1-.1.3-.2.4 0 .7-.3.3 1.4.9 1.7.8M91.3 90.6c0-.1-.1-.2-.1-.3H91c-.4.3-.5.9-.1 1.3.3.5 2 .2 2.7 0 1.5-.3 3.3-.2 4.6.3.1 0 .5.1.6.1.3.2.7.6.9.9.6 1.2-1.5 3-2.1 3.4-.5.4-1.2 1-1.8 1v.4c.6.1 1.7-.7 1.9-.6.4.2.9-.5 1.4-.7 1-.3 2.7-2.7 1.5-4.1-2-2.5-6.2-2.3-9.3-1.7M108.2 89.4c-1.3.4-2.7-.2-3.2 1.5 1-.3 1.8-.7 3-.5 1 1.3.4 5-.5 6.5-.3.4-1.1.9-1.2 1.3.1 0 .1 0 .2.1 2.1-.5 2.5-1.6 3-4 .2-1-.3-2.2.2-3 .2-.2 1.1.1 1.3 0 .3 0 .4-.3.7-.3v-.1c-.2-.5-1.5-1.5-1.9-1.6-.3-.1-.4.1-.6-.1-.1-.1-.1-.6-.2-.9-.2-.1-.3-.3-.6-.3-.1.1-.3.2-.4.3.1.4.3.7.2 1.1M104 94.2c-.1 0-.2 0-.2.1h-.2c-.1-.6.1-3.4-.3-3.8-.1-.1-.2-.2-.4-.2-.1 0-.2.1-.3.1-.5.7-.1 2.8-.2 4-.1.7.4 2 .9 2 .2.1.2 0 .5-.1 0-.3.4-1.6.2-2.1zM134.6 94.2l-.9-.9c2.1-1.9 1.1-3-1.1-3.5-.1-.2-.3-.6-.1-.7.3-.4 1.2-.1 1.7-.1.1-.1.1-.2.2-.2 0-.1 0-.2-.1-.3-.2-.2-.6 0-.9 0-.4-.1-.8-.3-1.2-.4-.2-.5-.3-.9-.5-1.4-.1-.1-.2-.1-.4-.1 0 .3.4 1.1.3 1.6-.5.5-2.4-.3-3.3.9v.2c.9.2 2.4-.3 3.5-.1 0 .2.1.5.1.7-.3.4-1.1.4-1.2 1h-.2c0-.4 0-.7-.4-.9h-.1c-.4.6.1 1.1 0 1.8-.4.6-.2 1.5.1 2-1.1.4-2.2 1-3.1 1.1-.7.1-1.4.7-.9 1.6.2.3.7-.4 1.5-.3.3 0 .6-.2.8-.3.2-.1.5.1.7 0 .8-.4 1.4-.2 1.9-.4.4-.1 1.4-.3 1.6 0 .4.4.1 1.8 0 2.3-.3.1-.6.1-.9-.1h-.1c.1-.1.1-.1.1-.4-.5-.4-1.2-.9-2.1-.8.7 1.1 1.8 1.2 2.7 1.9.4.4 0 .8 1 1.1.2-.2.7-3.4.5-4 .2 0 .2-.1.3-.2.6 0 1.1 0 1.8-.2V95c-.1-.9-.8-.5-1.3-.8m-2-3.7c.7 0 1 .2 1.4.5v.2c-.5-.1-.9-.1-1.4-.2v-.5m-1 0h.3c0 .1.1.3.1.4v.1c-.2.2-.9.3-1.1.4v-.1c0-.2.4-.6.7-.8m.1 1.1c0 .1.1.2.1.2-.1.1-.1.1-.1.2-.3.1-.4.2-.8.3-.2-.3-.2-.4-.3-.9.6.1.7.3 1.1.2m.8 2.6c-1 .2-1.9 0-2.7.2.2-.6 2.4-.8 2.8-1.1 0 .4-.1.6-.1.9m1-2c-.3.1-.6.2-1 .1-.1-.3 0-.4.1-.6.8 0 .5 0 .9.5M124.6 96.4c.1 1.2-1.5 1.5-2.7 1.4-1.4-.2-3.1-.6-4.3-1.4-.4-.3-.3-.9-.6-1.2-.3-.3-.8-.4-1.3-.4v-.1c.6-.3 1.3-1.1 1.3-1.9-.2-.1-.3-.2-.5-.4v-.3c.4-.2 1-.5 1-1 0-.4-.7-.5-.9-.7v-.1c.1-.1.3-.2.4-.4.1 0 .2.1.3.1l.3-.3c.4-.6-1.2-1.4-1.5-1.5-1 .8-1.6-.2-2.5 1.2.2.2.5.4.8.5.2-.1.8-.3.9-.1.2.1.2.1.2.3-.1.2-.9.1-1.3.2v.6c.3.1.7.2 1 .1l.1.1v.4c-.5.2-1.6 1-1.2 1.7v.1c.3 0 .4-.2.6-.3.3.1.5.1.8.1-.9 1.5-4.5 1.5-4 3.7 1.1.6 3.2-2.4 4.6-1.7.1.1.1.2.2.2-.3.2-.9-.1-1.3.1-1 .4-1.8 2-.5 2.7 1.1-.2 2-.7 2.5-1.6.9.1 1.8.8 2.6 1.2 1.6.8 4.7.7 5.5-.7 0-.1-.1-.2-.1-.4-.2.1-.3 0-.4-.2m-9.6.9c-.1 0-.1-.1-.2-.1v-.4c.3-.4.4-.3.8-.5h.3v.1c-.1.3-.5.7-.9.9"/><path class="st0" d="M122.5 89.7c.3-.7-1.9-1.2-2.4-1.2-.3.1-.6.1-.8.3-.2.2-.2.3-.2.6l.2.2c.2-.8 1.8-.3 2.3-.3 0 .1.1.1.1.2-1 .8-4 1.5-4.2 2.8.7 1 .5 2.8 1 3.7h.3c.1-.6-.2-1.1-.3-1.7l-.3-2.1c.2-.5.7-.7 1.1-.9.1.5.2 1.2.1 1.9 0 .3-.1.6-.1.8.1.2.1.5.2.7-.1.3-.3 1.1 0 1.6.1.1 3 .2 3.1.2l.4-.4c-.1-.2.2-.9.3-1.1.3-.5 1.3-2.4.8-3.1-.5-.7-.9-.5-1.5-.8-.3-.1-.8-.3-1.4-.2-.3.1-.8.1-1.2.3l-.3-.3c.6-.4 2.5-.6 2.8-1.2m-2.1 5.1c-.2-.1-.2-.3-.4-.4 0-.3.1-.4.3-.5.2 0 .5.1.7.1h.1c-.2.4-.2.6-.7.8m-.4-1.9v-.2h1.1v.1c-.4.3-.8.3-1.2.2.1 0 .1-.1.1-.1m.6.4.2-.2h.4c.1.1.1.2.2.2-.2.2-.5 0-.8 0m1.8-1.7c.1 0 .1 0 0 0 .4 0 .7.1.9.4.4.8-.6 2.1-.9 2.6h-.5c.1-.2.3-.4.4-.6 0-.4-.1-.4-.2-.7.5-.1.3-1.2.3-1.7m-2.4-.1c.2 0 .4-.1.6-.1.4 0 .9 0 1.3.1.2.2 0 .5 0 .7-.6 0-1.2-.1-1.8-.1-.2-.1-.2-.4-.1-.6M141.8 89.2c0-.2-.1-.5-.1-.7-.1 0-.3 0-.4-.1 0 .8-.3 2.2-.1 3 .1.4.3.8.4 1.2h-.6c0 .2 0 .4.1.6.3.5 2.2.1 2.9-.1.2.8.3 2.9-.1 3.7-.3.4-1.8-.3-2.5-.3.3.2 1.6 1 1.9.9.2.5.7.9 1 1.5h.1c.6-.6.4-1.7.5-2.8.1-2.1-.3-4.6 0-6.5-.6-.8-2.3-.8-3.1-.4m2.1 3.2c-.1.1-1.4.1-1.7.1 0-.1-.1-.4-.2-.6.3-.2.5-.3.9-.5h.6c.2.1.3.4.5.6 0 .3 0 .3-.1.4m.1-1.8c-.6.2-1.3.2-2.1.1-.1-.3-.1-.5 0-.8.3-.2.6-.3.9-.5.5 0 .9-.1 1.1.2.1.4.1.7.1 1M140.4 90.2c-.3-.5-1.5-.4-2.3-.4-.2.1-.4.2-.6.2-.1.1-.1 0-.1.2.8 0 1.7 0 2.5.1 0 .6 0 .9-.1 1.5-.4-.5-.8 0-1.3-.3-.2-.1-.2-.4-.4-.5-.3.2-.7.4-.8.7.1.3.2.7.3 1l-.3.6c0 .3 0 .6.1 1-.1.8-.8 1.6-.5 2.5.1.4.3.4.4.8.1 0 .1.1.2.1.2-.3.3-.6.5-1 .2-.8 0-2.5.5-2.9.8-.7 1.8.4 2.3-.8v-.1c.1-.4-.2-.4-.3-.8-.3-.7.2-1.4-.1-1.9m-.7 1.7c-.2.6-.6 1-1.4 1V92.6c0-.1.2-.4.3-.5.3-.1.7 0 .9 0 .1-.1.1-.2.2-.2 0-.1 0 0 0 0M152.3 89.5c.4-.2.6-.2.7-.7-.4-.7-.7-1-1.2-1.4-.2.2-.3.3-.5.4 0 .5.3.9.5 1.4.1.1.3.2.5.3M151.1 89.8c-.7.4-3.8.1-3.4 1.6.1.1.1.2.2.2h.4c.2-.2.3-.4.5-.6 1.8-1.1 5.6-.4 7.2-.1l.1-.1v-.1c-.8-1.2-3.3-.6-5-.9"/><path class="st0" d="M152.8 91.1c-.2-.1-.3-.3-.5-.4h-.2c0 .1-.1.2-.1.3.5.1-.1 1.6-.3 1.7.1.5 0 1 0 1.5-.4.1-.6.3-.9.5.1.2.7 0 1-.1.1.1.2.3.3.4.8-.4.8-.5 1.9-.2v.2c-.8.9-1.8 1.1-3.1 1.1-.3-.8-.5-1.7-.9-2.4-.1 0-.3 0-.4-.1-.1-.4-.1-1.6-.3-2.3-.1-.1-.3-.1-.4-.2-.1.4.3 1.4.2 2.2-.3 1.7-.9 4-2.5 4.6-.2-.1-.3-.3-.4-.6-.1.2 0 .5-.1.6-.1.1-.2.1-.3.2-.1.4.4.6.5.7 1.7-.6 2.3-1.5 2.9-3.2.1-.5.2-1.1.3-1.6v-.1c.4.4.5 2.7.6 3 0 .1-.1.4 0 .6.1.2.3.2.3.4.2.2.4.3.7.4.2-.1.3-.2.3-.5.9-.2 2.4.2 3.2-.2.1-.1.3-.2.4-.3V97h.2v-.4c-.2-.1-.6-.4-.6-.5-.3.3-.4.3-.8.4h-.1c1-.2 1.6-1.3.6-1.9-.5-.1-1-.3-1.5-.4 0-.3.1-.6.1-.9.3-.5 1.9-.3 2.4-.1 0-.1.1-.1.1-.2-.4-.3-1.7-.5-2.4-.5-.3-.5-.4-1-.2-1.4M148.6 93.9c.1 0 0 0 0 0 .1 0 .1 0 0 0"/><g><path class="st0" d="M223.7 97.5s0-.1 0 0c0-.1 0 0 0 0M221.4 91.5c.1 0 .2.2.3.2 0 0 0 .1.1.1v.1c.1 0 .1-.1.1 0 .1.1.2.1.3.1h.3l.1.1h.2c.1 0 .1.1.1.1l.3.1h.1c.1.1.2.1.4.1h.3c.1 0 .6 0 .8.1h1.6c.3-.1.4-.1.7-.2v.2c.1.1.1 1 .1 1.2-.1.1-.3 0-.4 0h-.4c-.1 0-.2-.1-.3-.1h-.3c-.1 0-.1.1-.2.1v.1c-.1.1-.3.1-.4.3.1-.1.5-.2.6-.2-.1.1-.2.1-.3.2-.1.1-.2.1-.3.2-.1 0-.1.1-.2.2h-.1v.1c.1-.1.3-.2.5-.2-.1 0-.2.1-.2.1h-.1c-.1 0-.1.1-.2.1l-.1.1c.2-.1.4-.3.7-.4-.1 0-.1.1-.2.1h.1l-.3.2s.1 0 .1-.1c0 0-.1.2-.2.2l-.1.1c0 .1-.3.3-.4.4-.1.2-.2.3-.3.5h.1s0-.1.1-.1c.1-.1.2-.2.3-.4v-.1c0-.1.2-.2.3-.2.1 0 .3-.2.3-.2h.1c-.1 0-.1.1-.2.1l-.3.3c.1 0 .1-.1.2-.1 0 .1-.1.1-.2.1h-.1c.1-.1.2-.2.3-.2h-.1l.1-.1c.1 0 .1 0 .1.1.1 0 .3-.3.4-.2.1.1.3-.1.3-.2H226.2h-.1c.1 0 .2-.1.2-.1s.1 0 .1.1h.1c.3.2.6.7.7 1.1 0 .1.1.2 0 .4-.2.3-1.1.6-1.4.7-.4.1-.8.1-1.2.2h-.3c-.1 0-.1-.2 0-.3v.1h-.1v-.1.2h-.1v-.1l-.1.1v-.1c0-.2 0-.3.1-.5h-.1c0-.1 0-.3.2-.4h.2c0-.1.2-.4.2-.4s.1-.1.1-.2l-.1.1s0 .1-.1.1c0 .1-.1.2-.2.2v-.1c-.1.1-.2.3-.3.5v.1l-.1.2V96.6v-.2h-.1v.1-.4h-.1v.1-.1h.1V96v.1-.1.1c-.1-.2.3-.6.2-.7 0 0 .2-.2.2-.3l-.3.3h-.1v.2c0 .1-.1.2-.1.3l-.1.1c0 .1-.1.2-.1.3v.1c-.1.2-.1.3 0 .4h.1v.1-.1s.1 0 .2.1.1.2.2.2c.4 0 1 .2 1.3.1h1.1c-.1 0-.5.1-.6 0v.1h.6-.2.2c.1 0 .2-.1.3 0h.2s.1 0 .1-.1h.4c-.1.3-.3.6-.5.9-.1.1-.1.2-.2.3-.2.2-.3.5-.5.7-.1.1 0 .2-.1.2-.2.3-.4.7-.5 1.1 0 0 .1 0 .1-.1h.1v-.1l.1-.1c-.1.2-.1.3-.2.5v-.1c0-.1.1-.1.1-.1s.1-.1.1-.2c0 0 0 .1-.1.1v.1c-.1.1-.1.1-.1.2l.2-.3h-.1v.1h.2-.1v-.1c0-.1.1-.1 0-.1h.1v-.1c.1-.1.1-.1.2-.1v-.1h-.1.1v-.1s.1 0 .1-.1.1-.2.2-.2h.2v-.1h-.1v-.1h.1-.1c0-.1 0-.1.1-.1v-.1h.1c0-.1.3-.3.3-.4h.1l-.3.6c.1 0 .1-.1.1-.1 0-.1 0-.1.1-.1 0 .1-.1.1-.1.2 0-.1.1-.1.1-.2h.1V99c.1 0 0 0 0-.1.1 0 .1 0 .1-.1s.1-.1.1-.2c.1-.1.1-.2.2-.2 0 0 .1 0 .2-.1h.1c.1-.1.2-.2.4-.3h.2c.2-.1.3 0 .5-.1.1-.1.1-.1.2-.1 0-.1.2-.2.2-.4h.1c0-.1.1-.2.1-.3 0-.2-.1-.5-.2-.6v-.2c-.1-.1-.2-.5-.2-.6 0 0-.1-.2-.1-.3 0-.1-.1-.2-.1-.3v-.2c0-.1-.1-.4-.1-.5v-.2c-.1-.1 0-.2-.1-.2v-.1c-.1-.2-.1-.6-.2-.8v-.3c0-.2-.1-.4 0-.5v-.2c0-.4 0-.9.2-1.1.1 0 .1 0 .2-.1.1 0 .2-.1.3-.1.1 0 .3-.1.4-.1.5-.2 1-.5 1.4-.8.2-.2.5-.3.5-.6.1 0 .1-.1.2-.2s.2-.1.3-.2V88.6l-.1-.1s-.1-.2 0-.2h-.1v-.5c0-.2-.1-.5-.2-.7h-.1V87s-.1-.1-.2-.1-.1-.1-.1-.2c0 0-.1 0-.2-.1l-.1-.1h-.2l-.1-.1h-.1c-.4-.1-.8 0-1.2.2.1-.1.2-.6.2-.7.1 0 .1-.1.1-.2v-.1s.1 0 .1-.1v-.1h.1c0-.1 0-.1.1-.1 0-.2 0-.2.1-.4-.1-.1-.1-.2-.1-.3-.1-.1-.2-.1-.2-.2-.1 0-.2 0-.3-.1l-.2.1h-.1c0 .1-.1.1-.1.2v.2c-.1.1-.2.2-.2.3 0 .1-.1.3-.2.4v.2s-.1 0-.1.1 0 .3-.1.4c0 .1-.1.3-.1.4v.1c-.1.2-.1.7-.3.8v.1s0 .1-.1.1c0 0-.1 0-.1.1 0 0 0 .1-.1.1l-.3.1c-.2.2-.4.4-.7.5 0 0-.1 0-.2.1-.3.2-.6.3-.9.4-.2.1-.5.2-.6.2-.1 0-.2.1-.3.1-.1 0-.2 0-.2.1-.2.1-.7.2-.9.2-.1 0-.1.1-.2.1h-.1c-.1 0-.1.1-.2.1s-.2 0-.3.1h-.1c-.1 0 0 .1-.1.1l-.4.1v.1c-.1.1-.3 0-.3.2h-.1c-.1 0-.1.2-.2.2h-.1v.2c-.3.4-.2.5-.2.7m3.7 3.7c.1 0 .1 0 0 0 0 0 .1 0 0 0M225.5 94.4s.1 0 0 0m.2.8c.1-.1.1-.1 0 0m.1 0c0-.1 0-.1 0 0 0-.1 0-.1 0 0 0-.1 0-.1 0 0m.5-.1c-.1 0-.1 0 0 0-.1 0-.1 0 0 0-.1 0-.1 0 0 0zm-2.7 1.6c0 .1 0 .1 0 0 0 .1 0 .1 0 0zM223.5 96.8c.1 0 .1 0 0 0m-.1 0c0-.1 0-.1 0 0m.1.3c0-.1 0-.1 0 0 0-.1 0-.1 0 0m0 .1s0-.1 0 0c0-.1 0-.1 0 0m.1 0s0-.1 0 0c0-.1 0-.1 0 0m.3-.2s-.1 0 0 0c-.1-.1-.1-.1 0-.2v.2c-.1 0 0 0 0 0zm0-.3zM226.3 98c-.1 0-.1-.1 0 0 0 0-.1 0 0 0m0-.1zm-.9 3.3s0-.1 0 0c0-.1 0 0 0 0zm.2.1s-.1 0 0 0c-.1 0 0 0 0 0zm.2-.4c0-.1.1-.1.1-.2.1.1 0 .2-.1.2m.1.1s0-.1 0 0c0-.1 0-.1 0 0 0-.1 0 0 0 0m.2-.5s0 .1-.1.2c0-.1 0-.2.1-.2m-.1.5v-.1.1m.1 0s0-.1 0 0m.1-.5c0 .1 0 .1 0 0 0 .1 0 .1 0 0m-.1.2c0-.1 0-.1 0 0 0-.1 0-.1 0 0zm.1 0s0-.1 0 0c0-.1 0 0 0 0m.3-.4c0 .1 0 0 0 0 0 .1 0 .1 0 0zm.4-.3zm-.2.1c-.1.1 0 .1 0 .1 0-.1.2-.3.2-.4 0 .1-.1.3-.2.3m1-.8c0 .1 0 .1 0 0M225.8 94s.1 0 0 0M225.2 94.2c.1 0 0 0 0 0M225.2 94.2s0 .1 0 0c0 .1 0 .1 0 0M224.9 94.3"/><path class="st0" d="M225.1 94.3s-.1 0 0 0c0 0 0 .1 0 0M225 94.4s-.1 0 0 0c0 0-.1 0 0 0M224.9 94.5c-.1 0-.1 0 0 0-.1 0 0 0 0 0M224.9 94.8c0-.1 0-.1 0 0M224.8 94.8s-.1 0 0 0c-.1.1 0 .1 0 0M224.8 95s0-.1 0 0c0-.1 0 0 0 0M225.1 95s-.1 0 0 0M225 95c0 .1 0 .1 0 0 0 .1 0 .1 0 0M226.1 95.2h-.2.2M225.9 95.2c.1 0 .1 0 0 0 .1 0 .1 0 0 0M224.3 95.2s.1 0 0 0M225.9 95.2c0 .1 0 .1 0 0 0 .1 0 .1 0 0zM224.5 95.3c.1 0 .1 0 0 0M224 95.6l.2-.2.1-.1v-.1c-.2.2-.2.2-.3.4M225.8 95.3c.1 0 .1 0 0 0 .1 0 .1 0 0 0M223.9 95.3zM225.5 95.3zM223.8 95.4c0-.1 0-.1 0 0 0-.1 0-.1 0 0 0-.1 0-.1 0 0M224.5 95.5c.1 0 .2-.1.2-.2 0 .1-.1.1-.2.2.1-.1.1-.1 0 0 .1 0 0 0 0 0zM223.8 95.4s-.1.1-.1.2c0-.1 0-.1.1-.2M225.3 95.4s.1 0 0 0c.1 0 .1 0 0 0M225.3 95.4c0 .1 0 .1 0 0M224.7 95.5c.1 0 .1 0 0 0M225.2 95.5c-.1 0-.1 0 0 0-.1.1-.1.1 0 0-.1.1 0 .1 0 0M224.3 95.6c0-.1 0-.1 0 0 0-.1 0 0 0 0M224.6 95.6zM223.6 95.6c.1 0 .1 0 0 0 .1 0 .1 0 0 0M224.5 95.6c.1 0 .1.1 0 0 .1 0 .1 0 0 0 0 .1 0 0 0 0M224.4 95.6s0 .1 0 0c0 .1 0 .1 0 0 0 0 0 .1 0 0M224.8 95.7s0 .1 0 0c0 .1 0 0 0 0M223.8 95.8s0-.1 0 0zM224.3 95.8c.1 0 .1-.1 0 0M224.9 95.7c0 .1 0 .1 0 0 0 .1 0 .1 0 0M223.5 95.9s.1-.1 0 0l.1-.1c-.1 0-.1.1-.1.1M224.3 95.8c0 .1 0 .1 0 0 0 0 0 .1 0 0M224.7 95.8s0 .1 0 0M224.1 96.1l.2-.2h-.1c0 .1-.1.1-.1.2M223.9 95.9c0 .1 0 .1 0 0v.1-.1zM223.5 96c-.1 0 0 0 0 0M224 96zM224.3 96zM223.4 96.1c.1 0 .1 0 0 0M223.9 96.1c.1 0 .1 0 0 0 .1 0 .1 0 0 0M223.4 96.2c0-.1 0-.1 0 0zM223.9 96.1zM224.4 96.1s0 .1 0 0c0 .1 0 .1 0 0 0 .1 0 0 0 0M224.2 96.2c0-.1 0-.1 0 0 0-.1 0 0 0 0M223.7 96.3c0 .1 0 .1 0 0 0 .1 0 .1 0 0 0 .1 0 .1 0 0M223.3 96.3c0 .1 0 .1 0 0 0 .1 0 .1 0 0 0 .1 0 .1 0 0M223.7 96.4zM224 96.4v.2-.2c0 .1 0 .1 0 0 .1.1.1 0 0 0M223.7 96.5s-.1 0 0 0M223.7 96.5zM223.3 96.6c0-.1 0-.1 0 0 0-.1 0-.1 0 0M224.4 96.6c0-.1 0-.1 0 0 0-.1 0-.1 0 0M224.4 96.6zM223.7 96.6s0 .1 0 0M224.4 96.6c-.1 0-.1 0 0 0-.1 0 0 0 0 0M224.3 96.7c-.1 0-.1 0 0 0-.1 0-.1 0 0 0zM224.2 96.7zM224.2 96.7s-.1.1 0 0zM223.2 96.8c.1 0 0 0 0 0 .1 0 0 0 0 0M223.2 96.8zM224.1 96.8s.1 0 0 0M223.2 97.3l.1-.4c-.1.1-.2.3-.1.4M224.3 97c0-.1 0-.1 0 0 0-.1 0 0 0 0M224 97zM224.2 97c-.1 0-.1 0 0 0-.1 0-.1 0 0 0zM224.3 97.1c0-.1 0-.1 0 0 0-.1 0-.1 0 0zM224.2 97c0 .1 0 .1 0 0 .1.1.1.1 0 0 .1 0 .1.1 0 0M223.5 97.4c-.1 0-.1 0 0 0-.1 0 0 0 0 0M223.6 97.4c0 .1 0 .1 0 0 0 .1 0 .1 0 0M223.8 97.6zM224.5 97.8c0-.1-.1-.1 0 0-.1 0-.1-.1 0 0M225.3 97.8s-.1 0 0 0c-.1 0-.1 0 0 0M225.4 97.8c0-.1 0 0 0 0M224.6 97.8c-.1 0-.1 0 0 0-.1 0-.1 0 0 0-.1 0 0 0 0 0zM225.4 97.8s-.1 0 0 0c-.1 0-.1 0 0 0-.1 0-.1 0 0 0M224.8 97.8h-.1.1M224.4 97.8zM224.9 97.8zM225 97.8c-.1 0-.1 0 0 0zM225.5 97.9c-.1 0-.1 0 0 0-.1 0-.1 0 0 0zM225.3 97.9c.1 0 .1 0 0 0 .1 0 .1 0 0 0 .1 0 .1 0 0 0zM225.2 97.9c.1 0 .1 0 0 0 .1 0 .1 0 0 0M225.1 97.9c.1 0 .1 0 0 0zM225.8 98zM226.6 98s.1 0 0 0c.1 0 .1 0 0 0 .1 0 .1 0 0 0M227.1 99.8s-.1 0 0 0c-.1 0-.1 0 0 0M227.1 99.8c.1 0 0 0 0 0zM226.9 100.2s.1 0 0 0M226.8 100.2c.1 0 .1 0 0 0M226.8 100.3c0-.1 0-.1 0 0M226.9 100.3zM226.7 100.3zM226.6 100.4c.1 0 .1 0 0 0 .1 0 .1 0 0 0 .1-.1.1-.1 0 0 .1-.1 0 0 0 0M226.6 100.5c.1 0 .1 0 .1-.1 0 .1 0 .1-.1.1M226.5 100.5zM226.5 100.5s.1 0 0 0zM226.5 100.6s0-.1 0 0c0-.1 0-.1 0 0 0-.1 0-.1 0 0M226.6 100.6s-.1 0 0 0zM226.5 100.7s0-.1 0 0c0-.1 0 0 0 0M226.5 100.7c-.1 0-.1 0 0 0-.1 0-.1 0 0 0M226.4 100.8s-.1 0 0 0c-.1 0 0 0 0 0M226.3 100.8c0 .1 0 .1 0 0 0 .1 0 .1 0 0 0 .1 0 0 0 0M225.7 101.1zM225.9 101.3c-.1 0-.1 0 0 0zM225.4 101.3zM225.7 101.4c-.1.1 0 .1-.1.2.1-.1.1-.2.2-.2v-.1c0 .1 0 .1-.1.1.1 0 .1 0 0 0 .1 0 0 0 0 0M225.3 101.4s.1 0 0 0M225.5 101.5c.1 0 .1 0 0 0 .1 0 .1 0 0 0M225.3 101.7c0-.1.1-.1 0 0 0-.1 0-.1 0 0zM225.3 101.7zM225.3 101.7zM225.3 101.8zM241.9 96v-.1c0-.1-.1-.1-.2-.2 0-.1-.1-.2-.1-.2h-.1c-.1 0-.2 0-.2-.1v-.1h-.1c-.1 0-.1-.1-.2-.1 0 0 .1-.1 0-.1v.1V94.9l.1-.1v-.1h-.1c.1-.1.1-.3.2-.4 0-.1 0-.2.1-.3 0 0 .1-.3.1-.4v.1c.1-.4.1-1-.1-1.3-.2-.2-.8-.4-1-.1v.2l.1-.1c0 .1-.1.1-.1.2v.3c-.1.3-.2.7-.3.9v.6c0 .1.1.2 0 .2-.2 0-.4-.1-.5-.2h-.2c-.3-.1-.6-.1-.8-.1-.1 0-.2-.1-.3 0 0-.1-.1-.4-.1-.4-.1-.1 0-.4-.1-.6-.1-.2-.1-.6-.1-.8 0-.2-.1-.2-.1-.4-.1-.1 0-.3-.1-.4 0-.1-.1-.2-.1-.3l-.2-.2v-.1c-.1-.1-.2 0-.1-.1-.1 0-.2-.1-.2-.1s0-.1-.1-.1h-.1s0-.1-.1-.1h-.1c-.1 0-.1-.1-.2-.1v.1c-.1 0-.2 0-.2.1h-.1l-.1.1h-.1l-.2.2c-.1.1-.1.3-.2.5-.1.1-.2.2-.2.3v.1c-.2.2-.4.4-.5.6-.1.1-.2.1-.3.2 0 0 0 .1-.1.1h-.1l-.1.2s-.1 0-.1.1c-.1.1.1.3 0 .4.1 0 .1 0 .1.1h.1c.1 0 .1.1.1.1h.1c.1-.1.2 0 .3 0 0-.1 0-.1.1 0l.1-.1c.1-.1.2-.1.3-.2 0 0 0-.1.1-.1s.2-.1.2-.1l.4-.4c.1 0 0 .4 0 .4-.1.2-.1 1-.4 1h-.4c-.1 0-.3.1-.4.1h-.6c-.6.2-1.2.1-1.8.3h-.1c-.2 0-.4.1-.6.1-.2.1-.3.1-.5.2.1 0 .2-.1.3-.1.2-.1.6-.1.9-.1-.1.1-.2 0-.3.1-.2.1-.5.2-.7.2 0 0-.1 0-.1.1.1 0 .3-.1.4-.1.3 0 .6-.1.9-.1-.4.1-1.1.1-1.4.4h.1-.1c.1.1.1 0 .2 0-.1 0-.1.1-.2.1.1 0 .3-.1.4-.1-.1.1-.3.1-.4.2-.2.1-.5.3-.6.5-.1.2 0 .7 0 1 0 .2.1.3.1.4.1.2.1.5.2.7l.1.3.2.4c.1 0 .1.1.1.2.1.1.2.2.3.2 0 0 .1 0 .1.1v.1h.2c.1.2.8.2 1 .2h-.1c.3.1.8-.1 1-.1.1-.1.3-.2.4-.2 0-.1.3-.2.4-.2-.1 0-.2.1-.3.1.2 0 .4-.1.6-.2V99h-.1v-.1h.1v-.1s.2 0 .2-.1c-.1 0-.1 0-.1.1.1-.1.2-.1.3-.2l.3-.3c.1 0 .1-.1.2-.1v-.1c.1-.1.3-.4.4-.4 0 0 0-.1.1-.1h-.1l.4-.4s0-.1.1-.1c0 .1 0 .1-.1.1.1-.1.2-.2.2-.3-.1 0-.1.1-.2.1 0-.1.1-.2.2-.1.1-.1.1-.2.2-.3 0 0 0 .1-.1.1 0-.1.2-.2.2-.4.1-.1.1-.2.1-.2 0-.1.3-.7.3-.7.3-.2 1.3.2 1.5.4.1.1-.1.4-.1.4 0 .1-.2.5-.3.6 0 0-.1 0-.1.1s-.1.2-.2.3c-.1.1-.1.3-.2.5-.1.1-.2.2-.1.3l-.3.6c-.1.1-.2.3-.2.5h-.1c0 .1-.1.3-.2.3 0 0 .1 0 .1-.1s.1-.1.1-.1h-.1c.1-.2.3-.4.4-.6.1 0 .1.1.1.1h-.1v.1h.1s0-.1.1-.1h-.1v-.1c0-.1.1-.2.2-.3v.1s0 .1-.1.1c.1-.1.2-.4.3-.4-.1.1-.1.2-.2.2v-.1s.1 0 0 0h.1v-.1l.1-.1c0-.1.1-.1.1-.1l-.1.1c0-.1.1-.1.1-.1h.1v-.1h.1c0 .1-.1.1-.1.2 0-.1.1-.1.1-.1.1-.1.2-.3.3-.4 0 .1-.1.1-.1.2l.2-.3c.1-.1.1-.1.2-.1v-.1h.1-.1c0 .1-.1.1-.1.2 0-.2.2-.2.3-.4v.1l.3-.3h.1s0-.1.1-.1h.1c.1.1.3.2.4.1.1 0 .2 0 .3.1.1-.1.2 0 .2 0 .1-.1.2-.1.3-.2v-.1l.1-.1c.6-.2.6-.4.6-.5m-.8-1.3c0 .1 0 .1 0 0 0 .1 0 .1 0 0 0 .1 0 .1 0 0m-.1.1s.1 0 0 0m-.1-.2c.1 0 .1 0 0 0 .1.1 0 .1 0 0m-8.2.4zM234.6 94.8s.1 0 0 0m-2.1 1c.1 0 0 0 0 0m0 0c-.1 0-.1 0 0 0m0 .1c0-.1 0-.1 0 0 0-.1 0-.1 0 0m-.1-.1c0 .1 0 .1 0 0m-.1.1zm-1.1.8c0-.4.3-.7.6-.8.1 0 .3-.1.4-.1-.1 0-.2.1-.2.1-.3.2-.7.4-.8.8m4 2.4c.1-.1.1-.1 0 0 .1-.1.1 0 0 0m-1.3-2c-.2.1-.5.4-.6.4-.2 0-.3.1-.4.1h-.5c-.4-.1-.7-.2-.9-.5 0-.1 0-.2.1-.3 0-.1.1-.1.1-.2-.1 0-.1.1-.2.2 0-.2.5-.7.7-.8.1 0 .2 0 .3-.1v.1c-.2 0-.2.1-.4.2.1 0 .6-.3.7-.3.2 0 .4-.1.6-.1.4 0 .9-.1 1.3-.3.2-.1.5 0 .7-.1h.1c-.4.7-1.1 1.4-1.6 1.7m1.7-1.8c0 .1-.1 0-.1.1-.2 0-.4 0-.6.1-.3.1-.7 0-1 .1-.4.1-.8.1-1.2.2 0 0 .1 0 .1-.1-.1 0-.1 0-.2.1h-.1c.2-.1.4 0 .6-.1.1 0 .2 0 .4-.1.4-.1.9-.2 1.3-.2.3-.1.5-.1.8-.1m3.2 3.1c0 .1 0 .1 0 0 0 .1 0 .1 0 0m-.1-.2s.1 0 0 0c.1 0 .1 0 0 0m.4-.5c0 .1 0 .1 0 0m0 0s0-.1.1-.1l-.1.1m.1 0c0-.1 0-.1 0 0 0-.1 0-.1 0 0 .1-.1.1-.1 0 0 0 0 0-.1 0 0M239.6 97.3c.1 0 .1 0 0 0 .1 0 .1 0 0 0m.4-.4c0-.1 0-.1 0 0 .1-.1.1-.1 0 0 .1-.1.1 0 0 0m.3-2.5v.2h-.1c0-.1-.1-.1-.1-.2-.1-.3.1-.9.3-1.2 0 0 .1 0 .1-.1.1.5 0 .9-.2 1.3M240.2 92.6c0 .1 0 .1 0 0M238.6 94.5c0-.1 0-.1 0 0 0 0 0-.1 0 0M240.3 94.5c0-.1 0-.1 0 0zM238.7 94.5s.1 0 0 0c.1 0 .1 0 0 0 .1 0 0 0 0 0zM235.9 94.5c-.1 0-.1 0 0 0-.1 0-.1 0 0 0M235.7 94.5zM235.6 94.5zM235.4 94.5zM235.3 94.5zM234.8 94.6h-.1.1zM234.6 94.6c.1 0 0 0 0 0M241.2 94.6s0 .1 0 0c0 .1 0 .1 0 0M234.4 94.6c0 .1 0 0 0 0"/><path class="st0" d="M234.5 94.6s-.1 0 0 0c-.1.1-.1 0 0 0M234.3 94.7c-.1 0-.1 0 0 0-.1 0 0 0 0 0M234 94.7h.2-.2zM241.2 94.7c-.1 0-.1 0 0 0zM234 94.7s-.1 0 0 0c-.1 0-.1 0 0 0zM233.8 94.7c0 .1 0 0 0 0M233.6 94.8h-.3.3M233.3 94.8s.1 0 0 0M233.2 94.8c-.1 0-.3 0-.4.1.1 0 .3 0 .4-.1.1 0 0 0 0 0M231.5 95.4zM231.3 95.5c0 .1 0 .1 0 0 0 .1 0 .1 0 0M231.5 95.6zM231.4 95.6c0 .1 0 .1 0 0 0 .1 0 .1 0 0M233.1 95.7h.1c0-.1-.1-.1-.1 0M232.9 95.7c.1 0 .1 0 0 0M231.9 96.3h.1-.1M231.8 96.3s0 .1 0 0l-.1.1c.1 0 .1 0 .1-.1.1 0 .1 0 0 0zM239.4 96.5c0-.1.1-.1 0 0 0-.1 0-.1 0 0M231.6 96.5c.1 0 .1 0 0 0 .1 0 .1 0 0 0M239.4 96.5zM231.6 96.5c0 .1 0 .1 0 0 0 .1 0 0 0 0M237.7 96.6s-.1 0 0 0M237.6 96.7zM239.2 96.8c.1 0 .1 0 0 0M239.7 97.4s0 .1 0 0M239.6 97.5c.1-.1.1-.1 0 0 0-.1 0-.1 0 0M237 97.5s.1 0 0 0M239.6 97.6zM236.9 97.7c.1 0 .1-.1.1-.1l-.1.1c.1-.1 0 0 0 0M239.1 98c.1 0 0 0 0 0 .1 0 .1 0 0 0 .1-.1 0 0 0 0M236.6 98c.1 0 .1 0 0 0M236.6 98zM239.1 98c-.1.1-.1.1 0 0 0 .1 0 .1 0 0 0 .1 0 0 0 0M238.6 98.6s.1 0 0 0c.1 0 0 0 0 0M238.6 98.7c0-.1 0-.1 0 0 0-.1 0 0 0 0zM235.5 98.9s0 .1 0 0M238.4 99zM238.2 99.3c.1-.1.1 0 0 0 .1 0 .1-.1 0 0 .1-.1.1 0 .1-.1l-.1.1.1-.1v.1c0-.1 0-.1-.1 0 0-.1 0 0 0 0zM234.8 99.3c0 .1 0 0 0 0 .1 0 .1 0 0 0 .1 0 .1 0 0 0zM234.5 99.5c.1 0 .1 0 0 0 .1 0 .1 0 0 0 .1 0 .1 0 0 0 .1 0 .1 0 0 0M238 99.5c0 .1-.1.1 0 0-.1.1-.1.2-.1.3.1-.1.1-.2.1-.3M238.1 99.5c0 .1 0 .1 0 0 0 0 0 .1 0 0M237.8 99.8zM237.9 99.8zM237.9 99.9c-.1 0-.1 0 0 0-.1 0-.1 0 0 0M253.9 99.2s-.1 0-.2-.1V99h.1v-.1H253.1c-.2 0-.2 0-.3-.1-.1 0-.2 0-.3-.1-.1 0-.3-.1-.5-.1h.1-.1c-.2 0-.4-.1-.5-.1-.2-.1-.3-.1-.4-.1-.1-.1-.2-.1-.3-.2l-.2-.2v-.1c-.4-.4-.2-1.1.2-1.4.3-.4.7-.6 1.1-.9l.4-.4c.1-.1.3-.2.4-.3v-.2h.1s.1-.2.1-.3c0 0 0-.1.1-.1 0-.3 0-.7-.1-1v-.5c-.1-.2-.3-.3-.5-.4 0 0 0-.1-.1-.1-.1-.1-.2-.1-.3-.1-.1 0-.1-.1-.2-.1-.1-.1-.2 0-.2 0-.1 0-.1-.1-.2-.1h-.4c-.2.1-.4.1-.6.2-.2.1-.2.3-.4.4l-.1.1h-.2c-.1.1-.3.2-.4.2v.1h-.1.1c0 .1-.1 0-.1.1v.1c-.1.1-.3.1-.4.2 0 0 .1 0 .1-.1-.1 0-.4.1-.5.2 0 0-.1 0-.1.1v-.1h.1s-.1 0-.1.1v-.1s-.1.1-.2 0c.1 0 .1-.1.1-.1-.1 0-.2.2-.3.2-.1 0 0 .1 0 .1 0 .1-.2.2-.3.2l.2-.1c0 .1-.4.3-.5.3 0-.1 0-.1.1-.1-.1 0-.1.1-.2.1V94v.1-.1.2h.1s0 .1-.1.1h.1c-.1.1-.2.1-.2.2l-.1.1c-.1.1-.2.2-.3.2-.1 0-.1 0-.2.1v-.1h-.1c-.1-.1 0-.4 0-.5v-1.7c0-.4.1-.9.2-1.3.1-.3.1-.8.2-1.1 0-.1 0-.1.1-.2v-.2c0-.1.1-.3.2-.4v-.1c.1-.1.1-.3.2-.4.1-.1.1-.2.1-.3l.1-.1v-.1c.2-.5.4-1.1.7-1.6v-.1c.2-.3.2-.7-.3-.7h-.1c-.1 0-.3.2-.4.3-.1.1 0 .2-.1.3 0 .1-.1.1-.1.2v.3l-.1.1v.1c-.1 0-.2.4-.2.5 0 .1-.1.1-.1.2s0 .2-.1.3c0 .1-.1.2-.2.3v.2c-.1.1-.2.4-.1.4-.1.1-.1.2-.1.3-.2.2-.1.6-.2.8-.1.2-.1.4-.1.7v.2c-.1.4-.1.6-.1 1 0-.2-.1-.4-.2-.6-.1-.2-.1-.3-.1-.4-.1-.1 0-.2-.1-.3h-.2c-.2-.1-.5-.1-.7 0-.1 0-.3 0-.4.1-.3.2-.5.5-.6.8-.1.1-.1.3-.1.4 0 .1-.1.2-.2.3V92.8c-.1.4 0 .9.2 1.5.1.4.1.7.3 1.1.1.3.2.6.4.9.2.4.3.6.1 1.1v.7c0 .1.1.2.1.2.1.1.1.2.1.3.2.5.5.9 1.2.7.1 0 .2-.1.3-.2.4.5 1.1 1.2 1.8 1.4l.1-.1s-.1-.6-.2-.7c0-.1-.1-.2-.1-.3 0-.1-.1-.1-.2-.2s-.1-.3-.1-.4c-.1-.2-.1-.5-.2-.8 0-.1-.1-.3-.1-.4l.3-.3h.1c0-.2.4-.4.4-.5v-.1h.1s.1-.2.2-.1c0-.1.1-.1.1-.2l.1-.1c-.1 0-.1.1-.2.2-.2.2-.4.4-.7.6-.2.1-.3.3-.5.4v-.1l.3-.3-.1.1v-.1h-.1c0-.1.2-.5.3-.5 0-.1.1-.1.1-.2.2 0 .2-.1.3-.2h.1v-.1l.2-.2c.1-.1.3-.2.4-.3 0-.1.1-.1.2-.2v.1c.1 0 0-.1.1-.1.1-.1.2-.1.3-.2v.1c.1-.1.2-.1.3-.2l-.1.1v.1-.1c-.1 0-.2.1-.2.1v.1c.1-.1.2-.1.2-.2 0 0 .1 0 .2-.1l.2-.2v.1c0 .1-.2.5-.3.5-.2.6-.6 1.3-.6 2 0 .1 0 .3.1.4v.2-.2.2h.1c.1.1.1.2.2.3l.1.1h-.1l.1.1c0 .1.1 0 .1.1 0 0 .1 0 .1.1.1 0 0 .1.1.1l.3.3c.1.1.3.1.3.2 0 0 .4.1.4.2h.2c.1 0 .4.1.4.1h.2c.2 0 .4.1.6.1h-.3v.1c.1 0 .1 0 .2.1v-.1h.2-.1c.1 0 .2-.1.2-.1h.1v.1h-.1.1v-.1h.2c.1 0 .2 0 .3-.1h.1-.1c0-.1.3 0 .3 0l.1-.1h-.2s.2 0 .2-.1h.2c0-.1.1 0 .2-.1.2-.1.3-.2.6-.2 0-.1.1-.1.2-.1-.3.1-.4.1-.4.1m-9.3-6.1v.5c-.1.4-.1.9-.2 1.3 0 .3-.2 1.3-.2 1.4-.1 0-.1-.2-.2-.3-.1-.3-.2-.5-.3-.9-.2-.6-.4-1.4-.2-2.1.1-.2.5-.7.7-.8.1-.1.2-.1.3-.1h.1c0 .1 0 0 .1.1s0 .3.1.4c-.2-.1-.2.4-.2.5M245.9 95.2c-.1.1-.2.2-.3.2v-.8c.2-.3.1-.6.2-.9 0 .2 0 .4.1.6 0 .2.1.8 0 .9m.9 4.1c-.2 0-.8-.5-.8-.6.1 0 .2.2.3.3.1.1.4.2.5.3m.2-.2c-.2.2-.8-.3-.9-.4v-.1c.1-.1.1-.3.2-.4.1-.1.2-.1.3-.2h-.1l.2-.2c.1.1.1.3.1.4 0 .3 0 .7.2.9m.4-4.7s0-.1 0 0M248.2 93.8zm-.1.1s0 .1 0 0m0 1.5s0 .1 0 0c-.1.1-.1 0 0 0-.1 0-.1 0 0 0zm0 0 .1-.1c0 .1-.1.1-.1.1m-.1-.1c0-.1 0-.1 0 0 0-.1 0-.1 0 0 0-.1.1-.1 0 0 0-.1.1-.1 0 0 0-.1 0-.1 0 0l-.1.1s0-.1.1-.1h-.2c.1 0 .2-.2.3-.2.1-.1.2-.1.3-.2l-.1.1s.1 0 .1-.1c-.1.2-.3.3-.4.4m1-.5c0 .1-.1.1-.2.1 0 0 .1 0 .2-.1zm0 0zm.3 0c0-.1 0-.1 0 0l.1-.1-.1.1m.1-.2s-.1 0-.1.1c0-.1 0-.1.1-.1 0 0-.1 0 0 0zm-.3-.1-.1.1-.6.3c0-.1 0-.1.1-.1.1-.1.7-.5.8-.5l-.1.1-.1.1c.1-.1.3-.2.3-.3.1.2-.1.4-.3.3m.5 4.7-.1-.1c0 .1.1.1.1.1zm-.1-6.2c.1-.1.2-.1.2-.1s-.1 0-.2.1m.3-.1zM250.1 99.5s-.1 0-.1-.1c.1 0 .2.1.3.1-.1.1-.2 0-.2 0m.1 0s.1 0 0 0c.1 0 0 0 0 0m.1.1zm0-.1zM251.5 99.8c0 .1.1 0 0 0h.1c0 .1-.1.1-.1 0m.3.1s.1 0 0 0c.1 0 .1 0 0 0zm0-.2h.1c0 .1 0 .1-.1 0m.1.2c.1 0 .1 0 0 0m.3 0zm.3-1c.1-.1.1 0 0 0 .1 0 .1 0 0 0m1.1.2c0-.1 0-.1 0 0 0-.1 0-.1 0 0zM249.3 93.1c0-.1 0 0 0 0 0-.1 0 0 0 0M249.2 93.1c.1 0 .1 0 0 0 .1 0 .1 0 0 0M249.3 93.1c0 .1 0 .1 0 0 0 0 0 .1 0 0M248.9 93.2zM249 93.3zM249.1 93.3c-.1 0-.1 0 0 0-.1 0-.1 0 0 0"/><path class="st0" d="M248.4 93.5c.1 0 .1-.1.2-.1 0 0-.1 0-.2.1M247.9 93.8c.1 0 .1 0 0 0M248 93.9c0-.1 0-.1 0 0zM248 93.9s-.1 0 0 0c-.1 0-.1 0 0 0-.1 0-.1 0 0 0M247.8 93.9zM247.9 93.9zM247.8 94s0-.1 0 0c0-.1 0 0 0 0zM247.7 93.9s0 .1 0 0v.1-.1c0 .1 0 .1 0 0M247.7 94c.1 0 .1 0 0 0 .1 0 0 0 0 0M247.7 94.1zM247.7 94.1c.1 0 .1 0 0 0M247.4 94.2c0-.1 0-.1 0 0zM247.7 94.2c0-.1 0-.1 0 0 0-.1 0-.1 0 0M247 94.4zM247.1 94.5c0-.1.1-.1.1-.1-.1 0-.1 0-.1.1v-.1s-.1.1 0 .1c-.1 0-.1 0 0 0 0 0-.1 0 0 0M249.2 94.4"/><path class="st0" d="M247.2 94.4c0 .1 0 .1 0 0l-.1.1c.1 0 .1 0 .1-.1.1 0 0 0 0 0M248.9 94.6c.1 0 .1 0 0 0 .1 0 0 0 0 0M246.7 94.7c.1-.1.1-.1 0 0 0-.1 0-.1 0 0M248.7 94.7s.1 0 .1-.1c0 0 0 .1-.1.1M246.8 94.7s0-.1 0 0M246.7 94.7s-.1 0 0 0c-.1 0-.1 0 0 0-.1 0-.1 0 0 0M248.7 94.7l-.1.1c0 .1 0 0 .1-.1 0 0 0 .1 0 0M249.1 95.1c.1 0 .1 0 0 0M248.9 95.2c0 .1 0 .1 0 0h.1v-.1l-.1.1c.1 0 0 0 0 0M248.4 95.2zM248.4 95.2c-.1.1-.1.1 0 0-.1.1-.1.1 0 0 0 .1 0 0 0 0M248.6 95.3c-.1 0-.2.1-.2.1s0 .1-.1.1c0 0 .2-.1.3-.2M249 95.3s-.1.1 0 0c-.1.1-.1.1 0 0zM248.8 95.3c0 .1 0 .1 0 0 0 .1 0 .1 0 0 0 .1 0 .1 0 0 0 .1 0 .1 0 0M248.9 95.4c.1 0 .1 0 0 0 .1 0 0 0 0 0M248.2 95.4c0 .1 0 .1 0 0 0 .1-.1.1 0 0 0 .1 0 .1 0 0M248.5 95.6c.1-.1.1-.1 0 0 .1-.1.1-.1 0 0 0-.1 0-.1 0 0M248.1 95.5s0 .1 0 0c0 .1 0 .1 0 0 0 .1 0 0 0 0M248.7 95.6c-.1 0-.1 0-.1.1.1 0 .1 0 .1-.1M248.4 95.6c.1 0 .1 0 0 0zM248 95.6c-.1 0-.1 0-.1.1l.1-.1"/><path class="st0" d="M248 95.7s.1 0 0 0c.1 0 .1 0 0 0l.1-.1c0 .1-.1.1-.1.1-.1 0-.2.1-.3.1v-.1l-.2.2s.1 0 .1-.1h-.1v.1c.3 0 .4-.1.5-.2M248.3 95.7s0 .1 0 0c0 0 .1 0 0 0M248.6 95.7c-.1 0-.1.1-.2.2l.2-.2M247.8 95.7c0 .1 0 0 0 0M248.3 95.9c.1 0 .1 0 0 0M248.3 96s0-.1 0 0c0-.1 0-.1 0 0 0-.1 0-.1 0 0M248.2 95.9c0 .1 0 .1 0 0l-.1.1c.1 0 .1 0 .1-.1 0 .1 0 .1 0 0M247.9 96s-.1 0 0 0M247.5 96s0 .1 0 0c0 .1 0 .1 0 0M247.6 96.1zM247.4 96.1l-.1.1c.1 0 .1-.1.1-.1zM247.5 96.2c0-.1-.1-.1 0 0zM247.6 96.3s.1 0 0 0M247.7 96.3zM247.2 96.7s0-.1 0 0c.1-.1.1-.1 0 0 .1-.1.1-.1 0 0 0-.1 0-.1 0 0M247.5 96.7c.1 0 .1 0 0 0 .1 0 .1 0 0 0 .1 0 .1 0 0 0M248.5 96.9s0-.1 0 0zM247.1 96.9zM247.3 97.2s0-.1 0 0c0-.1 0 0 0 0M248.4 97.4zM246.4 97.9c.1 0 0 0 0 0zM251.4 98.4c-.1 0-.2-.1-.2-.1 0 .1.1.1.2.1M251.2 98.4s0 .1 0 0M251.4 98.4s.1 0 0 0M251.5 98.4c0 .1 0 .1 0 0 0 .1 0 0 0 0M251.5 98.5c.1 0 .1 0 0 0 .1 0 .1 0 0 0M251.6 98.6c.1-.1.1-.1 0 0 .1-.1.1-.1 0 0zM248.8 98.5s0 .1 0 0c0 .1 0 .1 0 0M251.8 98.6h.1-.1c.1 0 .1 0 0 0M252 98.6c.1 0 .1 0 0 0 .1 0 .1 0 0 0 .1 0 .1 0 0 0M252.2 98.6s-.1 0 0 0M248.8 98.7c0 .1 0 .1 0 0 0 0 0 .1 0 0M252.7 98.9c0-.1 0-.1 0 0 0-.1 0-.1 0 0 0-.1-.1-.1 0 0-.1-.1 0-.1 0 0M253.3 98.9zM253.4 98.9c.1 0 .1 0 0 0M252.9 98.9s-.1 0 0 0M249 98.9c-.1 0-.1 0 0 0-.1 0-.1 0 0 0M253.9 99c0-.1 0-.1 0 0M249 99l.1.1c0-.1-.1-.1-.1-.1M253.9 99zM254 99.1c.1 0 .1 0 0 0h.2c-.1 0-.1-.1-.2-.1.1.1.1.1 0 .1M249.1 99.1s.1.1 0 0c.1.1.1 0 0 0zM253.9 99.1c.1 0 .1 0 0 0M249.3 99.2s-.1 0 0 0c-.1 0 0 .1 0 .1v-.1s.1 0 0 0M249.4 99.3c.1 0 .1 0 0 0zM249.4 99.4c.1 0 .1 0 0 0 .1 0 0 0 0 0M249.6 99.4s-.1 0 0 0c-.1 0-.1 0 0 0M249.7 99.5c.1 0 .1 0 0 0 0 0 .1 0 0 0M250.4 99.6c0 .1 0 .1 0 0 0 .1 0 .1 0 0 0 .1 0 .1 0 0 0 .1 0 .1 0 0M250.5 99.7zM250.7 99.7h-.1.1l-.1.1.1-.1c-.1.1-.1.1 0 0-.1 0-.1 0 0 0 0 .1-.1.1 0 0 0 .1 0 .1 0 0l.1.1c-.1 0-.1 0-.1-.1M252.7 99.8s0-.1 0 0M251.4 99.8zM250.9 99.8c-.1 0-.1 0 0 0M251.1 99.8h-.1c0 .1.1.1.1 0zM252.4 99.9s.1 0 0 0M270.7 95.6c.3 0 .9-.1 1.1-.2h.3c.4-.1.9 0 1.3-.1.3 0 .6 0 .9-.1H277.4c.1 0 .1-.1.3-.1-.2 0-.3-.1-.5-.1-.3 0-.5 0-.6-.1H275.2c-.4.1-1.1 0-1.6 0 0 .1-.9 0-1 0h-1.2c-.5.1-1.1.2-1.5.2H267c-.2 0-.6-.1-.7 0h-.3s-.5-.1-.7-.1h-.4c-.4 0-.7 0-1.2.1h-.4c-.3.1-.6 0-1 0H259c-.1 0-.3 0-.4-.1h-.8c-.1 0-.3-.1-.4 0-.1-.1-.3 0-.4 0h-.7c-.1.1-.2.1-.2.2v.1c.1 0 .6.1.7-.1h.6c.2 0 .3.1.5.1h.2c.3.1.8.1 1.2.1h3.4c.3 0 .6 0 .9-.1.3-.1.9-.1 1.2-.1.5 0 1 .1 1.5.2 0 0 .6.1.7.1h3.5c-.1.2.1.1.2.1m-5.7-.4c.1 0 .1 0 0 0 .1 0 .1 0 0 0M204.4 96.3H205.5c0 .1.3 0 .3 0h.2c.1 0 .6.1.6 0h.8c0 .1.1 0 .1 0h1.3s.1.1.2 0h.1c.1 0 .5.1.5 0 .1 0 .2 0 .3.1h1.1"/><path class="st0" d="M211.3 96.7h1.2c.1 0 .2-.1.3-.1.2 0 .4-.1.7 0h.4c.6.1 1.3-.2 1.9-.2h1c.4.1.9.1 1.2 0 .6-.1 1.1-.1 1.7-.2.2 0 .6.1.8 0-.1 0-.2-.1-.3-.1h-.3c-.2 0-.5-.1-.7-.1h-1.9c-.1 0-.3-.1-.5 0H215.2c0-.1-.2 0-.2 0h-.2c-.2 0-.4.1-.6 0h-.1.1-.6c-.5-.1-1.2 0-1.5.1H210.8c-.1.1-.2 0-.2 0H209.5l-.1-.1H205.5v-.1h-.6M214 96.2c0 .1 0 .1 0 0 0 0 0 .1 0 0M208.4 96.2c0 .1 0 .1 0 0M205.8 96.2zM205.9 96.2c.1 0 .1 0 0 0 .1 0 .1 0 0 0M209.5 96.3c-.1 0-.1 0 0 0zM209.4 96.3s-.1 0 0 0M205.9 96.2s0 .1 0 0c0 .1 0 .1 0 0 0 .1 0 .1 0 0M205.3 96.3c.1 0 .1 0 0 0 .1 0 .1 0 0 0M205.4 96.3s0-.1 0 0M205.6 96.2s0 .1 0 0M205.7 96.2c0 .1 0 0 0 0M205.9 96.3zM207 96.3c.1 0 .1 0 0 0 .1 0 .1 0 0 0 .1 0 0 0 0 0M205.5 96.4c0-.1 0-.1 0 0 0-.1 0-.1 0 0M210.9 96.3c0 .1 0 0 0 0M210.7 96.4c0-.1 0 0 0 0 0-.1 0 0 0 0M209.4 96.4zM209.3 96.4"/><path class="st0" d="M209.4 96.5c0-.1 0 0 0 0 0-.1.1 0 0 0 .1 0 0 0 0 0M254.2 85.5c-.4-1.2.6-4.1 1-5.2.1-.4.3-.9.4-1.3.2-.3 1.1-2.3 1-2.5h.2c.1-.2.2-.5.2-.7.5-.9.9-2 1.3-2.9.6-1.1 1.1-2.1 1.7-3 0-.1.1-.3.1-.4l.6-.9c.1-.2.2-.5.3-.7.4-.4.7-1 1.1-1.6.1.2.5-.5.6-.6.1 0 .2-.1.2-.1.1-.2.3-.5.4-.7.1-.1.3-.1.5-.3l.8-.8s.4-.2.5-.2c.2-.1.3-.4.5-.6.1-.1.4-.1.5-.2.2-.2.6-.6.9-.6V62c.3 0 .4-.1.4-.3h.2c.3-.2.5-.5.8-.6.2-.1.5.1.8-.2 0-.1.1-.2.1-.3.2-.3.6-.4.9-.7.1 0 .1 0 .2.1 0-.2.1-.1.1-.2.2 0 .1 0 .3-.1v-.1c.3.2.7-.2.9-.1.2-.4.5-.2 1-.4l.4-.4c.1-.1.2-.1.3-.2.8-1.4.1-2.5-1.2-2.9-.4-.2-1.2.4-1.6.4v.2c-.2 0-.2.1-.4.2v.1h-.2c-.1.2-.2.5-.4.6-.2.2-.8.4-1 .6-.1.1-.1 0-.1.1l-.6.1c-.1.1-.1.3-.2.4-.1 0-.2.1-.3.1-.3.2-.3.3-.7.4-.1 0-.1.1-.1.2v.1c-.1 0 0 0-.1-.1-.1 0-.1 0-.1.1h-.2c-.1.3-.9 1-1.3 1.1v.2c-.2.1-.8.7-1 .7-.2.2-.6 1.2-1 1.3v.2c-.1.1-.1.1-.2.1 0 0 0 .1.1.1-.3.2-.4.5-.6.7-.5.3-.8.8-1.2 1.2-.2.3-.7.7-1 1-.1.2-.2.4-.3.5-.1 0-.1.1-.2.1-.2.4-.4.8-.8 1.1-.1.1-.2.4-.3.6-1.2 1.5-1.7 3.1-2.8 4.6 0 0-.4 1-.5 1.1-.5.7-.8 1.5-1.2 2.3-.9 1.7-2 4.3-2.5 6.6-.2.9-.1 2-.3 2.7 0 .1.1.6.2.7-.2.5.6 1.6 1 2 .2.1.5.7.8.5 0 0 0 .1.1.1 1.5 0 1.1-.8 2.1-1.4.4-.2 1.3-.6 1.5-.9.2 0 .1 0 .2-.1s.2-.1.2 0c1-.8 2.3-1.6 3.4-2.3.3-.2.9-.4 1-.8-1.8.9-3.4 2-5.3 2.7-.8.4-1.9.3-2.1-.3M247.5 61.8c.1.3.3.6.4.8h.1v-.1.2l.3.3c.4.1 1.7-1.2 1.9-1.8 0-.1-.2-.3-.1-.5-.2-.2-.6-.3-.9-.5-.1.1-.5 0-.6 0-.1.1-.3 0-.4.1-.1.1-.2.2-.4.3 0 0-.3 1.1-.3 1.2M253.7 72c.5-.3 1.1-.6 1.5-1.1.2-.2.8-1.1.6-1.6-.1-.2-.3-.4-.4-.6-.1-.2-.1-.3-.2-.4-.1 0-1.2.2-1.4.2 0 .1.2.4.2.5-.5.7-1.4 1-2.1 1.6-.3.2-.7.6-1 .7-.4.2-.8.5-1.3.4-.1-.2-.2-.4-.3-.5-.2-1.1.2-2.5 1.1-2.5.1-.4.9-.8.6-1.3v.1c.2-.2-.1-1-.4-1v-.1c-.1-.1-.4-.3-.5-.4-.7-.2-2 .3-2.5.6-.1.1 0 .2-.1.3-.2.3-.3.5-.7.6h.1v.1c.1-.1.2-.1.3-.2-.2.1-.3.5-.7.6-.1.1-.1.1 0 .2-.1 0-.1.1-.2.1h-.1c0-.1 0-.2.1-.3-.2.1-.1.1-.2.1 0 .1 0 0 .1.1v.1c-.2.3-.9 1-1.1 1.1.1-.3.1-.8.2-1.2v.1c-.2-.3.1-1-.3-1.3-.1 0-.2 0-.2-.1-.2-.1-.3-.4-.6-.4-.5-.1-1.8.6-2.2.8v-.1c-.1.1-.2.1-.3.2v.1c.1 0 .2-.1.3-.1-.1.2-1.1 1.1-1.3 1.2v.1h.1c0-.1 1-.8 1.2-1-.2.4-.8.6-1.1.9-.3.4-.8.8-1.2 1.3-.2.3-.5.7-.8 1 .1-.2.2-.4.2-.6-.1.1-.1.2-.2.2 0-.2.1-.2.2-.2 0-.2 0-1.2-.2-1.3.1-.1 0-.3 0-.3.2-.5 0-.8-.5-1-.2-.1-.2-.2-.3-.1-.2-.1-.1-.3-.2-.5-.1 0-.2-.1-.3-.1-.1.1-.4.2-.5.2v.1l-.6.1c-.2.1-.4.5-.6.7-.9.8-1.6 2-2.3 3-.3.4-1.1 2-1.6 2-.1-.1 0-.2-.1-.3-.1-.1-.3-.6-.3-.7h-.1c-.1.2.2.7.2 1h-.1c-.2-.1-.3-.7-.4-.9.1-.1.2-.1.2-.4.2.2.4.4.5.6 0-.3-.3-.4-.4-.8h-.1c0-.2 0-.3-.1-.5 0-.1.1-.1.1-.2 0 0-.2-1.2-.1-1.5.4-1.1.1-1.6-.4-2.3 0-.1-.1-.1-.1-.2-.2-.1-.5-.2-.7-.3h-.2c-.1 0-.4-.1-.5 0-.8.3-1.2 1.1-1.7 1.8 0 0 0 .1.1.1-.1.1-.2.2-.3.4 0 .1 0 .1.1.1-.3.5-.1 1.5-.3 1.9l.1.1c-.2.3 0 1.6-.2 1.7.1.1.3.3.3.4-.1.1.2.4.1.5-.2.6-.2 1.4-.3 2.1v.6c-.1.7-.2 1.4-.3 2v.4c-.2.3-.1 1-.2 1.3v.2c-.1.3-.1.7-.2 1.2 0 .3 0 .7-.1 1-.1.2-.2.5-.2.8.1.3.3.6.3.8 0 .1 0 .1.1.1V84s-.1 0-.1-.1h.1c.1.1 0 .1.2.1.1-.3.3-.5.3-.8-.1-.2-.3-.6-.2-.9.5-1.4.8-3.1 1.1-4.6.1-.7.2-1.4.3-2v.2c0-.2.1-.4.1-.5-.1 0-.1.1-.1.1 0-.2 0-.4.1-.6v.3c.1-.4 0-.4 0-.7.2.2.7 1.5.7 1.9 0 .3-.2 1-.1 1.2.1.3.2.7.3 1 .2.3.6.4.8.8.1 0 .1 0 .1-.1.2 0 .6.2.7.2.1 0 .2-.1.2-.2.1.2 1-.3 1.1-.2.3-.1.4-.6.8-.5.2-.2 1-1.1 1.1-1.3.4.1.8.1 1.2.2v-.1c.5 0 1.3-.2 1.8-.4.4-.3.6-2.2.8-2.8.1-.3.3-.5.5-.8.1-.3.2-.5.3-.8 1.1-1.2 1.7-2.8 3.1-3.7 0 .4-.2.8-.3 1.3v.5c-.2.5-.5 1.1-.6 1.6-.1.5-.7.8-.2 1.5-.1.1-.1.1-.1.3.1.1.1.1.1.3.3.1.3.3.6.4.6.2 1-.2 1.4-.3.3-.1.7-.1 1.1-.2.3-.5.4-1.3.7-1.9.1-.2.3-.4.3-.6.3-.5.9-.9 1-1.6h.1v.1c.1-.3.2-.3.4-.5 0-.1 0 0 .1 0 0-.1 0-.1.1-.3.3 0 .3-.1.4-.3l.2-.2c.1-.1.1-.1 0-.2.1 0 .6-.3.7-.3-.1.4-.1.8-.2 1.3-.3 1.4-.1 2.4.4 3.3.2.4.6.6 1.1.7.4 0 .8-.2 1.1-.3 1.3-.2 2.4-.9 3.4-1.5M226.9 83.5v.1-.1c0 .1 0 .1 0 0m3.7-10.5v-.3h.1v.2c0 .1 0 .1-.1.1m0-.7c.1 0 .1.1.1.2h-.1v-.2m-.2.3c0 .1 0 .1 0 0 0 .1 0 .1 0 0-.1.1 0 .1 0 0m-.5 0c.2.1.3.4.3.7-.1 0-.3-.6-.3-.7m.3 1.2c0 .1 0 .1 0 0m-.5-1.1c.2.1.3.4.3.6h-.2v-.1h.1V73h-.1v.1h.1-.1v-.2c0-.1 0-.1.1-.1-.2 0-.2-.1-.2-.1m.3 1.6s-.1 0 0 0c-.1 0-.1-.1 0 0-.1-.1 0 0 0 0m.3 1.3s-.1 0-.1.1c0 0-.6-1.3-.6-1.5.2.2.3.5.5.6v-.1.1c-.1.1.1.6.2.8m0-1s0-.1 0 0c-.2-.1-.2-.3-.2-.4.2.1.2.2.2.4.1-.1.1-.1 0 0m.6-.1c-.2 0-.1-.2-.2-.3-.1 0 0 0 0 .2-.1-.1-.1 0-.1-.2 0 0 0 .1-.1.1v-.1h.1v-.1h-.1c-.1-.2-.1-.3-.1-.6.1-.1.6.7.5 1m.2-.5s.1 0 0 0c.1 0 0 0 0 0m0-.4c-.1 0-.1-.1 0-.2h.1s0 .1-.1.2c.1 0 0 0 0 0m.4 0h-.1c0-.1 0-.1.1 0 0-.1 0-.1 0 0m5.9-3.5v.3h-.1c.1-.1.1-.2.1-.3m-2.8 4.8c.1-1 .4-1.7.8-2.6.1.1-.7 2.4-.8 2.6.1-.1.1 0 0 0m1-1.2v-.1c.1-.1.1-.5.2-.6v-.1c-.1 0 0 .1-.1.1v-.1c-.2.5-.3 1.6-.6 1.7.2-.5.6-1.6.7-2.2v.4c.1-.1 0-.2.1-.3 0-.1 0-.1.1 0 0-.4.1-.7.3-1.3h.1c0 .1-.1.3-.1.4v.1-.1h.1c-.1.4-.5 1.8-.8 2.1m1.5-1v-.1.1m.3-.5c-.1-.2 0-.3.1-.4.1.1 0 .3-.1.4m.3-.3c-.1 0-.1-.1 0-.1h-.1c-.1-.1 0-.2 0-.3-.1.2-.3.5-.4.7-.2-.1-.1-.8.1-.8v-.1c-.1-.1-.2.3-.2.4h-.1v1h-.1c-.1.2-.2.4-.3.5 0 .2-.1.2-.2.3-.1 0-.1 0-.2.1 0-.2.1-.5.1-.7h.1c0-.6.1-1.2.3-1.7-.2 0-.1.1-.1.2h-.1c.1-.3.3-.3.4-.7h.2c.1-.1.2-.3.2-.4.1.1.2.4.1.5 0 0 .1 0 .1.1.1-.1.1-.2.2-.2v-.2c.1-.2.2-.3.2-.5-.1.1 0 .2 0 .3v.1c.1-.1.1-.2.2-.3v.1c-.1 0-.3.5-.4.7h.1c.1.3-.1.5-.1.7h-.1s0-.1-.1-.1c.1.2.1.2.2.1 0 .1 0 0 .1.1 0 0 0 .1-.1.2m.3-.4s-.1 0-.1.1v-.1c.1 0 .1-.1.2-.1l-.1.1m-.1-.1c0-.3.1-.6.2-.9.1.1-.2.7-.2.9m.2-.9c0-.1 0-.1 0 0 0 0 0-.1 0 0m.2-.4c0 .1 0 .1 0 0v.1-.1m-.1.3c.1 0 .1 0 0 0 .1 0 .1 0 0 0v.1-.1m.1.6c-.1-.1 0-.1 0-.3.1.1 0 .2 0 .3m5.3-2.7c-.1 0-.1 0 0 0 0 0-.1 0 0 0m-.9 2.1c0-.1 0-.1 0 0 .1-.1.1-.1 0 0m.3.1s0 .1 0 0v-.1c0 .1-.1.2-.1.2.1-.1.1-.2 0-.3h-.1c.1-.3.2-.5.2-.9.1 0 .1-.1.2-.1h.1c-.2.3-.1 1-.3 1.2m.5-.2s0 .1 0 0m.4.1c-.1.1 0 0-.2 0 0-.4 0-.4.1-.8-.1 0 0 0-.1-.1h-.1c0 .1 0 .1-.1.1 0 .1 0 .1.1.1-.1.1-.2.2-.2.3 0 .1 0 0-.1 0v.2c0-.1-.1-.3-.1-.4 0-.2.3-.7.2-.8 0-.1 0-.1.1-.1v.2c.1-.1.1 0 0-.1h.1c.4.5.4 1 .3 1.4m.5-.3c-.1 0-.1 0 0 0v-.6h.1c0 .3 0 .3-.1.6m.1-.5v-.1.1c0-.1 0 0 0 0m2.6-2.2s0 .1 0 0c-.1.1 0 0 0 0m-1.5 2c0 .1-.1.1 0 0v-.2.2m1.8-1.6c-.2.4-1 1.1-1.3 1.3-.1.1-.2.1-.3.2.1-.2.1-.3.2-.5h.1v.1-.2h.2c0-.1 0 0-.1-.1h.2v-.1c.2-.2.8-.5 1-.7-.1-.1-.1-.1 0 0z"/><path class="st0" d="m246.6 67.6-.2.2h.1-.1v.1c.1-.1.1-.1.3-.2-.1-.1 0 0-.2 0 0-.1 0-.1.1-.1.1.1.1.1 0 0 0 0 .1.1 0 0M241.3 67.8c0-.1 0-.1 0 0h-.2c.1.1.1.1.2 0 0 .1 0 0 0 0M246.4 67.9s0-.1 0 0c-.1 0-.1 0-.1.1.1 0 .1-.1.1-.1M246 68.5l-.1-.1v.1h.1c-.1 0-.1 0 0 0zM245.7 68.5c0 .1 0 .1 0 0 0 .1 0 .1 0 0 0 0 .1.1 0 0M245.7 68.6c-.1 0-.1 0 0 0-.1.1-.1.1 0 0-.1.1 0 .1 0 .1v-.1M240 69.1c0 .1 0 .1.1.1.1-.1.2-.2.2-.3-.1.1-.2.1-.3.2M240 69.2c-.1 0-.1 0 0 0l-.1.1s.1 0 .1-.1c0 .1 0 0 0 0M239.9 69.5v-.2c-.1.1-.2.1-.2.2v.1h.1c0-.1-.1-.1.1-.1M243.6 69.5c0 .1 0 .1 0 0 0 .1.1.1 0 0 .1 0 .1 0 0 0 .1 0 0 0 0 0M239.6 69.7c0-.1.1-.1 0 0 .1-.1 0-.1 0 0 0-.1 0-.1 0 0M242.9 69.9s0 .1 0 0c0 0 0 .1 0 0M239.4 69.9c-.1 0-.1 0 0 0-.1 0-.2.1-.2.2v.1c.1-.1.1-.1.2-.3M239.2 70.2s-.1 0 0 0l-.2.2.2-.2M238.8 70.5c.1-.1.1-.1 0 0 .1-.1.1-.1 0 0M238.9 70.5c0 .1 0 .1 0 0 0 .1 0 0 0 0M237.5 70.7c0-.1 0 0 0 0M237.4 71s0-.1 0 0c0-.1 0-.1 0 0 0-.1 0-.1 0 0M236.7 71s0 .1-.1.1c.1 0 .1-.1.1-.1M236.7 71.4l.1-.1c-.1 0-.1 0-.1.1M237.2 71.5l.1-.1-.1.1M236.6 71.5s.1 0 0 0c.1 0 .1 0 0 0M236.6 71.6s0 .1 0 0M236.8 72.2c0-.1.1-.1 0-.2v.2M236.7 72.2V72v.2M236.6 72.5c.1.1.1.1 0 0 .1-.1.1-.2 0-.2v.2M236.5 72.8c-.1 0-.1 0 0 0 0 0-.1 0 0 0M231.6 72.8s.1.1 0 0c0 0 .1.1 0 0M231.9 73.2s-.1-.1 0 0c-.1 0-.1-.1 0 0M228.3 76.6s.1 0 0 0c.1 0 .1 0 0 0 0-.1 0-.1 0 0M228.2 76.9s.1 0 0 0v-.1c.1 0 0 .1 0 .1zM228.1 77.4s.1 0 0 0c.1-.1.1-.1 0 0 0-.1 0-.1 0 0M228 78.1c0 .1 0 .1 0 0M225.1 72.3v-.6c0-.1-.1-.1-.2-.1v-.2c-.1-.1-.2-.2-.2-.3h.1c-.2-.2-.2-.4-.3-.6-.2-.3-.7-.4-.7-.9-.3 0-.6-.3-1-.5-.1 0-.1-.2-.1-.2-.1 0-.3 0-.4-.1-.1-.1-.6-.3-.7-.4-.1 0-.1.1-.2.1-.2-.2-1.1-.2-1.3-.2 0 0-.1 0-.1-.1-.1 0-.1.2-.2.2-.4-.1-.7-.1-.9-.2-.3.1-1.2 0-1.4-.2-.1.1-.6 0-.7 0l-.2.2c-.4-.3-.7 0-.9-.1-.2-.1-.4-.1-.6-.1v.2c-.4-.1-.7.1-.9 0l-.1.1c-.2-.1-.2-.1-.4-.1-.1.2-.3.2-.5.3-.1-.1 0-.1-.1-.1-.1-.1-.2.1-.3.2-.5-.3-.5-1.4-.6-1.9v-.5c-.1-.3-.1-.9.1-1.4 0-.1 0-.2-.1-.2 0-.1.1-.2.1-.3v-.2c0-.2.1-.8.2-1 .3-.5.3-1.1.6-1.5.3-.5.7-1 1-1.4h.1l.2-.2h.2l.3-.3c.3-.1.5.2.8 0 0 0 0 .1.1.1s.1-.1.2-.1.3.1.3.1c.1-.1.6 0 .8-.1h.1c.1.1.4.2.6.3.6.9 1.3 1.8 1.7 2.9.1.3-.1 1.6.1 1.7 0 .1-.1.1-.1.2 0 .2 0 .2.2.4 0 .1-.1.1-.1.2.1.1.1.1.1.3h.2c-.2.2 0 .7.2.8.1 0 .2.3.3.4h.3c0 .4.7.3.8.4.1 0 .1 0 .1-.1.1 0 .1.1.2.1.1-.1.9-.3 1.1-.2.2-.3.5-.3.8-.4.3-.2.3-.6.7-.7 0-.1 0-.1-.1-.2h.1c.2-.9.1-1.3-.3-2.1.1-.1-.2-.6-.4-.6v-.2c-.1-.2-.4-.4-.6-.4 0-.4-.7-.5-.7-.7-.2.1-.7 0-.9 0-.1.1 0 .1-.1.1-.5.3-1.1-1.2-1.5-1.4v-.2s-.8-1-.9-1.1V59s-.2-.1-.3-.1c-.1-.2-.1-.3-.2-.4h-.2c-.1-.1-.1-.3-.2-.4h-.2c-.1-.1-.2-.3-.3-.4 0 0-.1.1-.1 0-.1-.1-.2-.3-.3-.3-.5-.2-.9-.3-1.5-.4-.1.1-.6.2-.7.1-.3.2-.7.3-.9.4-.1.1-.1.4-.2.4s-.3.1-.3.1 0 .3-.1.3h-.2c-.2.2-.1.6-.2.8-.2.1-.2.6-.4.8-.1.1-.3.4-.4.5-.1.2-.1.6-.2.8-.2.3-.3.7-.5 1.1.1.1-.2.4-.2.6 0 .4-.4 1-.4 1.5v.1c-.2.4-.7 2.8-.6 3.2 0 0-.1 0-.1.1 0 .5-.2 2.4-.5 2.6.1.3 0 .4.1.7h-.1c0 .1 0 .1.1.1 0 .1 0 .1-.1.1.1.3.1.4.2.7.1.1 0 0 .1 0-.1.1 0 .2 0 .4h.2c.1.6.2.9.6 1.5.2.3.4.4.5.7h.3c.1.4 1 .5 1.1.9.3-.1 1.4.1 1.6 0 .2-.1.9-.5 1.1-.5 0 0 .5-.4.5-.5h.2v-.1c.2-.1.7-.4.8-.6h.4l.1-.1c0-.1 0-.1.1 0 .3-.5 1.2-.7 1.8-.8 0 .1 0 .1.2.2.1.3.1.8 0 .9l.1.1c-.3 1.2-.8 2.2-1.3 3.3l-.3.3c0 .1 0 .2-.1.3-.1.1-.2.1-.3.2-.2.5-.5 1.4-.9 1.6-.2.2-1 .2-1.2.1-.1 0-.2-.2-.3-.2-.7.1-2.7-1.4-3.2-1.9-.8-.9-1.5-1.9-2.2-3-.3-.4-.8-.9-1-1.2-.2-.3-.8-1.4-1-1.5V72c0 .2.2.6.4.8v.1c-.1 0-.1-.1-.1-.1v.1c.1.1.2.2.2.3v-.1l.1.1h-.1c.1.3.1.8.4.9h.2v.3h.2c0 .2 0 .2-.1.3v.1c0-.1.1-.1.2-.2 0 0 0 .1.1.1-.1.1 0 .1 0 .3h-.2c.1 0 .1.1.2.1 0 .1 0 .1-.1.1 0 .1 0 .1.1 0 .2.1.3.6.3.7-.1.1 0 .1-.1.1v.1c.1.1 0 0 .2-.1 0 .2.1.1.1.3h.2c.1.3.1.4.2.6l-.2-.2h-.1c-.1-.1-.1-.1 0-.2h-.1c0 .1 0 .1 0 0 0 .2 0 .2.1.3v.1l-.1-.1v.2l.1.1h.1v.3c-.1 0-.1.1-.2.1 0 .3.2.4.2.7.1 0 .2 0 .2.1 0 0 .1 0 .1-.1.1.1.1.2.2.3 0 .1-.1.1 0 .2h-.1v.1c-.1.1 0 0-.1 0 0 .1 0 .2-.1.3.3.2.3.5.5.8h.1c.1.1 0 .2.1.3.1.2.3.3.5.5-.1 0-.1 0-.2-.1 0 .2.4.6.3.3.1.1.1.3.2.5 0 0-.1 0-.1-.1.1 0 .1.1.2.1h.1c0 .1.1.2.1.3.1 0 0 0 0 0 .6.5 1.2 1 1.7 1.7.1.2.1.4.2.6-.1.2-.2.2-.2.3-.1.2-.1.7-.3.9-.1.1-.2.2-.2.3h.1-.1c-.1.2-.2.5-.1.8h-.1c.2.4.1 1 .3 1.4.1.2.3.3.5.5 0 .1.1.2.1.3.1.1.3.2.4.3 0 .1 0 .1.1.2s.2 0 .3 0c.3.1.4.2.6.4h.1c.3-.1.7 0 1.1-.2.1 0 0 0 0-.1.3.1.5-.4.8-.5.4-.3 1.5-1.5 1.5-2h.1c.1-.3.6-.8.5-1.1h.1c.1-.2.1-.3.1-.5.4-.1.2-.4.4-.7.1-.3.3-.7.4-.9 0-.3.1-.6.2-.9.8-1.6 1.8-3.3 2.6-4.8.2-.4.9-1.1.9-1.5h.1c0-.2.2-.7.4-.7 0-.2 0-.1-.1-.2.2-.2.5-.7.4-1 .1-.1 0 0 .1 0 0-.2 0-.2.1-.4 0 0-.1 0-.1-.1.2-.4.1-.8.2-1.2-.1-.2-.1-.3-.2-.3m-16.5.8c.1 0 0 0 .1.1-.1 0-.1 0-.1-.1m.1.5c-.1-.1-.1-.1-.1-.2 0 .1.1.2.1.2zm-.1-.2s.1 0 0 0c.1 0 .1 0 0 0m.2.3v-.1c.1 0 .1 0 .2.1h-.2m.7 1.3v-.1.1c.1 0 0 0 0 0m.4.7c0-.1 0-.1 0 0zm.2 1.2s-.1-.1 0 0v-.1s.1 0 0 .1m.1.2v.2-.2m.1-.5s0 .1 0 0m.1.7v-.2.2zm.2 1.2v-.1s.1 0 0 .1zM207.8 71.7s.1 0 0 0c0 0 0-.1 0 0 0-.1 0 0 0 0"/><path class="st0" d="M207.9 71.7v.1h.1l-.1-.1M208.2 72.6v-.1.1c0-.1 0 0 0 0M209.4 75.4v.1s.1 0 0-.1c.1 0 0 0 0 0M209.3 75.7c0 .1 0 .1 0 0zM209.4 76.1c.1 0 .1 0 0 0zM209.3 76.2c0-.1 0 0 0 0zM209.4 76.3c0-.1-.1-.1 0 0-.1-.1-.1 0 0 0M209.6 76.3v.2-.2c-.1.1-.1.1 0 0-.1.1-.1.2-.1.3.1 0 .1-.1.1-.3M209.4 76.4zM209.8 76.5c0 .1 0 0 0 0zM209.7 76.6v-.1.1c-.1 0 0 0 0 0M209.6 76.7V77c.1-.2.1-.3 0-.3M209.3 77.1v.3h.1c0-.1 0-.1.1-.2-.2.1-.1 0-.2-.1M209.4 77.6s0-.1 0 0c0 0 0-.1 0 0M209.8 77.8c0-.1-.1-.1-.1-.2v.1c-.1.1-.1 0-.1.1s.1.1.1.3l.1.1v-.4c0-.1 0-.1 0 0M209.8 78.2c.1-.1.1 0 0 0 0 0 0-.1 0 0M210.1 78.2s0-.1 0 0zM210 78.4v.1h.1l-.1-.1M210.2 78.7h.1v.1h-.1zM210.9 80s0 .1 0 0M211.2 80.4v.1h.1c-.1 0-.1 0-.1-.1M277.9 80.6c0-.2-.2-.8-.3-1 .1-.3-.1-.5-.1-.9.1-.2.1-.4.2-.6 0-.2-.2-.3-.1-.5v-.1c-.4.2-.4 1.1-.7 1.4-.4.5-1.1.8-1.5 1.3-.2.1-.4.1-.7.2 0 0-.3.1-.3.2-.1-.2-.9.3-1.3.2-.4-.1-1 0-1.4 0-.3.1-.8 0-1.2-.1-.3.1-2.6 0-3 0-.7 0-1.3 0-2 .1h-.1v-.1c.3-.1 1.3-.8 1.4-.8.2-.1.5-.7.6-.7.3-.2.7-.6.9-.8.1-.1.1-.3.3-.4v-.1.1h.1s0-.2.1-.3c.1-.2.3-.2.4-.4 0-.1.1-.4.1-.4.1-.1.3-.4.3-.5 0-.1-.1-.2 0-.4.3-.5 1-.9 1.1-1.5h.1c-.2-.2.1-.3.1-.5 0-.1-.2-.3-.1-.5l.2-.2c0-.3.3-.6.3-.8v-.2c.1-.3.4-.5.6-.7.1-.2 0-.3.1-.4.1 0 .1-.1.2-.1.1-.2.1-.9 0-.9.1-.1.1-.1.1-.2-.2-.3-.4-1.1-.8-1.2 0 0 0-.1.1-.1h-.2v-.2h-.1c-.1-.1-.4-.4-.6-.5v-.1c-.4 0-1.1-.5-1.4-.3-.1 0-.1-.1-.1-.1-.1 0-.3 0-.4.1-.1 0-.1-.1-.1-.1-.1 0-.2.1-.3.2h-.9l-.2.2c-.5-.2-1.5.5-1.9.5-.1.1-.1 0-.1.2-.3 0-.8.2-.9.5h-.3c-.1.1-.1 0-.1.2-.1.1-.2.1-.3 0 0 .1-.1.1-.1.2-.1.1-.6.6-.7.6-.1.1-.1.2-.1.3-.3-.1-.2.3-.4.5-.1.1-.3.1-.4.2-.2.2-.2.5-.4.7-.2.1-.3.3-.5.4 0 .1-.1.2-.1.3-.1-.1-.3.3-.3.4v.1c0 .2-.5.9-.6 1.1-.1.2-.1.3-.2.5-.9 1.6-1.1 3.7-.2 5.5v.3c0 .1.4.4.4.5.1 0 .2 0 .3.1.1.1.1.2.2.3.1.1.2 0 .3.1.1.1.2.4.3.4.4.2.7.4 1 .6.1-.1 1.1.2 1.2.2.3.2 1.6.2 1.7.5l.1-.1c.1.1 0 0 0 .1.3 0 .6 0 .9.1-.1.1 0 .1-.2 0 .1.1.2.1.4.1v-.1c.9.5 1.8.3 3.3.6.7.2 1.5.3 2.2.3.8 0 1.9.2 2.5 0 0-.1.4 0 .7 0 .1-.2.4-.3.6-.3-.1.1-.1.2-.2.3h.1c.1-.2.9-.5.9-.4h.1c0-.1 0 0-.1-.1l.1-.1.1.1c.1-.1.1-.3.3-.3 0-.1.1 0 0-.1l-.1-.1c.1 0 .2-.1.3-.2l.1.1h.1l-.1-.1c.1-.2 0-.2 0-.5h.1s-.1 0-.1-.1v-.1c.1-.3.4-.5.5-.8.3-.4 0-.5.2-.8M265.4 76c0-.1.1-.2 0-.3-.2-.1-.8-.6-.7-.9h.1c0-.1 0 0 .1 0 0-.1 0-.1.1-.2h.1c.1-.1.1-.2.1-.3.3 0 1.2-.7 1.3-.9h.1c.1-.1.1-.1.1-.2.3 0 .8-.1.8-.3.2.1.6.1.8-.1.3 0 .8 0 1 .2 0 .5-.5.7-.7 1-.7.8-2.1 2.2-3 2.1-.1 0-.2 0-.2-.1m11 7.4c0 .1 0 .1 0 0 .1 0 0 0 0 0 .1 0 .1 0 0 0m.1 0s.1 0 0 0c.1 0 .1 0 0 0m.8-.8c0-.1 0-.1 0 0 0-.1 0-.1 0 0zM269.8 76.5s0 .1 0 0"/><path class="st0" d="M277.5 82v.1h.1l.1-.1h-.2M277.5 82.1c0 .1 0 .1 0 0 .1.1 0 .1 0 0M277.6 82.7c0-.1 0-.1 0 0 0 0 0-.1 0 0M277.3 82.9c0-.1 0-.1 0 0 0-.1 0-.1 0 0zM265.8 82.9s-.1 0 0 0M275.4 83.9h.2-.1c-.1-.1-.1-.1-.1 0"/></g><g><path class="st0" d="M180.9 61h.8c.1 0 .4.1.6.1.3-.1.7-.1.9 0h.7c.2.1.4.1.6.2.2.1.4.1.6.1.2 0 .3 0 .4-.1.1 0 .4.1.5.1h.1c.2 0 .2.2.3.3h.2c.1 0 .3.1.4.1h.3c.1 0 .2.2.3.2h.5c.1 0 .2.1.3.2.1 0 .1 0 .2.1s.2.2.3.2c.2.1.5 0 .6.1.1 0 .1.1.2.1.1.1.2.1.3.1.1 0 .1.1.2.1h.2c.2.1.4.2.6.4.1.1.3.1.4.2.1 0 .1.1.2.1h.2c.1 0 .2.1.3.1.1 0 .1.1.2.2.1 0 .2.1.2.1.1.1.1.2.2.2.1.1.3.2.4.2.1 0 .2 0 .2.1l.1.1c.1 0 .2.1.2.1l.1.1c.1 0 .2.1.2.1l.2.2c.1.1.2.1.3.2.1.1.1.2.2.2s.1.1.2.1c0 .1.1.1.1.2l.2.2c.1.1.2.3.4.4.1.1.2 0 .3.1.1.1.3.3.4.5l.3.3c0 .1.1.1.1.2.1 0 .2.1.2.2.1.1.1.2.1.3 0 .1.1.1.2.2 0 0 0 .1.1.1.1.1.2.1.3.2.1.1.1.2.1.2l.2.2c.1.1.1.2.1.3 0 .1 0 .2.1.2l.2.2c.1.1.1.2.1.2.1.1.2.1.2.2s.1.2.1.3c0 .1.1.1.2.2 0 .1.1.1.1.2v.3c0 .1.1.1.2.2v.2c0 .1.1.1.1.2s0 .1.1.2.1.2.2.3c.1.1.1.3.2.4 0 .1.1.2.1.2l.1.1c0 .1 0 .2.1.3 0 .1.1.1.1.2v.2c.1.3.3.6.4 1 .1.2.1.3.1.5 0 .1.1.1.1.2v.2c0 .1.1.2.2.3.1.2 0 .4.1.6v.3c.1.3.1.7.2 1v.4c0 .1.1.3.1.4v.3c0 .1.1.2.1.3v1.6c0 .1.1.1.1.2v.3c0 .1.1.4.1.6 0 .1-.1.1-.1.2v.2c0 .1.1.2 0 .3 0 .1-.1.2-.1.3 0 .1.1.2 0 .2 0 .2-.1.5-.2.7v.6c0 .1 0 .4-.1.5v.3c0 .1-.1.1-.1.2v.2c-.1.1-.1.3-.2.4v.4c0 .1-.1.2-.1.3v.2c0 .1-.1.2-.2.3v.3c0 .1-.1.2-.1.2-.1.2-.1.3-.1.5-.1.2-.2.3-.3.5-.1.1-.1.3-.1.4v.2c0 .1-.1.2-.1.2v.2c-.1.2-.2.2-.3.4 0 .1 0 .2-.1.2 0 .1-.1.2-.2.3 0 .1 0 .1-.1.2 0 .1-.1.1-.1.2-.1.2-.2.4-.3.5-.2.3-.5.5-.7.7-.1.1-.1.2-.2.4l-.2.2c0 .1-.1.2-.1.2-.1.1-.2.2-.3.4-.1.1-.1.2-.1.3-.1.2-.3.2-.4.4l-.3.6-.3.3c-.2.2-.3.4-.6.6l-.2.2c-.1 0-.1.1-.2.1s-.1.1-.1.2l-.2.2s0 .1-.1.1c-.1.1-.2.1-.3.2l-.3.3c-.1.1-.3.1-.4.2-.1 0-.1.1-.1.2l-.2.2c-.1.1-.2.3-.4.4 0 0-.1 0-.1.1-.1.1-.2.1-.3.2-.1 0-.1 0-.2.1-.2.1-.4.3-.6.4-.1 0-.2 0-.2.1-.2.1-.3.2-.5.3h-.2c-.1 0-.1.1-.2.1s-.2 0-.2.1c-.1.1-.2.2-.4.3h-.2c-.1 0-.1.1-.2.1h-.2c-.2.1-.5.2-.7.2h-.2c-.1 0-.2.1-.4.2-.1 0-.2.1-.3.1-.1 0-.1.1-.2.1h-.2c-.1 0-.3.1-.4.1h-.2c-.1 0-.2.1-.4.2h-.4c-.1 0-.2 0-.3.1-.2.1-.2.2-.4.2h-.4c-.1 0-.3 0-.4.1h-.2c-.1 0-.2.1-.2.1-.1 0-.2-.1-.3 0h-.4c-.2 0-.4.1-.5 0-.1 0-.5-.1-.6 0-.1 0-.2.1-.3.1h-.3c-.1 0-.1 0-.2.1h-1.1c-.1 0-.4-.1-.5-.1h-.5c-.1 0-.4.1-.6.1-.2-.1-.4-.2-.6-.2-.3-.1-.6 0-.9 0-.1 0-.3-.1-.4-.1-.1-.1-.3-.2-.4-.3-.1 0-.3-.1-.4 0h-.2c-.1 0-.3-.1-.4-.1h-.2c-.1 0-.1-.1-.2-.1h-.1c-.1 0-.1-.1-.2-.1-.2 0-.4 0-.5-.1-.1 0-.1-.2-.2-.2h-.2c-.1 0-.1-.1-.2-.1s-.1 0-.2-.1c-.2-.1-.3-.3-.5-.3-.1 0-.2 0-.3-.1-.1 0-.1-.1-.2-.1h-.2c-.1 0-.1-.1-.2-.2h-.2c-.1 0-.1-.1-.2-.1-.2-.1-.3-.1-.5-.2-.1 0-.1-.1-.2-.2-.1 0-.1-.1-.2-.1-.1-.1-.1-.2-.2-.2-.1-.1-.3-.1-.4-.2-.1-.1-.1-.2-.2-.2-.1-.1-.2-.1-.3-.1v-.1c-.1-.1-.2-.2-.3-.2-.1-.1-.2-.1-.3-.1-.1-.1-.2-.3-.3-.4-.1-.1-.2-.1-.3-.2l-.3-.3c-.1 0-.1-.1-.2-.1-.1-.1-.1-.2-.2-.3-.1 0-.1-.1-.1-.1-.1-.1-.1-.1-.1-.2-.1-.1-.1-.2-.2-.3-.1-.1-.2-.1-.3-.2-.1-.1-.1-.2-.2-.3l-.3-.3c-.1-.1-.2-.1-.3-.2-.1-.1-.1-.2-.2-.3 0-.1-.1-.1-.2-.2s-.1-.2-.2-.3c0-.1-.1-.1-.2-.2s-.1-.2-.2-.3l-.2-.2c0-.1-.1-.2-.1-.2 0-.1-.1-.1-.2-.2 0 0 0-.1-.1-.1 0-.1-.1-.1-.2-.1l-.1-.1-.2-.2c-.1-.1-.1-.2-.1-.3 0-.1-.1-.1-.2-.2 0-.1-.1-.2-.1-.3 0-.1-.1-.1-.1-.1-.1-.1 0-.3-.1-.4-.1-.1-.2-.2-.3-.4-.1-.1 0-.2-.1-.3-.1-.1-.2-.2-.2-.3-.1-.1 0-.3-.1-.4-.1-.2-.2-.3-.2-.4-.1-.1 0-.3-.1-.5 0-.1-.1-.2-.2-.3v-.3c0-.2-.1-.4-.2-.6v-.3c-.1-.4-.2-.8-.4-1.2V85c-.1-.1-.1-.3-.2-.4-.1-.2-.1-.5-.1-.8v-.5c0-.1-.1-.2-.1-.3v-.7c0-.2.2-.4.1-.6-.1-.2-.1-.5-.1-.8v-.2c0-.1.1-.4 0-.5-.1-.3-.1-.6 0-.8v-.2c0-.1.1-.1.1-.2s0-.3.1-.4v-.7c0-.1.1-.2.1-.3v-.4c0-.1.1-.2.1-.3v-.2c.1-.3.1-.6.2-.9 0-.1.1-.1.1-.2v-.2c0-.1.1-.2.1-.3 0-.1 0-.2.1-.3 0-.1.1-.2.1-.2 0-.1.1-.1.1-.2v-.2c0-.1.1-.2.1-.2v-.2c0-.1.1-.3.2-.4 0-.1 0-.1.1-.2 0-.1.1-.1.1-.2.1-.1.1-.2.1-.3 0-.1.1-.1.2-.2s.1-.2.1-.3l.2-.2c0-.1 0-.2.1-.2.1-.1.2-.2.2-.3.1-.1.1-.4.1-.5 0-.1.2-.1.2-.2s.1-.1.1-.2.1-.1.2-.2c0-.1 0-.2.1-.2.1-.1.2-.2.3-.4 0-.1 0-.2.1-.2 0-.1.1-.1.2-.2v-.1c.1-.1.1-.2.2-.2 0-.1.1-.2.1-.3.1-.1.2-.2.3-.4v-.1c.1-.1.2-.1.2-.2.1-.1.2-.1.2-.2l.2-.2c.1-.1.2-.1.3-.2.1-.1.1-.2.1-.3.1-.2.3-.4.5-.5.1-.1.1-.2.2-.3.2-.1.3-.3.5-.4l.1-.1c.1-.1.3-.2.4-.3l.2-.2c.1-.1.3-.1.4-.2l.2-.2c.1 0 .1-.1.2-.1l.1-.1c.1 0 .1 0 .2-.1s.3-.2.4-.3h.1l.3-.3c.1 0 .2 0 .3-.1.1 0 .1-.1.2-.2s.3-.1.4-.1c.2-.1.4-.3.6-.4.1 0 .1 0 .2-.1.2-.1.3-.2.5-.2.1 0 .1 0 .2-.1.2-.1.3-.2.5-.3.1-.1.3-.1.4-.1.1 0 .3-.1.4-.2h.3c.1 0 .3-.1.5-.1.1 0 .2-.1.3-.1h.3c.2-.1.4-.2.7-.3.2 0 .3.1.5 0 .2 0 .3-.1.5-.2h.4c.1 0 .1 0 .2-.1h.2c.1 0 .2-.1.2-.1h.4c.3-.1.6-.1.9-.2h.2c.4-.1.9-.2.9-.2"/><path class="st1" d="M170.5 78.8c.1 0 .3-.1.4-.2.1-.1.4-.2.6-.2.2 0 .3-.1.5-.2s.3-.1.4-.1c.4 0 .5-.1.8-.2h.3c.1 0 .2-.1.3-.1.1 0 .3-.1.4-.1.2 0 .4 0 .6.1.1 0 .2 0 .2-.1h.2c.1 0 .1-.1.2 0H175.7c.1 0 .3.1.5.1H176.8c.2 0 .4.1.5.1h.4c.1 0 .1.1.2.1s.2.1.3.1c.2.1.4.1.6.2.1 0 .1.1.2.2s.2.2.4.2c.1.1.2 0 .3.1l.3.3c.1.1.2 0 .3.1.1.1.2.2.3.2.1 0 .2 0 .3.1.1 0 .2.1.3.2.1.1.1.2.1.2.1.1.2.1.2.2.1.1.1.2.1.2l.4.4c.1.1.1.2.1.3.1.1.2.1.2.2s0 .1.1.2.2.1.3.2c0 .1.2.3.2.3v.1c0 .1 0 .2.1.2 0 .1.1.1.2.2s.1.2.2.2h1.3s.1-.1.1-.2-.1-.1-.1-.2-.1-.3-.1-.4v-.2c0-.1-.1-.2-.2-.3-.1-.2-.2-.4-.2-.6v-.2c0-.1-.1-.1-.1-.2V79.4l-.3-.6c-.1-.1-.1-.3-.1-.4v-.1c0-.1-.1-.2-.1-.3l.1-.1H186.2c.1 0 .3.1.5.1h1.2l.1-.1v-.4c0-.1.1-.2.1-.3 0 0-.1-.1 0-.2 0-.1.1-.2 0-.4 0-.1-.1-.2-.1-.3 0-.1 0-.2.1-.3V74.3c0-.1-.1-.1-.1-.2 0 0 0-.1.1-.2v-.4c0-.2.1-.4 0-.6 0-.1.1-.2 0-.4 0-.1 0-.1-.1-.2v-.4c0-.1-.1-.1-.1-.2 0 0 0-.1.1-.2v-.8c0-.1-.1-.3 0-.4 0-.2.1-.3.1-.5v-.1c0-.1-.2-.1-.2-.2v-.4c0-.1.1-.1.1-.2-.1-.1-.1-.3-.1-.4.1 0 .1-.1.2-.2 0-.1 0-.1.1-.2 0-.1.1-.1.2-.1h.1c.1 0 .1.2.3.2.1-.1.2-.1.3-.1.1-.1.1-.2.3-.3.2 0 .4.1.5.1h.4c.2-.1.2-.3.4-.3.2-.1.2.2.4.2.1 0 .2-.1.3-.2.1 0 .2 0 .2-.1.1-.1.2-.2.4-.2.1.1.2.1.3.1.1-.1.3-.2.4-.2H193.6c.2 0 .3-.1.4-.1.2-.1.6 0 .6-.2v-.1l-.1-.1c-.1 0-.1 0-.2-.1l-.2-.2c-.1 0-.1 0-.2-.1-.1 0-.1-.1-.2-.2-.1 0-.1-.1-.2-.1l-.3-.3c-.1-.1-.3-.1-.4-.2-.1-.1-.2-.3-.3-.4-.1 0-.1 0-.2-.1-.1 0-.2-.1-.3-.2-.1 0-.2 0-.2-.1-.1-.1-.2-.2-.3-.2-.1 0-.1 0-.2-.1l-.1-.1c-.1 0-.1 0-.2-.1-.1 0-.2-.1-.3-.1-.1-.1-.2-.1-.3-.2-.1 0-.1-.1-.2-.2s-.3-.1-.4-.1c-.1 0-.2-.1-.3-.2h-.2c-.1 0-.1-.1-.2-.1h-.1c-.1 0-.2-.2-.3-.2-.1 0-.2-.1-.2-.1h-.2c-.1 0-.1-.1-.2-.1h-.3c-.1 0-.2-.1-.3-.1h-.1c-.2-.1-.3-.2-.5-.3h-.3c-.1-.1-.3-.1-.5-.2h-.4c-.1 0-.1-.1-.2-.1h-.3c-.1 0-.2-.1-.3-.2h-.4c-.2-.1-.5-.1-.8-.1-.2 0-.4.1-.5 0-.1 0-.1-.1-.2-.1h-.7c-.1.1-.3 0-.4.1-.3.1-.6 0-.9 0H180.7c-.1 0-.2 0-.3.1-.2.1-.5.1-.7.1h-.5c-.1 0-.2 0-.2.1-.2 0-.4 0-.5.1-.1 0-.1.1-.2.1h-.3c-.3.1-.6.1-.8.2h-.5c-.1 0-.2.1-.3.1h-.2c-.1 0-.1.1-.2.1h-.2l-.1.1c-.1 0-.2 0-.2.1l-.1.1h-.3c-.1 0-.2.1-.2.1h-.2c-.3.1-.5.3-.8.5-.1 0-.2.1-.3.1-.1 0-.2.1-.3.2h-.2c-.1.1-.2.2-.3.2h-.2c-.1 0-.1.1-.2.1-.2.1-.5.2-.7.3-.1.1-.1.2-.2.2s-.1.1-.2.1c-.1.1-.2.2-.2.3-.1.1-.3.2-.4.2-.1 0-.1.1-.2.1s-.2 0-.3.1c-.1 0-.1.1-.1.2-.1.1-.2.1-.2.2-.1.1-.1.2-.2.2-.2.1-.4.2-.6.4-.1.1-.1.2-.2.3-.1.1-.2.2-.3.4-.1.1-.2.2-.3.2-.1.1-.2.2-.3.2-.1.1-.2.3-.3.4-.1.1-.2.1-.2.1-.1 0-.1.1-.1.2l-.2.2c-.1.1-.2.3-.3.5-.1.1-.2.2-.2.3-.1.1-.1.2-.1.3l-.1.1c0 .1-.1.2-.2.2-.1.1-.2.1-.3.2-.1.1-.1.4-.2.5 0 .1-.1.1-.2.2v.2c0 .1-.1.1-.1.2s-.1.1-.1.2c-.1.2-.2.3-.3.5v.2c0 .1-.1.1-.1.2-.1.1-.1.2-.1.4-.1.2-.2.4-.3.5-.1.2-.2.5-.3.7 0 .1-.2.2-.2.3v.2c0 .1-.1.2-.1.3v.2c-.1.2-.2.3-.2.5 0 .1 0 .3-.1.4l-.1.1c0 .1 0 .1-.1.2l-.1.1v.2c0 .1-.1.1-.1.2 0 .2.1.4.1.5 0 0 0 .1-.1.1v.2c0 .1 0 .1-.1.2v.7c0 .2-.2.4-.2.6v.7c-.1.3 0 .7-.1 1 0 .1.1.2 0 .4 0 .2-.1.4-.1.5v.3c0 .1-.1.2 0 .2 0 .1.1.1.1.2v.2c0 .1.1.2.1.3v.6c0 .1.1.1.1.2v.2c0 .2.1.4.1.6v.2c0 .2.1.4.2.5v.3c0 .1 0 .2.1.2v.4c0 .1 0 .2.1.2 0 .1.1.2.2.3 0 .1 0 .1.1.2 0 .1.1.1.1.2v.2c0 .1.1.1.2.2v.2c0 .1.1.5.2.6.1 0 .1 0 .2.1.1 0 .1 0 .2.1H166.6c.1 0 .1-.1.2-.1H167.7c.2.1.4.1.6.1h.3c.2-.1.4-.1.7-.1h.2c.1 0 .1 0 .2.1h1.5l.1-.1c-.1-.1 0-.2 0-.3v-.4c-.1-.1-.2-.1-.3-.2-.1 0-.3 0-.4-.1-.1 0-.2-.1-.3-.1-.1 0-.2.1-.3 0l-.1-.1h-.3c-.1-.1-.3-.2-.4-.2-.1 0-.2 0-.3-.1 0 0-.1-.1-.2-.1h-.2c-.1 0-.1-.1-.2-.1s-.2 0-.4-.1c-.1 0-.1-.1-.2-.2-.1 0-.2 0-.2-.1-.1 0-.2-.1-.2-.2h-.3c-.1 0-.1-.1-.2-.1-.1-.1-.2-.2-.3-.2-.1 0-.2-.1-.2-.1-.1 0-.1 0-.2-.1s-.2-.3-.3-.4c-.1-.1-.2-.1-.3-.2-.1-.1-.2-.3-.3-.4l-.3-.3c0-.1-.1-.1-.1-.2l-.2-.2-.1-.1c-.1-.1-.2-.1-.2-.2s-.1-.2-.1-.2V83c0-.1-.1-.1-.1-.2l.1-.1h.2c.2.1.5 0 .8 0h.3c.1 0 .6.1.8 0 .1 0 .1 0 .2-.1h.5c.1 0 .2 0 .3.1.2.1.5 0 .6 0 .2-.1.2-.4.3-.6 0-.1 0-.3.1-.4.1-.1.3-.2.4-.3.1-.1.1-.2.1-.2s.1 0 .1-.1l.2-.2.1-.1c.2-.2.3-.4.5-.6 0-.1.1-.1.2-.1.1-.1.1-.2.2-.2.1-.1.2-.1.3-.1.1-.1.1-.2.2-.3 0-.1.1-.1.2-.2.1 0 .1-.1.1-.2-.5-.3-.5-.3-.4-.3"/><path class="st1" d="M194.7 67.5c-.1.1-.4.1-.6.2-.1 0-.2.1-.3.1h-.8c-.2.1-.4.1-.7.2-.3.1-.5 0-.7.2v.1c0 .1.1.1.1.1.4 0 .5-.2.8-.3h.3c.1 0 .2-.1.3 0h.2c.2 0 .4-.1.5-.2.3-.1.7-.1 1.1-.2v-.1l-.1-.1-.1-.1zM195.5 68.4c-.1.1-.3.1-.4.1h-.2c-.1 0-.2 0-.4.1-.2 0-.3 0-.5.1-.2 0-.4.1-.6.1h-.3c-.3.1-.5.1-.7.2-.2.1-.7 0-.8.2v.2c0 .2.1.4.1.6 0 .2-.1.5-.1.7v1s-.1.1 0 .2c0 .1.1.1.1.3v.8c0 .1 0 .1.1.2V74c0 .1.1.4.1.5v1.6c0 .1.1.2 0 .3v1.5l.1.1h2.1c.1 0 .1.1.2 0h.4c.1 0 .2-.1.3-.1.1 0 .2 0 .3.1h.7c.2 0 .3-.1.5 0 .1 0 .2.1.2.1h.5c.2 0 .3 0 .4-.1.2 0 .4 0 .6.1h.5s0 .1.1.1c0 .1-.1.2-.1.2v.3c0 .1-.1.2-.2.2-.1.1-.1.2-.1.3l-.1.1v.3c0 .1 0 .2-.1.2v.5c-.1.2-.1.4-.2.5v.2c0 .1-.1.2-.1.3v.2c0 .1-.1.1-.1.2v.2c0 .1-.1.2-.1.3v.3c-.1.1-.2.3-.3.4-.1.1-.1.3-.1.4 0 .1-.1.1-.1.2v.2c0 .1-.1.1-.1.2v.2c-.1.2-.3.3-.5.5-.2.3-.4.5-.7.7-.1.1-.2.2-.2.3-.1.1-.2.2-.4.2l-.2.2c-.1.1-.2.1-.3.1-.1.1-.2.2-.3.2-.1 0-.2.1-.3.1-.2.2-.2.6-.2.9v.4c0 .2 0 .3.1.4h.4c.1-.1.5 0 .6 0H195.4c.2 0 .4 0 .6-.1h1.8c.2 0 .4-.1.6 0 .3.1.7.1 1 0 0-.1.1-.1.1-.2v-.3c.1-.1.1-.2.2-.3V87c0-.1.1-.2.2-.3v-.3c0-.1.2-.2.2-.4v-.3c0-.1.1-.2.1-.3 0-.1 0-.2.1-.3 0-.1.1-.2.1-.2v-.2c0-.1 0-.2.1-.3V84c0-.1.1-.2.1-.3v-.4c0-.1.1-.2.1-.3v-.4c0-.2-.1-.4-.1-.5 0-.2.1-.4.1-.6v-.3c0-.1 0-.2.1-.3 0-.2 0-.4-.1-.5v-.3c0-.1-.1-.1-.1-.2s.1-.2.1-.3v-.2c0-.3 0-.5-.1-.7v-.3c0-.1 0-.1-.1-.2v-.5c0-.1-.1-.1-.1-.2V77c0-.1 0-.3-.1-.4 0-.1-.1-.2-.1-.2v-.2c0-.1-.1-.1-.1-.2s0-.3-.1-.4c0-.1-.1-.2-.2-.3 0-.1 0-.2-.1-.3-.1-.2-.1-.3-.2-.5-.1-.1 0-.3-.1-.4 0-.1-.1-.1-.2-.2 0-.1 0-.1-.1-.2 0-.1-.1-.1-.1-.2v-.2c0-.1-.1-.1-.1-.2s0-.2-.1-.2c0-.1-.1-.1-.1-.2-.1-.1-.1-.2-.2-.3v-.2c0-.1-.1-.2-.2-.2v-.2c0-.1-.1-.1-.1-.1-.1-.1-.1-.2-.1-.3l-.3-.3c-.1-.1-.1-.2-.1-.2l-.2-.2c0-.1 0-.2-.1-.2-.1-.2-.3-.3-.4-.5-.1-.1-.1-.3-.2-.4l-.1-.1-.1-.1-.3-.3c-.1-.1-.2-.2-.2-.3-.1-.1-.1-.2-.2-.2-.2-.1-.3-.2-.4-.2M190.9 68.3c-.1.1-.3 0-.4.1l-.1.1c0 .1.1.1.1.1h.4c.1-.1.1-.1.1-.2 0 0-.1 0-.1-.1zM189.7 68.6c-.1.1-.3.1-.4.1v.1l.1.1c.2 0 .3 0 .5-.1 0-.1.1-.1.1-.2l-.1-.1h-.2zM188.4 68.8c-.1.1-.2 0-.3.1-.1 0-.1.1-.1.1s0 .1.1.1c.1-.1.4 0 .4-.2.1-.1.1-.1-.1-.1M190.9 69.1c-.1.1-.3 0-.4.2-.1.1-.1.5-.1.6 0 .1.1.2.1.3 0 .1-.1.2-.1.3v.8c0 .1.1.2.1.3v.2c0 .1.1.3 0 .4 0 .1-.1.2-.1.3v.3c0 .1 0 .1-.1.2v.6c0 .1 0 .1.1.2v2.5c0 .1.1.4.1.5v.5c0 .2-.1.5 0 .7 0 0 .1 0 .1.1.2 0 .6.1.7 0 .1-.1 0-.1 0-.2v-1.3c0-.1 0-.1-.1-.2v-2.3c0-.1.1-.3.1-.4v-.3c0-.2.1-.3 0-.5V72c0-.1 0-.1-.1-.2V70.9c0-.1.1-.2.1-.3v-1.2c-.2-.3-.2-.3-.4-.3.1 0 .1 0 0 0M189.4 69.3s-.1 0-.1.1l-.1.1v.7c0 .1.1.2.1.4v.8c-.1.3-.1.7 0 .9v.5c0 .2-.1.4 0 .7 0 .1 0 .1.1.2v1.6c0 .1-.1.1-.1.2s0 .3.1.4v.3c0 .1.1.2 0 .3 0 0-.1.1 0 .2 0 0 0 .1.1.1v.5c0 .1 0 .1.1.2v.6h.5l.1-.1c0-.3.1-.6 0-.8v-.3c0-.1-.1-.3-.1-.4V75c0-.1.1-.2.1-.3v-.8c-.1-.2-.1-.5-.2-.7-.1-.3.1-.5.2-.7 0-.2 0-.4-.1-.5v-.5c0-.2.1-.3.1-.5 0-.1-.1-.1-.1-.2s.1-.2 0-.4c0-.1-.1-.2 0-.3 0-.1.1-.3.1-.4V69.4c0-.1-.1-.1-.1-.1h-.7M188.5 69.6c-.1.1-.3.1-.4.3 0 .1.1.2 0 .3 0 .2-.2.3-.2.5 0 0 0 .1.1.1v.4c0 .1.1.2.1.3v.7c-.1.2-.1.4-.1.7v.2c0 .1.1.5.1.7 0 .1-.1.2-.1.4v1.9c0 .1.1.2.1.3V77c0 .1-.1.2-.1.3v.6h.4s.1 0 .1-.1c.1-.1 0-.5.1-.7v-1.2c0-.1-.1-.2-.1-.3.1-.3.2-.6.1-.9v-.2c0-.1-.1-.2-.1-.3v-.8c0-.1.1-.2.1-.2V73c0-.1.1-.2.1-.3 0-.1 0-.2-.1-.3V72c0-.1-.1-.3-.1-.5v-.4c0-.1.1-.2.1-.3 0-.2-.1-.3-.2-.4v-.2c0-.1-.1-.2 0-.4 0-.1.1-.2.1-.3 0 0 0-.1-.1-.1h.1zM176.1 78.1c-.2.2-.3 0-.6 0v.1c.1.2.3.2.4.3.1 0 .1.1.2.1s.2 0 .2.1c.1 0 .1.1.1.1.1.1.3.1.4.2.2.1.3.3.5.4.1.1.2.1.3.2.1 0 .2 0 .2.1.1.1.1.2.2.3.3.2.5.4.7.6l.1.1.2.2c.1.1.1.2.2.2.1.1.2.1.3.2.1.1.1.3.2.4.1.1.1.1.2.1 0 .1.1.1.1.2.1.2.3.4.5.4h.2c.1 0 .3.1.3 0v-.1c-.1-.1-.3-.2-.4-.4 0-.1-.1-.2-.1-.3-.1-.1-.3-.2-.4-.3-.1-.2-.2-.5-.3-.6l-.2-.2c-.1 0-.1-.1-.1-.1-.1 0-.2-.1-.2-.1l-.2-.2c-.1 0-.1-.1-.2-.1s-.1-.1-.2-.2-.2-.2-.2-.3c-.1 0-.1 0-.2-.1-.1 0-.1-.1-.2-.2-.1 0-.1 0-.2-.1l-.2-.2c-.1-.1-.2-.1-.2-.1-.1 0-.1-.1-.2-.2s-.2-.1-.3-.1c-.1-.1-.1-.2-.2-.2-.1-.1-.3-.1-.4-.1 0 0-.1-.1-.3-.1"/><path class="st1" d="M173.8 78.2h-.1c-.1 0-.1.1-.2.1h-.2v.1l.1.1h.2c.1 0 .1.1.2.1h.2c.1 0 .2.1.3.1.1.1.2.1.3.2.1 0 .3 0 .4.1.2.1.3.2.4.4.1.1.2.1.3.2.2.1.3.3.5.4.1 0 .1.1.2.1s.1.1.2.2.2.1.3.2c.1.1.1.2.2.2l.2.2c.1.1.1.2.2.2.2.1.5.3.6.5.1.1.1.2.2.3l.3.3c.1.1.1.2.2.3h.2c.2 0 .7 0 .7-.1v-.1c-.2-.1-.1-.3-.3-.5 0-.1-.1-.1-.1-.1-.1-.2-.3-.3-.4-.5 0-.1-.1-.1-.2-.1l-.1-.1c-.1-.1-.2-.1-.4-.2-.1-.1-.1-.2-.2-.3-.1-.1-.3-.1-.4-.2-.1-.1-.3-.2-.4-.3-.1-.1-.1-.2-.2-.2-.1-.1-.2-.1-.3-.2-.1 0-.1 0-.2-.1l-.2-.2c-.1-.1-.2-.1-.3-.2-.2-.2-.5-.3-.8-.5h-.3c-.1 0-.1-.1-.1-.1-.1 0-.1 0-.2-.1l-.1-.1h-.1s-.1 0-.1-.1h-.5M178.4 78.6v.1c.1 0 .2.1.3.1l.2.2c.1.1.2.1.2.2.1.1.1.2.2.3.1.1.3.2.4.2.1 0 .1 0 .2.1.2.1.3.4.4.5.1 0 .1.1.2.1.1.1.1.2.2.3.1.1.3.2.4.4 0 .1 0 .1.1.2s.2.2.2.3c.1.1.1.2.1.3 0 .1.1.1.2.2s.2.3.3.4c.1.1.4 0 .6 0 0 0 0-.1.1-.1-.1-.1-.1-.2-.1-.4 0-.1-.1-.1-.1-.2s0-.2-.1-.3c-.1-.1-.2-.1-.2-.2-.1-.1-.1-.2-.1-.2-.1-.2-.4-.3-.6-.5-.1-.1-.1-.1-.1-.2-.1-.1-.2-.2-.4-.3-.1-.1-.1-.2-.2-.2l-.3-.3c-.1-.1-.2-.1-.4-.2-.1-.1-.2-.1-.3-.2h-.2l-.1-.1c-.1 0-.2-.1-.2-.1l-.1-.1c-.1-.1-.2 0-.3-.1-.3-.1-.4-.2-.5-.2M172.1 78.8c-.1.1-.3.2-.4.2-.1 0-.2 0-.3.1-.1.1-.2.2-.3.2-.1 0-.2 0-.3.1-.1 0-.1.1-.1.1-.1.1-.2.1-.2.1l-.3.3c-.1.1-.1.2-.2.2-.2.1-.3.2-.5.3-.1.1-.1.2-.2.3-.1 0-.1.1-.2.2l-.3.6c-.1.2-.3.3-.4.5-.1.1-.1.2-.1.2 0 .1-.1.2-.1.3.1.1.2.1.3.1.4.1.4-.2.5-.4.1-.1.2-.1.2-.2.1-.1.1-.2.2-.3.1-.2.3-.3.4-.4.1-.1.1-.3.2-.4.1-.1.2-.2.4-.3.2-.1.3-.3.5-.5.1-.1.3-.2.4-.3.1-.1.2-.2.3-.2.1 0 .2 0 .2-.1l.3-.3c.1 0 .2 0 .2-.1.1 0 .1-.1.2-.1.1-.1.2-.1.2-.2h-.6"/><path class="st1" d="M173.5 79.2c-.1.1-.2 0-.3 0-.1 0-.1 0-.2.1-.1 0-.1.1-.2.1-.1.1-.2.1-.3.2l-.1.1c-.1 0-.1 0-.2.1-.2.1-.3.1-.5.2l-.3.3c-.1 0-.1 0-.2.1-.1 0-.1.1-.2.1s-.1 0-.2.1-.1.2-.2.3c-.1.1-.3.2-.4.3-.1.1-.1.2-.1.3-.1 0-.1.1-.2.1-.1.1-.2.2-.3.4l-.1.1c0 .1 0 .2-.1.2 0 .1-.1.1-.1.2 0 0 0 .1.1.1h.2c.1 0 .3.1.4 0 0 0 .1 0 .1-.1.1-.1.1-.2.1-.3.1-.1.2-.1.2-.2.1-.1.1-.2.1-.3.1-.2.4-.2.5-.3.1-.2.3-.4.4-.5.1-.1.3-.1.5-.2s.3-.4.5-.5c.1-.1.2-.1.4-.1.1 0 .2-.1.3-.2.1 0 .1 0 .2-.1.1 0 .1-.1.2-.1.1-.1.3 0 .4-.2 0-.2-.1-.3-.4-.3M174.9 79.8c-.2.1-.5 0-.6.1-.1 0-.1.1-.1.1-.1 0-.2.1-.3.1-.1.1-.2.1-.2.2-.1 0-.2 0-.2.1-.1 0-.2.1-.3.2 0 0-.1 0-.1.1-.1 0-.2.1-.3.2-.1.1-.2.3-.3.3-.1.1-.2.1-.3.2-.1.1-.1.2-.1.2-.1.1-.3.2-.4.3 0 .1-.1.1-.1.2-.1.1-.2.1-.2.2v.2c.1 0 .1.1.3 0h.6l.3-.3c.1-.1.3-.2.4-.3.1-.1.1-.3.2-.4.1-.1.2-.1.3-.2l.2-.2c.1-.1.3-.1.4-.2.1 0 .1-.1.2-.1s.1-.1.2-.1l.1-.1c.1 0 .2 0 .2-.1.1-.1.3-.2.4-.3.1 0 .3 0 .4-.2v-.1c-.5.1-.6-.1-.7-.1"/><path class="st1" d="M175.9 80.6c-.1.1-.3 0-.4.1-.1 0-.1.1-.2.1h-.2c-.1 0-.1.1-.2.1h-.2c-.1 0-.2.2-.3.2h-.1c-.1 0-.1.1-.2.1-.1.1-.2.1-.3.1-.1.1-.2.1-.2.2h-.1c-.1 0-.1.1-.2.1-.2.1-.3.2-.5.4 0 0-.1.1-.1.2.1.1.2.1.4.1s.4.1.7.1h.2c.2 0 .3-.2.4-.3.2-.1.4-.1.5-.2l.2-.2c.1-.1.2-.1.3-.1.1-.1.2-.2.3-.2.1-.1.2-.1.3-.1.2 0 .4.1.4-.2 0-.2-.1-.5-.5-.5M176.9 81.6c-.1 0-.2.1-.3.1h-.1c-.1 0-.3.2-.4.3-.1.1-.2.1-.3.1-.1 0-.2.2-.3.2-.1.1-.2.1-.3.2 0 0 0 .1.1.1.1.1.4 0 .5 0h.2c.1 0 .1-.1.2 0 .1 0 .2.1.3 0 .2 0 .4-.1.6 0h.6l.1-.1c0-.1-.1-.2-.1-.2-.1-.1-.4-.5-.5-.5-.2-.2-.2-.2-.3-.2M186.1 85h-.1c-.1 0-.1.1-.2.2h-.1c-.1 0-.2.1-.3.1l-.3.3c-.2.1-.4.1-.6.2-.2.1-.3.3-.5.3-.2.1-.3.1-.5.1-.1 0-.2.1-.3.1-.1 0-.2.1-.3.1-.1 0-.1.1-.2.1h-.3c-.1 0-.3.1-.4.2h-.2c-.1 0-.1.1-.2.1-.2.1-.4 0-.5 0-.1 0-.2.1-.3.1h-.5l-.1.1v.3c0 .1-.1.3-.1.5l.1.1h.4c.1 0 .3-.1.5-.1s.4 0 .5.1c.1 0 .2.1.3.1.1 0 .1-.1.2-.1H182.7c.1 0 .2.1.4.1h.8c.1 0 .2-.1.2 0h.5c.1 0 .1 0 .2.1H185.7c.3-.1.5.1.7 0h1.3c.2 0 .3.1.4-.1v-1c0-.1.1-.2 0-.3-.1-.2-.4-.2-.6-.3-.1 0-.1-.1-.2-.2-.1 0-.1-.1-.2-.1l-.3-.3c-.1 0-.1-.1-.2-.1l-.2-.2-.1-.1c0-.2 0-.4-.2-.4"/><path class="st2" d="M179.8 64.2c.4 0 .7.1 1 .3.1 0 .1.1.2.2s.2.1.3.1c0 0 0 .1.1.1.1.2.2.3.3.5v.4c.1.2 0 .4 0 .6 0 .2-.2.3-.3.4-.1.1 0 .2-.1.3-.1.1-.3.2-.5.3-.1 0-.2.1-.3.2-.1.1-.3.1-.5.2s-.2.3-.4.4c-.1.1-.2.1-.3.1h-.2c-.1.1-.1.2-.3.1V68.1c0-.1-.1-.1-.1-.2s0-.1-.1-.2-.2-.2-.2-.3c-.1-.1-.1-.3-.2-.5 0-.1-.1-.1-.2-.2s-.2-.2-.2-.4c-.1-.1-.1-.2-.1-.4v-.2c0-.1-.1-.1-.1-.2-.1-.2-.1-.4 0-.6v-.1c0-.1.2-.3.3-.3.1-.1.3-.1.4-.1.1-.1.2-.2.4-.3h.2c.1 0 .1 0 .2-.1h.3c.1 0 .2 0 .3-.1-.1.3 0 .4.1.3M174.6 66.1c.2 0 .4 0 .5.1h.3c.2.1.4.2.5.2.1 0 .1.1.2.1.1.1.3.3.3.4v.3c0 .1.1.3.1.4v.2c0 .1.1.1.2.2 0 .1 0 .2.1.3.1.1.2.3.3.4-.2.2-.5.2-.8.2-.3 0-.5 0-.8-.1-.1 0-.1-.1-.2-.1-.2-.1-.3-.1-.5-.1-.1 0-.2-.1-.3-.1-.1 0-.1 0-.2-.1s-.1-.2-.3-.3c-.3-.2-.5-.4-.4-.8V67c0-.1.1-.2.2-.3 0-.1.1-.2.1-.2.1-.1.2-.1.2-.2l.1-.1c.2 0 .3 0 .4-.1M182.8 68c.2 0 .4 0 .6.1.1 0 .2.1.2.2h.2c.1 0 .2.2.3.2.1.1.1.2.2.3 0 0 .1 0 .1.1.1.1.1.2.2.3 0 .1.1.1.2.2v.6c0 .1-.1.2-.2.2 0 .1 0 .1-.1.2l-.1.1c-.1.1-.1.2-.2.2-.3.2-.7.2-1 .2h-.3c-.1 0-.3-.1-.4-.1-.1-.1-.2-.1-.2-.2h-.2c-.1 0-.2-.1-.3-.2-.1 0-.2 0-.2-.1-.1-.1-.3-.2-.4-.3-.1-.1-.3-.1-.4-.2-.1-.1-.1-.2-.1-.2-.1-.1-.2 0-.2-.2.1-.1.4-.2.5-.3.1-.1.1-.2.1-.2.1-.1.2-.1.3-.2.1-.2.2-.3.4-.5h.3c.1 0 .2-.1.2-.1h.2c.1 0 .1 0 .2-.1h.1M175.1 69.9c.2 0 .4 0 .6.1h.3c.2 0 .3.1.5.1h.2c.2 0 .3.1.4.2v.4c0 .1-.1.2-.1.2 0 .1 0 .2-.1.4 0 .1-.1.1-.1.2s-.1.1-.1.2c-.1.1-.2.2-.3.4 0 .1-.1.1-.1.2l-.1.1-.4.4c-.1 0-.1.1-.2.1h-.1c-.1 0-.1.1-.2.1-.1.1-.4 0-.5 0h-.2c-.1 0-.1-.1-.2-.2-.1 0-.1-.1-.2-.1-.1-.1-.1-.2-.2-.3-.1-.1-.2-.2-.2-.3v-.3c0-.1-.1-.3-.1-.4.1-.2.1-.6.3-.7l.2-.2.3-.3h.2c.1 0 .2-.1.3-.1.1 0 .1-.1.2-.1-.2-.1-.1-.1-.1-.1M179.2 70.6c.4 0 .6.2.8.4.1 0 .2.1.2.1.1.1.1.2.2.2.1.1.2.1.2.1.1.1.1.2.2.2s.1.1.2.1c.2.1.3.4.4.6.1.2 0 .5-.1.7 0 .1 0 .1-.1.2 0 .1-.1.1-.1.2v.2c0 .1-.1.1-.2.2s-.1.2-.2.3c-.1.1-.3.1-.4.2-.1 0-.2.1-.4.2s-.6 0-.7-.1l-.2-.2c-.3-.2-.5-.5-.6-.8v-1.3c0-.1.1-.1.1-.2v-.1l.1-.1c0-.1 0-.2.1-.3l.1-.1c.1-.1.1-.2.1-.3.2-.3.2-.3.3-.4"/><path class="st3" d="M168.3 72.3h.7c.2 0 .4.1.5.1l.3.3c.2.1.4.1.5.3.1.3-.1.5-.1.7 0 .1-.1.2-.1.3 0 .1-.1.1-.2.2s-.2.3-.3.4l-.2.2-.1.1c-.1.1-.3.5-.5.5-.2-.2-.4-.3-.6-.4-.1-.1-.1-.2-.2-.3h-.2c-.1 0-.1-.1-.2-.1h-.1c-.1-.1-.3-.4-.3-.5v-.5c0-.1.1-.2.1-.3.1-.2.1-.4.2-.5.1-.2.4-.3.7-.4 0 0 .1 0 .1-.1M171.7 74.3c.2 0 .3.1.5.1.1 0 .2 0 .2.1.2.1.2.3.3.5.1.2.2.4.1.6-.1.2-.5.5-.8.5h-.2c-.1 0-.1.1-.2.1h-.5c-.2 0-.2.1-.4.1-.2-.1-.3-.2-.4-.3.1-.1.2-.1.2-.2s0-.2.1-.3c0-.1.1-.1.1-.2v-.2c0-.1.1-.3.1-.4.1-.2.5-.3.7-.4h.2M165.9 74.8c.4 0 .5.1.7.3.1 0 .2 0 .3.1.1 0 .2.1.2.2.1.1.2.3.3.4.1.1.4.3.5.4-.1.1-.5.3-.6.3h-.2c-.1 0-.1.1-.2.1-.1.1-.2.1-.4.1-.1 0-.2.1-.3.1-.2.1-.4 0-.6 0h-.5c-.4-.2-.6-.7-.4-1.2 0-.1 0-.1.1-.2s.2-.1.3-.2c.2-.1.3-.3.5-.4h.3M168 77.1h.1c0 .1.1.1.1.2 0 .2.1.3.1.5 0 .1.1.1.1.2v.5c-.1.2-.2.4-.2.6v.2c0 .1-.1.1-.2.2-.2.2-.4.5-.8.4-.2 0-.3-.1-.4-.2-.1 0-.1-.1-.2-.1l-.3-.3c-.1-.1-.1-.2-.1-.4 0-.1-.1-.1-.1-.2v-.1c0-.1.1-.1.1-.2s0-.2.1-.3l.3-.3c.1-.1.1-.2.2-.3.1-.1.3-.1.5-.2.1 0 .1-.1.2-.1.2 0 .4 0 .5-.1M172 78.2c.2-.1.2-.1.3-.1 0-.1-.1-.1-.1-.2s-.2-.3-.3-.4c-.2-.2-.5-.4-.8-.5-.3-.1-.9-.1-1.3-.1-.2.2-.2.4-.1.7l.1.3c0 .1.1.2.2.2.1.1.1.2.1.3.1.1.1.1.2.3 0 .1.1.1.1.2 0 0 .1-.1.2-.1s.3-.1.4-.2c.1-.1.4-.2.6-.2l.4-.2"/></g><path style="fill:none" d="M0 0h301v157.4H0z"/></g></switch></svg>